<?xml version="1.0" encoding="UTF-8"?>
<svg id="Layer_1" data-name="Layer 1" xmlns="http://www.w3.org/2000/svg" version="1.1" viewBox="0 0 520 131">
  <defs>
    <style>
      .cls-1 {
        fill: #f7f7fb;
        stroke-width: 0px;
      }
    </style>
  </defs>
  <path class="cls-1" d="M148.2,52.2h-49.2v-8.7h7.6c3.1,0,4-1.8,2.2-4.4l-1.5-2h-36.8l-1.5,2c-1.9,2.6-.8,4.4,2.3,4.4h7.8v8.7h-36.9v-8.7h1.9c4.9,0,7.3-.9,10.3-4.8l18.3-24.2c1.8-2.4,1-4.4-2-4.4h-4.9V1.3h42.8l27.3,37.4c2.8,3.8,5.4,4.8,10.3,4.8h1.9v8.7ZM89.1,11.8l-12.1,16.6h24.2l-12.1-16.6Z"/>
  <path class="cls-1" d="M159.1,52.2v-8.7h8.1c3.6,0,4.7-.8,4.7-4.9V14.9c0-4.1-1.2-4.9-4.7-4.9h-8.1V1.3h50v8.7h-8.1c-3.6,0-4.7.8-4.7,4.9v28.6h23.5c10.1,0,12.9-5.6,13.6-15.6h11.6v24.3h-86Z"/>
  <path class="cls-1" d="M361.7,52.2h-49.2v-8.7h7.6c3.1,0,4-1.8,2.2-4.4l-1.5-2h-36.8l-1.5,2c-1.9,2.6-.8,4.4,2.3,4.4h7.8v8.7h-36.9v-8.7h1.9c4.9,0,7.3-.9,10.3-4.8l18.3-24.2c1.8-2.4,1-4.4-2-4.4h-4.9V1.3h42.8l27.3,37.4c2.8,3.8,5.4,4.8,10.3,4.8h1.9v8.7ZM302.5,11.8l-12.1,16.6h24.2l-12.1-16.6Z"/>
  <path class="cls-1" d="M471.5,9.9c-3.6,0-4.7.9-4.7,4.9v37.4h-27l-40.8-37.1v23.5c0,4.1,1.2,4.9,4.7,4.9h8.1v8.7h-39.2v-8.7h8.1c3.6,0,4.7-.8,4.7-4.9V14.9c0-4.1-1.2-4.9-4.7-4.9h-8.1V1.3h44.5l36.1,32.8V14.8c0-4-1.2-4.9-4.7-4.9h-8.1V1.3h39v8.6h-7.8Z"/>
  <path class="cls-1" d="M55.6,77.4c29,0,47.4,6.5,47.4,25.1s-18.4,25.8-47.4,25.8H2.5v-8.7h8.1c3.6,0,4.7-.8,4.7-4.9v-23.7c0-4.1-1.1-4.9-4.7-4.9H2.5v-8.7h53.1ZM53.1,86.1h-13.4v33.4h13.4c15.8,0,23.4-4.4,23.4-17.1s-7.6-16.4-23.4-16.4Z"/>
  <path class="cls-1" d="M114.7,102.9c0-19.8,19.9-27.5,49.1-27.5s49.1,7.7,49.1,27.5-19.9,27.5-49.1,27.5-49.1-7.7-49.1-27.5ZM163.9,121.6c15.8,0,22.7-6.4,22.7-18.8s-6.6-18.8-22.7-18.8-22.7,6.4-22.7,18.8,6.9,18.8,22.7,18.8Z"/>
  <path class="cls-1" d="M281.5,114.7c0,4.1,1.1,4.9,4.7,4.9h8.1v8.7h-50v-8.7h8.1c3.6,0,4.7-.8,4.7-4.9v-3.1l-24.2-21.8c-3.4-3.1-6.2-3.6-10.7-3.6h-1.7v-8.7h49.9v8.7h-6.3c-2.6,0-3.3,1.8-1.3,3.6l13.4,11.6,13.1-11.6c2-1.7,1.2-3.6-1.3-3.6h-6.3v-8.7h35.6v8.7h-1.7c-4.5,0-7,.6-10.4,3.6l-23.7,21.1v3.9Z"/>
  <path class="cls-1" d="M328.3,128.3v-8.7h8.1c3.6,0,4.7-.8,4.7-4.9v-23.7c0-4.1-1.2-4.9-4.7-4.9h-8.1v-8.7h50v8.7h-8.1c-3.6,0-4.7.8-4.7,4.9v28.6h23.5c10.1,0,12.9-5.6,13.6-15.6h11.6v24.3h-86Z"/>
  <path class="cls-1" d="M477.2,98.1c5.7,0,7.1-1.6,7.1-6.1v-1.1h10.5v23.1h-10.5v-1.1c0-4.4-1.4-6.1-7.1-6.1h-13.8v12.7h32.5c8.2,0,10.2-4.3,11-12.1h11.6v20.8h-92.3v-8.7h8.1c3.6,0,4.7-.8,4.7-4.9v-23.7c0-4.1-1.2-4.9-4.7-4.9h-8.1v-8.7h91.6v19.9h-11.6c-.7-7.5-2.8-11.2-11-11.2h-31.8v12h13.8Z"/>
</svg>