<?xml version="1.0" encoding="UTF-8"?>
<svg id="Layer_1" data-name="Layer 1" xmlns="http://www.w3.org/2000/svg" xmlns:xlink="http://www.w3.org/1999/xlink" version="1.1" viewBox="0 0 183 81">
  <defs>
    <style>
      .cls-1 {
        fill: #f2d952;
      }

      .cls-1, .cls-2, .cls-3, .cls-4, .cls-5, .cls-6, .cls-7, .cls-8, .cls-9, .cls-10, .cls-11, .cls-12, .cls-13, .cls-14, .cls-15, .cls-16, .cls-17, .cls-18, .cls-19, .cls-20, .cls-21, .cls-22, .cls-23, .cls-24, .cls-25, .cls-26, .cls-27, .cls-28, .cls-29, .cls-30, .cls-31, .cls-32, .cls-33, .cls-34, .cls-35, .cls-36, .cls-37, .cls-38, .cls-39, .cls-40, .cls-41, .cls-42, .cls-43, .cls-44, .cls-45, .cls-46, .cls-47, .cls-48, .cls-49, .cls-50, .cls-51, .cls-52, .cls-53, .cls-54, .cls-55, .cls-56, .cls-57, .cls-58, .cls-59, .cls-60, .cls-61, .cls-62, .cls-63, .cls-64, .cls-65, .cls-66, .cls-67, .cls-68, .cls-69, .cls-70, .cls-71, .cls-72, .cls-73, .cls-74, .cls-75, .cls-76, .cls-77, .cls-78, .cls-79, .cls-80, .cls-81, .cls-82, .cls-83, .cls-84, .cls-85, .cls-86, .cls-87, .cls-88, .cls-89, .cls-90, .cls-91, .cls-92, .cls-93, .cls-94, .cls-95, .cls-96, .cls-97, .cls-98, .cls-99 {
        stroke-width: 0px;
      }

      .cls-1, .cls-2, .cls-3, .cls-4, .cls-5, .cls-6, .cls-7, .cls-8, .cls-9, .cls-10, .cls-11, .cls-12, .cls-13, .cls-14, .cls-15, .cls-16, .cls-17, .cls-18, .cls-20, .cls-21, .cls-22, .cls-23, .cls-24, .cls-25, .cls-26, .cls-27, .cls-28, .cls-29, .cls-30, .cls-31, .cls-32, .cls-33, .cls-34, .cls-35, .cls-36, .cls-37, .cls-38, .cls-39, .cls-40, .cls-41, .cls-42, .cls-43, .cls-44, .cls-45, .cls-46, .cls-47, .cls-48, .cls-49, .cls-50, .cls-51, .cls-52, .cls-53, .cls-54, .cls-55, .cls-56, .cls-57, .cls-58, .cls-59, .cls-60, .cls-61, .cls-62, .cls-63, .cls-64, .cls-65, .cls-66, .cls-67, .cls-68, .cls-69, .cls-70, .cls-71, .cls-72, .cls-73, .cls-74, .cls-75, .cls-76, .cls-77, .cls-78, .cls-79, .cls-80, .cls-81, .cls-82, .cls-83, .cls-84, .cls-85, .cls-86, .cls-87, .cls-88, .cls-89, .cls-90, .cls-91, .cls-92, .cls-93, .cls-94, .cls-95, .cls-96, .cls-97, .cls-98, .cls-99 {
        fill-rule: evenodd;
      }

      .cls-2 {
        fill: #f2db64;
      }

      .cls-3 {
        fill: #ec3945;
      }

      .cls-4 {
        fill: #eec835;
      }

      .cls-5 {
        fill: #d98c37;
      }

      .cls-6 {
        fill: #e1a633;
      }

      .cls-7 {
        fill: #f2de76;
      }

      .cls-8 {
        fill: #e6b732;
      }

      .cls-9 {
        fill: #f4d839;
      }

      .cls-10 {
        fill: #f2e082;
      }

      .cls-11 {
        fill: #f2d74a;
      }

      .cls-12 {
        fill: #f3e391;
      }

      .cls-13 {
        fill: #f1de7d;
      }

      .cls-14 {
        fill: #e0a233;
      }

      .cls-15 {
        fill: #f3d539;
      }

      .cls-16 {
        fill: #da8e36;
      }

      .cls-17 {
        fill: #eac032;
      }

      .cls-18 {
        fill: #f2dc6a;
      }

      .cls-19 {
        fill: #788691;
      }

      .cls-20 {
        fill: #f1dd7e;
      }

      .cls-21 {
        fill: #d88335;
      }

      .cls-22 {
        fill: #f1dc5c;
      }

      .cls-23 {
        fill: #d78134;
      }

      .cls-24 {
        fill: #efca35;
      }

      .cls-25 {
        fill: #e3ac33;
      }

      .cls-26 {
        fill: #f2df74;
      }

      .cls-27 {
        fill: #dc9633;
      }

      .cls-28 {
        fill: #f3e18f;
      }

      .cls-29 {
        fill: #f2de79;
      }

      .cls-30 {
        fill: #f4d73e;
      }

      .cls-31 {
        fill: #f0cb36;
      }

      .cls-32 {
        fill: url(#linear-gradient);
      }

      .cls-33 {
        fill: #f2dc61;
      }

      .cls-34 {
        fill: #153f6b;
      }

      .cls-35 {
        fill: #0c6bad;
      }

      .cls-36 {
        fill: #f2e084;
      }

      .cls-37 {
        fill: #f3d544;
      }

      .cls-38 {
        fill: #dd9a31;
      }

      .cls-39 {
        fill: #f3d338;
      }

      .cls-40 {
        fill: #dd9c32;
      }

      .cls-41 {
        fill: #f2d95a;
      }

      .cls-42 {
        fill: #f2d751;
      }

      .cls-43 {
        fill: #db9234;
      }

      .cls-44 {
        fill: #f3d53c;
      }

      .cls-45 {
        fill: #f1df71;
      }

      .cls-46 {
        fill: #eec734;
      }

      .cls-47 {
        fill: #f2d958;
      }

      .cls-48 {
        fill: #f2dd66;
      }

      .cls-49 {
        fill: #f3d63e;
      }

      .cls-50 {
        fill: #f2de72;
      }

      .cls-51 {
        fill: #f2db66;
      }

      .cls-52 {
        fill: #de9e32;
      }

      .cls-53 {
        fill: #eabe32;
      }

      .cls-54 {
        fill: #dc9630;
      }

      .cls-55 {
        fill: #e8b932;
      }

      .cls-56 {
        fill: #f1dc71;
      }

      .cls-57 {
        fill: #f2df7d;
      }

      .cls-58 {
        fill: #d67b32;
      }

      .cls-59 {
        fill: #f3d849;
      }

      .cls-60 {
        fill: #f2e28b;
      }

      .cls-61 {
        fill: #e0a533;
      }

      .cls-62 {
        fill: #f2de7a;
      }

      .cls-63 {
        fill: #f2d238;
      }

      .cls-64 {
        fill: url(#linear-gradient-3);
      }

      .cls-65 {
        fill: url(#linear-gradient-2);
      }

      .cls-66 {
        fill: #ecc434;
      }

      .cls-67 {
        fill: #f2e187;
      }

      .cls-68 {
        fill: #f1db5f;
      }

      .cls-69 {
        fill: #f3d541;
      }

      .cls-70 {
        fill: #d57d33;
      }

      .cls-71 {
        fill: #f2e07f;
      }

      .cls-72 {
        fill: #f3d439;
      }

      .cls-73 {
        fill: #f4d73c;
      }

      .cls-74 {
        fill: #ca3135;
      }

      .cls-75 {
        fill: #f1ce36;
      }

      .cls-76 {
        fill: #ebc134;
      }

      .cls-77 {
        fill: #d77f34;
      }

      .cls-78 {
        fill: #0855a1;
      }

      .cls-79 {
        fill: #f2dc6d;
      }

      .cls-80 {
        fill: #e2a933;
      }

      .cls-81 {
        fill: #f2d956;
      }

      .cls-82 {
        fill: #f2d74d;
      }

      .cls-83 {
        fill: #fff;
      }

      .cls-84 {
        fill: #da8736;
      }

      .cls-85 {
        fill: #f2d84e;
      }

      .cls-86 {
        fill: #f2e18a;
      }

      .cls-87 {
        fill: #d98c34;
      }

      .cls-88 {
        fill: #f2cf37;
      }

      .cls-89 {
        fill: #d98836;
      }

      .cls-90 {
        fill: #f2e087;
      }

      .cls-91 {
        fill: #e5b235;
      }

      .cls-92 {
        fill: #e9bc33;
      }

      .cls-93 {
        fill: #0b78bd;
      }

      .cls-94 {
        fill: #e4af34;
      }

      .cls-95 {
        fill: #f1dc5d;
      }

      .cls-96 {
        fill: #105792;
      }

      .cls-97 {
        fill: #f2dc5e;
      }

      .cls-98 {
        fill: #f3e28b;
      }

      .cls-99 {
        fill: #db9035;
      }
    </style>
    <linearGradient id="linear-gradient" x1="144" y1="11" x2="175.1" y2="11" gradientTransform="translate(0 82) scale(1 -1)" gradientUnits="userSpaceOnUse">
      <stop offset="0" stop-color="#6a1111"/>
      <stop offset=".3" stop-color="#8a181b"/>
      <stop offset=".5" stop-color="#6a1111"/>
      <stop offset="1" stop-color="#761214"/>
    </linearGradient>
    <linearGradient id="linear-gradient-2" x1="160.5" y1="16.4" x2="160.5" y2="16.4" gradientTransform="translate(0 82) scale(1 -1)" gradientUnits="userSpaceOnUse">
      <stop offset="0" stop-color="#d92129"/>
      <stop offset="0" stop-color="#d12128"/>
      <stop offset=".2" stop-color="#be1f26"/>
      <stop offset=".3" stop-color="#a11c20"/>
      <stop offset=".4" stop-color="#87171a"/>
      <stop offset="1" stop-color="#ea2331"/>
    </linearGradient>
    <linearGradient id="linear-gradient-3" x1="144" y1="11" x2="175.1" y2="11" gradientTransform="translate(0 82) scale(1 -1)" gradientUnits="userSpaceOnUse">
      <stop offset="0" stop-color="#d92129"/>
      <stop offset="0" stop-color="#d12128"/>
      <stop offset=".2" stop-color="#be1f26"/>
      <stop offset=".3" stop-color="#a11c20"/>
      <stop offset=".4" stop-color="#87171a"/>
      <stop offset="1" stop-color="#ea2331"/>
    </linearGradient>
  </defs>
  <g>
    <path class="cls-19" d="M74.4,43.5c-1.4,0-2.7.3-3.8.9h0v-5.9h-3.5v11.3c0,4.1,2.8,6.9,6.8,6.9s7-2.9,7-6.8c0-3.5-2.9-6.3-6.5-6.3ZM70.5,47.9l.6-.4c.7-.4,1.9-.9,2.8-.9,2.1,0,3.5,1.3,3.5,3.4s-1.5,3.4-3.5,3.4-3.4-1.6-3.4-4.1v-1.4Z"/>
    <path class="cls-19" d="M91.4,51.5c-.8,1.5-1.9,2.1-3.3,2.1s-3.2-1.1-3.5-2.7h9.8v-.5c.2-2-.4-3.9-1.7-5.3-1.2-1.3-2.8-2-4.8-2-3.9,0-6.7,2.8-6.7,6.9s2.8,6.6,6.7,6.6,5-1.3,6.3-3.5l.3-.5-2.8-1.5-.3.4ZM84.9,48.1c.5-1.1,1.7-1.9,3-1.9s2.4.8,2.9,1.9h-5.9Z"/>
    <path class="cls-19" d="M103.5,43.7l-3.2,7.9-3.2-7.9h-3.7l4.6,11.4c.5,1.3,1.3,1.6,2.3,1.6s1.8-.3,2.3-1.6l4.7-11.4h-3.8Z"/>
    <path class="cls-19" d="M116.5,51.5c-.8,1.5-1.9,2.1-3.3,2.1s-3.2-1.1-3.5-2.7h9.8v-.5c.2-2-.4-3.9-1.7-5.3-1.2-1.3-2.8-2-4.8-2-3.9,0-6.7,2.8-6.7,6.9s2.8,6.6,6.7,6.6,5-1.3,6.3-3.5l.3-.5-2.8-1.5-.4.4ZM110,48.1c.5-1.1,1.7-1.9,3-1.9s2.4.8,2.9,1.9h-5.9Z"/>
    <path class="cls-19" d="M127.5,43.5h-1.1c-1.2,0-2.1.3-2.8.8v-.5h-3.3v12.6h3.5v-5.9c0-3.3,1.6-3.8,2.9-3.8h.9v-3.1h0Z"/>
    <path class="cls-19" d="M134.1,43.5c-4.3,0-7.2,2.7-7.2,6.4s3,6.7,6.9,6.7,2.9-.6,3.8-1.2h0s0,.9,0,.9h3.5v-6.8c0-3.7-2.8-6-7.1-6ZM137.6,51.1l-.8.9c-.6.6-1.5,1.4-2.8,1.4-2,0-3.6-1.4-3.6-3.3s1.2-3.4,3.6-3.4,3.6.8,3.6,2.7v1.8h0Z"/>
    <path class="cls-19" d="M148.8,43.5c-4,0-7,2.8-7,6.7s3,6.4,7,6.4,2.2-.4,3.1-.8h0c0,2.5-2.4,2.9-3.7,2.9s-2.1-.3-3.3-.6h-.6c0-.1-.8,2.9-.8,2.9l.5.2c1.5.5,2.9.7,4.2.7,4.3,0,7.1-2.7,7.1-7v-5.1c0-3.1-2.4-6.3-6.6-6.3ZM151.4,52.5c-.8.4-1.7.8-2.6.8-2.1,0-3.5-1.3-3.5-3.1s.9-3.6,3.4-3.6,3.3,1.5,3.3,3.5v2l-.6.4Z"/>
    <path class="cls-19" d="M165.9,51.5c-.8,1.5-1.9,2.1-3.3,2.1s-3.2-1.1-3.5-2.7h9.8v-.5c.2-2-.4-3.9-1.7-5.3-1.2-1.3-2.8-2-4.8-2-3.9,0-6.7,2.8-6.7,6.9s2.8,6.6,6.7,6.6,5-1.3,6.3-3.5l.3-.5-2.8-1.5-.4.4ZM159.4,48.1c.5-1.1,1.7-1.9,3-1.9s2.4.8,2.9,1.9h-5.9Z"/>
    <path class="cls-19" d="M175.1,48.3c-.9-.3-2.2-.6-2.3-1,0-.4,0-.4.8-.4h6v-3.2h-5.6c-2.9,0-4.6,1.3-4.6,3.7s2.9,3.5,5,4.1c1.1.3,2.4.7,2.4,1.1s0,.5-.8.5h-6.6v3.2h6.6c2.6,0,4.2-1.5,4.2-3.8s-2.9-3.6-5.1-4.3Z"/>
  </g>
  <path class="cls-78" d="M55.7,34.8c-2.2,0-4.4,0-6.6-.3v5.3h11v-5.1c-1.5,0-3,0-4.4,0Z"/>
  <g>
    <path class="cls-93" d="M55.7,32.9c1.5,0,2.9,0,4.4,0v-5.8c0-4,3.4-6.3,8.6-6.3h3v-7.4h-3.1c-7.2,0-19.5,3.4-19.5,12.5v6.8c2.2.2,4.4.3,6.7.3Z"/>
    <path class="cls-93" d="M83.8,28.9c-.3-.7-.5-1.4-.5-2.1,0-3.6,3.8-6.2,9.7-6.2h11.2v-6.9h-11.5c-12.6,0-20.1,5.1-20.1,13.1s.3,3.1.9,4.5c3.4-.6,6.8-1.4,10.3-2.4Z"/>
    <path class="cls-78" d="M85,30.5c-3.5,1-7.1,1.8-10.6,2.5,3,4.3,9.4,6.8,18.2,6.8h11.5v-6.9h-11.2c-3.5,0-6.3-.9-7.9-2.4Z"/>
    <path class="cls-93" d="M118.4,20.8l4.7-.4c1.8-.1,3.5-.2,5.2-.3v-6.4h-9.9V2.8h-9.9v19.4c3.3-.6,6.6-1.1,9.8-1.4Z"/>
    <path class="cls-78" d="M118.4,30v-7.4c-3.2.4-6.6.8-9.9,1.5v6.1c0,5.8,2.9,9.6,12.5,9.6h7.4v-6.9h-5.9c-2.1,0-4.1-1-4.1-2.9Z"/>
    <path class="cls-93" d="M139,10.7c3,0,5.2-1.3,5.2-3.7s-2.3-3.7-5.2-3.7-5.2,1.3-5.2,3.7,2.3,3.7,5.2,3.7Z"/>
    <path class="cls-93" d="M144.2,20.4v-6.8h-10.4v6.3c3.5,0,7,.2,10.4.4Z"/>
    <path class="cls-78" d="M133.8,21.9v17.9h10.4v-17.4c-3.4-.3-6.8-.5-10.4-.5Z"/>
    <path class="cls-78" d="M158.7,26.7c0-.8.2-1.5.5-2.1-3.4-.7-6.9-1.3-10.6-1.7-.4,1.2-.7,2.5-.7,3.9,0,8,7.5,13.1,20.1,13.1h11.5v-6.9h-11.2c-5.9,0-9.7-2.6-9.7-6.2Z"/>
    <path class="cls-93" d="M160.4,22.9c1.7-1.5,4.4-2.4,7.9-2.4h11.2v-6.9h-11.5c-9.3,0-15.8,2.7-18.6,7.4,3.8.5,7.5,1.1,11,1.9Z"/>
    <path class="cls-93" d="M16.6,22.5c1.8-1.6,4.6-2.7,7.7-2.7,6,0,9.8,2,9.8,5.2v4.9c3.6,1,7.2,1.7,11,2.2v-7.4c0-6.8-8.1-11.8-20.6-11.8s-11.7,1.6-15.5,4.3c2.5,1.9,5,3.6,7.6,5.2Z"/>
    <path class="cls-78" d="M14.5,26.7c0-1,.3-1.9.8-2.7-2.7-1.6-5.3-3.5-7.9-5.5-2.4,2.3-3.9,5.1-3.9,8.4,0,6.8,7.5,13,20.4,13s5-.3,7.4-.7v-7.1c-2.1.5-4.3.8-6.7.8-5.6,0-10.1-2.8-10.1-6.3Z"/>
    <path class="cls-78" d="M34.1,32v7.8h11v-5.7c-3.8-.5-7.4-1.2-11-2.2Z"/>
  </g>
  <g>
    <path class="cls-83" d="M99.8,64.3c3.4,3.4,3.4,9,0,12.4s-9,3.4-12.4,0-3.4-9,0-12.4c3.4-3.4,9-3.4,12.4,0Z"/>
    <path class="cls-96" d="M99.9,64.3c-1.7-1.7-3.9-2.6-6.3-2.6s-4.6.9-6.3,2.6c-3.5,3.5-3.5,9.1,0,12.6,1.7,1.7,3.9,2.6,6.3,2.6s4.6-.9,6.3-2.6c3.5-3.5,3.5-9.2,0-12.6ZM93.5,79.2c-2.3,0-4.5-.9-6.1-2.5-3.4-3.4-3.4-8.9,0-12.2s3.8-2.5,6.1-2.5,4.5.9,6.1,2.5c3.4,3.4,3.4,8.9,0,12.2-1.6,1.6-3.8,2.5-6.1,2.5Z"/>
    <path class="cls-35" d="M100.4,66.1c.2.5.3,1.1.3,1.7,0,1.9-.9,3.6-2.4,4.7-2.5,1.8-6.1,1.8-11.1,3.4,1.5,1.8,3.8,3,6.3,3,4.5,0,8.2-3.7,8.2-8.2s-.5-3.2-1.3-4.5Z"/>
    <path class="cls-3" d="M98.5,64c-1.4-1-3.1-1.6-4.9-1.6-4.5,0-8.2,3.7-8.2,8.2s.6,3.5,1.6,4.9c5.5-1.6,9.8-5.9,11.5-11.4Z"/>
    <path class="cls-34" d="M121.1,70s0,0,0,0c-.2,0-.4.1-.6.1-.4,0-.8,0-1.3-.1-.6,0-1.2-.2-1.9-.2h-.4c-.5,0-1.2.1-1.7.3.2-1.7,1.8-2.4,2.9-2.4,2.4,0,2.9,1.9,3,2.2ZM132.1,68.9c0,.4.2.8.6,1.2.4.3.9.6,1.6.8.6.2,1,.4,1.2.6.2.2.4.4.4.7,0,.7-.7,1.1-1.7,1.1s-1.4-.3-1.7-.4h-.2c0,0,0,0,0,0l-.4.7h.2c.6.4,1.4.6,2.1.6s1.6-.2,2.1-.6c.5-.4.8-.9.8-1.5h0c0-.5-.2-1-.6-1.3-.4-.3-.9-.6-1.6-.8-.6-.2-1-.4-1.2-.5-.3-.2-.4-.4-.4-.6,0-.5.4-.9,1.4-.9s1.2.2,1.5.4h.2c0,0,.5-.8.5-.8h-.2c-.5-.4-1.2-.5-1.9-.5s-1.5.2-2,.6c-.5.4-.8.8-.8,1.4ZM127.1,74.1c2.3,0,4.1-1.6,4.1-3.6s-1.8-3.6-4.1-3.6-4,1.3-4,4.1v5.3h1.1v-3.5c.6.8,1.7,1.2,2.9,1.2ZM124.2,70.6c0-1.3,1.1-2.7,2.9-2.7s3,1.2,3,2.7-1,2.7-2.9,2.7c-1.9,0-3-1.4-3-2.7ZM138.4,74h1.1v-6.9h-1.1v6.9ZM139.7,65.6c0-.4-.4-.8-.8-.8s-.8.4-.8.8.4.8.8.8c.4,0,.8-.4.8-.8ZM106.2,72.9c.7.8,1.7,1.2,2.9,1.2,2.3,0,4.1-1.6,4.1-3.6s-1.8-3.6-4.1-3.6-4,1.3-4,4.1v5.3h1.2c0,0,0-3.1,0-3.5ZM106.2,70.6c0-1.3,1.1-2.7,2.9-2.7s3,1.2,3,2.7-1,2.7-2.9,2.7c-1.9,0-3-1.4-3-2.7ZM114,70.5c0,.6.2,1.2.5,1.8.7,1.1,2,1.8,3.6,1.8s2.9-.7,3.5-1.8l.2-.4h-1.2c-.5.7-1.6,1.2-2.5,1.2s-2.4-.8-2.8-1.9c.8-.4,1.6-.4,2.2-.4s.7,0,1.2,0c.5,0,1.2.2,1.8.2s1,0,1.5-.2c.3-.1.4-.3.4-.7-.1-.8-.8-3.4-4.1-3.4-2,0-4.1,1.3-4.1,3.6Z"/>
  </g>
  <g>
    <path class="cls-74" d="M176.2,65.8s0,0,0,0,0,0-.1,0h0v.2h.1ZM176.2,66.5c-.4,0-.7-.3-.7-.7s.3-.7.7-.7.7.3.7.7-.3.7-.7.7ZM176.2,65.3c-.3,0-.5.2-.5.5s.2.5.5.5h0c.3,0,.5-.2.5-.5,0-.4-.2-.5-.5-.5ZM176,66.2h-.1v-.7h.3c.2,0,.3,0,.3.2s0,.2-.2.2l.2.3h-.2l-.2-.3h0v.3h0Z"/>
    <path class="cls-32" d="M174.6,65.5c-.1-.4-2.1-1.4-5.3-1.4s-6.5.9-8.8,1.4c-2.5.6-5.6,1.5-8.8,1.5s-5.6-1-5.4-1.5c-1.1,1.7-1.8,3.4-2.1,5.2-.4,2-.2,3.9.3,5.7.1.4,2.1,1.4,5.3,1.4s6.5-.9,8.8-1.4c2.5-.6,5.6-1.5,8.8-1.5s5.6,1,5.4,1.5c1.1-1.7,1.8-3.4,2.1-5.2.4-2,.2-3.9-.3-5.7"/>
    <g>
      <path class="cls-58" d="M165.4,70.6c3.3,0,6-2.7,6-6s-2.7-6-6-6-6,2.7-6,6,2.7,6,6,6Z"/>
      <path class="cls-58" d="M165.5,70.5c3.3,0,6-2.7,6-6s-2.7-6-6-6-6,2.7-6,6c0,3.3,2.7,6,6,6Z"/>
      <path class="cls-70" d="M165.5,70.5c3.3,0,6-2.7,6-6s-2.7-6-6-6-6,2.7-6,6,2.7,6,6,6Z"/>
      <path class="cls-70" d="M165.5,70.5c3.3,0,6-2.7,5.9-5.9,0-3.3-2.7-6-6-6s-6,2.7-5.9,5.9c0,3.3,2.7,6,6,6Z"/>
      <path class="cls-77" d="M165.5,70.5c3.3,0,5.9-2.7,5.9-5.9s-2.7-6-6-6-5.9,2.7-5.9,5.9,2.7,6,6,6Z"/>
      <path class="cls-77" d="M165.5,70.5c3.3,0,5.9-2.7,5.9-5.9s-2.7-6-6-6-5.9,2.7-5.9,5.9,2.7,5.9,6,6Z"/>
      <path class="cls-77" d="M165.5,70.4c3.3,0,5.9-2.6,5.9-5.9s-2.7-5.9-6-6c-3.3,0-5.9,2.6-5.9,5.9,0,3.3,2.7,6,5.9,6Z"/>
      <path class="cls-23" d="M165.5,70.4c3.3,0,5.9-2.6,5.9-5.9s-2.7-5.9-6-6c-3.3,0-5.9,2.6-5.9,5.9,0,3.3,2.7,5.9,6,6Z"/>
      <path class="cls-23" d="M165.6,70.4c3.3,0,5.9-2.6,5.9-5.9s-2.7-5.9-5.9-5.9-5.9,2.6-5.9,5.9,2.7,5.9,5.9,5.9Z"/>
      <path class="cls-21" d="M165.6,70.4c3.3,0,5.9-2.6,5.9-5.9s-2.7-5.9-5.9-5.9-5.9,2.6-5.9,5.9c0,3.2,2.6,5.9,5.9,5.9Z"/>
      <path class="cls-21" d="M165.6,70.3c3.3,0,5.9-2.6,5.9-5.9,0-3.3-2.7-5.9-5.9-5.9s-5.9,2.6-5.9,5.9c0,3.3,2.7,5.9,5.9,5.9Z"/>
      <path class="cls-21" d="M165.6,70.3c3.2,0,5.9-2.6,5.9-5.9s-2.7-5.9-5.9-5.9-5.9,2.6-5.9,5.9,2.7,5.9,5.9,5.9Z"/>
      <path class="cls-21" d="M165.6,70.3c3.2,0,5.9-2.6,5.9-5.9s-2.7-5.9-5.9-5.9-5.9,2.6-5.9,5.9c0,3.2,2.7,5.9,5.9,5.9Z"/>
      <path class="cls-21" d="M165.6,70.3c3.2,0,5.9-2.6,5.8-5.8s-2.7-5.9-5.9-5.9c-3.2,0-5.9,2.6-5.8,5.8,0,3.3,2.7,5.9,5.9,5.9Z"/>
      <path class="cls-21" d="M165.7,70.3c3.2,0,5.9-2.6,5.8-5.8s-2.7-5.9-5.9-5.9c-3.2,0-5.9,2.6-5.8,5.8,0,3.2,2.7,5.9,5.9,5.9Z"/>
      <path class="cls-84" d="M165.7,70.2c3.2,0,5.8-2.5,5.8-5.8,0-3.2-2.7-5.9-5.9-5.9-3.2,0-5.8,2.6-5.8,5.8,0,3.3,2.7,5.9,5.9,5.9Z"/>
      <path class="cls-84" d="M165.7,70.2c3.2,0,5.8-2.5,5.8-5.8s-2.7-5.9-5.9-5.9c-3.2,0-5.8,2.5-5.8,5.8,0,3.2,2.7,5.9,5.9,5.9Z"/>
      <path class="cls-89" d="M165.7,70.2c3.2,0,5.8-2.5,5.8-5.8s-2.7-5.9-5.9-5.9c-3.2,0-5.8,2.5-5.8,5.8,0,3.2,2.7,5.9,5.9,5.9Z"/>
      <path class="cls-89" d="M165.7,70.2c3.2,0,5.8-2.5,5.8-5.8,0-3.2-2.7-5.9-5.9-5.9-3.2,0-5.8,2.5-5.8,5.8,0,3.2,2.7,5.9,5.9,5.9Z"/>
      <path class="cls-89" d="M165.7,70.2c3.2,0,5.8-2.5,5.7-5.7,0-3.2-2.7-5.9-5.9-5.9-3.2,0-5.8,2.5-5.7,5.7,0,3.2,2.7,5.9,5.9,5.9Z"/>
      <path class="cls-89" d="M165.7,70.2c3.2,0,5.8-2.5,5.7-5.7,0-3.2-2.7-5.9-5.9-5.9-3.2,0-5.8,2.5-5.7,5.7,0,3.2,2.7,5.9,5.9,5.9Z"/>
      <path class="cls-89" d="M165.7,70.2c3.2,0,5.8-2.5,5.7-5.7,0-3.2-2.7-5.9-5.9-5.9-3.2,0-5.8,2.5-5.7,5.7,0,3.2,2.7,5.9,5.9,5.9Z"/>
      <path class="cls-5" d="M165.7,70.1c3.2,0,5.7-2.5,5.7-5.7,0-3.2-2.7-5.9-5.9-5.9-3.2,0-5.8,2.5-5.7,5.7,0,3.2,2.7,5.9,5.9,5.9Z"/>
      <path class="cls-5" d="M165.7,70.1c3.2,0,5.7-2.5,5.7-5.7s-2.7-5.9-5.9-5.9c-3.2,0-5.7,2.5-5.7,5.7,0,3.2,2.7,5.9,5.9,5.9Z"/>
      <path class="cls-5" d="M165.8,70.1c3.2,0,5.7-2.5,5.7-5.7s-2.7-5.9-5.9-5.9c-3.2,0-5.7,2.5-5.7,5.7,0,3.2,2.7,5.9,5.9,5.9Z"/>
      <path class="cls-87" d="M165.8,70.1c3.2,0,5.7-2.4,5.7-5.6,0-3.2-2.7-5.8-5.9-5.9s-5.7,2.5-5.7,5.6c0,3.1,2.7,5.8,5.9,5.9Z"/>
      <path class="cls-87" d="M165.8,70.1c3.2,0,5.7-2.4,5.6-5.6,0-3.2-2.7-5.8-5.9-5.9s-5.7,2.4-5.6,5.6c0,3.1,2.7,5.8,5.9,5.9Z"/>
      <path class="cls-87" d="M165.8,70c3.2,0,5.7-2.4,5.6-5.6,0-3.2-2.7-5.8-5.9-5.9s-5.7,2.4-5.6,5.6c0,3.2,2.7,5.8,5.9,5.9Z"/>
      <path class="cls-16" d="M165.8,70c3.2,0,5.7-2.4,5.6-5.6,0-3.2-2.7-5.8-5.9-5.9s-5.7,2.4-5.6,5.6c0,3.1,2.7,5.7,5.9,5.8Z"/>
      <path class="cls-16" d="M165.8,70c3.1,0,5.6-2.4,5.6-5.6,0-3.2-2.7-5.8-5.9-5.9s-5.7,2.4-5.6,5.6c0,3.2,2.7,5.8,5.9,5.9Z"/>
      <path class="cls-99" d="M165.9,70c3.1,0,5.6-2.4,5.6-5.6,0-3.2-2.7-5.8-5.9-5.9s-5.6,2.4-5.6,5.6c0,3.1,2.7,5.8,5.9,5.9Z"/>
      <path class="cls-99" d="M165.9,70c3.1,0,5.6-2.4,5.6-5.6,0-3.2-2.7-5.8-5.9-5.9s-5.6,2.4-5.6,5.6c0,3.1,2.7,5.8,5.9,5.9Z"/>
      <path class="cls-99" d="M165.9,69.9c3.1,0,5.6-2.4,5.5-5.5,0-3.2-2.7-5.8-5.9-5.9-3.1,0-5.6,2.4-5.5,5.5s2.7,5.8,5.9,5.9Z"/>
      <path class="cls-43" d="M165.9,69.9c3.1,0,5.6-2.4,5.5-5.5s-2.7-5.8-5.9-5.9c-3.1,0-5.6,2.4-5.5,5.5s2.7,5.8,5.9,5.9Z"/>
      <path class="cls-43" d="M165.9,69.9c3.1,0,5.6-2.4,5.5-5.5,0-3.1-2.7-5.8-5.8-5.8s-5.6,2.4-5.5,5.5c0,3.1,2.7,5.7,5.8,5.8Z"/>
      <path class="cls-43" d="M165.9,69.9c3.1,0,5.6-2.4,5.5-5.5,0-3.1-2.7-5.8-5.8-5.8s-5.6,2.4-5.5,5.5c0,3.1,2.7,5.7,5.8,5.8Z"/>
      <path class="cls-27" d="M165.9,69.8c3.1,0,5.5-2.4,5.5-5.5,0-3.1-2.7-5.8-5.8-5.8s-5.6,2.4-5.5,5.5c0,3.1,2.7,5.7,5.8,5.8Z"/>
      <path class="cls-27" d="M166,69.8c3.1,0,5.5-2.4,5.5-5.5,0-3.1-2.7-5.8-5.8-5.8-3.1,0-5.6,2.4-5.5,5.5,0,3.1,2.7,5.7,5.8,5.8Z"/>
      <path class="cls-54" d="M166,69.8c3.1,0,5.5-2.4,5.5-5.5,0-3.1-2.7-5.7-5.8-5.8s-5.5,2.4-5.5,5.5c0,3.1,2.7,5.7,5.8,5.8Z"/>
      <path class="cls-54" d="M166,69.8c3.1,0,5.5-2.3,5.5-5.5s-2.7-5.7-5.8-5.8-5.5,2.4-5.5,5.5c.1,3.1,2.7,5.7,5.8,5.8Z"/>
      <path class="cls-54" d="M166,69.8c3.1,0,5.5-2.3,5.5-5.5,0-3.1-2.7-5.7-5.8-5.8s-5.5,2.4-5.5,5.5,2.7,5.7,5.8,5.8Z"/>
      <path class="cls-38" d="M166,69.8c3.1,0,5.5-2.3,5.4-5.4,0-3.1-2.7-5.7-5.8-5.8s-5.5,2.3-5.4,5.4c.1,3.1,2.7,5.7,5.8,5.8Z"/>
      <path class="cls-38" d="M166,69.8c3.1,0,5.5-2.3,5.4-5.4,0-3.1-2.7-5.7-5.8-5.8-3.1,0-5.5,2.3-5.4,5.4.1,3.1,2.7,5.7,5.8,5.8Z"/>
      <path class="cls-40" d="M166.1,69.7c3.1,0,5.5-2.3,5.4-5.4,0-3.1-2.7-5.7-5.8-5.8-3.1,0-5.5,2.3-5.4,5.4,0,3.1,2.7,5.7,5.8,5.8Z"/>
      <path class="cls-40" d="M166.1,69.7c3.1,0,5.5-2.3,5.4-5.4,0-3.1-2.7-5.7-5.8-5.8s-5.5,2.3-5.4,5.4c0,3.1,2.6,5.7,5.7,5.8Z"/>
      <path class="cls-40" d="M166.1,69.7c3.1.1,5.5-2.3,5.4-5.4,0-3.1-2.7-5.7-5.8-5.8s-5.5,2.3-5.4,5.4c.1,3.1,2.7,5.7,5.8,5.8Z"/>
      <path class="cls-52" d="M166.1,69.7c3.1,0,5.5-2.3,5.4-5.4,0-3.1-2.7-5.7-5.8-5.8s-5.5,2.3-5.4,5.4c0,3.1,2.7,5.7,5.8,5.8Z"/>
      <path class="cls-52" d="M166.1,69.7c3.1.1,5.4-2.3,5.4-5.3,0-3.1-2.7-5.7-5.8-5.8s-5.5,2.3-5.4,5.4c.1,3,2.7,5.6,5.8,5.7Z"/>
      <path class="cls-14" d="M166.1,69.6c3.1.1,5.4-2.3,5.3-5.3,0-3.1-2.7-5.7-5.8-5.8s-5.5,2.3-5.3,5.3c.1,3.1,2.7,5.7,5.8,5.8Z"/>
      <path class="cls-14" d="M166.1,69.6c3.1.1,5.4-2.2,5.3-5.3s-2.7-5.7-5.8-5.8-5.4,2.3-5.3,5.3c.1,3.1,2.7,5.6,5.8,5.8Z"/>
      <path class="cls-14" d="M166.1,69.6c3.1.1,5.4-2.2,5.3-5.3,0-3.1-2.7-5.7-5.8-5.7-3.1,0-5.4,2.3-5.3,5.3.1,3.1,2.7,5.6,5.8,5.7Z"/>
      <path class="cls-61" d="M166.1,69.6c3.1.1,5.4-2.2,5.3-5.3,0-3.1-2.7-5.6-5.7-5.7-3.1,0-5.4,2.2-5.3,5.3,0,3,2.7,5.6,5.7,5.7Z"/>
      <path class="cls-61" d="M166.1,69.5c3.1.1,5.4-2.2,5.3-5.3,0-3.1-2.7-5.6-5.7-5.7-3.1,0-5.4,2.2-5.3,5.3.1,3.1,2.7,5.6,5.7,5.7Z"/>
      <path class="cls-61" d="M166.2,69.5c3,.1,5.4-2.2,5.3-5.3,0-3.1-2.7-5.6-5.7-5.7-3.1,0-5.4,2.2-5.3,5.3,0,3,2.7,5.6,5.7,5.7Z"/>
      <path class="cls-6" d="M166.2,69.5c3,.1,5.3-2.2,5.2-5.2,0-3.1-2.7-5.6-5.7-5.7-3.1,0-5.4,2.2-5.2,5.2.1,3,2.7,5.6,5.7,5.7Z"/>
      <path class="cls-6" d="M166.2,69.5c3,.1,5.3-2.2,5.2-5.2,0-3.1-2.7-5.6-5.7-5.7-3.1,0-5.4,2.2-5.2,5.2.1,3.1,2.7,5.6,5.7,5.7Z"/>
      <path class="cls-80" d="M166.2,69.5c3,.1,5.3-2.2,5.2-5.2,0-3.1-2.7-5.6-5.7-5.7-3.1,0-5.4,2.2-5.2,5.2.1,3,2.7,5.6,5.7,5.7Z"/>
      <path class="cls-80" d="M166.2,69.4c3,.1,5.3-2.1,5.2-5.2,0-3.1-2.7-5.6-5.7-5.7-3.1,0-5.3,2.2-5.2,5.2.1,3.1,2.7,5.6,5.7,5.7Z"/>
      <path class="cls-80" d="M166.2,69.4c3,.1,5.3-2.1,5.2-5.2,0-3.1-2.7-5.6-5.7-5.7-3.1,0-5.3,2.2-5.2,5.2.2,3,2.7,5.6,5.7,5.7Z"/>
      <path class="cls-25" d="M166.3,69.4c3,.1,5.3-2.1,5.2-5.2,0-3.1-2.7-5.6-5.7-5.7-3.1,0-5.3,2.2-5.2,5.2,0,3,2.7,5.5,5.7,5.7Z"/>
      <path class="cls-25" d="M166.3,69.4c3,.1,5.3-2.1,5.1-5.1,0-3.1-2.7-5.6-5.7-5.7-3.1,0-5.3,2.2-5.1,5.1.1,3,2.7,5.5,5.7,5.7Z"/>
      <path class="cls-25" d="M166.3,69.4c3,.1,5.2-2.1,5.1-5.1,0-3.1-2.7-5.6-5.7-5.7-3,0-5.3,2.1-5.1,5.1.1,3,2.7,5.5,5.7,5.7Z"/>
      <path class="cls-94" d="M166.3,69.4c3,.1,5.2-2.1,5.1-5.1-.1-3-2.7-5.6-5.7-5.7-3,0-5.3,2.1-5.1,5.1.1,3,2.7,5.5,5.7,5.7Z"/>
      <path class="cls-94" d="M166.3,69.4c3,.1,5.2-2.1,5.1-5.1s-2.7-5.5-5.7-5.7-5.3,2.1-5.1,5.1c.1,3,2.7,5.5,5.7,5.7Z"/>
      <path class="cls-91" d="M166.3,69.3c3,.1,5.2-2.1,5.1-5.1,0-3-2.6-5.5-5.7-5.7-3-.1-5.3,2.1-5.1,5.1.2,3,2.7,5.5,5.7,5.7Z"/>
      <path class="cls-91" d="M166.3,69.3c3,.1,5.2-2.1,5.1-5.1-.1-3-2.6-5.5-5.7-5.7-3-.1-5.2,2.1-5.1,5.1.2,3,2.7,5.5,5.7,5.7Z"/>
      <path class="cls-91" d="M166.4,69.3c3,.1,5.2-2.1,5.1-5.1-.1-3-2.6-5.5-5.7-5.7-3-.1-5.2,2.1-5.1,5.1.2,3,2.7,5.5,5.7,5.7Z"/>
      <path class="cls-91" d="M166.4,69.3c3,.2,5.2-2,5.1-5.1-.1-3-2.6-5.5-5.6-5.7-3-.1-5.2,2.1-5.1,5.1.1,3,2.7,5.5,5.6,5.7Z"/>
      <path class="cls-91" d="M166.4,69.3c3,.2,5.2-2,5.1-5.1-.1-3-2.6-5.5-5.6-5.6-3-.1-5.2,2.1-5.1,5.1.2,2.9,2.7,5.5,5.6,5.6Z"/>
      <path class="cls-8" d="M166.4,69.2c3,.2,5.1-2,5-5.1-.1-3-2.6-5.5-5.6-5.6-3-.1-5.2,2.1-5.1,5.1.2,3,2.7,5.5,5.7,5.6Z"/>
      <path class="cls-8" d="M160.8,63.6c.2,3,2.7,5.5,5.6,5.6s5.1-2,5-5c-.1-3-2.6-5.5-5.6-5.6-3-.1-5.2,2-5,5Z"/>
      <path class="cls-8" d="M160.8,63.5c.2,2.9,2.7,5.5,5.6,5.6,2.9.2,5.1-2,5-5-.1-3-2.6-5.5-5.6-5.6-3,0-5.2,2.1-5,5Z"/>
      <path class="cls-55" d="M160.9,63.5c.2,2.9,2.7,5.4,5.6,5.6,2.9.2,5.1-2,5-5s-2.6-5.5-5.6-5.6c-3-.1-5.1,2-5,5Z"/>
      <path class="cls-55" d="M160.9,63.5c.2,2.9,2.7,5.4,5.6,5.6,2.9.2,5.1-2,4.9-4.9-.1-3-2.6-5.5-5.6-5.6-3-.1-5.1,2-4.9,4.9Z"/>
      <path class="cls-92" d="M160.9,63.5c.2,2.9,2.7,5.4,5.5,5.5s5.1-2,4.9-4.9-2.6-5.4-5.5-5.5c-2.9-.1-5.1,2-4.9,4.9Z"/>
      <path class="cls-92" d="M161,63.5c.2,2.9,2.7,5.4,5.5,5.5s5-2,4.9-4.9-2.6-5.4-5.5-5.5c-2.9-.1-5.1,2-4.9,4.9Z"/>
      <path class="cls-92" d="M161,63.5c.2,2.9,2.7,5.3,5.5,5.5,2.9.2,5-2,4.9-4.9s-2.6-5.4-5.5-5.5c-2.9-.1-5.1,2-4.9,4.9Z"/>
      <path class="cls-92" d="M161,63.4c.2,2.8,2.6,5.3,5.5,5.5,2.8.2,5-2,4.8-4.8-.1-2.9-2.6-5.4-5.5-5.5-2.9-.1-5,2-4.8,4.8Z"/>
      <path class="cls-92" d="M161.1,63.4c.2,2.8,2.6,5.3,5.5,5.5,2.8.2,5-2,4.8-4.8-.1-2.9-2.6-5.3-5.5-5.5s-5,2-4.8,4.8Z"/>
      <path class="cls-92" d="M161.1,63.4c.2,2.8,2.6,5.3,5.5,5.5,2.8.2,4.9-1.9,4.8-4.8-.1-2.9-2.6-5.3-5.5-5.5-2.9-.2-5,2-4.8,4.8Z"/>
      <path class="cls-53" d="M161.2,63.4c.2,2.8,2.6,5.2,5.4,5.4,2.8.2,4.9-1.9,4.7-4.7-.1-2.9-2.6-5.3-5.5-5.4-2.8-.1-4.9,2-4.7,4.7Z"/>
      <path class="cls-53" d="M161.2,63.4c.2,2.8,2.6,5.2,5.4,5.4,2.8.2,4.9-1.9,4.7-4.7s-2.6-5.3-5.4-5.4c-2.8-.1-4.9,1.9-4.7,4.7Z"/>
      <path class="cls-17" d="M161.3,63.3c.2,2.8,2.6,5.2,5.4,5.4,2.8.2,4.8-1.9,4.7-4.7-.1-2.8-2.6-5.2-5.4-5.4-2.8-.1-4.9,1.9-4.7,4.7Z"/>
      <path class="cls-17" d="M161.3,63.3c.2,2.8,2.6,5.2,5.4,5.4,2.8.2,4.8-1.9,4.7-4.7-.1-2.8-2.5-5.2-5.4-5.4-2.8-.1-4.9,1.9-4.7,4.7Z"/>
      <path class="cls-17" d="M161.4,63.3c.2,2.7,2.6,5.1,5.4,5.4,2.7.2,4.8-1.9,4.7-4.7-.2-2.8-2.5-5.2-5.4-5.4-2.8-.1-4.9,1.9-4.7,4.7Z"/>
      <path class="cls-76" d="M161.4,63.3c.2,2.7,2.6,5.1,5.3,5.3s4.8-1.9,4.6-4.6c-.2-2.8-2.5-5.1-5.3-5.3-2.7-.2-4.8,1.9-4.6,4.6Z"/>
      <path class="cls-76" d="M161.4,63.3c.2,2.7,2.6,5.1,5.3,5.3,2.7.2,4.7-1.8,4.6-4.6-.2-2.8-2.5-5.1-5.3-5.3-2.7-.2-4.8,1.9-4.6,4.6Z"/>
      <path class="cls-66" d="M161.4,63.2c.2,2.7,2.6,5.1,5.3,5.3,2.7.2,4.7-1.8,4.6-4.6-.2-2.7-2.5-5.1-5.3-5.3-2.7-.2-4.7,1.9-4.6,4.6Z"/>
      <path class="cls-66" d="M161.5,63.2c.2,2.7,2.6,5.1,5.3,5.3,2.7.2,4.7-1.8,4.6-4.6-.2-2.7-2.5-5.1-5.3-5.3-2.7-.2-4.7,1.9-4.6,4.6Z"/>
      <path class="cls-66" d="M161.5,63.2c.2,2.7,2.5,5.1,5.2,5.2,2.7.2,4.7-1.8,4.5-4.5-.2-2.7-2.5-5.1-5.2-5.2-2.7-.2-4.7,1.8-4.5,4.5Z"/>
      <path class="cls-66" d="M161.6,63.2c.2,2.7,2.5,5,5.2,5.2,2.7.2,4.7-1.8,4.5-4.5s-2.5-5.1-5.2-5.2c-2.7-.2-4.7,1.8-4.5,4.5Z"/>
      <path class="cls-66" d="M161.6,63.2c.2,2.7,2.5,5,5.2,5.2s4.7-1.8,4.5-4.5-2.5-5-5.2-5.2c-2.7-.1-4.7,1.8-4.5,4.5Z"/>
      <path class="cls-66" d="M161.7,63.2c.2,2.7,2.5,5,5.2,5.2s4.6-1.8,4.4-4.4c-.2-2.7-2.5-5-5.2-5.2-2.7-.2-4.7,1.8-4.4,4.4Z"/>
      <path class="cls-46" d="M161.7,63.2c.2,2.7,2.5,5,5.1,5.1,2.7.2,4.6-1.8,4.4-4.4s-2.5-5-5.1-5.1c-2.7-.2-4.7,1.8-4.4,4.4Z"/>
      <path class="cls-46" d="M161.8,63.1c.2,2.6,2.5,4.9,5.1,5.1,2.6.2,4.6-1.7,4.4-4.4s-2.5-5-5.1-5.1c-2.7-.2-4.6,1.8-4.4,4.4Z"/>
      <path class="cls-4" d="M161.8,63.1c.2,2.6,2.5,4.9,5.1,5.1,2.6.2,4.6-1.7,4.3-4.3-.2-2.7-2.5-4.9-5.1-5.1-2.7-.2-4.6,1.7-4.3,4.3Z"/>
      <path class="cls-4" d="M161.8,63.1c.2,2.6,2.5,4.9,5.1,5.1s4.5-1.7,4.3-4.3c-.2-2.6-2.4-4.9-5.1-5.1-2.6-.2-4.5,1.7-4.3,4.3Z"/>
      <path class="cls-4" d="M161.8,63.1c.2,2.6,2.5,4.9,5.1,5.1,2.6.2,4.5-1.7,4.3-4.3-.2-2.6-2.4-4.9-5.1-5.1-2.6-.2-4.5,1.7-4.3,4.3Z"/>
      <path class="cls-24" d="M161.9,63c.2,2.6,2.5,4.8,5.1,5.1s4.5-1.7,4.3-4.3-2.4-4.9-5.1-5.1c-2.6-.2-4.5,1.7-4.3,4.3Z"/>
      <path class="cls-24" d="M161.9,63c.2,2.6,2.5,4.8,5,5,2.6.2,4.4-1.7,4.3-4.3s-2.4-4.8-5-5c-2.6-.2-4.5,1.7-4.3,4.3Z"/>
      <path class="cls-24" d="M162,63c.2,2.6,2.4,4.8,5,5s4.4-1.7,4.3-4.3-2.4-4.8-5-5c-2.6-.1-4.5,1.7-4.3,4.3Z"/>
      <path class="cls-31" d="M162,63c.2,2.5,2.4,4.8,5,5,2.5.2,4.4-1.6,4.2-4.2s-2.4-4.8-5-5c-2.6-.2-4.4,1.7-4.2,4.2Z"/>
      <path class="cls-31" d="M162.1,63c.2,2.5,2.4,4.7,5,5s4.4-1.6,4.2-4.2-2.4-4.8-5-5c-2.5-.2-4.4,1.6-4.2,4.2Z"/>
      <path class="cls-75" d="M162.1,62.9c.2,2.5,2.4,4.7,5,5s4.3-1.6,4.2-4.2c-.2-2.5-2.4-4.7-5-5-2.5-.2-4.4,1.6-4.2,4.2Z"/>
      <path class="cls-75" d="M162.2,62.9c.2,2.5,2.4,4.7,4.9,4.9s4.3-1.6,4.1-4.1-2.4-4.7-4.9-4.9c-2.5-.2-4.3,1.6-4.1,4.1Z"/>
      <path class="cls-75" d="M162.2,62.9c.2,2.5,2.4,4.7,4.9,4.9s4.3-1.6,4.1-4.1c-.2-2.5-2.4-4.7-4.9-4.9-2.5-.2-4.3,1.6-4.1,4.1Z"/>
      <path class="cls-88" d="M162.2,62.9c.2,2.5,2.4,4.7,4.9,4.9s4.3-1.6,4.1-4.1c-.2-2.5-2.4-4.7-4.9-4.9-2.5-.2-4.3,1.6-4.1,4.1Z"/>
      <path class="cls-88" d="M162.3,62.8c.2,2.5,2.4,4.7,4.9,4.9s4.3-1.6,4-4c-.2-2.5-2.4-4.7-4.9-4.9-2.5-.2-4.3,1.6-4,4Z"/>
      <path class="cls-63" d="M162.3,62.8c.2,2.4,2.4,4.6,4.8,4.8s4.3-1.6,4-4c-.2-2.4-2.4-4.6-4.8-4.8-2.4-.2-4.3,1.6-4,4Z"/>
      <path class="cls-63" d="M162.3,62.8c.2,2.4,2.4,4.6,4.8,4.8s4.2-1.6,4-4-2.4-4.6-4.8-4.8c-2.4-.3-4.2,1.6-4,4Z"/>
      <path class="cls-63" d="M162.4,62.8c.2,2.4,2.4,4.6,4.8,4.8,2.4.2,4.2-1.6,4-4s-2.4-4.6-4.8-4.8c-2.4-.2-4.2,1.6-4,4Z"/>
      <path class="cls-39" d="M162.4,62.8c.2,2.4,2.4,4.6,4.8,4.8,2.4.2,4.2-1.6,3.9-3.9s-2.4-4.6-4.8-4.8c-2.4-.2-4.2,1.5-3.9,3.9Z"/>
      <path class="cls-39" d="M162.5,62.8c.2,2.4,2.4,4.5,4.7,4.7,2.4.2,4.2-1.5,3.9-3.9-.2-2.4-2.4-4.5-4.7-4.7-2.4-.2-4.1,1.5-3.9,3.9Z"/>
      <path class="cls-39" d="M162.5,62.8c.2,2.4,2.4,4.5,4.7,4.7,2.4.2,4.1-1.5,3.9-3.9-.2-2.4-2.4-4.5-4.7-4.7-2.4-.2-4.1,1.5-3.9,3.9Z"/>
      <path class="cls-72" d="M162.6,62.7c.2,2.4,2.4,4.5,4.7,4.7,2.4.2,4.1-1.5,3.9-3.9-.2-2.4-2.4-4.5-4.7-4.7-2.4-.2-4.1,1.5-3.9,3.9Z"/>
      <path class="cls-72" d="M162.6,62.7c.2,2.4,2.4,4.5,4.7,4.7,2.4.2,4.1-1.5,3.9-3.9-.2-2.4-2.4-4.5-4.7-4.7-2.4-.2-4.1,1.5-3.9,3.9Z"/>
      <path class="cls-9" d="M162.6,62.7c.2,2.4,2.4,4.4,4.7,4.7,2.4.2,4-1.5,3.8-3.8s-2.4-4.4-4.7-4.7c-2.4-.2-4.1,1.5-3.8,3.9Z"/>
      <path class="cls-9" d="M162.7,62.7c.2,2.4,2.3,4.4,4.7,4.7s4-1.5,3.8-3.8-2.3-4.4-4.7-4.7c-2.4-.2-4.1,1.5-3.8,3.8Z"/>
      <path class="cls-9" d="M162.7,62.7c.2,2.3,2.3,4.4,4.6,4.6,2.3.2,4-1.5,3.8-3.8s-2.3-4.4-4.6-4.6c-2.3-.2-4,1.5-3.8,3.8Z"/>
      <path class="cls-9" d="M162.7,62.7c.2,2.3,2.3,4.3,4.6,4.6,2.3.2,4-1.5,3.7-3.8-.2-2.3-2.3-4.3-4.6-4.6-2.3-.2-3.9,1.5-3.7,3.8Z"/>
      <path class="cls-9" d="M162.8,62.7c.2,2.3,2.3,4.3,4.6,4.6,2.3.2,3.9-1.4,3.7-3.7s-2.3-4.3-4.6-4.6c-2.3-.2-4,1.4-3.7,3.7Z"/>
      <path class="cls-15" d="M162.8,62.7c.2,2.3,2.3,4.3,4.5,4.5s3.9-1.4,3.7-3.7c-.2-2.3-2.3-4.3-4.5-4.6-2.3-.2-3.9,1.5-3.7,3.7Z"/>
      <path class="cls-15" d="M162.8,62.7c.2,2.3,2.3,4.3,4.5,4.5s3.9-1.4,3.7-3.7-2.3-4.3-4.5-4.5-3.9,1.4-3.7,3.7Z"/>
      <path class="cls-15" d="M162.9,62.7c.2,2.3,2.3,4.3,4.5,4.5,2.3.2,3.9-1.4,3.6-3.6-.2-2.3-2.2-4.3-4.5-4.5-2.3-.3-3.9,1.4-3.6,3.6Z"/>
      <path class="cls-44" d="M162.9,62.7c.2,2.2,2.2,4.2,4.5,4.5,2.2.2,3.9-1.4,3.6-3.6s-2.2-4.2-4.5-4.5c-2.2-.2-3.9,1.4-3.6,3.6Z"/>
      <path class="cls-73" d="M162.9,62.7c.2,2.2,2.2,4.2,4.4,4.4s3.9-1.4,3.6-3.6c-.2-2.2-2.2-4.2-4.4-4.4-2.2-.3-3.8,1.4-3.6,3.6Z"/>
      <path class="cls-73" d="M163,62.7c.2,2.2,2.2,4.2,4.4,4.4,2.2.2,3.8-1.4,3.6-3.6s-2.2-4.2-4.4-4.4c-2.2-.2-3.9,1.4-3.6,3.6Z"/>
      <path class="cls-73" d="M163,62.7c.2,2.2,2.2,4.2,4.4,4.4,2.2.2,3.8-1.4,3.5-3.5s-2.2-4.2-4.4-4.4c-2.2-.3-3.8,1.3-3.5,3.5Z"/>
      <path class="cls-73" d="M163,62.7c.2,2.2,2.2,4.1,4.3,4.3s3.8-1.4,3.5-3.5-2.2-4.1-4.3-4.3-3.8,1.4-3.5,3.5Z"/>
      <path class="cls-30" d="M163,62.7c.2,2.2,2.2,4.1,4.3,4.3,2.2.2,3.7-1.4,3.5-3.5-.2-2.2-2.2-4.1-4.3-4.3-2.2-.3-3.7,1.3-3.5,3.5Z"/>
      <path class="cls-30" d="M163,62.7c.2,2.2,2.1,4.1,4.3,4.3,2.1.2,3.7-1.3,3.5-3.5-.2-2.1-2.1-4.1-4.3-4.3-2.1-.2-3.7,1.3-3.5,3.5Z"/>
      <path class="cls-49" d="M163.1,62.7c.2,2.1,2.1,4,4.3,4.3,2.1.2,3.7-1.3,3.5-3.5s-2.1-4-4.3-4.3c-2.1-.3-3.7,1.3-3.5,3.5Z"/>
      <path class="cls-49" d="M163.1,62.7c.2,2.1,2.1,4,4.3,4.3,2.1.2,3.7-1.3,3.5-3.5s-2.1-4-4.3-4.3c-2.2-.2-3.7,1.3-3.5,3.5Z"/>
      <path class="cls-49" d="M163.1,62.6c.2,2.1,2.1,4,4.2,4.2s3.6-1.3,3.4-3.4c-.2-2.1-2.1-4-4.2-4.2-2.1-.2-3.6,1.3-3.4,3.4Z"/>
      <path class="cls-49" d="M163.2,62.6c.2,2.1,2.1,3.9,4.2,4.2,2.1.2,3.6-1.3,3.4-3.4s-2.1-4-4.2-4.2c-2.1-.2-3.6,1.3-3.4,3.4Z"/>
      <path class="cls-49" d="M163.2,62.6c.2,2.1,2.1,3.9,4.2,4.2,2.1.2,3.6-1.3,3.4-3.4-.2-2.1-2.1-3.9-4.2-4.2-2.1-.2-3.6,1.3-3.4,3.4Z"/>
      <path class="cls-49" d="M163.2,62.6c.2,2.1,2,3.9,4.1,4.1,2.1.2,3.5-1.3,3.4-3.4-.2-2.1-2-3.9-4.1-4.1-2.1-.2-3.6,1.3-3.4,3.4Z"/>
      <path class="cls-69" d="M163.3,62.6c.2,2,2,3.9,4.1,4.1,2,.2,3.5-1.3,3.3-3.3s-2-3.9-4.1-4.1c-2-.2-3.5,1.3-3.3,3.3Z"/>
      <path class="cls-69" d="M163.3,62.6c.2,2,2,3.9,4.1,4.1s3.5-1.3,3.3-3.3c-.2-2-2-3.9-4.1-4.1-2.1-.2-3.5,1.3-3.3,3.3Z"/>
      <path class="cls-37" d="M163.3,62.6c.2,2,2,3.9,4,4,2,.2,3.5-1.3,3.3-3.3-.2-2-2-3.8-4-4s-3.5,1.3-3.3,3.3Z"/>
      <path class="cls-37" d="M163.4,62.6c.2,2,2,3.8,4,4,2,.2,3.5-1.2,3.3-3.3-.2-2-2-3.8-4-4-2-.2-3.5,1.3-3.3,3.3Z"/>
      <path class="cls-37" d="M163.4,62.6c.2,2,2,3.8,4,4s3.5-1.2,3.2-3.2-2-3.8-4-4c-2-.2-3.5,1.2-3.2,3.2Z"/>
      <path class="cls-59" d="M163.4,62.6c.2,2,2,3.8,3.9,3.9,2,.2,3.4-1.2,3.2-3.2-.2-2-2-3.8-3.9-3.9-2-.2-3.4,1.2-3.2,3.2Z"/>
      <path class="cls-59" d="M163.4,62.6c.2,2,2,3.7,3.9,3.9,2,.2,3.4-1.2,3.2-3.2s-2-3.7-3.9-3.9c-2-.2-3.4,1.2-3.2,3.2Z"/>
      <path class="cls-59" d="M163.5,62.6c.2,2,2,3.7,3.9,3.9,2,.2,3.4-1.2,3.2-3.2-.2-2-2-3.7-3.9-3.9-2-.2-3.4,1.2-3.2,3.2Z"/>
      <path class="cls-59" d="M163.5,62.6c.2,2,2,3.7,3.9,3.9,2,.2,3.4-1.2,3.1-3.1-.2-2-2-3.7-3.9-3.9-2-.2-3.3,1.2-3.1,3.1Z"/>
      <path class="cls-59" d="M163.5,62.6c.2,2,1.9,3.6,3.9,3.9,1.9.2,3.3-1.2,3.1-3.1-.2-1.9-1.9-3.6-3.9-3.9-2-.2-3.4,1.2-3.1,3.1Z"/>
      <path class="cls-11" d="M163.5,62.6c.2,1.9,1.9,3.6,3.8,3.8,1.9.2,3.3-1.2,3.1-3.1s-1.9-3.6-3.8-3.8c-1.9-.2-3.3,1.2-3.1,3.1Z"/>
      <path class="cls-11" d="M163.6,62.6c.2,1.9,1.9,3.6,3.8,3.8,1.9.2,3.3-1.2,3.1-3.1s-1.9-3.6-3.8-3.8c-1.9-.2-3.3,1.2-3.1,3.1Z"/>
      <path class="cls-82" d="M163.6,62.6c.2,1.9,1.9,3.6,3.8,3.8,1.9.2,3.2-1.2,3.1-3.1-.2-1.9-1.9-3.6-3.8-3.8-1.9-.2-3.3,1.2-3.1,3.1Z"/>
      <path class="cls-82" d="M163.6,62.6c.2,1.9,1.9,3.5,3.7,3.7,1.9.2,3.2-1.2,3.1-3.1-.2-1.9-1.9-3.5-3.7-3.7s-3.2,1.2-3.1,3.1Z"/>
      <path class="cls-82" d="M163.7,62.6c.2,1.9,1.9,3.5,3.7,3.7,1.9.2,3.2-1.2,3-3-.2-1.9-1.9-3.5-3.7-3.7-1.9-.2-3.2,1.2-3,3Z"/>
      <path class="cls-82" d="M163.7,62.6c.2,1.9,1.8,3.5,3.7,3.7,1.9.2,3.2-1.2,3-3-.2-1.9-1.8-3.5-3.7-3.7-1.8-.2-3.2,1.2-3,3Z"/>
      <path class="cls-82" d="M163.8,62.6c.2,1.8,1.8,3.5,3.6,3.6s3.1-1.2,3-3c-.2-1.8-1.8-3.5-3.6-3.6-1.9-.2-3.2,1.2-3,3Z"/>
      <path class="cls-82" d="M163.8,62.6c.2,1.8,1.8,3.5,3.6,3.6s3.1-1.2,3-3c-.2-1.8-1.8-3.5-3.6-3.6-1.8-.2-3.1,1.2-3,3Z"/>
      <path class="cls-85" d="M163.8,62.6c.2,1.8,1.8,3.4,3.6,3.6,1.8.2,3.1-1.1,2.9-2.9s-1.8-3.4-3.6-3.6c-1.8-.2-3.1,1.1-2.9,2.9Z"/>
      <path class="cls-85" d="M163.8,62.6c.2,1.8,1.8,3.4,3.6,3.6,1.8.2,3.1-1.1,2.9-2.9-.2-1.8-1.8-3.4-3.6-3.6-1.7-.2-3.1,1.1-2.9,2.9Z"/>
      <path class="cls-42" d="M163.8,62.6c.2,1.8,1.8,3.4,3.5,3.5s3.1-1.1,2.9-2.9-1.8-3.4-3.5-3.5c-1.8-.2-3.1,1.1-2.9,2.9Z"/>
      <path class="cls-1" d="M163.9,62.6c.2,1.8,1.8,3.3,3.5,3.5,1.8.2,3.1-1.1,2.8-2.8-.2-1.8-1.8-3.3-3.5-3.5-1.7-.2-3,1.1-2.8,2.8Z"/>
      <path class="cls-1" d="M163.9,62.6c.2,1.7,1.7,3.3,3.5,3.5,1.7.2,3-1.1,2.8-2.8s-1.7-3.3-3.5-3.5-3.1,1.1-2.8,2.8Z"/>
      <path class="cls-1" d="M163.9,62.6c.2,1.7,1.7,3.3,3.5,3.5,1.7.2,3-1.1,2.8-2.8-.2-1.7-1.7-3.3-3.5-3.5-1.7-.2-3,1.1-2.8,2.8Z"/>
      <path class="cls-1" d="M164,62.6c.2,1.7,1.7,3.2,3.4,3.4,1.7.2,3-1.1,2.8-2.8-.2-1.7-1.7-3.2-3.4-3.4-1.7-.1-3,1.1-2.8,2.8Z"/>
      <path class="cls-81" d="M164,62.6c.2,1.7,1.7,3.2,3.4,3.4,1.7.2,2.9-1.1,2.7-2.7s-1.7-3.2-3.4-3.4c-1.7-.2-2.9,1.1-2.7,2.7Z"/>
      <path class="cls-81" d="M164,62.6c.2,1.7,1.7,3.2,3.4,3.4,1.7.2,2.9-1.1,2.7-2.7s-1.7-3.2-3.4-3.4c-1.7-.1-2.9,1.1-2.7,2.7Z"/>
      <path class="cls-81" d="M164.1,62.6c.2,1.7,1.7,3.2,3.4,3.3,1.7.2,2.9-1.1,2.7-2.7-.2-1.7-1.7-3.2-3.4-3.4-1.7-.1-2.9,1.1-2.7,2.7Z"/>
      <path class="cls-47" d="M164.1,62.6c.2,1.6,1.6,3.1,3.3,3.3,1.6.2,2.9-1,2.7-2.7-.2-1.6-1.6-3.1-3.3-3.3-1.7-.1-2.9,1.1-2.7,2.7Z"/>
      <path class="cls-47" d="M164.1,62.6c.2,1.6,1.6,3.1,3.3,3.3,1.6.2,2.8-1,2.7-2.7s-1.6-3.1-3.3-3.3c-1.6-.2-2.8,1-2.7,2.7Z"/>
      <path class="cls-47" d="M164.2,62.6c.2,1.6,1.6,3.1,3.3,3.3,1.6.2,2.8-1,2.7-2.7s-1.6-3.1-3.3-3.3c-1.6-.1-2.8,1-2.7,2.7Z"/>
      <path class="cls-47" d="M164.2,62.6c.2,1.6,1.6,3.1,3.2,3.2,1.6.2,2.8-1,2.6-2.6-.2-1.6-1.6-3.1-3.2-3.2-1.6-.2-2.7,1-2.6,2.6Z"/>
      <path class="cls-47" d="M164.2,62.6c.2,1.6,1.6,3.1,3.2,3.2,1.6.2,2.8-1,2.6-2.6-.2-1.6-1.6-3.1-3.2-3.2s-2.8,1-2.6,2.6Z"/>
      <path class="cls-41" d="M164.2,62.6c.2,1.6,1.6,3,3.2,3.2s2.7-1,2.6-2.6c-.2-1.6-1.6-3-3.2-3.2-1.6-.2-2.7,1-2.6,2.6Z"/>
      <path class="cls-41" d="M164.2,62.6c.2,1.6,1.6,3,3.1,3.1,1.6.2,2.7-1,2.6-2.6-.2-1.6-1.6-3-3.1-3.1-1.6-.1-2.7,1-2.6,2.6Z"/>
      <path class="cls-41" d="M164.3,62.6c.2,1.6,1.6,3,3.1,3.1,1.6.2,2.7-1,2.5-2.5s-1.6-3-3.1-3.1c-1.6-.1-2.7,1-2.5,2.6Z"/>
      <path class="cls-41" d="M164.3,62.6c.2,1.6,1.6,2.9,3.1,3.1s2.7-1,2.5-2.5c-.2-1.6-1.6-2.9-3.1-3.1-1.6-.1-2.7,1-2.5,2.5Z"/>
      <path class="cls-22" d="M164.3,62.6c.2,1.6,1.6,2.9,3.1,3.1,1.6.2,2.7-1,2.5-2.5-.2-1.6-1.6-2.9-3.1-3.1-1.5-.2-2.6.9-2.5,2.5Z"/>
      <path class="cls-95" d="M164.4,62.6c.2,1.5,1.5,2.9,3.1,3.1,1.5.2,2.6-.9,2.5-2.5-.2-1.5-1.5-2.9-3.1-3.1-1.5-.1-2.6,1-2.5,2.5Z"/>
      <path class="cls-95" d="M164.4,62.6c.1,1.5,1.5,2.8,3,3,1.5.2,2.6-.9,2.4-2.4s-1.5-2.8-3-3c-1.5-.2-2.6.9-2.4,2.4Z"/>
      <path class="cls-95" d="M164.4,62.6c.2,1.5,1.5,2.8,3,3,1.5.2,2.6-.9,2.4-2.4s-1.5-2.8-3-3c-1.5-.1-2.6.9-2.4,2.4Z"/>
      <path class="cls-95" d="M164.5,62.6c.1,1.5,1.5,2.8,3,3,1.5.1,2.6-.9,2.4-2.4-.1-1.5-1.5-2.8-3-3-1.5-.2-2.5.9-2.4,2.4Z"/>
      <path class="cls-95" d="M164.5,62.6c.1,1.5,1.5,2.8,2.9,2.9,1.5.1,2.5-.9,2.4-2.4-.1-1.5-1.5-2.8-2.9-2.9-1.5-.1-2.6.9-2.4,2.4Z"/>
      <path class="cls-97" d="M164.5,62.6c.1,1.5,1.5,2.7,2.9,2.9,1.5.1,2.5-.9,2.4-2.4-.1-1.5-1.5-2.7-2.9-2.9-1.4-.2-2.4.9-2.3,2.4Z"/>
      <path class="cls-97" d="M164.6,62.6c.1,1.4,1.4,2.7,2.9,2.9,1.4.1,2.5-.9,2.4-2.4-.1-1.4-1.4-2.7-2.9-2.9-1.5-.1-2.5.9-2.4,2.4Z"/>
      <path class="cls-97" d="M164.6,62.6c.1,1.4,1.4,2.7,2.8,2.8,1.4.1,2.4-.9,2.3-2.3s-1.4-2.7-2.8-2.8c-1.4-.2-2.5.9-2.3,2.3Z"/>
      <path class="cls-68" d="M164.6,62.6c.1,1.4,1.4,2.7,2.8,2.8,1.4.1,2.4-.9,2.3-2.3s-1.4-2.7-2.8-2.8c-1.4-.1-2.4.9-2.3,2.3Z"/>
      <path class="cls-68" d="M164.6,62.6c.1,1.4,1.4,2.7,2.8,2.8,1.4.1,2.4-.9,2.3-2.3-.1-1.4-1.4-2.7-2.8-2.8-1.4-.2-2.4.8-2.3,2.3Z"/>
      <path class="cls-33" d="M164.7,62.6c.1,1.4,1.4,2.6,2.7,2.7s2.4-.8,2.3-2.3c-.1-1.4-1.4-2.6-2.7-2.7-1.4-.1-2.4.8-2.3,2.3Z"/>
      <path class="cls-33" d="M164.7,62.6c.1,1.4,1.4,2.6,2.7,2.7s2.4-.8,2.2-2.2-1.4-2.6-2.7-2.7c-1.3-.2-2.4.8-2.2,2.2Z"/>
      <path class="cls-33" d="M164.7,62.5c.1,1.4,1.4,2.6,2.7,2.7,1.4.1,2.4-.8,2.2-2.2s-1.4-2.6-2.7-2.7c-1.4,0-2.4.9-2.2,2.2Z"/>
      <path class="cls-51" d="M164.8,62.5c.1,1.3,1.3,2.5,2.7,2.7s2.3-.8,2.2-2.2c-.1-1.3-1.3-2.5-2.7-2.7-1.3-.1-2.3.8-2.1,2.2Z"/>
      <path class="cls-2" d="M164.8,62.5c.1,1.3,1.3,2.5,2.7,2.7s2.3-.8,2.1-2.1c-.1-1.3-1.3-2.5-2.7-2.7-1.3-.1-2.3.8-2.1,2.1Z"/>
      <path class="cls-48" d="M164.8,62.5c.1,1.3,1.3,2.5,2.6,2.6,1.3.1,2.3-.8,2.1-2.1-.1-1.3-1.3-2.5-2.6-2.6-1.3-.1-2.3.8-2.1,2.1Z"/>
      <path class="cls-48" d="M164.9,62.5c.1,1.3,1.3,2.4,2.6,2.6,1.3.1,2.3-.8,2.1-2.1-.1-1.3-1.3-2.5-2.6-2.6-1.3-.1-2.2.8-2.1,2.1Z"/>
      <path class="cls-48" d="M164.9,62.5c.1,1.3,1.3,2.4,2.6,2.6s2.2-.8,2.1-2.1-1.3-2.4-2.6-2.6c-1.3-.1-2.2.8-2.1,2.1Z"/>
      <path class="cls-18" d="M164.9,62.5c.1,1.3,1.3,2.4,2.5,2.5,1.3.1,2.2-.8,2-2-.1-1.3-1.3-2.4-2.5-2.5-1.2-.1-2.2.8-2,2Z"/>
      <path class="cls-18" d="M165,62.5c.1,1.2,1.2,2.4,2.5,2.5,1.2.1,2.2-.8,2-2s-1.2-2.4-2.5-2.5c-1.3-.1-2.2.8-2,2Z"/>
      <path class="cls-18" d="M165,62.5c.1,1.2,1.2,2.4,2.5,2.5,1.2.1,2.1-.8,2-2s-1.2-2.4-2.5-2.5c-1.2-.1-2.1.8-2,2Z"/>
      <path class="cls-18" d="M165,62.5c.1,1.2,1.2,2.4,2.4,2.4,1.2.1,2.1-.8,2-2s-1.2-2.4-2.4-2.4c-1.2-.1-2.1.8-2,2Z"/>
      <path class="cls-18" d="M165,62.5c.1,1.2,1.2,2.3,2.4,2.4,1.2.1,2.1-.8,2-2-.1-1.2-1.2-2.3-2.4-2.4-1.2-.1-2.1.8-2,2Z"/>
      <path class="cls-79" d="M165,62.5c.1,1.2,1.2,2.3,2.4,2.4,1.2.1,2.1-.8,2-2-.1-1.2-1.2-2.3-2.4-2.4-1.2-.1-2,.8-2,2Z"/>
      <path class="cls-79" d="M165.1,62.5c.1,1.2,1.2,2.3,2.4,2.4,1.2.1,2-.8,1.9-1.9-.1-1.2-1.2-2.3-2.4-2.4-1.2-.1-2,.7-1.9,1.9Z"/>
      <path class="cls-79" d="M165.1,62.5c.1,1.2,1.2,2.2,2.4,2.4,1.2.1,2-.7,1.9-1.9-.1-1.2-1.2-2.2-2.4-2.4-1.2-.1-2,.7-1.9,1.9Z"/>
      <path class="cls-79" d="M165.1,62.5c.1,1.2,1.2,2.2,2.3,2.3,1.2.1,2-.7,1.9-1.9-.1-1.2-1.2-2.2-2.3-2.3-1.1-.1-2,.7-1.9,1.9Z"/>
      <path class="cls-79" d="M165.2,62.5c.1,1.2,1.2,2.2,2.3,2.3s2-.7,1.9-1.9c-.1-1.2-1.2-2.2-2.3-2.3s-2,.7-1.9,1.9Z"/>
      <path class="cls-56" d="M165.2,62.5c.1,1.2,1.2,2.1,2.3,2.3,1.2.1,2-.7,1.8-1.8s-1.2-2.1-2.3-2.3c-1.1-.1-2,.7-1.8,1.8Z"/>
      <path class="cls-56" d="M165.2,62.5c.1,1.1,1.1,2.1,2.2,2.2,1.1.1,2-.7,1.8-1.8s-1.1-2.1-2.2-2.2c-1.1-.1-1.9.7-1.8,1.8Z"/>
      <path class="cls-45" d="M165.3,62.5c.1,1.1,1.1,2.1,2.2,2.2s1.9-.7,1.8-1.8-1.1-2.1-2.2-2.2-1.9.7-1.8,1.8Z"/>
      <path class="cls-50" d="M165.3,62.5c.1,1.1,1.1,2.1,2.2,2.2,1.1.1,1.9-.7,1.8-1.8-.1-1.1-1.1-2.1-2.2-2.2-1.1-.1-1.9.7-1.8,1.8Z"/>
      <path class="cls-50" d="M165.3,62.5c.1,1.1,1.1,2,2.2,2.2,1.1.1,1.9-.7,1.7-1.7-.1-1.1-1.1-2-2.2-2.2-1.1-.1-1.8.6-1.7,1.7Z"/>
      <path class="cls-26" d="M165.4,62.5c.1,1.1,1.1,2,2.1,2.1s1.8-.7,1.7-1.7c-.1-1.1-1.1-2-2.1-2.1s-1.9.7-1.7,1.7Z"/>
      <path class="cls-26" d="M165.4,62.5c.1,1.1,1.1,2,2.1,2.1,1.1,0,1.8-.7,1.7-1.7,0-1.1-1.1-2-2.1-2.1-1.1-.1-1.8.6-1.7,1.7Z"/>
      <path class="cls-26" d="M165.4,62.5c.1,1,1,2,2.1,2.1,1,.1,1.8-.6,1.7-1.7,0-1-1-2-2.1-2.1-1-.1-1.8.6-1.7,1.7Z"/>
      <path class="cls-7" d="M165.4,62.5c.1,1,1,2,2,2,1,0,1.8-.6,1.6-1.6,0-1-1-2-2-2-1-.1-1.7.6-1.6,1.6Z"/>
      <path class="cls-7" d="M165.5,62.5c0,1,1,1.9,2,2,1,0,1.7-.6,1.6-1.6,0-1-1-1.9-2-2-1-.1-1.8.6-1.6,1.6Z"/>
      <path class="cls-29" d="M165.5,62.5c0,1,1,1.9,2,2,1,0,1.7-.6,1.6-1.6,0-1-1-1.9-2-2-1-.1-1.7.6-1.6,1.6Z"/>
      <path class="cls-29" d="M165.5,62.5c0,1,1,1.9,2,2,1,0,1.7-.6,1.6-1.6,0-1-1-1.9-2-2-1,0-1.7.6-1.6,1.6Z"/>
      <path class="cls-29" d="M165.6,62.5c0,1,1,1.8,2,1.9,1,0,1.6-.6,1.6-1.6s-1-1.8-2-2c-1,0-1.7.7-1.6,1.6Z"/>
      <path class="cls-62" d="M165.6,62.5c0,.9.9,1.8,1.9,1.9.9,0,1.6-.6,1.6-1.6,0-.9-1-1.8-1.9-1.9-.9,0-1.6.6-1.6,1.6Z"/>
      <path class="cls-62" d="M165.6,62.5c0,.9.9,1.8,1.9,1.9s1.6-.6,1.5-1.5c0-.9-.9-1.8-1.9-1.9-.9,0-1.6.6-1.5,1.5Z"/>
      <path class="cls-13" d="M165.7,62.5c0,.9.9,1.7,1.9,1.9.9,0,1.6-.6,1.5-1.5,0-.9-.9-1.7-1.9-1.9-.9,0-1.6.6-1.5,1.5Z"/>
      <path class="cls-13" d="M165.7,62.5c0,.9.9,1.7,1.8,1.8.9,0,1.6-.6,1.5-1.5s-.9-1.7-1.8-1.8c-.9,0-1.6.6-1.5,1.5Z"/>
      <path class="cls-13" d="M165.7,62.5c0,.9.9,1.7,1.8,1.8s1.6-.5,1.5-1.5c0-.9-.9-1.7-1.8-1.8-.9,0-1.6.6-1.5,1.5Z"/>
      <path class="cls-20" d="M165.7,62.5c0,.9.9,1.7,1.8,1.8s1.5-.5,1.4-1.4c0-.9-.9-1.7-1.8-1.8-.9,0-1.5.5-1.4,1.4Z"/>
      <path class="cls-57" d="M165.7,62.5c0,.8.9,1.6,1.7,1.7.9,0,1.5-.5,1.4-1.4,0-.8-.9-1.6-1.7-1.7-.9,0-1.5.6-1.4,1.4Z"/>
      <path class="cls-71" d="M165.8,62.5c0,.8.8,1.6,1.7,1.7.8,0,1.5-.5,1.4-1.4,0-.8-.8-1.6-1.7-1.7-.9-.1-1.5.5-1.4,1.3Z"/>
      <path class="cls-71" d="M165.8,62.5c0,.8.8,1.6,1.7,1.7s1.5-.5,1.4-1.3c0-.8-.8-1.6-1.7-1.7-.9,0-1.5.5-1.4,1.3Z"/>
      <path class="cls-71" d="M165.8,62.5c0,.8.8,1.6,1.6,1.6.8,0,1.4-.5,1.3-1.3s-.8-1.6-1.6-1.6c-.8,0-1.4.5-1.3,1.3Z"/>
      <path class="cls-10" d="M165.9,62.5c0,.8.8,1.6,1.6,1.6.8,0,1.4-.5,1.3-1.3,0-.8-.8-1.6-1.6-1.6-.8,0-1.4.5-1.3,1.3Z"/>
      <path class="cls-10" d="M165.9,62.5c0,.8.8,1.5,1.6,1.6.8,0,1.4-.5,1.3-1.3,0-.8-.8-1.5-1.6-1.6-.8,0-1.4.5-1.3,1.3Z"/>
      <path class="cls-36" d="M165.9,62.5c0,.8.8,1.5,1.6,1.6.8,0,1.3-.5,1.2-1.2,0-.8-.8-1.5-1.6-1.6-.8,0-1.3.4-1.2,1.2Z"/>
      <path class="cls-36" d="M166,62.5c0,.8.8,1.5,1.6,1.6.8,0,1.3-.5,1.2-1.2s-.8-1.5-1.6-1.6c-.8,0-1.3.5-1.2,1.2Z"/>
      <path class="cls-36" d="M166,62.5c0,.8.8,1.4,1.5,1.5.8,0,1.3-.4,1.2-1.2,0-.8-.8-1.4-1.5-1.5-.8,0-1.3.4-1.2,1.2Z"/>
      <path class="cls-90" d="M166,62.5c0,.8.8,1.4,1.5,1.5.8,0,1.3-.4,1.2-1.2,0-.8-.8-1.4-1.5-1.5-.7,0-1.2.4-1.2,1.2Z"/>
      <path class="cls-90" d="M166.1,62.5c0,.7.8,1.4,1.5,1.5.7,0,1.2-.4,1.2-1.2,0-.7-.8-1.4-1.5-1.5-.7,0-1.2.4-1.2,1.2Z"/>
      <path class="cls-90" d="M166.1,62.5c0,.7.7,1.3,1.4,1.4s1.2-.4,1.2-1.2c0-.7-.7-1.3-1.4-1.4s-1.2.4-1.2,1.2Z"/>
      <path class="cls-67" d="M166.1,62.5c0,.7.7,1.3,1.4,1.4s1.2-.4,1.1-1.1c0-.7-.7-1.3-1.4-1.4-.7,0-1.2.4-1.1,1.1Z"/>
      <path class="cls-67" d="M166.1,62.5c0,.7.7,1.3,1.4,1.4.7,0,1.2-.4,1.1-1.1,0-.7-.7-1.3-1.4-1.4-.7,0-1.2.4-1.1,1.1Z"/>
      <path class="cls-86" d="M166.2,62.5c0,.7.7,1.3,1.3,1.3.7,0,1.2-.4,1.1-1.1s-.7-1.3-1.3-1.3c-.7,0-1.2.4-1.1,1.1Z"/>
      <path class="cls-86" d="M166.2,62.5c0,.7.7,1.2,1.3,1.3s1.2-.4,1.1-1.1-.7-1.2-1.3-1.3c-.7,0-1.1.4-1.1,1.1Z"/>
      <path class="cls-60" d="M166.2,62.5c0,.6.7,1.2,1.3,1.3.7,0,1.1-.4,1-1,0-.7-.7-1.2-1.3-1.3-.6,0-1.1.4-1,1Z"/>
      <path class="cls-60" d="M166.3,62.5c0,.6.6,1.2,1.2,1.2.6,0,1.1-.4,1-1,0-.6-.6-1.2-1.2-1.2-.7,0-1.1.4-1,1Z"/>
      <path class="cls-60" d="M166.3,62.4c0,.6.6,1.2,1.2,1.2s1.1-.4,1-1c0-.6-.6-1.2-1.2-1.2-.6,0-1,.4-1,1Z"/>
      <path class="cls-98" d="M166.3,62.4c0,.6.6,1.2,1.2,1.2.6,0,1-.4,1-1,0-.6-.6-1.2-1.2-1.2-.6,0-1.1.4-1,1Z"/>
      <path class="cls-98" d="M166.4,62.4c0,.6.6,1.1,1.2,1.2.6,0,1-.4.9-.9,0-.6-.6-1.1-1.2-1.2-.6,0-1,.4-.9.9Z"/>
      <path class="cls-98" d="M166.4,62.4c0,.6.6,1.1,1.2,1.2.6,0,1-.4.9-.9s-.6-1.1-1.2-1.2c-.6,0-1,.4-.9.9Z"/>
      <path class="cls-28" d="M166.4,62.4c0,.6.6,1.1,1.1,1.1.6,0,1-.4.9-.9,0-.6-.6-1.1-1.1-1.1s-.9.4-.9.9Z"/>
      <path class="cls-28" d="M166.5,62.4c0,.5.5,1,1.1,1.1.5,0,.9-.3.9-.9,0-.5-.5-1-1.1-1.1-.6,0-1,.4-.9.9Z"/>
      <path class="cls-28" d="M166.5,62.4c0,.5.5,1,1.1,1.1.5,0,.9-.3.8-.8,0-.5-.5-1-1.1-1.1-.5,0-.9.3-.8.8Z"/>
      <path class="cls-28" d="M166.5,62.4c0,.5.5,1,1,1,.5,0,.9-.3.8-.8s-.5-1-1-1c-.5,0-.9.4-.8.8Z"/>
      <path class="cls-28" d="M166.5,62.4c0,.5.5,1,1,1,.5,0,.8-.3.8-.8s-.5-1-1-1c-.5,0-.9.3-.8.8Z"/>
      <path class="cls-12" d="M166.5,62.4c0,.5.5.9,1,1,.5,0,.8-.3.8-.8s-.5-.9-1-1c-.5,0-.8.3-.8.8Z"/>
    </g>
    <g>
      <path class="cls-65" d="M160.5,65.6h0Z"/>
      <path class="cls-64" d="M171.5,64.4c1.8.3,3,.9,3,1.2,0,0,0,.2-.2.3,0,0,.2-.1.2-.2-.4.5-2.7,1.3-5.8,1.3-3.2,0-6-.8-8.3-1.5-2.1-.5-5.1-1.4-8.3-1.4s-5.5.9-5.8,1.4c-1.1,1.7-1.8,3.4-2.1,5.2-.4,2-.2,3.9.3,5.7,0-.5,2.4-1.5,5.9-1.5s6,.8,8.3,1.5c2.1.5,5.1,1.4,8.3,1.4s5.5-.9,5.8-1.4c1.1-1.7,1.8-3.4,2.1-5.2.4-2,.2-3.9-.3-5.7,0-.3-1.3-.9-3.1-1.2h0ZM174.6,65.6h0s0,0,0,0Z"/>
    </g>
    <g>
      <path class="cls-83" d="M150.4,66.1l-.3,1s-.1,0-.2,0c-.5,0-1.6.2-1.6.3-.1.3-.3.9-.3,1.1.3-.1,1-.3,1.4-.3l-.2.8c-.5,0-1.3.2-1.3.4,0,.2,0,.5-.2,1,0,.7-.2,1.2,0,1.4-.3.1-1,.3-1.2.1-.1-.2.3-4.1,1-5.3.1-.1,2-.5,2.9-.4Z"/>
      <path class="cls-83" d="M163.3,72.6s0,0,.2.1c.4,0,.7,0,1.1,0s.2,0,.2,0c0,0-.2,1-.4,1-.2,0-1.4-.1-2-.3-.2,0-.3-.1-.3-.2,0-.8.6-2.8.9-4.2.1-.7,0-.9-.1-1.1.4-.1,1.2,0,1.3,0,0,.2,0,.6-.1,1.3-.2.8-.6,2.7-.7,3.2Z"/>
      <path class="cls-83" d="M151.1,67.4c.2,0,.2.3.1.7.4-.5,1.2-.6,1.4-.5l-.3,1c-.4-.3-1,0-1.2.4-.3.6-.6,2.5-.3,2.6,0,0-1.1.2-1.2,0-.1-.3.3-2.1.4-2.5,0-.4,0-.9-.1-1.1,0,0,.8-.6,1-.5Z"/>
      <path class="cls-83" d="M159.9,68.6c-1.4,0-2.3,1.1-2.4,2.6,0,.9.4,1.5,1.3,1.5,1.6,0,2.4-1.2,2.4-2.6,0-.9-.4-1.4-1.3-1.5ZM159.7,69.4c.3,0,.5.2.4.6,0,.8-.4,2-1.1,1.9-.3,0-.5-.2-.5-.6,0-.6.4-2,1.2-2Z"/>
      <path class="cls-83" d="M171.6,69.6c0,.3,0,.8,0,1.6-.2,1.1-.5,1.6-.5,1.6,0,0-.3-2.4-.8-3.1-.1-.2-1.1.4-1.1.4.2,0,.3.4.6,1.2.3.8.5,1.9.5,2.4,0,.2-.4.7-.6.9-.2.2-.4.2-.7.1,0,.1.2.5.4.8.4.4.8,0,1.1-.4.7-.8,1.4-2,1.8-3.2.2-.6.3-1.3.3-1.8s0-.6,0-.8c0,0-.9.3-.9.3Z"/>
      <path class="cls-83" d="M154.4,67.6c.3.4-1.1,3.8-.6,4.1,0,0-1,0-1.2-.2-.3-.3.8-3.3.6-3.7,0,0,1-.4,1.1-.3Z"/>
      <path class="cls-83" d="M167.6,70.6c0,0-.2,0-.3,0-.3,0-.4,0-.7.4-.3.4-.4,1.1-.4,1.6,0,.4.2.5.4.5.3,0,.6-.4.7-.7,0,0,.3-1.7.2-1.8ZM168.9,73.6c-.2.2-.5.4-.8.4-.1,0-.3,0-.4,0-.1,0-.2-.4-.3-.6-.2.4-.6.6-.9.6-.7,0-1.2-.4-1.3-1.2,0-.9.2-1.7.6-2.2.4-.5.8-.7,1.5-.8.1,0,.4,0,.5,0,.4,0,.7,0,.8.1,0,0-.3,2.7-.2,3.1,0,.2.1.3.5.4Z"/>
      <path class="cls-83" d="M157.6,68.3h-.8c0-.4.1-.9.1-1.1s0-.4,0-.4c-.1,0-1,.3-1,.3,0,.1,0,.5,0,.8-.1,0-.4,0-.4,0,0,0-.4.8-.4.8.2,0,.5,0,.7,0,0,.2-.6,2.4-.6,2.7s.2.8.8.7c.4,0,.7-.2.9-.4-.3,0-.7-.1-.6-.8,0-.2.3-1.3.5-2.1h.7c0,.1.3-.6.3-.6Z"/>
    </g>
  </g>
</svg>