<?xml version="1.0" encoding="UTF-8"?>
<svg id="Layer_1" data-name="Layer 1" xmlns="http://www.w3.org/2000/svg" version="1.1" viewBox="0 0 240 138">
  <defs>
    <style>
      .cls-1 {
        fill: #ea0029;
      }

      .cls-1, .cls-2, .cls-3, .cls-4 {
        stroke-width: 0px;
      }

      .cls-2 {
        fill: #ed2526;
      }

      .cls-3 {
        fill: #2d2e73;
      }

      .cls-4 {
        fill: #fff;
      }
    </style>
  </defs>
  <path class="cls-4" d="M9.6,101.7c-3.9-15.4-8.6-47.3-4.4-59.6C9.4,29.9,16.9.1,56.8,3.3c39.9,3.2,116,13.8,135.7,9,19.7-4.8,27.7-6.4,27.7-6.4l8.1,2.5c6.3,24.1,10,45.4,3.1,64-6.9,18.6-22.3,30.3-67,26.6-44.7-3.7-121.8-10.6-129.8-4.3-8,6.4-13.8,9.6-13.8,9.6l-11-2.7Z"/>
  <g>
    <path class="cls-2" d="M88.2,124.5l.5.3-.9,1.4c-1.7.6-3.1,1-4.5,1.3-1.3.2-3,.3-4.9.3-2.8,0-5.3-.3-7.5-.9-1.7-.5-3.1-1.2-4.3-2-1.2-.8-2.1-1.8-2.7-2.7-1-1.5-1.5-3.1-1.5-4.8,0-3,1.4-5.4,4.3-7.3,2.9-1.9,6.9-2.8,12.1-2.8s3.4,0,4.8.3c1.4.2,3.1.5,5,1v.2c-.1.4-.3,1-.4,1.7-.2,1.1-.3,2.1-.4,3h-1.6c0-1,0-1.9-.2-2.5-.9-.7-1.9-1.1-3-1.5-1.1-.3-2.5-.5-4.3-.5-3.1,0-5.6.7-7.5,2.1-1.9,1.4-2.8,3.4-2.8,5.9s.3,2.8.9,4c.6,1.1,1.5,2.1,2.5,2.8,1,.7,2.1,1.3,3.2,1.6,1.4.5,3.2.7,5.3.7s2.6-.1,3.8-.3c1.2-.2,2.5-.6,3.9-1.1"/>
    <path class="cls-2" d="M102.4,119.1c-.9,0-2,0-3.1,0s-2.3,0-3.2,0l3.1-5.6,3.3,5.6M96.3,125v-1.1c-1.2,0-1.9,0-2.1-.2-.2,0-.2-.2-.2-.4s.3-.9.8-1.9l.5-1h7.9l1.2,2.2c.2.4.3.7.3.9s0,.2-.2.3c-.2,0-.8.1-2,.2v1s5.4,0,5.4,0h4.2c0,0,0-1,0-1-.3,0-.6,0-.8,0-.5,0-.8,0-.9,0-.1,0-.2,0-.3-.1,0,0-.2-.2-.3-.3l-.6-1-.8-1.3-6.8-11.3h-2.2l-1.3,2.4-4,7c-.7,1.3-1.2,2-1.4,2.5-.6.9-.9,1.5-1,1.6-.1.1-.2.3-.3.3-.1,0-.2.1-.4.1-.2,0-.8,0-1.6.1v1.1s3.5,0,3.5,0h3.5Z"/>
    <path class="cls-2" d="M149.4,119.1c-.9,0-2,0-3.1,0s-2.3,0-3.2,0l3.1-5.6,3.3,5.6M143.3,125v-1.1c-1.2,0-1.8,0-2.1-.2-.2,0-.2-.2-.2-.4s.3-.9.8-1.9l.5-1h7.9l1.2,2.2c.2.4.3.7.3.9s0,.2-.2.3c-.2,0-.8.1-2,.2v1s5.4,0,5.4,0h4.2c0,0,0-1,0-1-.3,0-.6,0-.8,0-.5,0-.8,0-.9,0-.1,0-.2,0-.3-.1,0,0-.2-.2-.3-.3l-.6-1-.8-1.3-6.8-11.3h-2.2l-1.3,2.4-4,7c-.7,1.3-1.2,2-1.4,2.5-.6.9-.9,1.5-1,1.6-.1.1-.2.3-.3.3-.1,0-.3.1-.4.1-.2,0-.8,0-1.6.1v1.1s3.5,0,3.5,0h3.5Z"/>
    <path class="cls-2" d="M194.6,119.1c-.9,0-2,0-3.1,0s-2.3,0-3.2,0l3.1-5.6,3.3,5.6M188.5,125v-1.1c-1.2,0-1.8,0-2.1-.2-.2,0-.3-.2-.3-.4s.3-.9.8-1.9l.5-1h7.9l1.2,2.2c.2.4.4.7.4.9s0,.2-.2.3c-.2,0-.8.1-2,.2v1s5.3,0,5.3,0h4.2c0,0,0-1,0-1-.3,0-.6,0-.8,0-.5,0-.8,0-.9,0-.1,0-.2,0-.3-.1,0,0-.2-.2-.3-.3l-.6-1-.8-1.3-6.8-11.3h-2.2l-1.3,2.4-4,7c-.8,1.3-1.2,2-1.4,2.5-.6.9-.9,1.5-1,1.6-.1.1-.2.3-.3.3-.1,0-.2.1-.4.1-.2,0-.8,0-1.6.1v1.1s3.5,0,3.5,0h3.5Z"/>
    <path class="cls-2" d="M113,125v-1.1c1.2,0,1.9,0,2-.1.1,0,.2,0,.3-.1,0,0,.1-.2.2-.4,0-.3.1-.9.2-2,0-.6,0-1.4,0-2.3v-6.3c0-.5-.1-.9-.2-1,0-.2-.1-.3-.2-.3,0,0-.3-.1-.5-.2-.2,0-.9,0-1.9-.1v-1c1.3,0,2.2,0,2.8,0h2.2s1.4,0,1.4,0c2.1,1.9,4.6,4.2,7.6,6.7,2.1,1.8,3.9,3.3,5.3,4.3v-2.4c0-3.9,0-6.2-.2-6.8,0-.3-.1-.4-.3-.5-.2-.1-1-.2-2.4-.2v-1c1.2,0,2.4,0,3.4,0s2.3,0,3.9,0v1c-1.2,0-2,0-2.2.2,0,0-.1,0-.2.2-.2.4-.2,1.2-.3,2.5,0,1.3,0,2.2,0,2.8,0,4.8,0,7.6.2,8.6h-.2c-.9,0-1.7,0-2.6-.2-3.3-2.6-7.9-6.5-13.9-11.7v5.2c0,1.1,0,2.3,0,3.5,0,.8.1,1.3.2,1.5,0,0,.1.2.2.2,0,0,.3,0,.5.1.7,0,1.1,0,1.4,0s.2,0,.3,0v1c-1.9,0-3,0-3.3,0-1,0-2.3,0-4,0"/>
    <path class="cls-2" d="M166.2,119.4v-2.5c0-2.8,0-4.8.2-5.8.9,0,1.8-.1,2.6-.1,2.1,0,3.6.1,4.7.4,1,.3,1.9.7,2.5,1.3.7.6,1.2,1.3,1.4,2,.3.8.4,1.6.4,2.4s-.1,1.7-.4,2.5c-.3.8-.7,1.4-1.2,2-.5.6-1.1,1-1.7,1.3-.6.3-1.3.5-2,.7-1,.2-2.2.3-3.6.3s-1.8,0-2.7-.1c-.1-.7-.2-2.1-.2-4.2M169.4,125c2.1,0,3.8-.2,5.2-.5,1.4-.3,2.8-.8,4-1.6,1.2-.7,2.2-1.6,2.9-2.7.7-1.1,1.1-2.3,1.1-3.7s-.2-2.1-.7-3c-.3-.5-.7-1-1.2-1.5-.6-.5-1.2-.9-2-1.2-.8-.3-1.7-.6-2.8-.7-1.1-.1-2.5-.2-4.3-.2s-1.8,0-3.1,0c-1.8,0-3,0-3.7,0h-5.5c0,0,0,.9,0,.9,1.1,0,1.7.2,1.9.2.2,0,.3,0,.4.1,0,0,0,0,.1.2.1.3.2.9.2,1.9,0,1.8,0,3.2,0,4.2v1.5c0,2.2,0,3.7-.2,4.7-.3.2-.7.3-1.1.5-.2,0-.3.1-.4.2v.7h4.6c0,0,4.5,0,4.5,0Z"/>
    <path class="cls-2" d="M234.1,111.3c-1.4-.3-6.3-.2-8.4.7,1.4-2.6,4.1-8.6,2-14.9-3.1,2.8-12.3,9.2-14.9,26.8-3.8-2.2-7.1-5.7-5.9-15.6,0,0,5.2.2,8.5,4.5-1.1-2.7-3-7.5-10.4-7.6-1.3,2.8-5.4,13.9,7.7,19.2-.2,1.5-.4,3.1-.5,4.8-1,.1-2,.2-3,.3.9.1,1.9.1,3,0-.1,2.4-.2,5,0,7.8.2-1.3.2-4.2.7-7.9,7.5-.5,17.5-5.1,21.2-18.4M213,129.2s0,0,0,0c.2-1.4.4-2.8.7-4.4.8.3,1.7.6,2.7.8-.8-.4-1.7-.8-2.6-1.2,1.4-6.5,4.4-14.1,10.8-20.4.2,2.4,1,6-4.1,11.2,2.4-.9,5.2-2.2,9.1-1.6-.6,2.8-4,13.5-16.6,15.6"/>
  </g>
  <g>
    <path class="cls-3" d="M239,91.8c0,3.3-2.6,5.9-5.9,5.9s-5.9-2.6-5.9-5.9,2.6-5.9,5.9-5.9,5.9,2.6,5.9,5.9ZM228.1,91.8c0,2.8,2.2,5,5,5s5-2.2,5-5-2.2-5-5-5-5,2.2-5,5ZM232.1,95.2h-1.1v-6.8h2.7c1.3,0,1.9.8,1.9,1.7s-.6,1.4-1.5,1.6h0c.8.1,1.1.4,1.2,1.8,0,.3.1,1.3.3,1.8h-1.1c-.3-.5-.2-1.3-.3-2.3,0-.7-.7-.8-1-.8h-1.1v3ZM232.1,91.3h1.4c.7,0,1-.5,1-1.1s-.3-1-1-1h-1.4v2.1Z"/>
    <g>
      <path class="cls-3" d="M229,7.7s0,0,0,0l-15.5-6.4c-28.9,25.5-109.8,1-162.9,1.7C26.3,3.4,7.7,14.8,3.3,48.3c-3.6,27.4,6,53.7,5.3,54.2,0,0,0,0,0,0l14.7,4.3c28.9-25.5,112.4-4.1,165.4-6.4,23.2-1,42.4-10.6,46-44.2,3-27.8-5.8-48.5-5.8-48.5Z"/>
      <path class="cls-3" d="M23.4,107.8c0,0-.2,0-.3,0l-14.6-4.2c-.3,0-.5-.2-.7-.4-.1-.2-.2-.5-.2-.7,0-.4-.4-1.7-.7-3.1-2-8-7.4-29.2-4.6-51C6.2,18,22.5,2.5,50.6,2.1c17.7-.2,38.9,2.4,59.5,4.9,19.9,2.5,40.6,5,58.4,5s35.7-3.7,44.4-11.4c.3-.3.7-.3,1-.2l15.3,6.3s0,0,.1,0c.3,0,.5.3.6.5,0,.2,8.8,21.3,5.9,49-3.1,29.5-18,43.9-46.9,45.1-2.7.1-5.5.2-8.5.2-15.8,0-33.9-1.6-51.5-3.2-18.1-1.6-36.7-3.3-53.3-3.3-25.5,0-41.9,3.9-51.4,12.4-.2.2-.4.2-.7.2ZM9.6,101.7l13.6,3.9c10-8.5,26.7-12.5,52.3-12.5s35.4,1.7,53.5,3.3c17.5,1.6,35.7,3.2,51.3,3.2h0c3,0,5.8,0,8.4-.2,27.7-1.2,42-15,45-43.3,2.7-25.1-4.4-44.5-5.6-47.6l-14.6-6c-9.2,7.8-23.6,11.5-45.3,11.5s-38.6-2.6-58.6-5c-20.5-2.5-41.6-5.1-59.2-4.9-27.3.4-42.5,14.9-46.3,44.4-2.8,21.4,2.5,42.4,4.6,50.2.4,1.4.6,2.4.7,3Z"/>
    </g>
    <path class="cls-4" d="M227,9.6s21.5,63.7-16.2,83.4c-38.1,19.9-149.7-24.8-199.5,7.6.1-1.5-21.3-67.5,16-89.7,34.1-20.4,141.8,25.6,199.7-1.3Z"/>
    <g>
      <path class="cls-1" d="M51.6,51c3.1-2.1,4.6-5.1,4.6-9,0-7.9-5-11.9-14.9-11.9h-21.5v46h22.1c7.5,0,16.3-3.6,16.3-13.7s-2.4-9.4-6.7-11.4ZM40.7,66.6h-9.3v-27.1h8c5,0,5.6,2.1,5.6,4.1s-1.6,4.3-4.9,4.3h-2.7l-3.9,8.5h7.4c4,0,5.9,1.7,5.9,5.3s-.6,4.8-6.1,4.8Z"/>
      <rect class="cls-1" x="62.4" y="29.8" width="11.5" height="46"/>
      <polygon class="cls-1" points="104.7 55.9 99 29.8 80.7 29.8 80.7 75.7 92.2 75.7 92.2 47.6 99 75.8 110.5 75.8 117.3 47.4 117.3 75.8 128.8 75.8 128.8 29.8 110.5 29.8 104.7 55.9"/>
      <path class="cls-1" d="M167.4,51.3c3.1-2.1,4.6-5.1,4.6-9,0-7.9-5-11.9-14.8-11.9h-21.5c0,0-.1,45.9-.1,45.9h22.1c7.5,0,16.3-3.5,16.4-13.6,0-5.4-2.3-9.4-6.6-11.4ZM156.4,66.9h-9.3s0-27.1,0-27.1h8c5,0,5.6,2.1,5.6,4.1,0,2.8-1.7,4.3-4.9,4.3h-2.7s-4,8.5-4,8.5h7.4c4,0,5.9,1.7,5.9,5.4,0,2.1-.6,4.8-6.1,4.8Z"/>
      <path class="cls-1" d="M199,29.8c-12.7,0-23.1,10.3-23.1,23.1,0,12.7,10.3,23.1,23,23.1,12.7,0,23.1-10.3,23.2-23,0-12.7-10.3-23.1-23.1-23.2ZM198.9,65c-6.6,0-12.1-5.6-12.1-12.2,0-6.6,5.6-12.2,12.2-12.1,6.6,0,12,5.5,12,12.2,0,6.7-5.4,12.1-12,12.1Z"/>
    </g>
  </g>
</svg>