<?xml version="1.0" encoding="UTF-8"?>
<svg id="Layer_1" data-name="Layer 1" xmlns="http://www.w3.org/2000/svg" xmlns:xlink="http://www.w3.org/1999/xlink" version="1.1" viewBox="0 0 430 157">
  <defs>
    <style>
      .cls-1 {
        clip-path: url(#clippath);
      }

      .cls-2 {
        fill: none;
      }

      .cls-2, .cls-3 {
        stroke-width: 0px;
      }

      .cls-3 {
        fill: #fff;
      }
    </style>
    <clipPath id="clippath">
      <rect class="cls-2" x=".9" y=".6" width="427.7" height="156"/>
    </clipPath>
  </defs>
  <g class="cls-1">
    <g id="Group_412" data-name="Group 412">
      <path id="Path_999" data-name="Path 999" class="cls-3" d="M188.3,78.6c1.7-2.5,2.2-3.3,2.8-3.3.8,0,2.4,2.5,2.4,4s-.4,2.8-2.6,5.5c-3.9,5.1-22.1,30-44,30s-27.1-12.7-27.1-28.2c0-24,30.4-66.1,57.1-66.1s17.7,6.8,17.7,14.6-12.6,29.6-18.5,29.6-6.3-4.4-6.3-7.5,7.4-15.1,9.8-15.1c1.5,0,2.9.9,3.7,2.2,0,0,4.8-5.5,4.8-10.3s-2.8-5.9-5.2-5.9c-24.6,0-50.2,39.7-50.2,64.2s5.9,14.4,13.3,14.4c21,0,38.2-22.5,42.4-28.3"/>
      <path id="Path_1000" data-name="Path 1000" class="cls-3" d="M221.3,60.6c.7,0,5,1.1,5,8.1s-11.2,31.9-24.7,31.9-13.6-6.7-13.6-14.6,13.1-31.1,21.8-31.1,10,3.4,11.4,5.8M199.1,89.7c0,3,1.6,4.2,3.1,4.2,7.1,0,16.4-20,16.4-26.8s-1-3.6-2.8-3.6c-5.9,0-16.7,16.8-16.7,26.1"/>
      <path id="Path_1001" data-name="Path 1001" class="cls-3" d="M252.4,90c0-8,12.4-23.8,12.4-26.5,0-.7-.7-1.3-1.4-1.3-1.2,0-5.7,3.8-10.6,9.7-3.1,3.7-6.3,8.6-9.5,13-8.3,11.5-7.4,14.7-9.2,14.7-3.1,0-10-3-10-7.9,0-8.8,11.9-32.4,12.6-35.7.1-.7.5-.8,1.7-.8,3.7,0,8.5,2.6,8.5,5.4s-9.8,19.4-9.8,23.5c0,0,6.5-8.9,13.1-16.3s12.2-12.2,15.6-12.2c5.3,0,10.4,3.6,10.4,6.9s-12.4,22.1-12.4,30.9.9,2.3,1.8,2.3c3,0,11-11.2,15.2-17.1,1.7-2.4,2.2-3.3,2.8-3.3.8,0,2.5,2.5,2.5,4s-.4,2.8-2.6,5.5c-3.9,5.1-11.7,15.6-18.1,15.6s-13-4.3-13-10.5"/>
      <path id="Path_1002" data-name="Path 1002" class="cls-3" d="M280.8,81.8c0-11,13.7-26.8,23-26.8s10.8,4.6,10.8,8.6-3.7,13-6.2,13-4.9-2.6-4.9-3.3.3-.7.9-1.3c1.8-1.8,4.8-5.7,4.8-8.6,0-.7-.4-1.3-1.1-1.3,0,0-.1,0-.2,0-5.9,0-15.7,13.8-15.7,22.5s3.6,9,8,9,13.3-9.1,17.5-14.9c1.7-2.4,2.2-3.3,2.8-3.3.8,0,2.5,2.5,2.5,4s-.4,2.8-2.6,5.5c-3.9,5.1-11.2,14.4-20.6,14.4s-18.8-6.1-18.8-17.5"/>
      <path id="Path_1003" data-name="Path 1003" class="cls-3" d="M317.6,82.7c0-10.6,12.7-26.9,20-26.9s12.6,4.5,12.6,8.9-3.1,10.1-8.5,15.3c-4.3,4.2-13.1,4.4-13.1,4.4-.1.8-.2,1.6-.2,2.3,0,3.7,2.9,6.9,6.6,6.9,0,0,0,0,.1,0,6.9,0,15-9.3,19.2-15.1,1.7-2.5,2.2-3.3,2.8-3.3.8,0,2.5,2.4,2.5,4s-.4,2.8-2.6,5.5c-3.9,5.1-12.4,14.7-23.1,14.7-9.1-.3-16.3-7.7-16.3-16.8M343.3,65.7c0-.6-.5-1-1.3-1-2.3,0-12.3,12.4-12.3,15,4,0,13.6-10.7,13.6-14"/>
      <path id="Path_1004" data-name="Path 1004" class="cls-3" d="M355.4,85.5c-1.1,0-2.8-2.2-2.8-3.5s1.1-2.3,1.7-3.4c7.2-11.5,10.5-16.9,10.5-18.5s-2.8-3.8-2.8-6.8,5.4-14.7,8-14.7,8.7,2.8,8.7,5.7-5.7,13.3-5.7,16.6,9.7,4.7,9.7,13.2-5.9,12.5-5.9,17.2.9,2.5,1.8,2.5c3.3,0,10.7-9.3,14.9-15.1,1.7-2.5,2.2-3.3,2.8-3.3.8,0,2.5,2.4,2.5,4s-.4,2.8-2.6,5.5c-3.9,5.1-10.8,14.3-17.7,14.3s-11.4-4.8-11.4-11.9,5.7-15.1,5.7-17.9-3.5-4.6-3.5-4.6c0,0-2.9,6.3-10.5,17.5-1.3,1.9-2.3,3.3-3.5,3.3"/>
      <path id="Path_1005" data-name="Path 1005" class="cls-3" d="M392.5,85.5c0-6.6,4.8-17.9,9.7-27.8-2.7-1.1-4.3-3.6-4.3-4.6,0-.7.6-1.3,1.3-1.4.7,0,1.8,1.1,5.3,1.4,4.2-8.2,7.9-14.7,7.9-15.6s.2-1.5,1.1-1.5c2.7,0,7,3.8,7,7.8s-.9,3.6-4.1,9.2c4.4-.2,8.4-.5,9.3-.5,1.6,0,2,.3,2,1.3s-3,6-6.7,6-4.8-.2-7.9-.5l-3.5,7.4c-6.3,13.8-6.8,18.6-6.8,20.7,0,3.3,1.3,5.9,4.8,5.9s11.4-8.8,15.6-14.6c1.7-2.5,2.2-3.3,2.8-3.3.8,0,2.4,2.4,2.4,4s-.4,2.8-2.6,5.5c-3.9,5.1-10.8,14.3-17.7,14.3s-15.8-5.6-15.8-13.7"/>
      <path id="Path_1006" data-name="Path 1006" class="cls-3" d="M94.1,16.3c-21.6-21.2-56.3-20.9-77.5.7C6.5,27.3.9,41.1.9,55.4c0,.7.3,6.2.6,8.1v.3c3.3,21.7,17.9,45.8,29.6,62.2,7.6,10.6,15.8,20.8,24.6,30.4,8.3-8,15.9-16.7,22.9-25.9,11.1-14.7,25.4-37.3,30.2-61.8,1.1-4.2,1.7-14,1.7-14.5-.2-14.3-6.1-28-16.4-38M55.8,91.9c-21.2,0-38.4-17.2-38.4-38.4,0-21.2,17.2-38.4,38.4-38.4,21.2,0,38.4,17.2,38.4,38.4h0c0,21.2-17.2,38.4-38.4,38.4"/>
      <path id="Path_1007" data-name="Path 1007" class="cls-3" d="M53.5,72.4v-35.7h9c2.1,0,3.8,1.7,3.8,3.8v15.2c0,2.1-1.7,3.8-3.8,3.8h-5.3v13h-3.8ZM57.3,56.1h4.5c.4,0,.8-.3.8-.8v-14.5c0-.4-.3-.7-.8-.8h-4.5v16Z"/>
      <path id="Path_1008" data-name="Path 1008" class="cls-3" d="M72.8,72.4c-2.1,0-3.8-1.7-3.8-3.8v-28.2c0-2.1,1.7-3.8,3.8-3.8h8.9l-.6,3.4h-7.6c-.4,0-.8.3-.8.8v27.4c0,.4.3.8.8.8h3.8c.4,0,.8-.3.8-.8v-15.6l3.8-.6v16.6c0,2.1-1.7,3.8-3.8,3.8h-5.3Z"/>
      <path id="Path_1009" data-name="Path 1009" class="cls-3" d="M42.9,72.4c-.9,0-1.7-.2-2.4-.7h-.2c0-.1-.2,0-.2,0-.7.5-1.6.7-2.4.7h-3.8c-2.3,0-4.1-1.8-4.1-4.1v-31.5h3.8v31.5c0,.4.3.8.8.8h3.4c.4,0,.8-.3.8-.8v-31.5h3.8v31.5c0,.4.3.8.8.8h3.4c.4,0,.8-.3.8-.8v-31.5h3.8v31.5c0,2.3-1.8,4.1-4.1,4.1h-3.8Z"/>
      <path id="Path_1010" data-name="Path 1010" class="cls-3" d="M208.7,122.2c0,3.2-3.1,5.5-8.9,5.5-3.7.1-7.2-1-10.1-3.3l2.2-2.6c2.2,1.9,5.1,2.9,8,2.7,3.3,0,5-.6,5-2s-1.7-1.7-5.5-2.1c-4.7-.4-9.1-1.4-9.1-5s3.7-5.3,8.8-5.3c3.1-.1,6.2.7,8.8,2.5l-2.1,2.6c-2-1.4-4.3-2.1-6.7-2-2.2,0-5,.4-5,1.9s2.4,1.6,5.6,1.8c5.3.4,9,1.5,9,5.2"/>
      <path id="Path_1011" data-name="Path 1011" class="cls-3" d="M253.5,124v3.2h-17v-16.5h16.7v3.2h-13v3.4h10.9v3.2h-10.9v3.6h13.2Z"/>
      <path id="Path_1012" data-name="Path 1012" class="cls-3" d="M296.1,127.2l-4.7-5.6h-6v5.6h-3.7v-16.5h11.4c4,0,7.1,1.9,7.1,5.4s-1.9,4.5-4.6,5.2l5.1,5.9h-4.5ZM292.8,118.4c2,0,3.4-.5,3.4-2.3s-1.5-2.3-3.4-2.3h-7.4v4.6h7.4Z"/>
      <rect id="Rectangle_203" data-name="Rectangle 203" class="cls-3" x="328.2" y="110.7" width="3.8" height="16.5"/>
      <path id="Path_1013" data-name="Path 1013" class="cls-3" d="M378,124v3.2h-17v-16.5h16.7v3.2h-13v3.4h10.9v3.2h-10.9v3.6h13.2Z"/>
      <path id="Path_1014" data-name="Path 1014" class="cls-3" d="M423.8,122.2c0,3.2-3.1,5.5-8.9,5.5-3.7.1-7.2-1-10.1-3.3l2.2-2.6c2.2,1.9,5.1,2.9,8,2.7,3.3,0,5-.6,5-2s-1.7-1.7-5.5-2.1c-4.7-.4-9.1-1.4-9.1-5s3.7-5.3,8.8-5.3c3.1-.1,6.2.7,8.8,2.5l-2.1,2.6c-2-1.4-4.3-2.1-6.7-2-2.2,0-5,.4-5,1.9s2.4,1.6,5.6,1.8c5.3.4,9,1.5,9,5.2"/>
    </g>
  </g>
</svg>