<?xml version="1.0" encoding="UTF-8"?>
<svg id="Layer_1" data-name="Layer 1" xmlns="http://www.w3.org/2000/svg" version="1.1" viewBox="0 0 200 74">
  <defs>
    <style>
      .cls-1 {
        fill: #f7f7fb;
        stroke-width: 0px;
      }
    </style>
  </defs>
  <g>
    <path class="cls-1" d="M87.7,36.9c.8-1.1,1-1.5,1.3-1.5.4,0,1.1,1.1,1.1,1.9s-.2,1.3-1.2,2.6c-1.8,2.4-10.3,14-20.5,14s-12.6-5.9-12.6-13.1c0-11.2,14.2-30.7,26.5-30.7s8.2,3.2,8.2,6.8-5.8,13.8-8.6,13.8-2.9-2-2.9-3.5,3.4-7,4.6-7,1.7,1,1.7,1c0,0,2.2-2.6,2.2-4.8s-1.3-2.8-2.4-2.8c-11.4,0-23.4,18.5-23.4,29.9s2.8,6.7,6.2,6.7c9.8,0,17.8-10.4,19.7-13.2Z"/>
    <path class="cls-1" d="M103.1,28.5c.3,0,2.3.5,2.3,3.8s-5.2,14.8-11.5,14.8-6.3-3.1-6.3-6.8,6.1-14.5,10.2-14.5,4.7,1.6,5.3,2.7ZM92.8,42c0,1.4.8,1.9,1.4,1.9,3.3,0,7.6-9.3,7.6-12.4s-.5-1.7-1.3-1.7c-2.8,0-7.8,7.8-7.8,12.2Z"/>
    <path class="cls-1" d="M117.6,42.1c0-3.7,5.7-11.1,5.7-12.3s-.4-.6-.7-.6c-.6,0-2.7,1.8-4.9,4.5-1.4,1.7-2.9,4-4.4,6-3.8,5.4-3.4,6.8-4.3,6.8-1.4,0-4.7-1.4-4.7-3.7,0-4.1,5.6-15.1,5.8-16.6,0-.3.2-.4.8-.4,1.7,0,3.9,1.2,3.9,2.5s-4.6,9-4.6,10.9c0,0,3-4.1,6.1-7.6s5.7-5.7,7.3-5.7c2.5,0,4.8,1.7,4.8,3.2s-5.7,10.3-5.7,14.4.4,1.1.9,1.1c1.4,0,5.1-5.2,7.1-7.9.8-1.1,1-1.5,1.3-1.5.4,0,1.1,1.1,1.1,1.9s-.2,1.3-1.2,2.6c-1.8,2.4-5.5,7.3-8.4,7.3s-6-2-6-4.9Z"/>
    <path class="cls-1" d="M130.7,38.3c0-5.1,6.4-12.4,10.7-12.4s5,2.1,5,4-1.7,6-2.9,6-2.3-1.2-2.3-1.5.1-.3.4-.6c.9-.9,2.2-2.7,2.2-4s-.3-.6-.6-.6c-2.8,0-7.3,6.4-7.3,10.4s1.7,4.2,3.7,4.2,6.2-4.2,8.1-6.9c.8-1.1,1-1.5,1.3-1.5.4,0,1.1,1.1,1.1,1.9s-.2,1.3-1.2,2.6c-1.8,2.4-5.2,6.7-9.6,6.7s-8.7-2.8-8.7-8.1Z"/>
    <path class="cls-1" d="M147.9,38.8c0-4.9,5.9-12.5,9.3-12.5s5.8,2.1,5.8,4.1-1.4,4.7-3.9,7.1c-2,1.9-6.1,2-6.1,2,0,0,0,.5,0,1.1,0,1.9,1.5,3.2,3.1,3.2,3.2,0,7-4.3,8.9-7,.8-1.1,1-1.5,1.3-1.5.4,0,1.1,1.1,1.1,1.9s-.2,1.3-1.2,2.6c-1.8,2.4-5.7,6.8-10.7,6.8s-7.6-2.9-7.6-7.8ZM159.8,30.8c0-.3-.2-.5-.6-.5-1.1,0-5.7,5.7-5.7,7,1.9,0,6.3-5,6.3-6.5Z"/>
    <path class="cls-1" d="M165.5,40.1c-.5,0-1.3-1-1.3-1.6s.5-1.1.8-1.6c3.4-5.4,4.9-7.9,4.9-8.6s-1.3-1.8-1.3-3.2,2.5-6.8,3.7-6.8,4,1.3,4,2.7-2.7,6.2-2.7,7.7,4.5,2.2,4.5,6.1-2.8,5.8-2.8,8,.4,1.1.9,1.1c1.5,0,5-4.3,6.9-7,.8-1.1,1-1.5,1.3-1.5.4,0,1.1,1.1,1.1,1.9s-.2,1.3-1.2,2.6c-1.8,2.4-5,6.6-8.2,6.6s-5.3-2.2-5.3-5.6,2.7-7,2.7-8.3-1.6-2.1-1.6-2.1c0,0-1.3,2.9-4.9,8.1-.6.9-1.1,1.5-1.6,1.5Z"/>
    <path class="cls-1" d="M182.7,40.1c0-3.1,2.2-8.3,4.5-12.9-1.2-.5-2-1.7-2-2.1s.3-.7.6-.7.9.5,2.5.7c1.9-3.8,3.7-6.8,3.7-7.3s0-.7.5-.7c1.2,0,3.3,1.8,3.3,3.6s-.4,1.7-1.9,4.3c2,0,3.9-.2,4.3-.2.8,0,.9.1.9.6s-1.4,2.8-3.1,2.8-2.2,0-3.7-.2l-1.6,3.4c-2.9,6.4-3.2,8.6-3.2,9.6,0,1.5.6,2.8,2.2,2.8s5.3-4.1,7.3-6.8c.8-1.1,1-1.5,1.3-1.5.4,0,1.1,1.1,1.1,1.9s-.2,1.3-1.2,2.6c-1.8,2.4-5,6.6-8.2,6.6s-7.4-2.6-7.4-6.4Z"/>
  </g>
  <path class="cls-1" d="M43.9,7.9C39.1,3.2,32.7.6,26,.6,12,.6.5,12,.5,26.1s.1,2.9.3,3.8v.2c1.5,10.1,8.3,21.3,13.8,28.9,5.4,7.6,10.5,13.2,11.5,14.2.9-.8,5.6-5.4,10.6-12.1,5.2-6.8,11.8-17.3,14.1-28.7.5-1.9.8-6.5.8-6.8-.1-6.7-2.8-13-7.6-17.7ZM26.1,43c-9.9,0-17.9-8-17.9-17.9S16.2,7.3,26.1,7.3s17.9,8,17.9,17.9-8,17.9-17.9,17.9Z"/>
  <g>
    <path class="cls-1" d="M25,34v-16.6h4.2c1,0,1.7.8,1.7,1.7v7.1c0,1-.8,1.7-1.7,1.7h-2.4v6h-1.7ZM26.8,26.4h2.1c.2,0,.3-.2.3-.3v-6.7c0-.2-.2-.3-.3-.3h-2.1v7.4Z"/>
    <path class="cls-1" d="M34,34c-1,0-1.7-.8-1.7-1.7v-13.1c0-1,.8-1.7,1.7-1.7h4.2l-.3,1.6h-3.5c-.2,0-.3.2-.3.3v12.7c0,.2.2.3.3.3h1.7c.2,0,.3-.2.3-.3v-7.3l1.7-.3v7.7c0,1-.8,1.7-1.7,1.7h-2.4Z"/>
    <path class="cls-1" d="M20.1,34c-.4,0-.8-.1-1.1-.3h0c0,0,0,0,0,0-.3.2-.7.3-1.1.3h-1.7c-1.1,0-1.9-.9-1.9-1.9v-14.7h1.7v14.7c0,.2.2.3.3.3h1.6c.2,0,.3-.2.3-.3v-14.7h1.7v14.7c0,.2.2.3.3.3h1.6c.2,0,.3-.2.3-.3v-14.7h1.7v14.7c0,1.1-.9,1.9-1.9,1.9h-1.7Z"/>
  </g>
  <g>
    <path class="cls-1" d="M97.2,57.1c0,1.5-1.4,2.6-4.2,2.6s-3.5-.5-4.7-1.5l1-1.2c.9.9,2.2,1.3,3.7,1.3s2.3-.3,2.3-.9-.8-.8-2.6-1c-2.2-.2-4.2-.7-4.2-2.3s1.7-2.5,4.1-2.5,3.1.4,4.1,1.2l-1,1.2c-.8-.6-1.9-.9-3.1-.9-1,0-2.3.2-2.3.9s1.1.7,2.6.8c2.4.2,4.2.7,4.2,2.4Z"/>
    <path class="cls-1" d="M118.1,58v1.5h-7.9v-7.7h7.8v1.5h-6v1.6h5.1v1.5h-5.1v1.7h6.2Z"/>
    <path class="cls-1" d="M137.9,59.4l-2.2-2.6h-2.8v2.6h-1.7v-7.7h5.3c1.9,0,3.3.9,3.3,2.5s-.9,2.1-2.1,2.4l2.4,2.7h-2.1ZM136.3,55.4c.9,0,1.6-.2,1.6-1.1s-.7-1.1-1.6-1.1h-3.5v2.1h3.5Z"/>
    <path class="cls-1" d="M152.8,59.4v-7.7h1.8v7.7h-1.8Z"/>
    <path class="cls-1" d="M176,58v1.5h-7.9v-7.7h7.8v1.5h-6v1.6h5.1v1.5h-5.1v1.7h6.2Z"/>
    <path class="cls-1" d="M197.3,57.1c0,1.5-1.4,2.6-4.2,2.6s-3.5-.5-4.7-1.5l1-1.2c.9.9,2.2,1.3,3.7,1.3s2.3-.3,2.3-.9-.8-.8-2.6-1c-2.2-.2-4.2-.7-4.2-2.3s1.7-2.5,4.1-2.5,3.1.4,4.1,1.2l-1,1.2c-.8-.6-1.9-.9-3.1-.9-1,0-2.3.2-2.3.9s1.1.7,2.6.8c2.4.2,4.2.7,4.2,2.4Z"/>
  </g>
</svg>