<?xml version="1.0" encoding="UTF-8"?>
<svg id="Layer_1" data-name="Layer 1" xmlns="http://www.w3.org/2000/svg" version="1.1" viewBox="0 0 240 82">
  <defs>
    <style>
      .cls-1 {
        fill: #f7f7fb;
        stroke-width: 0px;
      }
    </style>
  </defs>
  <path class="cls-1" d="M7.4,15.2c3.2,0,4.4-1.7,4.4-4.6V1.6h3.7v9.3c0,4.3-2.6,7.6-8.1,7.6s-5.4-1.1-6.8-2.9l2.6-2.2c1,1.3,2.2,1.9,4.2,1.9Z"/>
  <path class="cls-1" d="M37.9,1.6v8.7c0,4.9-3.3,8.2-9.2,8.2s-9.2-3.3-9.2-8.2V1.6h3.7v8.4c0,3.3,1.9,5.2,5.5,5.2s5.5-2,5.5-5.2V1.6h3.7Z"/>
  <path class="cls-1" d="M60.7,1.6v16.4h-3.3l-11.7-11.8v11.8h-3.6V1.6h4l11,11.2V1.6h3.6Z"/>
  <path class="cls-1" d="M81.9,14.8v3.1h-16.9V1.6h16.6v3.1h-12.9v3.4h10.8v3.1h-10.8v3.6h13.2Z"/>
  <path class="cls-1" d="M95.5,5.7c-1.4,1-3.1,1.5-5,1.8v-3.2c2.1-.3,4.3-1.5,5.9-2.8h2.8v16.4h-3.7V5.7Z"/>
  <path class="cls-1" d="M110.9,15.4c2.4,0,4.8-.6,4.8-2.4s-2.2-2.2-5.1-2.2h-2.4v-2.8h2.4c2.4,0,4.6-.5,4.6-2s-2.3-2-4.4-2-4.8,1.1-5.8,2.5l-2.7-1.8c1.7-2.2,4.7-3.7,8.5-3.7s8.2,1.5,8.2,4.6-1.8,3.5-3.9,3.7c2.2.3,4.6,1.5,4.6,4s-3.8,5.1-8.6,5.1-7.2-1.5-9.1-3.9l3-1.7c1.1,1.7,3.2,2.6,6,2.6Z"/>
  <path class="cls-1" d="M131.4,2.5h-4.2v7.7h-2.2V2.5h-4.1V.6h10.5v1.9Z"/>
  <path class="cls-1" d="M143.8.6v9.5h-2.2v-3.9h-6.5v3.9h-2.2V.6h2.2v3.8h6.5V.6h2.2Z"/>
  <path class="cls-1" d="M150.8,16.7c0,1.6-1,3.8-3,5.1l-.8-1c1.1-1,1.7-1.7,1.9-2.7,0,0-.3.1-.6.1-1.1,0-2-.8-2-2s.9-1.9,2.2-1.9,2.3,1.1,2.3,2.4Z"/>
  <path class="cls-1" d="M168.8,1.1c3.9,0,8,1.6,8,5s-2.6,4.4-6.4,5.6c-3,1-5.3,2.1-5.9,3.3h12.6v3h-17.2v-1.7c.5-3,3.4-5.7,8.3-7.2,2.7-.9,4.7-1.5,4.7-2.9s-2.1-2.1-4.3-2.1-4.5,1-6.2,2.9l-2.2-2c1.6-2.2,4.7-3.8,8.5-3.8Z"/>
  <path class="cls-1" d="M179.3,9.7c0-5.5,3.8-8.7,9.9-8.7s10,3.3,10,8.7-3.8,8.7-10,8.7-9.9-3.3-9.9-8.7ZM195.4,9.7c0-3.6-2.3-5.5-6.1-5.5s-6.2,1.9-6.2,5.5,2.3,5.5,6.2,5.5,6.1-1.9,6.1-5.5Z"/>
  <path class="cls-1" d="M209.8,1.1c3.9,0,8,1.6,8,5s-2.6,4.4-6.4,5.6c-3,1-5.3,2.1-5.9,3.3h12.6v3h-17.2v-1.7c.5-3,3.4-5.7,8.3-7.2,2.7-.9,4.7-1.5,4.7-2.9s-2.1-2.1-4.3-2.1-4.5,1-6.2,2.9l-2.2-2c1.6-2.2,4.7-3.8,8.5-3.8Z"/>
  <path class="cls-1" d="M239.5,14.5h-3.3v3.4h-3.7v-3.4h-12.4v-2.2l12.7-10.8h3.3v10h3.3v2.9ZM232.5,11.6v-6.3l-7.5,6.3h7.5Z"/>
  <path class="cls-1" d="M18.7,31.3l6.2,12.7,6.2-12.7h4l-8.3,16.4h-4l-8.3-16.4h4.1Z"/>
  <path class="cls-1" d="M37.4,47.7v-16.4h3.7v16.4h-3.7Z"/>
  <path class="cls-1" d="M60.3,42.3l3.4,1.7c-1.5,2.3-4.7,4.2-9,4.2-6.2,0-10.2-3.3-10.2-8.7s4-8.7,10.3-8.7,7.3,1.9,8.8,4.2l-3.4,1.7c-1.2-1.8-2.9-2.6-5.4-2.6-3.9,0-6.5,1.9-6.5,5.5s2.6,5.5,6.5,5.5,4.2-.8,5.5-2.7Z"/>
  <path class="cls-1" d="M83.5,34.6h-7.2v13.2h-3.7v-13.2h-7.1v-3.2h18v3.2Z"/>
  <path class="cls-1" d="M84.9,39.5c0-5.5,4-8.7,10.4-8.7s10.4,3.2,10.4,8.7-4,8.7-10.4,8.7-10.4-3.2-10.4-8.7ZM101.9,39.5c0-3.5-2.6-5.5-6.6-5.5s-6.6,2-6.6,5.5,2.5,5.5,6.6,5.5,6.6-2,6.6-5.5Z"/>
  <path class="cls-1" d="M123.5,47.7l-4.7-5.6h-5.9v5.6h-3.7v-16.4h11.3c4,0,7,1.8,7,5.4s-1.8,4.5-4.6,5.1l5.1,5.8h-4.5ZM120.2,39.1c2,0,3.4-.5,3.4-2.3s-1.5-2.3-3.4-2.3h-7.4v4.6h7.4Z"/>
  <path class="cls-1" d="M130.9,47.7v-16.4h3.7v16.4h-3.7Z"/>
  <path class="cls-1" d="M152.6,44.3h-9.9l-1.8,3.5h-4l8.7-16.4h4.1l8.7,16.4h-4l-1.8-3.5ZM151,41.2l-3.4-6.7-3.4,6.7h6.8Z"/>
  <path class="cls-1" d="M167.6,47.7v-16.4h3.7v16.4h-3.7Z"/>
  <path class="cls-1" d="M194.3,31.3v16.4h-3.3l-11.7-11.8v11.8h-3.6v-16.4h4l11,11.2v-11.2h3.6Z"/>
  <path class="cls-1" d="M217.4,31.3v16.4h-3.3l-11.7-11.8v11.8h-3.6v-16.4h4l11,11.2v-11.2h3.6Z"/>
  <path class="cls-1" d="M37.2,61.1l-6,16.4h-3.8l-4.3-12.4-4.4,12.4h-3.8l-6-16.4h3.9l4,12.1,4.4-12.1h3.6l4.4,12.1,4-12.1h3.9Z"/>
  <path class="cls-1" d="M39.8,77.5v-16.4h3.7v16.4h-3.7Z"/>
  <path class="cls-1" d="M66.5,61.1v16.4h-3.3l-11.7-11.8v11.8h-3.6v-16.4h4l11,11.2v-11.2h3.6Z"/>
  <path class="cls-1" d="M89.6,61.1v16.4h-3.3l-11.7-11.8v11.8h-3.6v-16.4h4l11,11.2v-11.2h3.6Z"/>
  <path class="cls-1" d="M94,77.5v-16.4h3.7v16.4h-3.7Z"/>
  <path class="cls-1" d="M120.3,66.7c0,3.6-2.8,5.5-7,5.5h-7.5v5.3h-3.7v-16.4h11.2c4.2,0,7,2,7,5.5ZM116.4,66.7c0-1.9-1.4-2.4-3.5-2.4h-7.2v4.9h7.2c2.1,0,3.5-.6,3.5-2.4Z"/>
  <path class="cls-1" d="M139.9,74.4v3.1h-16.9v-16.4h16.6v3.1h-12.9v3.4h10.8v3.1h-10.8v3.6h13.2Z"/>
  <path class="cls-1" d="M161.9,74.2c-1.6,2.2-4.9,3.8-9.3,3.8-6.6,0-10.6-3.2-10.6-8.7s4-8.7,10.6-8.7,6.9,1.5,8.5,3.1l-2.9,2.1c-1.4-1.4-3.1-2.1-5.6-2.1-4.3,0-6.8,1.9-6.8,5.5s2.6,5.5,6.9,5.5,4.5-.5,5.6-1.9v-1.6h-6.2v-3h9.7v5.9Z"/>
  <path class="cls-1" d="M169,76.3c0,1.6-1,3.8-3,5.1l-.8-1c1.1-1,1.7-1.7,1.9-2.7,0,0-.3.1-.6.1-1.1,0-2-.8-2-2s.9-1.9,2.2-1.9,2.3,1.1,2.3,2.4Z"/>
  <path class="cls-1" d="M201.4,61.1v16.4h-3.7v-11.4l-7.2,8.8h-.2l-7.2-8.8v11.4h-3.6v-16.4h4.1l6.9,8.7,6.9-8.7h4Z"/>
  <path class="cls-1" d="M224.4,73c0,2.9-2.5,4.5-6.4,4.5h-12.2v-16.4h11.3c3.9,0,6.4,1.5,6.4,4.2s-1.2,3.5-3.7,3.6c2.6.1,4.6,1.5,4.6,4.1ZM209.5,67.8h6.9c2,0,3.3-.3,3.3-1.8s-1.3-1.8-3.3-1.8h-6.9v3.7ZM220.6,72.6c0-1.7-1.2-2-3.3-2h-7.7v3.9h7.7c2.1,0,3.3-.3,3.3-2Z"/>
</svg>