<?xml version="1.0" encoding="utf-8"?>
<!-- Generator: Adobe Illustrator 26.3.1, SVG Export Plug-In . SVG Version: 6.00 Build 0)  -->
<svg version="1.1" id="Layer_1" xmlns="http://www.w3.org/2000/svg" xmlns:xlink="http://www.w3.org/1999/xlink" x="0px" y="0px"
	 viewBox="0 0 200 32" style="enable-background:new 0 0 200 32;" xml:space="preserve">
<style type="text/css">
	.st0{fill:#00AA4F;}
	.st1{fill-rule:evenodd;clip-rule:evenodd;fill:#00AA4F;}
</style>
<g>
	<path class="st0" d="M93.6,11.9h-4.8v10.4c0,2.5-1.2,4.8-4.4,4.8c-3.3,0-3.5-3.5-3.5-5.6v-9.7h-4.8v12c0,3.9,1.8,7.5,7,7.5
		c3.2,0,5-1.6,5.8-3.5H89V31h4.5V11.9z"/>
	<path class="st0" d="M99.8,31h4.8V16h4.4v-4.1h-4.4V8.5c0-2.1,0.4-3.9,3.1-3.9c0.7,0,1.3,0.1,2,0.3l0.3-4.1c-1-0.2-2-0.3-3-0.3
		c-5.9,0-7.1,3.5-7.1,8.7v2.7h-3.9V16h3.9V31z"/>
	<path class="st0" d="M111.1,31h4.8V20.8c0-1,0.6-4.8,5.1-4.8c0.8,0,1.5,0.2,2.3,0.4v-4.6c-0.6-0.2-1.1-0.3-1.7-0.3
		c-2.5,0-4.6,1.3-5.6,3.5h-0.1v-3h-4.8V31z"/>
	<path class="st1" d="M128.6,19.6c0.4-2.7,2.1-4.5,4.9-4.5c3,0,4.8,1.7,4.8,4.5H128.6z M143.1,23.2v-1.3c0-6.6-3.6-10.4-8.9-10.4
		c-5.8,0-10.4,4-10.4,10c0,6,4.6,10,10.4,10c3,0,5.8-1.1,8.1-3.8l-3.4-2.6c-1.2,1.5-2.7,2.6-5.1,2.6c-2.7,0-4.8-1.7-5.1-4.5H143.1z"
		/>
	<path class="st0" d="M159.2,14.4c-1.5-2.1-4.3-2.9-6.8-2.9c-3.9,0-7.7,1.9-7.7,6.1c0,7.3,10.3,4.2,10.3,8.1c0,1.5-1.8,2.2-3.2,2.2
		c-2,0-3.3-1-4.5-2.3l-3.2,3c1.9,2.2,4.5,2.9,7.4,2.9c3.9,0,8.2-1.6,8.2-6.1c0-7.4-10.3-4.7-10.3-8.1c0-1.4,1.5-2,2.8-2
		c1.6,0,2.8,0.7,3.7,1.9L159.2,14.4z"/>
	<path class="st0" d="M161.3,31h4.8V20.6c0-2.5,1.2-4.8,4.4-4.8c3.3,0,3.5,3.5,3.5,5.6V31h4.8V19c0-3.9-1.8-7.5-7-7.5
		c-3.2,0-5,1.6-5.8,3.5h-0.1v-3.1h-4.5V31z"/>
	<path class="st1" d="M185.2,19.6c0.4-2.7,2.1-4.5,4.9-4.5c3,0,4.8,1.7,4.8,4.5H185.2z M199.7,23.2v-1.3c0-6.6-3.6-10.4-8.9-10.4
		c-5.8,0-10.4,4-10.4,10c0,6,4.6,10,10.4,10c3,0,5.8-1.1,8.1-3.8l-3.4-2.6c-1.2,1.5-2.7,2.6-5.1,2.6c-2.7,0-4.8-1.7-5.1-4.5H199.7z"
		/>
	<path class="st1" d="M54.6,26.8v-18H59c5.8,0,10,2.6,10,9c0,6.5-4.8,9-10.8,9H54.6z M49.9,31h9.9c6.4,0,14.1-4.2,14.1-13.3
		c0-9-6.5-13.3-13.5-13.3H49.9V31z"/>
	<path class="st0" d="M27.9,5.3V0.5h-4.3V3l-4.1-2.2l0,0l0,0l0,0l0,0l-19,10l2,3.8L5,13.3v13.4V31v0h28.8v0h0.8V13.6l2,1l2-3.8
		L27.9,5.3z M30.3,26.8H9.2V11.1l10.3-5.4l4.2,2.2v2.5c-1.3-0.9-2.8-1.4-4.5-1.4c-4.3,0-7.8,3.5-7.8,7.8c0,4.3,3.5,7.8,7.8,7.8
		c1.7,0,3.2-0.5,4.5-1.4v1.2h4.3V10.1l2.4,1.3V26.8z M23.7,16.7c0,2.3-1.9,4.2-4.2,4.2s-4.2-1.9-4.2-4.2c0-2.3,1.9-4.2,4.2-4.2
		S23.7,14.4,23.7,16.7z"/>
</g>
</svg>
