<?xml version="1.0" encoding="UTF-8"?>
<svg id="Artwork" xmlns="http://www.w3.org/2000/svg" version="1.1" viewBox="0 0 240 52">
  <defs>
    <style>
      .cls-1, .cls-2 {
        fill: #231f20;
      }

      .cls-1, .cls-2, .cls-3, .cls-4 {
        stroke-width: 0px;
      }

      .cls-2 {
        fill-rule: evenodd;
      }

      .cls-3 {
        fill: #ef3e42;
      }

      .cls-4 {
        fill: #fff;
      }
    </style>
  </defs>
  <g>
    <rect class="cls-3" x="1.8" y="38.3" width="127.3" height="12.5"/>
    <g>
      <path class="cls-1" d="M50.2,29.3c-2.4,3-6.6,4.5-10.3,4.5s-9.4-2.8-9.4-8.3c0-8,7.3-14.4,15.3-14.4s6.6,1.3,6.6,4.9-5.1,8.1-14.4,7.9v1.8c-.1,3,1,5.6,4.4,5.6s4.8-1.5,6.5-3.4l1.4,1.4ZM47.4,15c0-1-.6-2-1.7-2-3.6,0-7,5.8-7.5,8.9,6.8,0,9.1-4.3,9.1-6.9Z"/>
      <path class="cls-1" d="M63.4,11.1c.3,0,.4.2.4.5s-.3,1.1-.3,1.3l-.2.8c2.2-1.5,3.9-2.5,6.6-2.5s5.6,1.5,5.6,4.4-.3,2-.6,2.9l-2.9,10.6c0,.3-.2.7-.2,1s.2.8.7.8c.9,0,1.5-.5,2-1.1.1.3.6,1.1.6,1.3,0,.7-2.4,2.9-5.2,2.8-2.1,0-5.4-1.1-5.4-3.6s.4-2.3.6-3.3l2.7-9.7c0-.4.3-1.1.3-1.5,0-1-.7-1.6-1.7-1.6-1.7,0-3,1.4-4.1,2.6l-4.4,16.3h-7.3l5.1-18.6h-1.9l.6-2.5,9-.8Z"/>
      <path class="cls-1" d="M89.4,6.9l-1.3,5h4.5l-.7,2.5h-4.6l-3.6,13.4c-.1.5-.3,1.1-.3,1.6,0,.7.5,1.1,1.2,1.1s2.2-.8,3-1.3l.4.7c0,.2.2.4.2.6,0,.9-3.3,3.4-6.7,3.4s-5.1-1.1-5.1-3.9.4-2.6.7-3.9l3.2-11.6h-2.4l.6-2.5h3.1l1.2-4.2,6.7-.8Z"/>
      <path class="cls-1" d="M108.5,29.3c-2.4,3-6.6,4.5-10.3,4.5s-9.4-2.8-9.4-8.3c0-8,7.3-14.4,15.3-14.4s6.6,1.3,6.6,4.9-5.1,8.1-14.4,7.9v1.8c-.1,3,1,5.6,4.4,5.6s4.9-1.5,6.5-3.4l1.4,1.4ZM105.7,15c0-1-.6-2-1.7-2-3.6,0-7,5.8-7.5,8.9,6.8,0,9.1-4.3,9.1-6.9Z"/>
      <path class="cls-1" d="M127,15.4c0,1.2,1,2.3,2.3,2.3s2.3-1,2.3-2.3c0-3.1-3.4-4.3-6-4.3-9,0-15.7,7-15.7,14.4s4.2,8.3,9.4,8.3,7.6-1.7,10-4.5l-1.4-1.5c-1.7,1.6-3.7,3.2-6.2,3.2s-4.4-2.9-4.4-5.8c0-7.5,5.4-12.1,7.6-12.1,1.3,0,2.1.3,2.1,2.2Z"/>
      <path class="cls-1" d="M28.8,19.8h1.8l.7-2.7h-12.4l-.7,2.9h3.6c-.8,2.7-2.3,11.5-7.2,11.5s-6.1-4.3-6.1-7.8c0-9.7,5.8-19.9,12.5-19.9s4.9,1.9,5.7,4.5c.6,2,.8,3.2.8,3.2h2l2.2-8.2-3.4.4c-1.6,0-4.3-2.3-8.8-2.3C9.5,1.6,1.1,10.6,1.1,20.1s5,13.7,13.8,13.7,9.7-2.3,11.1-4l2.8-10Z"/>
    </g>
    <g>
      <path class="cls-4" d="M13.2,48.3h-1.7v-7.4h1.7v7.4Z"/>
      <path class="cls-4" d="M23,48.3h-1.5l-2.9-5h0v5h-1.3v-7.4h1.9l2.5,4.4h0v-4.4h1.3v7.4Z"/>
      <path class="cls-4" d="M31.9,42.3h-1.9v6h-1.7v-6h-1.9v-1.5h5.5v1.5Z"/>
      <path class="cls-4" d="M37.1,42.3v1.5h2.8v1.4h-2.8v1.7h3.6v1.4h-5.3v-7.4h5.3v1.4h-3.6Z"/>
      <path class="cls-4" d="M46,48.3h-1.7v-7.4h3.1c.7,0,1.3,0,1.9.4.6.4.9,1.1.9,1.9s-.5,1.6-1.3,1.9l1.4,3.3h-1.9l-1.1-2.9h-1.3v2.9ZM46,44h1c.4,0,.7,0,1.1-.2.3-.2.4-.5.4-.8s-.2-.6-.4-.8c-.3-.2-.8-.1-1.1-.1h-.9v1.9Z"/>
      <path class="cls-4" d="M59.6,48.3h-1.5l-2.9-5h0v5h-1.3v-7.4h1.9l2.5,4.4h0v-4.4h1.3v7.4Z"/>
      <path class="cls-4" d="M69.8,48.3h-1.9l-.5-1.5h-2.4l-.5,1.5h-1.5l2.4-7.4h2l2.3,7.4ZM67,45.4l-.8-2.6-.8,2.6h1.6Z"/>
      <path class="cls-4" d="M77.2,42.3h-1.9v6h-1.7v-6h-1.9v-1.5h5.5v1.5Z"/>
      <path class="cls-4" d="M82.4,48.3h-1.7v-7.4h1.7v7.4Z"/>
      <path class="cls-4" d="M86.9,47.2c-.5-.8-.8-1.7-.8-2.7,0-2,1-3.8,3.2-3.8s1.8.3,2.4,1.1c.5.7.8,1.8.8,2.7s-.2,1.9-.7,2.6c-.6.8-1.5,1.3-2.5,1.3s-1.8-.3-2.4-1.2ZM88.2,43c-.2.4-.2,1.1-.2,1.6,0,.9.1,2.4,1.4,2.4s.9-.3,1.1-.8c.2-.5.2-1.1.2-1.6s0-1.2-.3-1.7c-.2-.5-.5-.7-1.1-.7s-.9.3-1.1.8Z"/>
      <path class="cls-4" d="M101.9,48.3h-1.5l-2.9-5h0v5h-1.3v-7.4h1.9l2.5,4.4h0v-4.4h1.3v7.4Z"/>
      <path class="cls-4" d="M112,48.3h-1.9l-.5-1.5h-2.4l-.5,1.5h-1.5l2.4-7.4h2l2.3,7.4ZM109.2,45.4l-.8-2.6-.8,2.6h1.6Z"/>
      <path class="cls-4" d="M120,46.8v1.5h-4.7v-7.4h1.7v6h3Z"/>
    </g>
  </g>
  <path class="cls-2" d="M166.8,30.9s-1-1-2.7-1-7.1,1.8-7.1,1.8c0,0,1.8-2.6.9-3.4-.9-.8-2.5-2-4.1-3.2-2.5-1.9-5-3.7-5-3.7,0,0,.8-.2,1.7-.6,1-.4.5-1.1.3-1.9-.2-.9-1.4-4.9-1.4-4.9,0,0,4.4,1.4,5.3,1.2.9-.2,1.6-2.9,1.6-2.9,0,0,3,4.1,4.5,4.9.2.1.8.1.8-.5,0-1-.6-3.2-1.1-5.2-.6-2.4-1.1-4.7-1.1-4.7,0,0,1.6,1.2,2.7,1.6.3.1.7.2,1.2-.2,1.4-1.3,3.6-6.5,3.6-6.5v29.2Z"/>
  <g>
    <path class="cls-1" d="M169.6,28.5c0,.4.1.7.4.9.3.2.7.3,1.2.3,1.1,0,1.7-.4,1.7-1.3s0-.8-.3-1.3h.9c.2.4.3.9.3,1.4,0,.7-.2,1.3-.7,1.7-.4.4-1.1.6-1.9.6s-1,0-1.4-.3c-.4-.2-.7-.5-.9-.8-.2-.4-.3-.8-.3-1.2s.1-1,.4-1.5l.9.3c0,.2-.2.4-.2.6,0,.2,0,.4,0,.6Z"/>
    <path class="cls-1" d="M173.7,23l-1.2.4v1.8l1.2.4v1.1l-5-1.8v-1.3l5-1.8v1.1ZM171.7,23.6c-1.1.3-1.7.5-1.8.6-.1,0-.3,0-.3,0,.3,0,1,.3,2.2.6v-1.3Z"/>
    <path class="cls-1" d="M173.7,16.8v1.3l-3.8,2.2h0c.7,0,1.1,0,1.4,0h2.3v.9h-5v-1.3l3.7-2.2h0c-.6,0-1.1,0-1.4,0h-2.4v-1h5Z"/>
    <path class="cls-1" d="M173.7,12.5l-1.2.4v1.8l1.2.4v1.1l-5-1.8v-1.3l5-1.8v1.1ZM171.7,13.1c-1.1.3-1.7.5-1.8.6-.1,0-.3,0-.3,0,.3,0,1,.3,2.2.6v-1.3Z"/>
    <path class="cls-1" d="M171.2,6.6c.8,0,1.4.2,1.9.7.4.5.7,1.1.7,2v1.4h-5v-1.6c0-.8.2-1.4.6-1.9.4-.4,1-.7,1.8-.7ZM171.2,7.7c-1.1,0-1.6.5-1.6,1.4v.6h3.2v-.5c0-1-.5-1.5-1.6-1.5Z"/>
    <path class="cls-1" d="M173.7,2.8l-1.2.4v1.8l1.2.4v1.1l-5-1.8v-1.3l5-1.8v1.1ZM171.7,3.4c-1.1.3-1.7.5-1.8.6-.1,0-.3,0-.3,0,.3,0,1,.3,2.2.6v-1.3Z"/>
  </g>
  <g>
    <path class="cls-1" d="M176.4,1.7h2.5c1.1,0,1.9.2,2.5.5s.8.8.8,1.5-.1.9-.3,1.2-.5.5-.9.6h0c.5.2.9.4,1.1.7s.3.7.3,1.2c0,.7-.3,1.3-.8,1.7s-1.2.6-2.1.6h-3V1.7ZM178.1,4.8h1c.5,0,.8,0,1-.2s.3-.4.3-.7-.1-.5-.3-.7-.6-.2-1.1-.2h-.9v1.8ZM178.1,6.2v2.1h1.1c.5,0,.8,0,1-.3s.3-.5.3-.8c0-.7-.5-1-1.4-1h-1Z"/>
    <path class="cls-1" d="M187.9,9.6h-4.6V1.7h4.6v1.4h-2.9v1.7h2.7v1.4h-2.7v2.1h2.9v1.4Z"/>
    <path class="cls-1" d="M194.2,7.4c0,.7-.3,1.3-.8,1.7s-1.2.6-2.2.6-1.6-.2-2.3-.5v-1.6c.5.2,1,.4,1.4.5s.7.1,1,.1.7,0,.9-.2.3-.4.3-.6,0-.3-.1-.4-.2-.2-.4-.4-.5-.3-1-.5c-.5-.2-.9-.4-1.1-.7s-.4-.5-.6-.7-.2-.6-.2-1c0-.7.2-1.3.7-1.7s1.1-.6,2-.6.8,0,1.2.1.8.2,1.2.4l-.5,1.3c-.4-.2-.8-.3-1.1-.4s-.6-.1-.8-.1-.6,0-.7.2-.3.3-.3.6,0,.3.1.4.2.2.3.3.5.3,1.1.6c.7.4,1.3.7,1.5,1.1s.4.8.4,1.3Z"/>
    <path class="cls-1" d="M198.6,9.6h-1.7V3.1h-2.2v-1.4h6v1.4h-2.2v6.6Z"/>
    <path class="cls-1" d="M179.8,20.3l-1.9-6.2h0c0,1.3.1,2.1.1,2.5v3.7h-1.5v-8h2.3l1.9,6.1h0l2-6.1h2.3v8h-1.6v-3.8c0-.2,0-.4,0-.6s0-.8,0-1.9h0l-2.1,6.2h-1.5Z"/>
    <path class="cls-1" d="M191.8,20.3l-.6-1.9h-2.9l-.6,1.9h-1.8l2.8-8h2.1l2.8,8h-1.8ZM190.8,16.9c-.5-1.7-.8-2.7-.9-2.9s-.1-.4-.1-.5c-.1.5-.5,1.6-1,3.4h2.1Z"/>
    <path class="cls-1" d="M201.7,20.3h-2.1l-3.5-6h0c0,1.1.1,1.8.1,2.3v3.7h-1.5v-8h2.1l3.5,6h0c0-1,0-1.8,0-2.2v-3.8h1.5v8Z"/>
    <path class="cls-1" d="M208.5,20.3l-.6-1.9h-2.9l-.6,1.9h-1.8l2.8-8h2.1l2.8,8h-1.8ZM207.6,16.9c-.5-1.7-.8-2.7-.9-2.9s-.1-.4-.1-.5c-.1.5-.5,1.6-1,3.4h2.1Z"/>
    <path class="cls-1" d="M213.9,15.8h3.2v4.1c-.5.2-1,.3-1.4.4s-.9.1-1.4.1c-1.2,0-2.1-.4-2.8-1.1s-1-1.7-1-3,.4-2.3,1.1-3,1.8-1.1,3.1-1.1,1.6.2,2.4.5l-.6,1.4c-.6-.3-1.2-.4-1.8-.4s-1.3.2-1.8.7-.7,1.1-.7,2,.2,1.5.5,2,.9.7,1.5.7.7,0,1.1-.1v-1.7h-1.5v-1.4Z"/>
    <path class="cls-1" d="M231,16.2c0,1.3-.4,2.3-1.1,3s-1.8,1-3.2,1h-2.3v-8h2.5c1.3,0,2.3.3,3,1s1.1,1.6,1.1,2.9ZM229.2,16.2c0-1.7-.8-2.6-2.3-2.6h-.9v5.2h.7c1.6,0,2.4-.9,2.4-2.6Z"/>
    <path class="cls-1" d="M179.8,24.2c-.6,0-1.1.2-1.5.7s-.5,1.1-.5,2c0,1.8.7,2.7,2,2.7s1.2-.1,2-.4v1.4c-.7.3-1.4.4-2.2.4-1.2,0-2-.4-2.7-1.1s-.9-1.7-.9-3,.2-1.6.5-2.2.7-1.1,1.3-1.4,1.2-.5,2-.5,1.6.2,2.3.6l-.5,1.4c-.3-.1-.6-.3-.9-.4s-.6-.2-.9-.2Z"/>
    <path class="cls-1" d="M190.2,26.9c0,1.3-.3,2.3-1,3s-1.6,1.1-2.8,1.1-2.2-.4-2.8-1.1-1-1.7-1-3.1.3-2.3,1-3c.7-.7,1.6-1,2.8-1s2.2.4,2.8,1.1c.6.7,1,1.7,1,3ZM184.4,26.9c0,.9.2,1.6.5,2s.8.7,1.5.7c1.3,0,2-.9,2-2.7s-.7-2.7-2-2.7-1.2.2-1.5.7-.5,1.1-.5,2Z"/>
    <path class="cls-1" d="M194.7,30.9l-1.9-6.2h0c0,1.3.1,2.1.1,2.5v3.7h-1.5v-8h2.3l1.9,6.1h0l2-6.1h2.3v8h-1.6v-3.8c0-.2,0-.4,0-.6s0-.8,0-1.9h0l-2.1,6.2h-1.5Z"/>
    <path class="cls-1" d="M207,25.4c0,.9-.3,1.5-.8,2s-1.3.7-2.3.7h-.7v2.8h-1.7v-8h2.5c1,0,1.7.2,2.2.6s.8,1,.8,1.9ZM203.2,26.7h.6c.5,0,.9-.1,1.2-.3s.4-.5.4-.9-.1-.7-.3-.9-.6-.3-1-.3h-.8v2.4Z"/>
    <path class="cls-1" d="M212.5,30.9l-.6-1.9h-2.9l-.6,1.9h-1.8l2.8-8h2.1l2.8,8h-1.8ZM211.5,27.6c-.5-1.7-.8-2.7-.9-2.9s-.1-.4-.1-.5c-.1.5-.5,1.6-1,3.4h2.1Z"/>
    <path class="cls-1" d="M222.4,30.9h-2.1l-3.5-6h0c0,1.1.1,1.8.1,2.3v3.7h-1.5v-8h2.1l3.5,6h0c0-1,0-1.8,0-2.2v-3.8h1.5v8Z"/>
    <path class="cls-1" d="M224.1,30.9v-8h1.7v8h-1.7Z"/>
    <path class="cls-1" d="M232.1,30.9h-4.6v-8h4.6v1.4h-2.9v1.7h2.7v1.4h-2.7v2.1h2.9v1.4Z"/>
    <path class="cls-1" d="M238.4,28.7c0,.7-.3,1.3-.8,1.7s-1.2.6-2.2.6-1.6-.2-2.3-.5v-1.6c.5.2,1,.4,1.4.5s.7.1,1,.1.7,0,.9-.2.3-.4.3-.6,0-.3-.1-.4-.2-.2-.4-.4-.5-.3-1-.5c-.5-.2-.9-.4-1.1-.7s-.4-.5-.6-.7-.2-.6-.2-1c0-.7.2-1.3.7-1.7s1.1-.6,2-.6.8,0,1.2.1.8.2,1.2.4l-.5,1.3c-.4-.2-.8-.3-1.1-.4s-.6-.1-.8-.1-.6,0-.7.2-.3.3-.3.6,0,.3.1.4.2.2.3.3.5.3,1.1.6c.7.4,1.3.7,1.5,1.1s.4.8.4,1.3Z"/>
    <path class="cls-1" d="M223,20.3h-4.6v-8h4.6v1.4h-2.9v1.7h2.7v1.4h-2.7v2.1h2.9v1.4Z"/>
  </g>
  <g>
    <path class="cls-1" d="M166.6,47c0,.5-.2,1-.6,1.2-.4.3-.9.4-1.6.4h-.6v2.1h-.6v-5.3h1.4c1.3,0,2,.5,2,1.5ZM163.8,48.2h.6c.5,0,.9,0,1.2-.3.2-.2.4-.5.4-.8s-.1-.6-.3-.8-.6-.3-1.1-.3h-.7v2.2Z"/>
    <path class="cls-1" d="M168,50.8h-.6v-5.7h.6v5.7Z"/>
    <path class="cls-1" d="M171.7,50.8v-.6h-.1c-.2.2-.4.4-.6.5s-.4.1-.7.1-.7-.1-.9-.3c-.2-.2-.3-.5-.3-.9,0-.8.6-1.2,1.9-1.3h.7v-.3c0-.3,0-.5-.2-.7-.1-.1-.3-.2-.6-.2s-.7.1-1.1.3l-.2-.5c.2-.1.4-.2.6-.3.2,0,.5,0,.7,0,.5,0,.8.1,1.1.3.2.2.3.5.3,1v2.7h-.4ZM170.3,50.4c.4,0,.7-.1.9-.3.2-.2.3-.5.3-.9v-.4h-.6c-.5,0-.8.1-1,.2-.2.1-.3.3-.3.6s0,.4.2.5c.1.1.3.2.6.2Z"/>
    <path class="cls-1" d="M174.6,50.4c.1,0,.2,0,.3,0s.2,0,.2,0v.5c0,0-.2,0-.3,0-.1,0-.2,0-.3,0-.8,0-1.2-.4-1.2-1.2v-2.4h-.6v-.3l.6-.3.3-.8h.3v.9h1.2v.5h-1.2v2.3c0,.2,0,.4.2.6s.3.2.5.2Z"/>
    <path class="cls-1" d="M175.9,45.7c0-.1,0-.2.1-.3,0,0,.2,0,.3,0s.2,0,.3,0c0,0,.1.2.1.3s0,.2-.1.3c0,0-.2,0-.3,0s-.2,0-.3,0-.1-.2-.1-.3ZM176.5,50.8h-.6v-4h.6v4Z"/>
    <path class="cls-1" d="M180.3,50.8v-2.6c0-.3,0-.6-.2-.7-.1-.2-.4-.2-.7-.2s-.7.1-.9.3c-.2.2-.3.6-.3,1.1v2.1h-.6v-4h.5v.5h.1c.1-.2.3-.3.5-.5.2-.1.5-.2.7-.2.5,0,.8.1,1.1.3.2.2.4.6.4,1.1v2.6h-.6Z"/>
    <path class="cls-1" d="M182.5,46.8v2.6c0,.3,0,.6.2.7.1.2.4.2.7.2s.7-.1.9-.3.3-.6.3-1.1v-2.1h.6v4h-.5v-.5h-.1c-.1.2-.3.3-.5.5-.2.1-.5.2-.8.2-.5,0-.8-.1-1.1-.3-.2-.2-.4-.6-.4-1.1v-2.6h.6Z"/>
    <path class="cls-1" d="M191.4,50.8v-2.6c0-.3,0-.6-.2-.7-.1-.2-.3-.2-.6-.2s-.7.1-.8.3c-.2.2-.3.5-.3,1v2.2h-.6v-2.6c0-.3,0-.6-.2-.7-.1-.2-.3-.2-.6-.2s-.7.1-.8.3-.3.6-.3,1.1v2.1h-.6v-4h.5v.5h.1c.1-.2.3-.3.5-.5.2-.1.4-.2.7-.2.6,0,1,.2,1.2.7h0c.1-.2.3-.4.5-.5.2-.1.5-.2.8-.2.5,0,.8.1,1,.3.2.2.3.6.3,1.1v2.6h-.6Z"/>
    <path class="cls-1" d="M200.4,50.8v-2.6c0-.3,0-.6-.2-.7-.1-.2-.3-.2-.6-.2s-.7.1-.8.3c-.2.2-.3.5-.3,1v2.2h-.6v-2.6c0-.3,0-.6-.2-.7-.1-.2-.3-.2-.6-.2s-.7.1-.8.3-.3.6-.3,1.1v2.1h-.6v-4h.5v.5h.1c.1-.2.3-.3.5-.5.2-.1.4-.2.7-.2.6,0,1,.2,1.2.7h0c.1-.2.3-.4.5-.5.2-.1.5-.2.8-.2.5,0,.8.1,1,.3.2.2.3.6.3,1.1v2.6h-.6Z"/>
    <path class="cls-1" d="M203.9,50.9c-.6,0-1.1-.2-1.4-.5-.3-.4-.5-.9-.5-1.5s.2-1.2.5-1.5.7-.6,1.3-.6.9.2,1.2.5.4.8.4,1.3v.4h-2.7c0,.5.1.8.4,1.1s.5.4.9.4.9,0,1.3-.3v.5c-.2,0-.4.2-.6.2s-.4,0-.7,0ZM203.7,47.2c-.3,0-.6.1-.8.3s-.3.5-.3.9h2.1c0-.4,0-.7-.3-.9-.2-.2-.4-.3-.7-.3Z"/>
    <path class="cls-1" d="M211.3,50.8v-2.6c0-.3,0-.6-.2-.7-.1-.2-.3-.2-.6-.2s-.7.1-.8.3c-.2.2-.3.5-.3,1v2.2h-.6v-2.6c0-.3,0-.6-.2-.7-.1-.2-.3-.2-.6-.2s-.7.1-.8.3-.3.6-.3,1.1v2.1h-.6v-4h.5v.5h.1c.1-.2.3-.3.5-.5.2-.1.4-.2.7-.2.6,0,1,.2,1.2.7h0c.1-.2.3-.4.5-.5.2-.1.5-.2.8-.2.5,0,.8.1,1,.3.2.2.3.6.3,1.1v2.6h-.6Z"/>
    <path class="cls-1" d="M214.8,46.7c.5,0,.9.2,1.2.5.3.4.4.9.4,1.5s-.1,1.2-.4,1.5c-.3.4-.7.5-1.2.5s-.5,0-.7-.1c-.2,0-.4-.2-.5-.4h0v.5h-.6v-5.7h.6v1.4c0,.3,0,.6,0,.8h0c.3-.4.7-.6,1.2-.6ZM214.7,47.2c-.4,0-.7.1-.9.4-.2.2-.3.6-.3,1.2s0,1,.3,1.2.5.4.9.4.6-.1.8-.4c.2-.3.3-.7.3-1.2s0-.9-.3-1.2c-.2-.3-.5-.4-.8-.4Z"/>
    <path class="cls-1" d="M219.2,50.9c-.6,0-1.1-.2-1.4-.5-.3-.4-.5-.9-.5-1.5s.2-1.2.5-1.5.7-.6,1.3-.6.9.2,1.2.5.4.8.4,1.3v.4h-2.7c0,.5.1.8.4,1.1s.5.4.9.4.9,0,1.3-.3v.5c-.2,0-.4.2-.6.2s-.4,0-.7,0ZM219,47.2c-.3,0-.6.1-.8.3s-.3.5-.3.9h2.1c0-.4,0-.7-.3-.9-.2-.2-.4-.3-.7-.3Z"/>
    <path class="cls-1" d="M223.4,46.7c.2,0,.3,0,.5,0v.6c-.2,0-.4,0-.5,0-.3,0-.6.1-.8.4-.2.3-.3.6-.3,1v2.1h-.6v-4h.5v.7h0c.1-.3.3-.5.5-.6.2-.1.4-.2.7-.2Z"/>
  </g>
  <rect class="cls-1" x="148.7" y="38.6" width="89.7" height=".4"/>
</svg>