<?xml version="1.0" encoding="UTF-8"?>
<svg id="Layer_1" xmlns="http://www.w3.org/2000/svg" version="1.1" viewBox="0 0 386 131">
  <!-- Generator: Adobe Illustrator 29.4.0, SVG Export Plug-In . SVG Version: 2.1.0 Build 152)  -->
  <defs>
    <style>
      .st0 {
        fill-rule: evenodd;
      }

      .st0, .st1 {
        fill: #fff;
      }
    </style>
  </defs>
  <g id="Tiger">
    <path class="st1" d="M251.3,64.1v18.8h-5.3v-18.8h-10.5v-4.1h26.4v4.1h-10.6Z"/>
    <path class="st1" d="M268.4,82.9v-22.9h5.3v22.9h-5.3Z"/>
    <path class="st1" d="M306.9,64.1h-16.6v14.5h16.6v-5.1h-8.7v-3.9h13.9v7.9c0,2.1-.4,3.6-1.2,4.3-.8.7-2.3,1.1-4.5,1.1h-15.8c-2.2,0-3.7-.4-4.5-1.1-.8-.7-1.2-2.2-1.2-4.3v-12.1c0-2.1.4-3.6,1.2-4.3.8-.7,2.3-1.1,4.5-1.1h15.8c2.1,0,3.6.4,4.4,1.1.8.7,1.2,2.1,1.2,4.1v.5l-5.2.9v-2.6Z"/>
    <path class="st1" d="M323.3,82.9v-22.9h23.4v3.9h-18.1v5.1h10.6v3.9h-10.6v5.7h18.3v4.3h-23.7Z"/>
    <path class="st1" d="M356.8,82.9v-22.9h19.6c3.4,0,5.1,1.5,5.1,4.4v5.4c0,3-1.7,4.4-5.1,4.4h-3l10.6,8.7h-7.6l-9.2-8.7h-5.1v8.7h-5.2ZM374.1,63.9h-12v6.4h12c.8,0,1.4,0,1.7-.3.4-.3.7-.8.7-1.6v-2.8c0-.8-.2-1.3-.7-1.6-.3-.2-.9-.3-1.7-.3Z"/>
  </g>
  <path class="st0" d="M193,2.4h-18.3v103.2s2.6,22.5,26.1,22.4c23.4-.2,26.5-22.2,26.5-22.2v-63.7h-26.1v18.8h7v42.4s-.6,5.4-7.5,5.6c-6.8.2-7.8-5.4-7.8-5.4V34.1h34V14.7h-34V2.4"/>
  <g id="Glass">
    <path class="st1" d="M24.2,64.1H7.5v14.5h16.6v-5.1h-8.7v-3.9h13.9v7.9c0,2.1-.4,3.6-1.2,4.3-.8.7-2.3,1.1-4.5,1.1H7.9c-2.2,0-3.7-.4-4.5-1.1-.8-.7-1.2-2.2-1.2-4.3v-12.1c0-2.1.4-3.6,1.2-4.3.8-.7,2.3-1.1,4.5-1.1h15.8c2.1,0,3.6.4,4.4,1.1.8.7,1.2,2.1,1.2,4.1v.5l-5.2.9v-2.6Z"/>
    <path class="st1" d="M40.6,82.9v-22.9h5.3v18.6h17.2v4.3h-22.5Z"/>
    <path class="st1" d="M66.5,82.9l13-22.9h5.1l13.1,22.9h-6l-2.8-5h-14.5l-2.7,5h-5.3ZM76.8,73.8h10l-4.9-9.3-5.1,9.3Z"/>
    <path class="st1" d="M125,64h-15v4.9h14.3c2.2,0,3.7.4,4.5,1.1.8.7,1.2,2.2,1.2,4.3v3.2c0,2.1-.4,3.6-1.2,4.3-.8.7-2.3,1.1-4.5,1.1h-14.2c-2.2,0-3.7-.4-4.5-1.1-.8-.7-1.2-2.2-1.2-4.3v-.6l4.7-1v2.7h16.2v-5.2h-14.3c-2.2,0-3.7-.4-4.5-1.1-.8-.7-1.2-2.2-1.2-4.3v-2.5c0-2.1.4-3.6,1.2-4.3.8-.7,2.3-1.1,4.5-1.1h13c2.1,0,3.6.4,4.4,1.1.8.7,1.3,2,1.3,3.9v.5l-4.7,1.1v-2.6Z"/>
    <path class="st1" d="M160.9,64h-15v4.9h14.3c2.2,0,3.7.4,4.5,1.1.8.7,1.2,2.2,1.2,4.3v3.2c0,2.1-.4,3.6-1.2,4.3-.8.7-2.3,1.1-4.5,1.1h-14.2c-2.2,0-3.7-.4-4.5-1.1-.8-.7-1.2-2.2-1.2-4.3v-.6l4.7-1v2.7h16.2v-5.2h-14.3c-2.2,0-3.7-.4-4.5-1.1-.8-.7-1.2-2.2-1.2-4.3v-2.5c0-2.1.4-3.6,1.2-4.3.8-.7,2.3-1.1,4.5-1.1h13c2.1,0,3.6.4,4.4,1.1.8.7,1.3,2,1.3,3.9v.5l-4.7,1.1v-2.6Z"/>
  </g>
</svg>