<?xml version="1.0" encoding="UTF-8"?>
<svg id="Layer_1" data-name="Layer 1" xmlns="http://www.w3.org/2000/svg" xmlns:xlink="http://www.w3.org/1999/xlink" version="1.1" viewBox="0 0 120 52">
  <defs>
    <style>
      .cls-1 {
        fill: #e4e5e6;
      }

      .cls-1, .cls-2, .cls-3, .cls-4, .cls-5, .cls-6, .cls-7, .cls-8, .cls-9, .cls-10, .cls-11, .cls-12, .cls-13, .cls-14, .cls-15, .cls-16, .cls-17, .cls-18, .cls-19, .cls-20, .cls-21, .cls-22, .cls-23, .cls-24, .cls-25, .cls-26, .cls-27, .cls-28, .cls-29, .cls-30, .cls-31, .cls-32, .cls-33 {
        stroke-width: 0px;
      }

      .cls-2 {
        fill: #e2e2e3;
      }

      .cls-3 {
        fill: #c8c9cb;
      }

      .cls-4 {
        fill: #e7e7e8;
      }

      .cls-5 {
        fill: #f1f1f2;
      }

      .cls-34 {
        clip-path: url(#clippath);
      }

      .cls-6, .cls-35 {
        fill: none;
      }

      .cls-7 {
        fill: url(#linear-gradient);
      }

      .cls-8 {
        fill: #d5d6d7;
      }

      .cls-9 {
        fill: #00ac84;
      }

      .cls-10 {
        fill: #d2d3d5;
      }

      .cls-11 {
        fill: #dcdddf;
      }

      .cls-12 {
        fill: #dadbdc;
      }

      .cls-13 {
        fill: #801517;
      }

      .cls-14 {
        fill: #c5c7c9;
      }

      .cls-15 {
        fill: #ef5158;
      }

      .cls-36 {
        clip-path: url(#clippath-1);
      }

      .cls-16 {
        fill: #e9eaeb;
      }

      .cls-17 {
        fill: #d0d1d2;
      }

      .cls-18 {
        fill: #bebfc1;
      }

      .cls-19 {
        fill: #c0c2c4;
      }

      .cls-37 {
        opacity: .5;
      }

      .cls-20 {
        fill: #caccce;
      }

      .cls-21 {
        fill: url(#linear-gradient-4);
      }

      .cls-22 {
        fill: url(#linear-gradient-2);
      }

      .cls-23 {
        fill: url(#linear-gradient-3);
      }

      .cls-24 {
        fill: #bbbdbf;
      }

      .cls-25 {
        fill: #ec1c24;
      }

      .cls-26 {
        fill: #cb2127;
      }

      .cls-27 {
        fill: #dfe0e1;
      }

      .cls-28 {
        fill: #d7d8da;
      }

      .cls-38 {
        isolation: isolate;
      }

      .cls-29 {
        fill: #c3c4c6;
      }

      .cls-30 {
        fill: #eeeff0;
      }

      .cls-31 {
        fill: #cdced0;
      }

      .cls-35 {
        stroke: #00ac84;
        stroke-linecap: round;
        stroke-miterlimit: 10;
        stroke-width: .4px;
      }

      .cls-32 {
        fill: #fff;
      }

      .cls-33 {
        fill: #ececed;
      }
    </style>
    <clipPath id="clippath">
      <rect class="cls-6" x="-.9" y=".3" width="106.9" height="51.3"/>
    </clipPath>
    <clipPath id="clippath-1">
      <rect class="cls-6" x="-.9" y=".3" width="106.9" height="51.3"/>
    </clipPath>
    <linearGradient id="linear-gradient" x1="108.1" y1="8.9" x2="108.1" y2="39.4" gradientTransform="translate(0 54) scale(1 -1)" gradientUnits="userSpaceOnUse">
      <stop offset="0" stop-color="#ec1c24"/>
      <stop offset="1" stop-color="#f4969d"/>
    </linearGradient>
    <linearGradient id="linear-gradient-2" x1="108.1" y1="9" x2="108.1" y2="39.4" gradientTransform="translate(0 54) scale(1 -1)" gradientUnits="userSpaceOnUse">
      <stop offset="0" stop-color="#b12125"/>
      <stop offset="1" stop-color="#ec1c24"/>
    </linearGradient>
    <linearGradient id="linear-gradient-3" x1="108.1" y1="21" x2="108.1" y2="37.2" gradientTransform="translate(0 54) scale(1 -1)" gradientUnits="userSpaceOnUse">
      <stop offset="0" stop-color="#f05b61"/>
      <stop offset="1" stop-color="#b12125"/>
    </linearGradient>
    <linearGradient id="linear-gradient-4" x1="108.1" y1="21.1" x2="108.1" y2="37.1" gradientTransform="translate(0 54) scale(1 -1)" gradientUnits="userSpaceOnUse">
      <stop offset="0" stop-color="#ec1c24"/>
      <stop offset="1" stop-color="#981e21"/>
    </linearGradient>
  </defs>
  <g id="Layer_1-2" data-name="Layer 1">
    <g>
      <g>
        <g class="cls-37">
          <g class="cls-34">
            <g class="cls-36">
              <image class="cls-38" width="468" height="225" transform="translate(-.9 .2) scale(.2)" xlink:href="../../../LInks/branding/903F8EA92DFF9BDF.png"/>
            </g>
          </g>
        </g>
        <g>
          <path class="cls-32" d="M11.2,16.4v6.5h-2.6v-6.5h-2.2v-2.1h6.9l.4,2.1h-2.5Z"/>
          <path class="cls-32" d="M20,22.9v-3.3h-2.4v3.3h-2.6v-8.6h2.6v3.1h2.4v-3.1h2.5v8.6h-2.5Z"/>
          <path class="cls-32" d="M24.6,22.9v-8.6h5.7v2h-3.2v1.2h2.4l.3,2h-2.7v1.4h3.3v2h-5.8Z"/>
        </g>
        <polygon class="cls-32" points="52.3 22.8 52.3 7.1 62.7 7.1 62.7 10.7 56.9 10.7 56.9 12.8 61.2 12.8 61.8 16.6 56.9 16.6 56.9 19.2 62.9 19.2 62.9 22.8 52.3 22.8"/>
        <path class="cls-32" d="M69.6,22.8h-4.7s4.7-7.9,4.7-7.9l-4.4-7.8h5c0,0,2.4,4.2,2.4,4.2l2.2-4.3h4.7l-4.4,7.4,4.8,8.4h-5c0,0-2.7-4.9-2.7-4.9,0,0-2.6,4.8-2.6,4.8"/>
        <polygon class="cls-32" points="90.1 10.9 90.1 22.8 85.4 22.8 85.4 10.9 81.4 10.9 81.4 7.1 94 7.1 94.6 10.9 90.1 10.9"/>
        <path class="cls-32" d="M50.1,7.1c0,0-.1,0-.2,0h-3.7c-.1,0-.2,0-.2.2h0c0,.4,0,1-.3,1.9v.7c-.1,0-.2.4-.2.4l-1.3,6.6-6.3-14.5c0,0-.1-.1-.2-.1s-.2,0-.2.2l-3.7,17.4v.2c-.5,1.8-.5,2.2-.7,2.7,0,0,0,.1,0,.2s.1,0,.2,0h3.7c.1,0,.2,0,.2-.2,0-.5,0-.9.3-1.9l.2-1.1,1.2-6.2c.8,2.2,3.5,9,3.6,9.3,0,0,.1.1.2.1h3.8c0,0,.2,0,.2-.2.3-1.6,2.8-13,2.8-13,.4-1.8.4-2.1.6-2.6,0,0,0-.1,0-.2"/>
        <path class="cls-35" d="M4.3,14.6H1.9c-.3,0-.6.3-.6.6v17.3c0,7.1,5.8,12.9,12.9,12.9h73.6c7.1,0,12.9-5.8,12.9-12.9V15.2c0-.3-.3-.6-.6-.6h-3.4"/>
        <g>
          <path class="cls-32" d="M52.2,40.7v-9.7l-3.1,1.3-.6-4.2,4.3-2.1h4.5v14.8h-5.1Z"/>
          <path class="cls-32" d="M67.5,41c-4.2,0-7.2-2.9-7.2-7.7s3-7.7,7.1-7.7c4.1,0,7.1,2.9,7.1,7.7,0,4.7-3,7.7-7.1,7.7ZM67.4,29.8c-1.2,0-2.2.9-2.2,3.6s1,3.6,2.2,3.6,2.1-.9,2.1-3.6c0-2.7-1-3.6-2.1-3.6Z"/>
          <path class="cls-32" d="M83.8,41c-4.2,0-7.2-2.9-7.2-7.7s3-7.7,7.1-7.7c4.1,0,7.1,2.9,7.1,7.7,0,4.7-3,7.7-7.1,7.7ZM83.8,29.8c-1.2,0-2.2.9-2.2,3.6s1,3.6,2.2,3.6,2.1-.9,2.1-3.6-1-3.6-2.1-3.6Z"/>
        </g>
        <polygon class="cls-9" points="12.4 33.3 6.4 27.6 12.8 27.6 18.8 33.3 12.8 39 6.4 39 12.4 33.3"/>
        <polygon class="cls-9" points="21 33.3 15.1 27.6 21.5 27.6 27.4 33.3 21.5 39 15.1 39 21 33.3"/>
        <polygon class="cls-9" points="29.7 33.3 23.8 27.6 30.2 27.6 36.1 33.3 30.2 39 23.8 39 29.7 33.3"/>
        <polygon class="cls-9" points="38.4 33.3 32.4 27.6 38.8 27.6 44.8 33.3 38.8 39 32.5 39 38.4 33.3"/>
      </g>
      <g>
        <g>
          <path class="cls-7" d="M118.8,25.1c-.1-5.8-4.9-10.5-10.7-10.5s-10.7,4.8-10.7,10.7,0,1.2.1,1.6h0c1.2,8.3,10.6,18.2,10.6,18.2,0,0,8.6-7.9,10.4-17.2.2-.8.3-2.8.3-2.8Z"/>
          <path class="cls-22" d="M108.1,45c-.4-.4-2.5-2.8-4.8-5.9-2.3-3.2-5.1-7.9-5.7-12.1h0c0-.4-.1-1.5-.1-1.7,0-5.9,4.8-10.7,10.7-10.7s5.5,1.1,7.5,3c2,2,3.1,4.6,3.2,7.4,0,.1-.1,2-.3,2.8-.9,4.8-3.7,9.2-5.9,12-2.1,2.8-4.1,4.7-4.5,5.1Z"/>
          <circle class="cls-23" cx="108.1" cy="24.9" r="8.1"/>
          <path class="cls-21" d="M108.1,32.9c-4.4,0-8-3.6-8-8s3.6-8,8-8,8,3.6,8,8c0,4.4-3.6,8-8,8Z"/>
          <path class="cls-13" d="M108.1,32.4c-4.1,0-7.5-3.4-7.5-7.5s3.4-7.5,7.5-7.5,7.5,3.4,7.5,7.5-3.4,7.5-7.5,7.5Z"/>
          <g>
            <path class="cls-24" d="M108.1,32.3c-4.1,0-7.4-3.3-7.4-7.4s3.3-7.4,7.4-7.4,7.4,3.3,7.4,7.4-3.3,7.4-7.4,7.4Z"/>
            <path class="cls-18" d="M108.1,32.3c-4.1,0-7.4-3.3-7.4-7.4s3.3-7.4,7.4-7.4,7.4,3.3,7.4,7.4-3.3,7.4-7.4,7.4Z"/>
            <path class="cls-19" d="M108.1,32.3c-4,0-7.3-3.3-7.3-7.3s3.3-7.3,7.3-7.3,7.3,3.3,7.3,7.3-3.3,7.3-7.3,7.3Z"/>
            <path class="cls-29" d="M108.1,32.2c-4,0-7.3-3.3-7.3-7.3s3.3-7.3,7.3-7.3,7.3,3.3,7.3,7.3c0,4-3.3,7.3-7.3,7.3Z"/>
            <path class="cls-14" d="M108.1,32.2c-4,0-7.3-3.3-7.3-7.3s3.3-7.3,7.3-7.3,7.3,3.3,7.3,7.3-3.3,7.3-7.3,7.3Z"/>
            <path class="cls-3" d="M108.1,32.2c-4,0-7.3-3.2-7.3-7.3s3.2-7.3,7.3-7.3,7.3,3.2,7.3,7.3c0,4-3.2,7.3-7.3,7.3Z"/>
            <path class="cls-20" d="M108.1,32.1c-4,0-7.2-3.2-7.2-7.2s3.2-7.2,7.2-7.2,7.2,3.2,7.2,7.2-3.2,7.2-7.2,7.2Z"/>
            <path class="cls-31" d="M108.1,32.1c-4,0-7.2-3.2-7.2-7.2s3.2-7.2,7.2-7.2,7.2,3.2,7.2,7.2c0,4-3.2,7.2-7.2,7.2Z"/>
            <path class="cls-17" d="M108.1,32.1c-4,0-7.2-3.2-7.2-7.2s3.2-7.2,7.2-7.2,7.2,3.2,7.2,7.2-3.2,7.2-7.2,7.2Z"/>
            <path class="cls-10" d="M108.1,32.1c-4,0-7.2-3.2-7.2-7.2s3.2-7.2,7.2-7.2,7.2,3.2,7.2,7.2c0,4-3.2,7.2-7.2,7.2Z"/>
            <path class="cls-8" d="M108.1,32.1c-3.9,0-7.1-3.2-7.1-7.1s3.2-7.1,7.1-7.1,7.1,3.2,7.1,7.1-3.2,7.1-7.1,7.1Z"/>
            <path class="cls-28" d="M108.1,32c-3.9,0-7.1-3.2-7.1-7.1s3.2-7.1,7.1-7.1,7.1,3.2,7.1,7.1-3.2,7.1-7.1,7.1Z"/>
            <path class="cls-12" d="M108.1,32c-3.9,0-7.1-3.2-7.1-7.1s3.2-7.1,7.1-7.1,7.1,3.2,7.1,7.1-3.2,7.1-7.1,7.1Z"/>
            <path class="cls-11" d="M108.1,32c-3.9,0-7.1-3.2-7.1-7.1s3.2-7.1,7.1-7.1,7.1,3.2,7.1,7.1c0,3.9-3.2,7.1-7.1,7.1Z"/>
            <path class="cls-27" d="M108.1,31.9c-3.9,0-7-3.2-7-7s3.2-7,7-7,7,3.2,7,7c0,3.9-3.2,7-7,7Z"/>
            <path class="cls-2" d="M108.1,31.9c-3.9,0-7-3.1-7-7s3.1-7,7-7,7,3.1,7,7-3.2,7-7,7Z"/>
            <path class="cls-1" d="M108.1,31.9c-3.9,0-7-3.1-7-7s3.1-7,7-7,7,3.1,7,7-3.1,7-7,7Z"/>
            <path class="cls-4" d="M108.1,31.9c-3.8,0-7-3.1-7-7s3.1-7,7-7,7,3.1,7,7-3.1,7-7,7Z"/>
            <path class="cls-16" d="M108.1,31.8c-3.8,0-6.9-3.1-6.9-6.9s3.1-6.9,6.9-6.9,6.9,3.1,6.9,6.9c0,3.8-3.1,6.9-6.9,6.9Z"/>
            <path class="cls-33" d="M108.1,31.8c-3.8,0-6.9-3.1-6.9-6.9s3.1-6.9,6.9-6.9,6.9,3.1,6.9,6.9-3.1,6.9-6.9,6.9Z"/>
            <path class="cls-30" d="M108.1,31.8c-3.8,0-6.9-3.1-6.9-6.9s3.1-6.9,6.9-6.9,6.9,3.1,6.9,6.9c0,3.8-3.1,6.9-6.9,6.9Z"/>
            <path class="cls-5" d="M108.1,31.8c-3.8,0-6.9-3.1-6.9-6.9s3.1-6.9,6.9-6.9,6.9,3.1,6.9,6.9-3.1,6.9-6.9,6.9Z"/>
          </g>
          <path class="cls-15" d="M108.1,15.5c5.5,0,9.9,4.4,10.1,9.8v-.3c0-5.6-4.5-10.1-10.1-10.1s-10.1,4.5-10.1,10.1v.3c.2-5.4,4.6-9.8,10.1-9.8Z"/>
          <path class="cls-32" d="M108.1,31.8c3.9,0,7-3.1,7.1-6.9h0c0,4-3.2,7.2-7.1,7.2s-7.1-3.2-7.1-7.1h0c0,3.7,3.2,6.8,7.1,6.8Z"/>
          <path class="cls-32" d="M112.6,21.7c0,2-2,3.7-4.5,3.7s-4.5-1.6-4.5-3.7,2-3.7,4.5-3.7,4.5,1.7,4.5,3.7Z"/>
          <path class="cls-26" d="M108,35.5c-3.2,0-6.2-1.3-8.2-3.5,1.1,2.5,2.6,5,4,6.9,2,2.8,3.9,4.9,4.3,5.3.3-.3,2.1-2,4-4.5,1.5-2,3.3-4.7,4.4-7.9-2.1,2.2-5.1,3.7-8.4,3.7Z"/>
        </g>
        <g>
          <g>
            <path class="cls-25" d="M107.7,27.5v-6.9h1.8c.4,0,.7.3.7.7v3c0,.4-.3.7-.7.7h-1v2.5h-.7ZM108.4,24.3h.9c0,0,.1,0,.1-.1v-2.8c0,0,0-.1-.1-.1h-.9v3.1Z"/>
            <path class="cls-25" d="M111.4,27.5c-.4,0-.7-.3-.7-.7v-5.5c0-.4.3-.7.7-.7h1.7v.7h-1.6c0,0-.1,0-.1.1v5.3c0,0,0,.1.1.1h.7c0,0,.1,0,.1-.1v-3.1h.7c0-.1,0,3.1,0,3.1,0,.4-.3.7-.7.7h-1Z"/>
            <path class="cls-25" d="M105.6,27.5c-.2,0-.3,0-.5-.1h0s0,0,0,0c-.1,0-.3.1-.5.1h-.7c-.4,0-.8-.4-.8-.8v-6.1h.7v6.1c0,0,0,.1.1.1h.7c0,0,.1,0,.1-.1v-6.1h.7v6.1c0,0,0,.1.1.1h.7c0,0,.1,0,.1-.1v-6.1h.7v6.1c0,.4-.4.8-.8.8h-.8Z"/>
          </g>
          <g class="cls-38">
            <path class="cls-25" d="M103,29.4l.7-.7c0,0,.2-.2.2-.3s0-.2-.2-.2-.2,0-.2.2h-.4c0-.4.3-.6.6-.6s.6.2.6.5,0,.3-.2.5l-.2.2h.5v.3h-1.2s0,0,0,0Z"/>
            <path class="cls-25" d="M105.8,28.7c0-.5.4-.8.8-.8s.8.3.8.8-.4.8-.8.8-.8-.3-.8-.8ZM107,28.7c0-.2-.1-.4-.4-.4s-.4.2-.4.4.1.4.4.4.4-.2.4-.4Z"/>
            <path class="cls-25" d="M108.9,29.4l.7-.7c0,0,.2-.2.2-.3s0-.2-.2-.2-.2,0-.2.2h-.4c0-.4.3-.6.6-.6s.6.2.6.5,0,.3-.2.5l-.2.2h.5v.3h-1.2s0,0,0,0Z"/>
            <path class="cls-25" d="M112.9,29.5h-.4v-.3h-.8v-.3l.7-.9h.4v.9h.2v.3h-.2v.3ZM112.5,28.4l-.4.5h.4v-.5Z"/>
          </g>
        </g>
      </g>
    </g>
  </g>
</svg>