<?xml version="1.0" encoding="UTF-8"?>
<svg xmlns="http://www.w3.org/2000/svg" xmlns:xlink="http://www.w3.org/1999/xlink" version="1.1" viewBox="0 0 821 500">
  <defs>
    <style>
      .cls-1 {
        fill: #006838;
      }

      .cls-1, .cls-2, .cls-3, .cls-4, .cls-5, .cls-6, .cls-7, .cls-8, .cls-9, .cls-10, .cls-11, .cls-12, .cls-13, .cls-14, .cls-15, .cls-16, .cls-17, .cls-18, .cls-19, .cls-20, .cls-21, .cls-22, .cls-23, .cls-24, .cls-25, .cls-26, .cls-27, .cls-28, .cls-29, .cls-30, .cls-31, .cls-32, .cls-33, .cls-34, .cls-35, .cls-36, .cls-37, .cls-38, .cls-39, .cls-40, .cls-41, .cls-42, .cls-43 {
        stroke-width: 0px;
      }

      .cls-44 {
        clip-path: url(#clippath);
      }

      .cls-2, .cls-45, .cls-46 {
        fill: none;
      }

      .cls-3 {
        fill: #d5d7d8;
      }

      .cls-4 {
        fill: #bec0c2;
      }

      .cls-5 {
        fill: #f9efe4;
      }

      .cls-45 {
        stroke-width: 2.7px;
      }

      .cls-45, .cls-46 {
        stroke: #07ad85;
        stroke-linecap: round;
        stroke-miterlimit: 10;
      }

      .cls-6 {
        fill: url(#linear-gradient);
      }

      .cls-7 {
        fill: #e2e3e4;
      }

      .cls-8 {
        fill: #e7e8e9;
      }

      .cls-9 {
        fill: #eceded;
      }

      .cls-10 {
        fill: #efeff0;
      }

      .cls-11 {
        filter: url(#drop-shadow-1);
      }

      .cls-11, .cls-20 {
        fill: #ed1c24;
      }

      .cls-12 {
        fill: #c9cacc;
      }

      .cls-13 {
        fill: #bcbec0;
      }

      .cls-47 {
        clip-path: url(#clippath-1);
      }

      .cls-14 {
        fill: #eaeaeb;
      }

      .cls-48 {
        filter: url(#drop-shadow-9);
      }

      .cls-49 {
        filter: url(#drop-shadow-5);
      }

      .cls-50 {
        filter: url(#drop-shadow-2);
      }

      .cls-15 {
        fill: #d8d9da;
      }

      .cls-16 {
        filter: url(#drop-shadow-13);
      }

      .cls-16, .cls-17, .cls-18, .cls-19, .cls-27 {
        fill: #07ad85;
      }

      .cls-17 {
        filter: url(#drop-shadow-12);
      }

      .cls-18 {
        filter: url(#drop-shadow-11);
      }

      .cls-19 {
        filter: url(#drop-shadow-10);
      }

      .cls-21 {
        fill: #dadbdd;
      }

      .cls-22 {
        fill: #7f1517;
      }

      .cls-23 {
        fill: #cecfd1;
      }

      .cls-24 {
        fill: #dddedf;
      }

      .cls-25 {
        fill: #c6c8ca;
      }

      .cls-26 {
        fill: url(#linear-gradient-2);
        filter: url(#drop-shadow-4);
      }

      .cls-28 {
        fill: #e4e5e6;
      }

      .cls-29 {
        fill: #cbcdcf;
      }

      .cls-51 {
        stroke: #fff;
        stroke-linejoin: round;
        stroke-width: 12px;
      }

      .cls-51, .cls-34, .cls-35, .cls-36, .cls-40 {
        fill: #fff;
      }

      .cls-30 {
        fill: #c4c5c7;
      }

      .cls-31 {
        fill: #cc2127;
      }

      .cls-46 {
        filter: url(#drop-shadow-3);
        stroke-width: 2.1px;
      }

      .cls-32 {
        fill: url(#linear-gradient-4);
      }

      .cls-33 {
        fill: url(#linear-gradient-3);
      }

      .cls-52 {
        isolation: isolate;
      }

      .cls-34 {
        filter: url(#drop-shadow-8);
      }

      .cls-35 {
        filter: url(#drop-shadow-6);
      }

      .cls-36 {
        filter: url(#drop-shadow-7);
      }

      .cls-37 {
        fill: #dfe0e2;
      }

      .cls-38 {
        fill: #d0d2d3;
      }

      .cls-39 {
        fill: #c1c3c5;
      }

      .cls-53 {
        filter: url(#drop-shadow-14);
      }

      .cls-54 {
        mix-blend-mode: multiply;
        opacity: .5;
      }

      .cls-41 {
        fill: #f05159;
      }

      .cls-42 {
        fill: #f1f2f2;
      }

      .cls-43 {
        fill: #d3d4d6;
      }
    </style>
    <filter id="drop-shadow-1" filterUnits="userSpaceOnUse">
      <feOffset dx="0" dy="0"/>
      <feGaussianBlur result="blur" stdDeviation="12"/>
      <feFlood flood-color="#45451c" flood-opacity=".6"/>
      <feComposite in2="blur" operator="in"/>
      <feComposite in="SourceGraphic"/>
    </filter>
    <filter id="drop-shadow-2" filterUnits="userSpaceOnUse">
      <feOffset dx="4.6" dy="4.6"/>
      <feGaussianBlur result="blur-2" stdDeviation="3.3"/>
      <feFlood flood-color="#231f20" flood-opacity=".4"/>
      <feComposite in2="blur-2" operator="in"/>
      <feComposite in="SourceGraphic"/>
    </filter>
    <filter id="drop-shadow-3" filterUnits="userSpaceOnUse">
      <feOffset dx="6.2" dy="6.2"/>
      <feGaussianBlur result="blur-3" stdDeviation="4.2"/>
      <feFlood flood-color="#231f20" flood-opacity=".5"/>
      <feComposite in2="blur-3" operator="in"/>
      <feComposite in="SourceGraphic"/>
    </filter>
    <linearGradient id="linear-gradient" x1="496.4" y1="285.1" x2="496.4" y2="117.2" gradientUnits="userSpaceOnUse">
      <stop offset="0" stop-color="#ed1c24"/>
      <stop offset="1" stop-color="#f5979e"/>
    </linearGradient>
    <linearGradient id="linear-gradient-2" x1="496.4" y1="284.4" x2="496.4" y2="117.7" gradientUnits="userSpaceOnUse">
      <stop offset="0" stop-color="#b22225"/>
      <stop offset="1" stop-color="#ed1c24"/>
    </linearGradient>
    <filter id="drop-shadow-4" filterUnits="userSpaceOnUse">
      <feOffset dx="6.1" dy="6.1"/>
      <feGaussianBlur result="blur-4" stdDeviation="4"/>
      <feFlood flood-color="#231f20" flood-opacity=".5"/>
      <feComposite in2="blur-4" operator="in"/>
      <feComposite in="SourceGraphic"/>
    </filter>
    <linearGradient id="linear-gradient-3" x1="496.5" y1="218.6" x2="496.5" y2="129.7" gradientTransform="translate(573.5 -346.3) rotate(79.1)" gradientUnits="userSpaceOnUse">
      <stop offset="0" stop-color="#f15b61"/>
      <stop offset="1" stop-color="#b22225"/>
    </linearGradient>
    <linearGradient id="linear-gradient-4" x1="496.5" y1="218.1" x2="496.5" y2="130.2" gradientUnits="userSpaceOnUse">
      <stop offset="0" stop-color="#ed1c24"/>
      <stop offset="1" stop-color="#991f21"/>
    </linearGradient>
    <filter id="drop-shadow-5" filterUnits="userSpaceOnUse">
      <feOffset dx="6.2" dy="6.2"/>
      <feGaussianBlur result="blur-5" stdDeviation="4.2"/>
      <feFlood flood-color="#231f20" flood-opacity=".5"/>
      <feComposite in2="blur-5" operator="in"/>
      <feComposite in="SourceGraphic"/>
    </filter>
    <filter id="drop-shadow-6" filterUnits="userSpaceOnUse">
      <feOffset dx="6.2" dy="6.2"/>
      <feGaussianBlur result="blur-6" stdDeviation="4.2"/>
      <feFlood flood-color="#231f20" flood-opacity=".5"/>
      <feComposite in2="blur-6" operator="in"/>
      <feComposite in="SourceGraphic"/>
    </filter>
    <filter id="drop-shadow-7" filterUnits="userSpaceOnUse">
      <feOffset dx="6.2" dy="6.2"/>
      <feGaussianBlur result="blur-7" stdDeviation="4.2"/>
      <feFlood flood-color="#231f20" flood-opacity=".5"/>
      <feComposite in2="blur-7" operator="in"/>
      <feComposite in="SourceGraphic"/>
    </filter>
    <filter id="drop-shadow-8" filterUnits="userSpaceOnUse">
      <feOffset dx="6.2" dy="6.2"/>
      <feGaussianBlur result="blur-8" stdDeviation="4.2"/>
      <feFlood flood-color="#231f20" flood-opacity=".5"/>
      <feComposite in2="blur-8" operator="in"/>
      <feComposite in="SourceGraphic"/>
    </filter>
    <filter id="drop-shadow-9" filterUnits="userSpaceOnUse">
      <feOffset dx="6.2" dy="6.2"/>
      <feGaussianBlur result="blur-9" stdDeviation="4.2"/>
      <feFlood flood-color="#231f20" flood-opacity=".5"/>
      <feComposite in2="blur-9" operator="in"/>
      <feComposite in="SourceGraphic"/>
    </filter>
    <filter id="drop-shadow-10" filterUnits="userSpaceOnUse">
      <feOffset dx="6.2" dy="6.2"/>
      <feGaussianBlur result="blur-10" stdDeviation="4.2"/>
      <feFlood flood-color="#231f20" flood-opacity=".5"/>
      <feComposite in2="blur-10" operator="in"/>
      <feComposite in="SourceGraphic"/>
    </filter>
    <filter id="drop-shadow-11" filterUnits="userSpaceOnUse">
      <feOffset dx="6.2" dy="6.2"/>
      <feGaussianBlur result="blur-11" stdDeviation="4.2"/>
      <feFlood flood-color="#231f20" flood-opacity=".5"/>
      <feComposite in2="blur-11" operator="in"/>
      <feComposite in="SourceGraphic"/>
    </filter>
    <filter id="drop-shadow-12" filterUnits="userSpaceOnUse">
      <feOffset dx="6.2" dy="6.2"/>
      <feGaussianBlur result="blur-12" stdDeviation="4.2"/>
      <feFlood flood-color="#231f20" flood-opacity=".5"/>
      <feComposite in2="blur-12" operator="in"/>
      <feComposite in="SourceGraphic"/>
    </filter>
    <filter id="drop-shadow-13" filterUnits="userSpaceOnUse">
      <feOffset dx="6.2" dy="6.2"/>
      <feGaussianBlur result="blur-13" stdDeviation="4.2"/>
      <feFlood flood-color="#231f20" flood-opacity=".5"/>
      <feComposite in2="blur-13" operator="in"/>
      <feComposite in="SourceGraphic"/>
    </filter>
    <clipPath id="clippath">
      <rect class="cls-2" x="3320.5" y="53.4" width="696.4" height="334.1"/>
    </clipPath>
    <clipPath id="clippath-1">
      <rect class="cls-2" x="3320.5" y="53.4" width="696.4" height="334.1"/>
    </clipPath>
    <filter id="drop-shadow-14" filterUnits="userSpaceOnUse">
      <feOffset dx="7.2" dy="7.2"/>
      <feGaussianBlur result="blur-14" stdDeviation="4.8"/>
      <feFlood flood-color="#231f20" flood-opacity=".5"/>
      <feComposite in2="blur-14" operator="in"/>
      <feComposite in="SourceGraphic"/>
    </filter>
  </defs>
  <g class="cls-52">
    <g id="Layer_1" data-name="Layer 1">
      <rect class="cls-1" x="3260.4" y="-66" width="808.4" height="644.6"/>
      <g>
        <polygon class="cls-11" points="810.8 382.6 13.9 483.2 13.9 359.8 810.8 259.2 810.8 382.6"/>
        <polygon class="cls-27" points="811.6 342.3 13.9 443.4 13.9 323.6 809.6 223 811.6 342.3"/>
        <g class="cls-50">
          <path class="cls-5" d="M73.4,389.5v25.4l-12.8,1.6v-24.1l-10.7-47.6,13.3-1.7,4.2,26.4,4.6-27.5,12-1.5-10.7,49.1Z"/>
          <path class="cls-5" d="M105.4,411.4l-8.2,1c-8,1-11.8-2.5-11.8-10.4v-50.6c0-7.9,3.9-12.3,11.8-13.3l8.2-1c7.9-1,11.8,2.3,11.8,10.3v50.6c0,7.9-4,12.4-11.8,13.4ZM102.3,348.4l-1.9.2c-1.5.2-2.2,1-2.2,2.6v47.9c0,1.6.7,2.2,2.2,2l1.9-.2c1.5-.2,2.2-1,2.2-2.6v-47.9c0-1.6-.7-2.2-2.2-2Z"/>
          <path class="cls-5" d="M152.8,393.5c0,7.9-3.9,12.3-11.8,13.3l-7.6,1c-8,1-11.8-2.4-11.8-10.3v-61.8l12.7-1.6v60.5c0,1.6.7,2.2,2.3,2l1.4-.2c1.6-.2,2.3-1,2.3-2.6v-60.5l12.7-1.6v61.8Z"/>
          <path class="cls-5" d="M188.5,400.2l-1-10.5-7.9,1-.9,10.8-11.6,1.5,8.4-74.2,17.4-2.2,8.4,72-12.7,1.6ZM180.6,379.5l6-.8-3-33.3-2.9,34.1Z"/>
          <path class="cls-5" d="M216.7,396.6l-12.7,1.6v-73.1l12.7-1.6v73.1Z"/>
          <path class="cls-5" d="M240.1,393.6l-8.4-39.8.4,19.4.2,21.4-11,1.4v-73.1l13-1.7,7.6,36.8-.4-20.6v-17.1c-.1,0,10.8-1.4,10.8-1.4v73.1l-12.2,1.6Z"/>
          <path class="cls-5" d="M268,327.2c0,6.3-.7,8.2-4.7,14.4l-2.1,3.1-4.4-.8,1.2-2.5c2-4.4,2.8-6.4,3-9.5l-4.1.5v-14l11.1-1.4v10.2Z"/>
          <path class="cls-5" d="M279,388.6v-61.8l-7.6,1v-11.3l28.2-3.6v11.3l-7.7,1v61.8l-12.8,1.6Z"/>
          <path class="cls-5" d="M344.6,353.5v15.6c0,7.9-4,12.3-11.8,13.3l-7.1.9c-8,1-11.8-2.4-11.8-10.3v-18l12.6-1.6v16.7c0,1.6.6,2.2,2.2,2h1.2c1.6-.3,2.2-1.2,2.2-2.7v-11.7c0-2.3-.6-3.5-2.4-4.6l-10.3-6.5c-4.2-2.5-5.4-5.3-5.4-10.4v-14c0-7.9,3.9-12.3,11.8-13.3l6.9-.9c7.9-1,11.8,2.4,11.8,10.3v16.1l-12.5,1.6v-14.8c0-1.6-.7-2.2-2.2-2h-1c-1.6.3-2.2,1.1-2.2,2.7v10.1c0,2.3.6,3.5,2.4,4.6l10.3,6.5c4.1,2.5,5.4,5,5.4,10.4Z"/>
          <path class="cls-5" d="M372,303.6v11.3l-10.9,1.4v19.1l10.5-1.3v11.3l-10.5,1.3v20l11.1-1.4v11.4l-23.8,3v-73.1l23.6-3Z"/>
          <path class="cls-5" d="M399.8,300.1v11.3l-10.9,1.4v19.1l10.5-1.3v11.3l-10.5,1.3v20l11.1-1.4v11.4l-23.8,3v-73.1l23.6-3Z"/>
          <path class="cls-5" d="M422.7,370.2l-8.4-39.8.4,19.4.2,21.4-11,1.4v-73.1l13-1.7,7.6,36.8-.4-20.6v-17.1c-.1,0,10.8-1.4,10.8-1.4v73.1l-12.2,1.6Z"/>
          <path class="cls-40" d="M469.9,364.2l-8.4-39.8.4,19.4.2,21.4-11,1.4v-73.1l13-1.7,7.6,36.8-.4-20.6v-17.1c-.1,0,10.8-1.4,10.8-1.4v73.1l-12.2,1.6Z"/>
          <path class="cls-40" d="M506.6,360.2l-8.2,1c-8,1-11.8-2.5-11.8-10.4v-50.6c0-7.9,3.9-12.3,11.8-13.3l8.2-1c7.9-1,11.8,2.4,11.8,10.3v50.6c0,7.9-4,12.4-11.8,13.4ZM503.4,297.1l-1.9.2c-1.5.2-2.2,1-2.2,2.6v47.9c0,1.6.7,2.2,2.2,2l1.9-.2c1.5-.2,2.2-1,2.2-2.6v-47.9c0-1.6-.7-2.2-2.2-2Z"/>
          <path class="cls-40" d="M528.7,356.7v-61.8l-7.6,1v-11.3l28.2-3.6v11.3l-7.7,1v61.8l-12.8,1.6Z"/>
          <path class="cls-40" d="M571.4,308.5v-30.4l12.8-1.6v73.1l-12.8,1.6v-31.4l-6.4.8v31.4l-12.7,1.6v-73.1l12.7-1.6v30.4l6.4-.8Z"/>
          <path class="cls-40" d="M601.4,347.4l-12.7,1.6v-73.1l12.7-1.6v73.1Z"/>
          <path class="cls-40" d="M624.9,344.4l-8.4-39.8.4,19.4.2,21.4-11,1.4v-73.1l13-1.7,7.6,36.8-.4-20.6v-17.1c-.1,0,10.8-1.4,10.8-1.4v73.1l-12.2,1.6Z"/>
          <path class="cls-40" d="M652.7,278c0,6.3-.7,8.2-4.7,14.4l-2.1,3.1-4.4-.8,1.2-2.5c2-4.4,2.8-6.4,3-9.5l-4.1.5v-14l11.1-1.4v10.2Z"/>
          <path class="cls-5" d="M689.2,310.8v25.4l-12.8,1.6v-24.1l-10.7-47.6,13.3-1.7,4.2,26.4,4.6-27.5,12-1.5-10.7,49.1Z"/>
          <path class="cls-5" d="M725.5,258.4v11.3l-10.9,1.4v19.1l10.5-1.3v11.3l-10.5,1.3v20l11.1-1.4v11.4l-23.8,3v-73.1l23.6-3Z"/>
          <path class="cls-5" d="M735.9,330.2v-61.8l-7.6,1v-11.3l28.2-3.6v11.3l-7.7,1v61.8l-12.8,1.6Z"/>
          <path class="cls-5" d="M769.1,307.5l-6.9.9-2.6-33.1v-21.2l12.1-1.6v21.2l-2.6,33.7ZM771.1,325.7l-10.9,1.4v-14l10.9-1.4v14Z"/>
        </g>
        <g>
          <path class="cls-40" d="M200.9,430.5c2.9-.4,4.9.5,5.8,1.1l-.9,1.8c-.9-.6-2.6-1.2-4.6-1-4.7.6-7.6,4.4-7.6,8.3s2.8,7,7.5,6.4c2.1-.3,3.8-1.3,4.7-2.1l.9,1.6c-.9.9-2.9,2.2-5.8,2.6-5.3.7-9.4-3-9.4-8.2,0-5.2,4.2-9.8,9.5-10.5Z"/>
          <path class="cls-40" d="M223.9,427.6c5.1-.6,9,3,9,8.2,0,5.2-3.9,9.8-9.1,10.5-5.1.6-9-3-9-8.2,0-5.2,3.9-9.8,9.1-10.5ZM223.8,444.3c4-.5,6.9-4.2,6.9-8.2,0-4-2.8-7-6.8-6.5-4,.5-6.9,4.2-6.9,8.2,0,4,2.8,7,6.8,6.5Z"/>
          <path class="cls-40" d="M244.2,425.4l9.2,13.4v-14.6c0,0,2.1-.2,2.1-.2v18c-.1,0-2.1.2-2.1.2l-9.2-13.4v14.6c0,0-2.1.2-2.1.2v-18c.1,0,2.1-.2,2.1-.2Z"/>
          <path class="cls-40" d="M275,421.6v1.8s-7.3.9-7.3.9v6.3s6.7-.8,6.7-.8v1.8s-6.8.8-6.8.8v8.1s-2,.2-2,.2v-18c.1,0,9.3-1.1,9.3-1.1Z"/>
          <path class="cls-40" d="M293.6,419.3v1.8s-7.2.9-7.2.9v6.3s6.9-.9,6.9-.9v1.8s-7,.9-7,.9v6.4s7.2-.9,7.2-.9v1.8s-9.2,1.1-9.2,1.1v-18c.1,0,9.3-1.1,9.3-1.1Z"/>
          <path class="cls-40" d="M308,417.5c3.5-.4,5.8,1.2,5.7,4.4,0,2.8-1.8,5.1-4.7,5.8l5.9,6.9-2.5.3-5.6-6.8-1.8.2v7.5s-2,.2-2,.2v-18c.1,0,5-.6,5-.6ZM305,426.7l2.4-.3c2.5-.3,4.2-1.9,4.3-4.2,0-2.3-1.7-3.4-4.2-3.1l-2.4.3v7.2Z"/>
          <path class="cls-40" d="M332.4,414.5v1.8s-7.2.9-7.2.9v6.3s6.9-.9,6.9-.9v1.8s-7,.9-7,.9v6.4s7.2-.9,7.2-.9v1.8s-9.2,1.1-9.2,1.1v-18c.1,0,9.3-1.1,9.3-1.1Z"/>
          <path class="cls-40" d="M343.9,413.1l9.2,13.4v-14.6c0,0,2.1-.2,2.1-.2v18c-.1,0-2.1.2-2.1.2l-9.2-13.4v14.6c0,0-2.1.2-2.1.2v-18c.1,0,2.1-.2,2.1-.2Z"/>
          <path class="cls-40" d="M373.2,409.1c2.9-.4,4.9.5,5.8,1.1l-.9,1.8c-.9-.6-2.6-1.2-4.6-1-4.7.6-7.6,4.4-7.6,8.3s2.8,7,7.5,6.4c2.1-.3,3.8-1.3,4.7-2.1l.9,1.6c-.9.9-2.9,2.2-5.8,2.6-5.3.7-9.4-3-9.4-8.2,0-5.2,4.2-9.8,9.5-10.5Z"/>
          <path class="cls-40" d="M397.3,406.5v1.8s-7.2.9-7.2.9v6.3s6.9-.9,6.9-.9v1.8s-7,.9-7,.9v6.4s7.2-.9,7.2-.9v1.8s-9.2,1.1-9.2,1.1v-18c.1,0,9.3-1.1,9.3-1.1Z"/>
          <path class="cls-40" d="M421.9,411.4c-1.2-1.1-2.3-2.2-2.3-3.9,0-2.2,1.6-4.3,4.6-4.6,2.9-.4,4.3,1.6,4.3,3.5,0,2.5-2.5,4.2-3.8,5l4.4,4.3c.9-.9,1.8-2.1,2.2-3l1.3,1c-.3.7-1.3,2.1-2.2,3.2l3.3,3.2-2.5.3-2.2-2.2c-1.5,1.6-3.3,3.2-5.9,3.6-2.8.3-5.5-.9-5.5-4.2,0-2.4,1.8-4.4,4.3-6ZM423.2,419.7c2-.2,3.7-1.8,4.5-2.8l-4.7-4.5c-2.2,1.3-3.2,3.1-3.2,4.6,0,1.9,1.5,3,3.5,2.7ZM423.7,410.3c1.9-1.2,3.1-2.1,3.1-3.8,0-1.3-.8-2.5-2.6-2.2-1.7.2-2.6,1.6-2.6,2.9,0,1.5,1.4,2.5,2.1,3.1Z"/>
          <path class="cls-40" d="M463.7,398.2v1.8s-5.3.7-5.3.7v16.2c0,0-2.1.2-2.1.2v-16.2c0,0-5.2.7-5.2.7v-1.8s12.6-1.6,12.6-1.6Z"/>
          <path class="cls-40" d="M476.9,396.6c3.5-.4,5.8,1.2,5.7,4.4,0,2.8-1.8,5.1-4.7,5.8l5.9,6.9-2.5.3-5.6-6.8-1.8.2v7.5s-2,.2-2,.2v-18c.1,0,5-.6,5-.6ZM473.9,405.8l2.4-.3c2.5-.3,4.2-1.9,4.3-4.2,0-2.3-1.7-3.4-4.2-3l-2.4.3v7.2Z"/>
          <path class="cls-40" d="M498.7,393.9l7,17.1-2.1.3-2-5.2-7.6.9-2.1,5.7-2.1.3,7.2-18.9,1.8-.2ZM500.9,404.4l-3.1-7.7-3.2,8.5,6.2-.8Z"/>
          <path class="cls-40" d="M517.9,391.5c4.9-.6,9,2.6,9,7.9,0,5.3-4.2,9.5-9.1,10.1l-4.2.5v-18c.1,0,4.3-.5,4.3-.5ZM515.7,408l2-.2c4-.5,7.1-3.9,7.2-8.1,0-4.1-3.1-6.8-7.1-6.3l-2,.2v14.4Z"/>
          <path class="cls-40" d="M545.5,388.1v1.8s-7.2.9-7.2.9v6.3s6.9-.9,6.9-.9v1.8s-7,.9-7,.9v6.4s7.2-.9,7.2-.9v1.8s-9.2,1.1-9.2,1.1v-18c.1,0,9.3-1.1,9.3-1.1Z"/>
          <path class="cls-40" d="M560.4,385.9c2.7-.3,3.9.9,4.6,1.9l-1.5,1.1c-.5-.8-1.3-1.5-3-1.2-2.2.3-3.4,1.9-3.4,3.5,0,1.6,1.5,2.2,3.3,2.6,3.1.7,5.6,1.8,5.6,4.8,0,3.5-2.5,5.5-5.8,5.9-2.9.4-4.9-.7-5.9-2.6l1.7-1.2c.8,1.4,2.4,2.2,4.2,1.9,2-.2,4-1.4,4-3.8,0-1.9-1.9-2.7-4.8-3.5-2.7-.7-3.9-2-3.9-4,0-3,2.4-5.3,5.1-5.6Z"/>
          <path class="cls-40" d="M577.3,384.2v8.1s9.2-1.1,9.2-1.1v-8.1s2-.2,2-.2v18c-.1,0-2.1.2-2.1.2v-8.1s-9.2,1.1-9.2,1.1v8.1s-2,.2-2,.2v-18c.1,0,2.1-.2,2.1-.2Z"/>
          <path class="cls-40" d="M606.8,380.2c5.1-.6,9,3,9,8.2,0,5.2-3.9,9.8-9.1,10.5-5.1.6-9-3-9-8.2,0-5.2,3.9-9.8,9.1-10.5ZM606.7,396.9c4-.5,6.9-4.2,6.9-8.2,0-4-2.8-7-6.8-6.5-4,.5-6.9,4.2-6.9,8.2,0,4,2.8,7,6.8,6.5Z"/>
          <path class="cls-40" d="M624.4,378.3l4.2,14.8,5.1-15.9,1.5-.2,4.9,14.7,4.4-15.9,2.2-.3-5.4,18.6-2.2.3-4.6-13.5-4.8,14.6-2.2.3-5.2-17.3,2.2-.3Z"/>
        </g>
      </g>
      <g>
        <path class="cls-46" d="M173,77.5h-12.4c-1.6,0-2.9,1.3-2.9,2.9v88.6c0,36.5,29.6,66.2,66.2,66.2h376.8c36.5,0,66.2-29.6,66.2-66.2v-88.6c0-1.6-1.3-2.9-2.9-2.9h-17.4"/>
        <g>
          <g>
            <path class="cls-6" d="M555.4,175.1c-.6-32.1-26.8-57.9-59-57.9s-59.1,26.4-59.1,59.1.3,6.6.6,8.8c0,0,0,.1,0,.2,0,0,0,.1,0,.2,6.6,45.1,58.4,99.7,58.4,99.7,0,0,47.2-43.5,57.3-94.3,1.2-4.6,1.8-15.3,1.8-15.7Z"/>
            <path class="cls-26" d="M496.4,284.4c-2.1-2.2-13.9-15.2-26.3-32.5-12.5-17.6-28.2-43.3-31.6-66.5v-.4c-.4-2.1-.7-8-.7-8.7,0-32.3,26.3-58.6,58.6-58.6s30,6,41,16.8c11,10.8,17.2,25.2,17.5,40.7,0,.6-.6,11.1-1.8,15.5-5.2,26.2-20.4,50.4-32.3,66-11.7,15.4-22.4,25.8-24.5,27.7Z"/>
            <circle class="cls-33" cx="496.5" cy="174.1" r="44.4" transform="translate(231.5 628.7) rotate(-79.1)"/>
            <path class="cls-32" d="M496.5,218.1c-24.2,0-43.9-19.7-43.9-43.9s19.7-43.9,43.9-43.9,43.9,19.7,43.9,43.9-19.7,43.9-43.9,43.9Z"/>
            <path class="cls-22" d="M496.5,215.2c-22.7,0-41.1-18.4-41.1-41.1s18.4-41.1,41.1-41.1,41.1,18.4,41.1,41.1-18.4,41.1-41.1,41.1Z"/>
            <g>
              <path class="cls-13" d="M496.5,214.8c-22.4,0-40.6-18.2-40.6-40.6s18.2-40.6,40.6-40.6,40.6,18.2,40.6,40.6-18.2,40.6-40.6,40.6Z"/>
              <path class="cls-4" d="M496.5,214.6c-22.3,0-40.5-18.2-40.5-40.5s18.2-40.5,40.5-40.5,40.5,18.2,40.5,40.5-18.2,40.5-40.5,40.5Z"/>
              <path class="cls-39" d="M496.5,214.5c-22.2,0-40.3-18.1-40.3-40.3s18.1-40.3,40.3-40.3,40.3,18.1,40.3,40.3-18.1,40.3-40.3,40.3Z"/>
              <path class="cls-30" d="M496.5,214.3c-22.2,0-40.2-18-40.2-40.2s18-40.2,40.2-40.2,40.2,18,40.2,40.2-18,40.2-40.2,40.2Z"/>
              <path class="cls-25" d="M496.5,214.2c-22.1,0-40.1-18-40.1-40.1s18-40.1,40.1-40.1,40.1,18,40.1,40.1-18,40.1-40.1,40.1Z"/>
              <path class="cls-12" d="M496.5,214.1c-22,0-39.9-17.9-39.9-39.9s17.9-39.9,39.9-39.9,39.9,17.9,39.9,39.9-17.9,39.9-39.9,39.9Z"/>
              <path class="cls-29" d="M496.5,213.9c-21.9,0-39.8-17.9-39.8-39.8s17.9-39.8,39.8-39.8,39.8,17.9,39.8,39.8-17.9,39.8-39.8,39.8Z"/>
              <path class="cls-23" d="M496.5,213.8c-21.9,0-39.7-17.8-39.7-39.7s17.8-39.7,39.7-39.7,39.7,17.8,39.7,39.7-17.8,39.7-39.7,39.7Z"/>
              <path class="cls-38" d="M496.5,213.7c-21.8,0-39.5-17.7-39.5-39.5s17.7-39.5,39.5-39.5,39.5,17.7,39.5,39.5-17.7,39.5-39.5,39.5Z"/>
              <path class="cls-43" d="M496.5,213.5c-21.7,0-39.4-17.7-39.4-39.4s17.7-39.4,39.4-39.4,39.4,17.7,39.4,39.4-17.7,39.4-39.4,39.4Z"/>
              <path class="cls-3" d="M496.5,213.4c-21.6,0-39.3-17.6-39.3-39.3s17.6-39.3,39.3-39.3,39.3,17.6,39.3,39.3-17.6,39.3-39.3,39.3Z"/>
              <path class="cls-15" d="M496.5,213.3c-21.6,0-39.1-17.6-39.1-39.1s17.6-39.1,39.1-39.1,39.1,17.6,39.1,39.1-17.6,39.1-39.1,39.1Z"/>
              <path class="cls-21" d="M496.5,213.1c-21.5,0-39-17.5-39-39s17.5-39,39-39,39,17.5,39,39-17.5,39-39,39Z"/>
              <path class="cls-24" d="M496.5,213c-21.4,0-38.9-17.4-38.9-38.9s17.4-38.9,38.9-38.9,38.9,17.4,38.9,38.9-17.4,38.9-38.9,38.9Z"/>
              <path class="cls-37" d="M496.5,212.9c-21.3,0-38.7-17.4-38.7-38.7s17.4-38.7,38.7-38.7,38.7,17.4,38.7,38.7-17.4,38.7-38.7,38.7Z"/>
              <path class="cls-7" d="M496.5,212.7c-21.3,0-38.6-17.3-38.6-38.6s17.3-38.6,38.6-38.6,38.6,17.3,38.6,38.6-17.3,38.6-38.6,38.6Z"/>
              <path class="cls-28" d="M496.5,212.6c-21.2,0-38.4-17.2-38.4-38.4s17.2-38.4,38.4-38.4,38.4,17.2,38.4,38.4-17.2,38.4-38.4,38.4Z"/>
              <path class="cls-8" d="M496.5,212.4c-21.1,0-38.3-17.2-38.3-38.3s17.2-38.3,38.3-38.3,38.3,17.2,38.3,38.3-17.2,38.3-38.3,38.3Z"/>
              <path class="cls-14" d="M496.5,212.3c-21,0-38.2-17.1-38.2-38.2s17.1-38.2,38.2-38.2,38.2,17.1,38.2,38.2-17.1,38.2-38.2,38.2Z"/>
              <path class="cls-9" d="M496.5,212.2c-21,0-38-17.1-38-38s17.1-38,38-38,38,17.1,38,38-17.1,38-38,38Z"/>
              <path class="cls-10" d="M496.5,212c-20.9,0-37.9-17-37.9-37.9s17-37.9,37.9-37.9,37.9,17,37.9,37.9-17,37.9-37.9,37.9Z"/>
              <path class="cls-42" d="M496.5,211.9c-20.8,0-37.8-16.9-37.8-37.8s16.9-37.8,37.8-37.8,37.8,16.9,37.8,37.8-16.9,37.8-37.8,37.8Z"/>
            </g>
            <path class="cls-41" d="M496.5,122.3c30.1,0,54.5,24,55.4,53.8,0-.5,0-1,0-1.6,0-30.6-24.8-55.4-55.4-55.4s-55.4,24.8-55.4,55.4,0,1.1,0,1.6c.8-29.9,25.3-53.8,55.4-53.8Z"/>
            <path class="cls-40" d="M496.5,211.8c21.2,0,38.4-17,38.8-38.1,0,.2,0,.4,0,.6,0,21.4-17.4,38.8-38.8,38.8s-38.8-17.4-38.8-38.8,0-.4,0-.6c.3,21.1,17.5,38.1,38.8,38.1Z"/>
            <path class="cls-40" d="M527,169.2c0,17.6-13.8,31.9-30.9,31.9s-30.9-14.3-30.9-31.9,13.8-31.9,30.9-31.9,30.9,14.3,30.9,31.9Z"/>
            <path class="cls-31" d="M496,232.2c-17.8,0-33.9-7.4-45.3-19.3,5.9,14,14.5,27.7,21.9,38.1,11,15.5,21.6,27,23.5,29,1.8-1.7,11.4-11,21.8-24.7,8.2-10.8,18.1-26.1,24.4-43.3-11.5,12.5-27.9,20.3-46.2,20.3Z"/>
          </g>
          <g>
            <g>
              <path class="cls-20" d="M494.1,188.5v-38.1h9.6c2.2,0,4,1.8,4,4v16.3c0,2.2-1.8,4-4,4h-5.6v13.8h-4ZM498.1,171h4.8c.4,0,.8-.4.8-.8v-15.5c0-.4-.4-.8-.8-.8h-4.8v17.1Z"/>
              <path class="cls-20" d="M514.7,188.5c-2.2,0-4-1.8-4-4v-30.1c0-2.2,1.8-4,4-4h9.6l-.7,3.6h-8.1c-.4,0-.8.4-.8.8v29.3c0,.4.4.8.8.8h4c.4,0,.8-.4.8-.8v-16.7l4-.7v17.8c0,2.2-1.8,4-4,4h-5.6Z"/>
              <path class="cls-20" d="M482.7,188.5c-.9,0-1.8-.3-2.6-.8h-.2c0-.1-.2,0-.2,0-.8.5-1.7.8-2.6.8h-4c-2.4,0-4.4-2-4.4-4.4v-33.7h4v33.7c0,.4.4.8.8.8h3.6c.4,0,.8-.4.8-.8v-33.7h4v33.7c0,.4.4.8.8.8h3.6c.4,0,.8-.4.8-.8v-33.7h4v33.7c0,2.4-2,4.4-4.4,4.4h-4Z"/>
            </g>
            <g>
              <path class="cls-20" d="M468.6,199l3.6-3.9c.5-.5.8-1,.8-1.6s-.4-.9-1-.9-1.1.5-1.3,1.3l-2-.6c.4-1.6,1.6-2.6,3.3-2.6s3.1,1,3.1,2.7-.6,1.9-1.4,2.7l-1.2,1.2h2.5v1.8h-6.5c-.1,0-.1,0,0-.2Z"/>
              <path class="cls-20" d="M484.2,195c0-2.5,2.1-4.3,4.5-4.3s4.5,1.8,4.5,4.3-2.1,4.3-4.5,4.3-4.5-1.8-4.5-4.3ZM490.9,195c0-1.3-.8-2.3-2.2-2.3s-2.2,1-2.2,2.3.8,2.3,2.2,2.3,2.2-1,2.2-2.3Z"/>
              <path class="cls-20" d="M501.6,199l3.6-3.9c.5-.5.8-1,.8-1.6s-.4-.9-1-.9-1.1.5-1.3,1.3l-2-.6c.4-1.6,1.6-2.6,3.3-2.6s3.1,1,3.1,2.7-.6,1.9-1.4,2.7l-1.2,1.2h2.5v1.8h-6.5c-.1,0-.1,0,0-.2Z"/>
              <path class="cls-20" d="M523.6,199.2h-2.1v-1.4h-4.2v-1.7l4.1-5.2h2.3v5.1h1v1.8h-1v1.4ZM521.5,193.4l-2,2.5h2v-2.5Z"/>
            </g>
          </g>
        </g>
        <g class="cls-49">
          <path class="cls-40" d="M208.4,86.9v33.2h-13.1v-33.2h-11.4v-10.9h35.4l1.8,10.9h-12.7Z"/>
          <path class="cls-40" d="M253.6,120.1v-17.1h-12.2v17.1h-13.1v-44.1h13.1v15.7h12.2v-15.7h13.1v44.1h-13.1Z"/>
          <path class="cls-40" d="M276.8,120.1v-44.1h29.1v10.2h-16.3v6h12.3l1.7,10.5h-14v7.2h16.9v10.2h-29.6Z"/>
        </g>
        <polygon class="cls-40" points="418.8 119.3 418.8 38.8 471.9 38.8 471.9 57.3 442.2 57.3 442.2 68.3 464.7 68.3 467.7 87.5 442.2 87.5 442.2 100.7 473 100.7 473 119.3 418.8 119.3"/>
        <path class="cls-35" d="M507.1,119.3h-24s24.3-40.6,24.3-40.5l-22.5-39.8,25.6-.3,12.2,21.9,11.5-21.8h24.1l-22.6,37.8,24.4,43.2-25.7.3-14-25.4c0-.1-13.3,24.6-13.3,24.6"/>
        <polygon class="cls-36" points="612.4 58.6 612.4 119.3 588.5 119.3 588.5 58.6 567.6 58.6 567.6 38.8 632.3 38.8 635.6 58.6 612.4 58.6"/>
        <path class="cls-34" d="M407.9,38.9c-.2-.3-.5-.5-.9-.5h-19c-.6,0-1.1.5-1.1,1.1h0c0,2.2-.4,4.9-1.4,9.7l-.7,3.7-.4,1.9-6.9,34-32.3-74.3c-.2-.4-.6-.7-1.1-.6-.5,0-.8.4-.9.8l-18.9,89.4-.2,1.1c-2.1,9.4-2.5,11.1-3.5,13.7-.1.3,0,.7.1,1,.2.3.5.5.9.5h19c.6,0,1-.5,1.1-1,0-2.7.4-4.8,1.3-9.6l1.2-5.7,6.2-32c4.4,11.2,18,46.3,18.5,47.6.1.4.5.7,1,.7h19.7c.5,0,.9-.3,1-.8,1.7-8.1,14.1-66.5,14.1-66.5,1.9-9,2.3-10.6,3.3-13.2.1-.3.1-.7,0-1"/>
        <g class="cls-48">
          <path class="cls-40" d="M420.8,211.2v-49.8s-15.8,6.5-15.8,6.5l-3.2-21.5,22.1-10.9h23s0,75.8,0,75.8h-26.1Z"/>
          <path class="cls-40" d="M582.6,212.7c-21.3,0-36.6-14.9-36.7-39.2,0-24.1,15.3-39.4,36.6-39.4,21,0,36.5,14.9,36.5,39.3,0,24.1-15.5,39.2-36.5,39.2ZM582.5,155.1c-6.2,0-11.1,4.5-11.1,18.4,0,13.8,5.2,18.2,11.1,18.2,6,0,10.9-4.5,10.9-18.2,0-13.9-5.2-18.4-10.9-18.4Z"/>
        </g>
        <polygon class="cls-19" points="214.4 173.1 184 144.1 216.8 144.1 247.2 173.1 216.8 202.2 184.1 202.1 214.4 173.1"/>
        <polygon class="cls-18" points="258.8 173.1 228.4 144.1 261.2 144.1 291.6 173.1 261.2 202.2 228.5 202.1 258.8 173.1"/>
        <polygon class="cls-17" points="303.2 173.1 272.8 144.1 305.6 144.1 336 173.1 305.6 202.2 272.9 202.1 303.2 173.1"/>
        <polygon class="cls-16" points="347.6 173.1 317.2 144.1 350 144.1 380.4 173.1 350 202.2 317.3 202.1 347.6 173.1"/>
      </g>
      <g>
        <g class="cls-54">
          <g class="cls-44">
            <g class="cls-47">
              <image width="469" height="225" transform="translate(3320.5 53.4) scale(1.5)" xlink:href="hero_branding-1.png"/>
            </g>
          </g>
        </g>
        <g>
          <path class="cls-40" d="M3399.4,158.9v42.3h-16.7v-42.3h-14.5v-13.8h45.1l2.3,13.8h-16.2Z"/>
          <path class="cls-40" d="M3456.9,201.1v-21.7h-15.5v21.7h-16.7v-56.1h16.7v20h15.5v-20h16.7v56.1h-16.7Z"/>
          <path class="cls-40" d="M3486.4,201.1v-56.1h37v12.9h-20.7v7.6h15.7l2.1,13.4h-17.8v9.2h21.5v12.9h-37.7Z"/>
        </g>
        <polygon class="cls-40" points="3667.1 200.1 3667.1 97.7 3734.7 97.7 3734.7 121.3 3696.8 121.3 3696.8 135.2 3725.4 135.2 3729.3 159.7 3696.8 159.7 3696.8 176.5 3736 176.5 3736 200.1 3667.1 200.1"/>
        <path class="cls-40" d="M3779.5,200.1h-30.6s30.9-51.7,30.9-51.5l-28.7-50.6,32.5-.4,15.6,27.9,14.7-27.8h30.7l-28.8,48.1,31,54.9-32.7.4-17.8-32.4c0-.1-16.9,31.3-16.9,31.3"/>
        <polygon class="cls-40" points="3913.4 122.9 3913.4 200.1 3883 200.1 3883 122.9 3856.4 122.9 3856.4 97.7 3938.8 97.7 3942.9 122.9 3913.4 122.9"/>
        <path class="cls-40" d="M3653.2,97.9c-.2-.4-.7-.6-1.1-.6h-24.2c-.7,0-1.3.6-1.3,1.3h0c0,2.9-.5,6.3-1.7,12.3l-.9,4.7-.5,2.5-8.8,43.3-41.1-94.5c-.2-.5-.8-.9-1.4-.8-.6,0-1.1.5-1.2,1.1l-24.1,113.7-.3,1.4c-2.6,12-3.1,14.2-4.4,17.4-.2.4-.1.9.1,1.3.2.4.7.6,1.1.6h24.1c.7,0,1.3-.6,1.3-1.3,0-3.4.4-6,1.7-12.3l1.6-7.3,7.9-40.7c5.6,14.2,23,58.9,23.6,60.6.2.5.7.9,1.3.9h25c.6,0,1.2-.4,1.3-1.1,2.2-10.2,17.9-84.6,17.9-84.6,2.4-11.5,2.9-13.5,4.2-16.7.2-.4.1-.9-.1-1.3"/>
        <path class="cls-45" d="M3354.3,147h-15.8c-2,0-3.7,1.6-3.7,3.7v112.7c0,46.5,37.7,84.2,84.2,84.2h479.5c46.5,0,84.2-37.7,84.2-84.2v-112.7c0-2-1.6-3.7-3.7-3.7h-22.2"/>
        <g>
          <path class="cls-40" d="M3666.7,317.1v-63.4s-20.1,8.2-20.1,8.2l-4-27.4,28.1-13.9h29.2s0,96.5,0,96.5h-33.3Z"/>
          <path class="cls-40" d="M3765.8,319c-27.1,0-46.6-19-46.6-49.9,0-30.7,19.5-50.1,46.6-50.1,26.7,0,46.4,19,46.5,50.1,0,30.7-19.7,49.9-46.4,49.9ZM3765.8,245.7c-7.9,0-14.1,5.7-14.1,23.4,0,17.5,6.6,23.2,14.1,23.2,7.7,0,13.9-5.7,13.9-23.2,0-17.7-6.6-23.4-13.9-23.4Z"/>
          <path class="cls-40" d="M3872.5,319c-27.1,0-46.6-19-46.6-49.9,0-30.7,19.5-50.1,46.6-50.1,26.7,0,46.4,19,46.5,50.1,0,30.7-19.7,49.9-46.4,49.9ZM3872.5,245.7c-7.9,0-14.1,5.7-14.1,23.4,0,17.5,6.6,23.2,14.1,23.2,7.7,0,13.9-5.7,13.9-23.2,0-17.7-6.6-23.4-13.9-23.4Z"/>
        </g>
        <polygon class="cls-27" points="3407 268.6 3368.3 231.8 3410 231.8 3448.7 268.6 3410 305.6 3368.4 305.5 3407 268.6"/>
        <polygon class="cls-27" points="3463.5 268.6 3424.8 231.8 3466.5 231.8 3505.2 268.6 3466.5 305.6 3424.9 305.5 3463.5 268.6"/>
        <polygon class="cls-27" points="3520 268.6 3481.3 231.8 3523 231.8 3561.7 268.6 3523 305.6 3481.4 305.5 3520 268.6"/>
        <polygon class="cls-27" points="3576.5 268.6 3537.8 231.8 3579.5 231.8 3618.2 268.6 3579.5 305.6 3537.9 305.5 3576.5 268.6"/>
      </g>
      <path class="cls-40" d="M3790.1,268.3c0,17.9-10.5,32.3-23.4,32.3s-23.4-14.5-23.4-32.3,10.5-32.3,23.4-32.3,23.4,14.5,23.4,32.3Z"/>
      <g>
        <g>
          <path class="cls-20" d="M3762.8,286.1v-45.6h11.5c2.6,0,4.8,2.2,4.8,4.8v19.4c0,2.6-2.2,4.8-4.8,4.8h-6.7v16.5h-4.8ZM3767.6,265.3h5.8c.5,0,1-.4,1-1v-18.5c0-.5-.4-1-1-1h-5.8v20.4Z"/>
          <path class="cls-20" d="M3787.4,286.1c-2.6,0-4.8-2.2-4.8-4.8v-36c0-2.6,2.2-4.8,4.8-4.8h11.4l-.8,4.3h-9.7c-.5,0-1,.4-1,1v35c0,.5.4,1,1,1h4.8c.5,0,1-.4,1-1v-20l4.8-.8v21.3c0,2.6-2.2,4.8-4.8,4.8h-6.7Z"/>
          <path class="cls-20" d="M3749.3,286.1c-1.1,0-2.2-.3-3.1-.9l-.3-.2-.3.2c-.9.6-2,.9-3.1.9h-4.8c-2.9,0-5.3-2.4-5.3-5.3v-40.3h4.8v40.3c0,.5.4,1,1,1h4.3c.5,0,1-.4,1-1v-40.3h4.8v40.3c0,.5.4,1,1,1h4.3c.5,0,1-.4,1-1v-40.3h4.8v40.3c0,2.9-2.4,5.3-5.3,5.3h-4.8Z"/>
        </g>
        <g>
          <path class="cls-20" d="M3732.4,298.7l4.3-4.6c.5-.6,1-1.2,1-1.9s-.5-1.1-1.2-1.1-1.4.6-1.5,1.5l-2.4-.7c.5-2,1.9-3.1,4-3.1s3.7,1.2,3.7,3.2-.7,2.2-1.6,3.3l-1.4,1.5h3v2.2h-7.8c-.1,0-.2,0,0-.2Z"/>
          <path class="cls-20" d="M3751.1,293.9c0-3,2.5-5.1,5.4-5.1s5.4,2.1,5.4,5.1-2.5,5.1-5.4,5.1-5.4-2.1-5.4-5.1ZM3759.1,293.9c0-1.6-1-2.8-2.6-2.8s-2.6,1.2-2.6,2.8,1,2.8,2.6,2.8,2.6-1.2,2.6-2.8Z"/>
          <path class="cls-20" d="M3771.8,298.7l4.3-4.6c.5-.6,1-1.2,1-1.9s-.5-1.1-1.2-1.1-1.4.6-1.5,1.5l-2.4-.7c.5-2,1.9-3.1,4-3.1s3.7,1.2,3.7,3.2-.7,2.2-1.6,3.3l-1.4,1.5h3v2.2h-7.8c-.1,0-.2,0,0-.2Z"/>
          <path class="cls-20" d="M3798.2,298.9h-2.6v-1.7h-5.1v-2l4.9-6.2h2.7v6.1h1.1v2.1h-1.1v1.7ZM3795.6,292.1l-2.4,3h2.4v-3Z"/>
        </g>
      </g>
      <g class="cls-53">
        <path class="cls-51" d="M3338,405.6l-3,21.5h-10.9l2.9-20.5-3.3-41.5h11.4l.4,22.9,7.2-22.9h10.3l-14.8,40.5Z"/>
        <path class="cls-51" d="M3362.8,427.6h-7c-6.8,0-9.6-3.4-8.7-10.1l6-43c.9-6.7,4.7-10,11.5-10h7c6.7,0,9.7,3.3,8.7,10l-6,43c-.9,6.7-4.8,10.1-11.5,10.1ZM3367.7,373.8h-1.6c-1.3,0-2,.6-2.2,1.9l-5.7,40.7c-.2,1.3.4,1.9,1.6,1.9h1.6c1.3,0,2-.6,2.2-1.9l5.7-40.7c.2-1.3-.4-1.9-1.6-1.9Z"/>
        <path class="cls-51" d="M3404.4,417.5c-.9,6.7-4.7,10-11.5,10h-6.5c-6.8,0-9.7-3.3-8.7-10l7.4-52.4h10.8l-7.2,51.3c-.2,1.3.4,1.9,1.7,1.9h1.2c1.3,0,2.1-.6,2.2-1.9l7.2-51.3h10.8l-7.4,52.4Z"/>
        <path class="cls-51" d="M3435.4,427.1l.4-9h-6.7l-2.1,9h-9.9l15.9-62h14.9l-1.6,62h-10.8ZM3431.2,408.7h5.1l1.4-28.6-6.5,28.6Z"/>
        <path class="cls-51" d="M3459.8,427.1h-10.8l8.7-62h10.8l-8.7,62Z"/>
        <path class="cls-51" d="M3479.3,427.1l-2.3-34.6-2,16.5-2.4,18.2h-9.4l8.7-62h11.1l2,32.1,2.1-17.5,2-14.5h9.3l-8.7,62h-10.5Z"/>
        <path class="cls-51" d="M3510.2,373.8c-.7,5.3-1.6,6.9-5.7,11.7l-2.1,2.4-3.6-1.2,1.3-2c2.2-3.5,3.1-5.1,3.7-7.7h-3.5l1.7-11.9h9.5l-1.2,8.7Z"/>
        <path class="cls-51" d="M3511.7,427.1l7.4-52.4h-6.5l1.3-9.6h24.1l-1.3,9.6h-6.6l-7.4,52.4h-10.9Z"/>
        <path class="cls-51" d="M3572.8,404.4l-1.9,13.2c-.9,6.7-4.8,10-11.5,10h-6.1c-6.8,0-9.7-3.3-8.7-10l2.1-15.2h10.7l-2,14.2c-.2,1.3.3,1.9,1.6,1.9h1c1.3,0,2-.6,2.2-1.9l1.4-9.9c.3-1.9-.1-3-1.5-4.2l-7.8-6.6c-3.2-2.6-3.9-5-3.3-9.4l1.7-11.9c.9-6.7,4.7-10,11.5-10h5.9c6.7,0,9.7,3.3,8.7,10l-1.9,13.6h-10.7l1.8-12.6c.2-1.3-.4-1.9-1.6-1.9h-.9c-1.3,0-2,.6-2.2,1.9l-1.2,8.6c-.3,1.9.1,3,1.5,4.2l7.8,6.6c3.1,2.6,4,4.9,3.3,9.4Z"/>
        <path class="cls-51" d="M3601.6,365.1l-1.3,9.6h-9.3l-2.3,16.2h9l-1.3,9.6h-9l-2.4,17h9.5l-1.4,9.7h-20.3l8.7-62h20.1Z"/>
        <path class="cls-51" d="M3625.1,365.1l-1.3,9.6h-9.3l-2.3,16.2h9l-1.3,9.6h-9l-2.4,17h9.5l-1.4,9.7h-20.3l8.7-62h20.1Z"/>
        <path class="cls-51" d="M3635.7,427.1l-2.3-34.6-2,16.5-2.4,18.2h-9.4l8.7-62h11.1l2,32.1,2.1-17.5,2-14.5h9.3l-8.7,62h-10.5Z"/>
        <path class="cls-51" d="M3683.7,427.1l-3-45.9-2.6,21.8-3.1,24h-12.5l11.5-82.1h14.7l2.7,42.5,2.8-23.2,2.6-19.2h12.3l-11.5,82.1h-13.9Z"/>
        <path class="cls-51" d="M3724.6,427.8h-9.2c-9,0-12.8-4.5-11.5-13.4l8-56.9c1.3-8.9,6.3-13.3,15.3-13.3h9.2c8.9,0,12.8,4.3,11.5,13.3l-8,56.9c-1.3,8.9-6.4,13.4-15.3,13.4ZM3731.1,356.5h-2.1c-1.7,0-2.6.8-2.9,2.6l-7.6,53.8c-.2,1.8.5,2.6,2.1,2.6h2.1c1.7,0,2.6-.8,2.9-2.6l7.6-53.8c.2-1.8-.5-2.6-2.1-2.6Z"/>
        <path class="cls-51" d="M3750.5,427.1l9.8-69.4h-8.7l1.8-12.7h31.9l-1.8,12.7h-8.8l-9.8,69.4h-14.5Z"/>
        <path class="cls-51" d="M3805.7,379.1l4.8-34.1h14.5l-11.5,82.1h-14.5l5-35.3h-7.2l-5,35.3h-14.3l11.5-82.1h14.3l-4.8,34.1h7.2Z"/>
        <path class="cls-51" d="M3832.4,427.1h-14.3l11.5-82.1h14.3l-11.5,82.1Z"/>
        <path class="cls-51" d="M3858.2,427.1l-3-45.9-2.6,21.8-3.1,24h-12.5l11.5-82.1h14.7l2.7,42.5,2.8-23.2,2.6-19.2h12.3l-11.5,82.1h-13.9Z"/>
        <path class="cls-51" d="M3899.1,356.5c-1,7-2.1,9.1-7.5,15.5l-2.8,3.2-4.8-1.5,1.7-2.7c2.9-4.7,4.2-6.8,4.9-10.2h-4.6l2.2-15.7h12.6l-1.6,11.5Z"/>
        <path class="cls-51" d="M3921.8,405.6l-3,21.5h-10.9l2.9-20.5-3.3-41.5h11.4l.4,22.9,7.2-22.9h10.3l-14.8,40.5Z"/>
        <path class="cls-51" d="M3959.2,365.1l-1.3,9.6h-9.3l-2.3,16.2h9l-1.3,9.6h-9l-2.4,17h9.5l-1.4,9.7h-20.3l8.7-62h20.1Z"/>
        <path class="cls-51" d="M3959.7,427.1l7.4-52.4h-6.5l1.3-9.6h24.1l-1.3,9.6h-6.6l-7.4,52.4h-10.9Z"/>
        <path class="cls-51" d="M3989.9,427.1h-9.3l1.7-11.9h9.3l-1.7,11.9ZM3990.4,411.4h-5.9l1.7-28.3,2.5-18h10.4l-2.5,18-6.2,28.3Z"/>
      </g>
      <g>
        <path class="cls-20" d="M3338,405.5l-3,21.5h-10.9l2.9-20.5-3.3-41.5h11.4l.4,22.9,7.2-22.9h10.3l-14.8,40.5Z"/>
        <path class="cls-20" d="M3362.8,427.5h-7c-6.8,0-9.6-3.4-8.7-10.1l6-43c.9-6.7,4.7-10,11.5-10h7c6.7,0,9.7,3.3,8.7,10l-6,43c-.9,6.7-4.8,10.1-11.5,10.1ZM3367.7,373.7h-1.6c-1.3,0-2,.6-2.2,1.9l-5.7,40.7c-.2,1.3.4,1.9,1.6,1.9h1.6c1.3,0,2-.6,2.2-1.9l5.7-40.7c.2-1.3-.4-1.9-1.6-1.9Z"/>
        <path class="cls-20" d="M3404.4,417.4c-.9,6.7-4.7,10-11.5,10h-6.5c-6.8,0-9.7-3.3-8.7-10l7.4-52.4h10.8l-7.2,51.3c-.2,1.3.4,1.9,1.7,1.9h1.2c1.3,0,2.1-.6,2.2-1.9l7.2-51.3h10.8l-7.4,52.4Z"/>
        <path class="cls-20" d="M3435.4,427l.4-9h-6.7l-2.1,9h-9.9l15.9-62h14.9l-1.6,62h-10.8ZM3431.2,408.6h5.1l1.4-28.6-6.5,28.6Z"/>
        <path class="cls-20" d="M3459.8,427h-10.8l8.7-62h10.8l-8.7,62Z"/>
        <path class="cls-20" d="M3479.3,427l-2.3-34.6-2,16.5-2.4,18.2h-9.4l8.7-62h11.1l2,32.1,2.1-17.5,2-14.5h9.3l-8.7,62h-10.5Z"/>
        <path class="cls-20" d="M3510.2,373.7c-.7,5.3-1.6,6.9-5.7,11.7l-2.1,2.4-3.6-1.2,1.3-2c2.2-3.5,3.1-5.1,3.7-7.7h-3.5l1.7-11.9h9.5l-1.2,8.7Z"/>
        <path class="cls-20" d="M3511.7,427l7.4-52.4h-6.5l1.3-9.6h24.1l-1.3,9.6h-6.6l-7.4,52.4h-10.9Z"/>
        <path class="cls-20" d="M3572.8,404.3l-1.9,13.2c-.9,6.7-4.8,10-11.5,10h-6.1c-6.8,0-9.7-3.3-8.7-10l2.1-15.2h10.7l-2,14.2c-.2,1.3.3,1.9,1.6,1.9h1c1.3,0,2-.6,2.2-1.9l1.4-9.9c.3-1.9-.1-3-1.5-4.2l-7.8-6.6c-3.2-2.6-3.9-5-3.3-9.4l1.7-11.9c.9-6.7,4.7-10,11.5-10h5.9c6.7,0,9.7,3.3,8.7,10l-1.9,13.6h-10.7l1.8-12.6c.2-1.3-.4-1.9-1.6-1.9h-.9c-1.3,0-2,.6-2.2,1.9l-1.2,8.6c-.3,1.9.1,3,1.5,4.2l7.8,6.6c3.1,2.6,4,4.9,3.3,9.4Z"/>
        <path class="cls-20" d="M3601.6,365l-1.3,9.6h-9.3l-2.3,16.2h9l-1.3,9.6h-9l-2.4,17h9.5l-1.4,9.7h-20.3l8.7-62h20.1Z"/>
        <path class="cls-20" d="M3625.1,365l-1.3,9.6h-9.3l-2.3,16.2h9l-1.3,9.6h-9l-2.4,17h9.5l-1.4,9.7h-20.3l8.7-62h20.1Z"/>
        <path class="cls-20" d="M3635.7,427l-2.3-34.6-2,16.5-2.4,18.2h-9.4l8.7-62h11.1l2,32.1,2.1-17.5,2-14.5h9.3l-8.7,62h-10.5Z"/>
        <path class="cls-20" d="M3683.7,427l-3-45.9-2.6,21.8-3.1,24h-12.5l11.5-82.1h14.7l2.7,42.5,2.8-23.2,2.6-19.2h12.3l-11.5,82.1h-13.9Z"/>
        <path class="cls-20" d="M3724.6,427.7h-9.2c-9,0-12.8-4.5-11.5-13.4l8-56.9c1.3-8.9,6.2-13.3,15.3-13.3h9.2c8.9,0,12.8,4.3,11.5,13.3l-8,56.9c-1.3,8.9-6.4,13.4-15.3,13.4ZM3731.1,356.4h-2.1c-1.7,0-2.6.8-2.9,2.6l-7.6,53.8c-.2,1.8.5,2.6,2.1,2.6h2.1c1.7,0,2.6-.8,2.9-2.6l7.6-53.8c.2-1.8-.5-2.6-2.1-2.6Z"/>
        <path class="cls-20" d="M3750.5,427l9.8-69.4h-8.7l1.8-12.7h31.9l-1.8,12.7h-8.8l-9.8,69.4h-14.5Z"/>
        <path class="cls-20" d="M3805.7,379l4.8-34.1h14.5l-11.5,82.1h-14.5l5-35.3h-7.2l-5,35.3h-14.3l11.5-82.1h14.3l-4.8,34.1h7.2Z"/>
        <path class="cls-20" d="M3832.4,427h-14.3l11.5-82.1h14.3l-11.5,82.1Z"/>
        <path class="cls-20" d="M3858.3,427l-3-45.9-2.6,21.8-3.1,24h-12.5l11.5-82.1h14.7l2.7,42.5,2.8-23.2,2.6-19.2h12.3l-11.5,82.1h-13.9Z"/>
        <path class="cls-20" d="M3899.2,356.4c-1,7-2.1,9.1-7.5,15.5l-2.8,3.2-4.8-1.5,1.7-2.7c2.9-4.7,4.2-6.8,4.9-10.2h-4.6l2.2-15.7h12.6l-1.6,11.5Z"/>
        <path class="cls-20" d="M3921.9,405.5l-3,21.5h-10.9l2.9-20.5-3.3-41.5h11.4l.4,22.9,7.2-22.9h10.3l-14.8,40.5Z"/>
        <path class="cls-20" d="M3959.2,365l-1.3,9.6h-9.3l-2.3,16.2h9l-1.3,9.6h-9l-2.4,17h9.5l-1.4,9.7h-20.3l8.7-62h20.1Z"/>
        <path class="cls-20" d="M3959.7,427l7.4-52.4h-6.5l1.3-9.6h24.1l-1.3,9.6h-6.6l-7.4,52.4h-10.9Z"/>
        <path class="cls-20" d="M3989.9,427h-9.3l1.7-11.9h9.3l-1.7,11.9ZM3990.4,411.3h-5.9l1.7-28.3,2.5-18h10.4l-2.5,18-6.2,28.3Z"/>
      </g>
    </g>
  </g>
</svg>