<?xml version="1.0" encoding="UTF-8"?>
<svg id="Layer_1" xmlns="http://www.w3.org/2000/svg" xmlns:xlink="http://www.w3.org/1999/xlink" version="1.1" viewBox="0 0 875 550">
  <!-- Generator: Adobe Illustrator 29.4.0, SVG Export Plug-In . SVG Version: 2.1.0 Build 152)  -->
  <defs>
    <style>
      .st0 {
        fill: #f1f1f1;
      }

      .st1 {
        fill: #e9e9ea;
      }

      .st2, .st3, .st4, .st5, .st6 {
        fill: #00ab83;
      }

      .st7 {
        filter: url(#drop-shadow-2);
      }

      .st8 {
        filter: url(#drop-shadow-5);
      }

      .st9 {
        fill: url(#linear-gradient2);
      }

      .st10 {
        fill: url(#linear-gradient3);
      }

      .st11 {
        fill: #dfdfe0;
      }

      .st12 {
        fill: #dcddde;
      }

      .st13 {
        fill: none;
        filter: url(#drop-shadow-3);
        stroke: #00ab83;
        stroke-linecap: round;
        stroke-miterlimit: 10;
        stroke-width: 2.1px;
      }

      .st14 {
        fill: #d2d3d4;
      }

      .st15 {
        fill: url(#linear-gradient);
      }

      .st16 {
        fill: #c2c4c5;
      }

      .st17 {
        fill: #c7c9ca;
      }

      .st18 {
        fill: #c4c6c8;
      }

      .st19 {
        fill: #cb2128;
      }

      .st20 {
        fill: #cacbcd;
      }

      .st21 {
        fill: #cfd0d1;
      }

      .st22 {
        fill: #ef5259;
      }

      .st23 {
        filter: url(#drop-shadow-10);
      }

      .st24 {
        fill: #d4d5d6;
      }

      .st25 {
        fill: #bdbfc0;
      }

      .st26 {
        fill: #e7e7e7;
      }

      .st3 {
        filter: url(#drop-shadow-14);
      }

      .st4 {
        filter: url(#drop-shadow-13);
      }

      .st5 {
        filter: url(#drop-shadow-12);
      }

      .st6 {
        filter: url(#drop-shadow-11);
      }

      .st27 {
        fill: url(#linear-gradient1);
        filter: url(#drop-shadow-4);
      }

      .st28, .st29, .st30, .st31, .st32 {
        fill: #fff;
      }

      .st33 {
        fill: #cccecf;
      }

      .st34, .st35 {
        fill: #ea1f27;
      }

      .st36 {
        fill: #bfc1c3;
      }

      .st29 {
        filter: url(#drop-shadow-9);
      }

      .st30 {
        filter: url(#drop-shadow-8);
      }

      .st31 {
        filter: url(#drop-shadow-6);
      }

      .st32 {
        filter: url(#drop-shadow-7);
      }

      .st37 {
        fill: #d9dadb;
      }

      .st38 {
        fill: #eeeeef;
      }

      .st39 {
        fill: #801619;
      }

      .st40 {
        fill: #e1e2e2;
      }

      .st41 {
        fill: #e4e4e5;
      }

      .st42 {
        fill: #d7d8d9;
      }

      .st43 {
        fill: #babcbe;
      }

      .st35 {
        filter: url(#drop-shadow-1);
      }

      .st44 {
        fill: #ececec;
      }
    </style>
    <filter id="drop-shadow-1">
      <feOffset dx="0" dy="0"/>
      <feGaussianBlur result="blur" stdDeviation="12"/>
      <feFlood flood-color="#45451c" flood-opacity=".6"/>
      <feComposite in2="blur" operator="in"/>
      <feComposite in="SourceGraphic"/>
    </filter>
    <filter id="drop-shadow-2">
      <feOffset dx="4.6" dy="4.6"/>
      <feGaussianBlur result="blur-2" stdDeviation="3.3"/>
      <feFlood flood-color="#231f20" flood-opacity=".4"/>
      <feComposite in2="blur-2" operator="in"/>
      <feComposite in="SourceGraphic"/>
    </filter>
    <filter id="drop-shadow-3">
      <feOffset dx="6.2" dy="6.2"/>
      <feGaussianBlur result="blur-3" stdDeviation="4.2"/>
      <feFlood flood-color="#231f20" flood-opacity=".5"/>
      <feComposite in2="blur-3" operator="in"/>
      <feComposite in="SourceGraphic"/>
    </filter>
    <linearGradient id="linear-gradient" x1="521.7" y1="311.3" x2="521.7" y2="143.8" gradientUnits="userSpaceOnUse">
      <stop offset="0" stop-color="#ea1f27"/>
      <stop offset="1" stop-color="#f4959c"/>
    </linearGradient>
    <linearGradient id="linear-gradient1" x1="521.7" y1="310.7" x2="521.7" y2="144.3" gradientUnits="userSpaceOnUse">
      <stop offset="0" stop-color="#b02226"/>
      <stop offset="1" stop-color="#ea1f27"/>
    </linearGradient>
    <filter id="drop-shadow-4">
      <feOffset dx="6.1" dy="6.1"/>
      <feGaussianBlur result="blur-4" stdDeviation="4"/>
      <feFlood flood-color="#231f20" flood-opacity=".5"/>
      <feComposite in2="blur-4" operator="in"/>
      <feComposite in="SourceGraphic"/>
    </filter>
    <linearGradient id="linear-gradient2" x1="521.8" y1="244.9" x2="521.8" y2="156.3" gradientTransform="translate(620 -349.7) rotate(79.1)" gradientUnits="userSpaceOnUse">
      <stop offset="0" stop-color="#f05d61"/>
      <stop offset="1" stop-color="#b02226"/>
    </linearGradient>
    <linearGradient id="linear-gradient3" x1="521.8" y1="244.5" x2="521.8" y2="156.8" gradientUnits="userSpaceOnUse">
      <stop offset="0" stop-color="#ea1f27"/>
      <stop offset="1" stop-color="#982022"/>
    </linearGradient>
    <filter id="drop-shadow-5">
      <feOffset dx="6.2" dy="6.2"/>
      <feGaussianBlur result="blur-5" stdDeviation="4.2"/>
      <feFlood flood-color="#231f20" flood-opacity=".5"/>
      <feComposite in2="blur-5" operator="in"/>
      <feComposite in="SourceGraphic"/>
    </filter>
    <filter id="drop-shadow-6">
      <feOffset dx="6.2" dy="6.2"/>
      <feGaussianBlur result="blur-6" stdDeviation="4.2"/>
      <feFlood flood-color="#231f20" flood-opacity=".5"/>
      <feComposite in2="blur-6" operator="in"/>
      <feComposite in="SourceGraphic"/>
    </filter>
    <filter id="drop-shadow-7">
      <feOffset dx="6.2" dy="6.2"/>
      <feGaussianBlur result="blur-7" stdDeviation="4.2"/>
      <feFlood flood-color="#231f20" flood-opacity=".5"/>
      <feComposite in2="blur-7" operator="in"/>
      <feComposite in="SourceGraphic"/>
    </filter>
    <filter id="drop-shadow-8">
      <feOffset dx="6.2" dy="6.2"/>
      <feGaussianBlur result="blur-8" stdDeviation="4.2"/>
      <feFlood flood-color="#231f20" flood-opacity=".5"/>
      <feComposite in2="blur-8" operator="in"/>
      <feComposite in="SourceGraphic"/>
    </filter>
    <filter id="drop-shadow-9">
      <feOffset dx="6.2" dy="6.2"/>
      <feGaussianBlur result="blur-9" stdDeviation="4.2"/>
      <feFlood flood-color="#231f20" flood-opacity=".5"/>
      <feComposite in2="blur-9" operator="in"/>
      <feComposite in="SourceGraphic"/>
    </filter>
    <filter id="drop-shadow-10">
      <feOffset dx="6.2" dy="6.2"/>
      <feGaussianBlur result="blur-10" stdDeviation="4.2"/>
      <feFlood flood-color="#231f20" flood-opacity=".5"/>
      <feComposite in2="blur-10" operator="in"/>
      <feComposite in="SourceGraphic"/>
    </filter>
    <filter id="drop-shadow-11">
      <feOffset dx="6.2" dy="6.2"/>
      <feGaussianBlur result="blur-11" stdDeviation="4.2"/>
      <feFlood flood-color="#231f20" flood-opacity=".5"/>
      <feComposite in2="blur-11" operator="in"/>
      <feComposite in="SourceGraphic"/>
    </filter>
    <filter id="drop-shadow-12">
      <feOffset dx="6.2" dy="6.2"/>
      <feGaussianBlur result="blur-12" stdDeviation="4.2"/>
      <feFlood flood-color="#231f20" flood-opacity=".5"/>
      <feComposite in2="blur-12" operator="in"/>
      <feComposite in="SourceGraphic"/>
    </filter>
    <filter id="drop-shadow-13">
      <feOffset dx="6.2" dy="6.2"/>
      <feGaussianBlur result="blur-13" stdDeviation="4.2"/>
      <feFlood flood-color="#231f20" flood-opacity=".5"/>
      <feComposite in2="blur-13" operator="in"/>
      <feComposite in="SourceGraphic"/>
    </filter>
    <filter id="drop-shadow-14">
      <feOffset dx="7.2" dy="7.2"/>
      <feGaussianBlur result="blur-14" stdDeviation="4.8"/>
      <feFlood flood-color="#231f20" flood-opacity=".5"/>
      <feComposite in2="blur-14" operator="in"/>
      <feComposite in="SourceGraphic"/>
    </filter>
  </defs>
  <polygon class="st35" points="836.2 407.9 39.9 508.3 40.4 385.1 836.2 284.7 836.2 407.9"/>
  <polygon class="st2" points="836.3 368.4 40 469.3 40.3 349.8 836.1 248.7 836.3 368.4"/>
  <g class="st7">
    <path class="st28" d="M84.7,442l-7.4-35.2.4,17.2.2,18.9-9.7,1.2v-64.8l11.5-1.5,6.8,32.6-.4-18.3v-15.2c0,0,9.6-1.2,9.6-1.2v64.8l-10.9,1.4Z"/>
    <path class="st28" d="M117.1,438.4l-7.2.9c-7.1.9-10.5-2.2-10.5-9.2v-44.9c0-7,3.4-10.9,10.5-11.8l7.2-.9c7-.9,10.5,2.1,10.5,9.1v44.9c0,7-3.5,11-10.5,11.9ZM114.3,382.5l-1.7.2c-1.3.2-1.9.9-1.9,2.3v42.5c0,1.4.6,2,1.9,1.8l1.7-.2c1.3-.2,1.9-.9,1.9-2.3v-42.5c0-1.4-.6-2-1.9-1.8Z"/>
    <path class="st28" d="M136.7,435.3v-54.8l-6.8.9v-10l25-3.2v10l-6.9.9v54.8l-11.3,1.4Z"/>
    <path class="st28" d="M174.6,392.6v-26.9l11.3-1.4v64.8l-11.3,1.4v-27.9l-5.7.7v27.9l-11.2,1.4v-64.8l11.2-1.4v26.9l5.7-.7Z"/>
    <path class="st28" d="M201.2,427.1l-11.2,1.4v-64.8l11.2-1.4v64.8Z"/>
    <path class="st28" d="M222,424.4l-7.4-35.2.4,17.2.2,18.9-9.7,1.2v-64.8l11.5-1.5,6.8,32.6-.4-18.3v-15.2c0,0,9.6-1.2,9.6-1.2v64.8l-10.9,1.4Z"/>
    <path class="st28" d="M250.3,394.5v-9.4l14.6-1.9v25.8c0,7-3.5,10.9-10.5,11.8l-7.2.9c-7.1.9-10.5-2.1-10.5-9.1v-45c0-7,3.4-10.9,10.5-11.8l7.1-.9c7.1-.9,10.5,2.1,10.5,9.1v14.8l-11.1,1.4v-13.6c0-1.4-.6-2-1.9-1.8l-1.7.2c-1.3.2-1.9.9-1.9,2.3v42.6c0,1.4.6,2,1.9,1.8l1.9-.2c1.4-.2,2-.9,2-2.3v-15.2l-3.5.5Z"/>
    <path class="st28" d="M278.5,361.5c0,5.6-.6,7.3-4.2,12.7l-1.9,2.7-3.9-.7,1-2.3c1.8-3.9,2.5-5.7,2.7-8.4l-3.6.5v-12.4l9.8-1.3v9.1Z"/>
    <path class="st28" d="M308.9,389.6v13.8c0,7-3.5,10.9-10.5,11.8l-6.3.8c-7.1.9-10.5-2.1-10.5-9.1v-15.9l11.1-1.4v14.8c0,1.4.6,2,1.9,1.8h1c1.4-.3,1.9-1,1.9-2.4v-10.4c0-2-.6-3.1-2.1-4.1l-9.1-5.8c-3.7-2.2-4.8-4.7-4.8-9.2v-12.4c0-7,3.4-10.9,10.5-11.8l6.1-.8c7-.9,10.5,2.1,10.5,9.1v14.2l-11,1.4v-13.1c0-1.4-.6-2-1.9-1.8h-.9c-1.4.3-1.9,1-1.9,2.4v9c0,2,.6,3.1,2.1,4.1l9.1,5.8c3.6,2.2,4.8,4.5,4.8,9.2Z"/>
    <path class="st28" d="M336.1,383.6v-9.4l14.6-1.9v25.8c0,7-3.5,10.9-10.5,11.8l-7.2.9c-7.1.9-10.5-2.1-10.5-9.1v-45c0-7,3.4-10.9,10.5-11.8l7.1-.9c7.1-.9,10.5,2.1,10.5,9.1v14.8l-11.1,1.4v-13.6c0-1.4-.6-2-1.9-1.8l-1.7.2c-1.3.2-1.9.9-1.9,2.3v42.6c0,1.4.6,2,1.9,1.8l1.9-.2c1.4-.2,2-.9,2-2.3v-15.2l-3.5.5Z"/>
    <path class="st28" d="M372.1,405.8l-7.2.9c-7.1.9-10.5-2.2-10.5-9.2v-44.9c0-7,3.4-10.9,10.5-11.8l7.2-.9c7-.9,10.5,2.1,10.5,9.1v44.9c0,7-3.5,11-10.5,11.9ZM369.3,349.9l-1.7.2c-1.3.2-1.9.9-1.9,2.3v42.5c0,1.4.6,2,1.9,1.8l1.7-.2c1.3-.2,1.9-.9,1.9-2.3v-42.5c0-1.4-.6-2-1.9-1.8Z"/>
    <path class="st28" d="M403,401.3l-7.4-35.2.4,17.2.2,18.9-9.7,1.2v-64.8l11.5-1.5,6.8,32.6-.4-18.3v-15.2c0,0,9.6-1.2,9.6-1.2v64.8l-10.9,1.4Z"/>
    <path class="st28" d="M434.6,397.2l-7.4-35.2.4,17.2.2,18.9-9.7,1.2v-64.8l11.5-1.5,6.8,32.6-.4-18.3v-15.2c0,0,9.6-1.2,9.6-1.2v64.8l-10.9,1.4Z"/>
    <path class="st28" d="M466.9,393.1l-.9-9.3-7,.9-.8,9.5-10.3,1.3,7.4-65.7,15.4-2,7.4,63.8-11.2,1.4ZM459.8,374.8l5.3-.7-2.7-29.5-2.6,30.2Z"/>
    <path class="st28" d="M517.7,362.9v13.8c0,7-3.5,10.9-10.5,11.8l-6.3.8c-7.1.9-10.5-2.1-10.5-9.1v-15.9l11.1-1.4v14.8c0,1.4.6,2,1.9,1.8h1c1.4-.3,1.9-1,1.9-2.4v-10.4c0-2-.6-3.1-2.1-4.1l-9.1-5.8c-3.7-2.2-4.8-4.7-4.8-9.2v-12.4c0-7,3.4-10.9,10.5-11.8l6.1-.8c7-.9,10.5,2.1,10.5,9.1v14.2l-11,1.4v-13.1c0-1.4-.6-2-1.9-1.8h-.9c-1.4.3-1.9,1-1.9,2.4v9c0,2,.6,3.1,2.1,4.1l9.1,5.8c3.6,2.2,4.8,4.5,4.8,9.2Z"/>
    <path class="st28" d="M526.3,385.5v-54.8l-6.8.9v-10l25-3.2v10l-6.9.9v54.8l-11.3,1.4Z"/>
    <path class="st28" d="M564.5,381.2l-7.2.9c-7.1.9-10.5-2.2-10.5-9.2v-44.9c0-7,3.4-10.9,10.5-11.8l7.2-.9c7-.9,10.5,2.1,10.5,9.1v44.9c0,7-3.5,11-10.5,11.9ZM561.7,325.3l-1.7.2c-1.3.2-1.9.9-1.9,2.3v42.5c0,1.4.6,2,1.9,1.8l1.7-.2c1.3-.2,1.9-.9,1.9-2.3v-42.5c0-1.4-.6-2-1.9-1.8Z"/>
    <path class="st28" d="M590.1,377.4l-11.2,1.4v-64.8l16.5-2.1c7-.9,10.4,2.1,10.4,9.1v20.5c0,6.9-3.4,10.8-10.4,11.7l-5.3.7v23.4ZM592.5,321.9l-2.4.3v22.1l2.4-.3c1.4-.2,2-.9,2-2.2v-18.1c0-1.4-.6-2-2-1.8Z"/>
    <path class="st28" d="M646.9,360.1c0,7-3.4,10.9-10.5,11.8l-6.8.9c-7.1.9-10.5-2.1-10.5-9.1v-54.8l11.2-1.4v53.6c0,1.4.6,2,2,1.8l1.2-.2c1.4-.2,2-.9,2-2.3v-53.6l11.2-1.4v54.8Z"/>
    <path class="st28" d="M677.8,342.4v13.8c0,7-3.5,10.9-10.5,11.8l-6.3.8c-7.1.9-10.5-2.1-10.5-9.1v-15.9l11.1-1.4v14.8c0,1.4.6,2,1.9,1.8h1c1.4-.3,1.9-1,1.9-2.4v-10.4c0-2-.6-3.1-2.1-4.1l-9.1-5.8c-3.7-2.2-4.8-4.7-4.8-9.2v-12.4c0-7,3.4-10.9,10.5-11.8l6.1-.8c7-.9,10.5,2.1,10.5,9.1v14.2l-11,1.4v-13.1c0-1.4-.6-2-1.9-1.8h-.9c-1.4.3-1.9,1-1.9,2.4v9c0,2,.6,3.1,2.1,4.1l9.1,5.8c3.6,2.2,4.8,4.5,4.8,9.2Z"/>
    <path class="st28" d="M708.2,362.3l-7.4-35.2.4,17.2.2,18.9-9.7,1.2v-64.8l11.5-1.5,6.8,32.6-.4-18.3v-15.2c0,0,9.6-1.2,9.6-1.2v64.8l-10.9,1.4Z"/>
    <path class="st28" d="M740.6,358.7l-7.2.9c-7.1.9-10.5-2.2-10.5-9.2v-44.9c0-7,3.4-10.9,10.5-11.8l7.2-.9c7-.9,10.5,2.1,10.5,9.1v44.9c0,7-3.5,11-10.5,11.9ZM737.9,302.8l-1.7.2c-1.3.2-1.9.9-1.9,2.3v42.5c0,1.4.6,2,1.9,1.8l1.7-.2c1.3-.2,1.9-.9,1.9-2.3v-42.5c0-1.4-.6-2-1.9-1.8Z"/>
    <path class="st28" d="M781.4,288.1l3.2,34.9,3-35.7,9.9-1.3-6.8,65.6-12.4,1.6-2.9-29-2.9,29.7-12.4,1.6-6.9-63.9,11.4-1.5,2.9,35.3,3.2-36,10.7-1.4Z"/>
    <path class="st28" d="M808.5,333l-6.1.8-2.3-29.3v-18.8l10.8-1.4v18.8l-2.3,29.9ZM810.2,349.2l-9.6,1.2v-12.4l9.6-1.2v12.4Z"/>
  </g>
  <g>
    <path class="st28" d="M226.9,456.4c2.9-.4,4.9.5,5.8,1.1l-.9,1.8c-.9-.6-2.5-1.2-4.6-.9-4.7.6-7.5,4.4-7.6,8.3s2.8,7,7.5,6.4c2.1-.3,3.8-1.3,4.6-2.1l.9,1.6c-.9.9-2.9,2.2-5.8,2.5-5.3.7-9.4-2.9-9.4-8.1,0-5.2,4.2-9.8,9.5-10.5Z"/>
    <path class="st28" d="M249.8,453.5c5.1-.6,9,3,9,8.2,0,5.2-3.9,9.8-9.1,10.4-5.1.6-9-3-9-8.2,0-5.2,3.9-9.8,9.1-10.4ZM249.7,470.2c4-.5,6.9-4.2,6.9-8.2,0-4-2.8-7-6.8-6.5-4,.5-6.9,4.2-6.9,8.2,0,4,2.8,7,6.8,6.5Z"/>
    <path class="st28" d="M270.1,451.3l9.2,13.4v-14.6c0,0,2.1-.2,2.1-.2v18c-.1,0-2.1.2-2.1.2l-9.2-13.4v14.6c0,0-2.1.2-2.1.2v-18c.1,0,2.1-.2,2.1-.2Z"/>
    <path class="st28" d="M300.8,447.5v1.8s-7.2.9-7.2.9v6.3s6.7-.8,6.7-.8v1.8s-6.7.8-6.7.8v8.1s-2,.2-2,.2v-18c.1,0,9.3-1.1,9.3-1.1Z"/>
    <path class="st28" d="M319.4,445.2v1.8s-7.2.9-7.2.9v6.3s6.9-.9,6.9-.9v1.8s-6.9.9-6.9.9v6.4s7.2-.9,7.2-.9v1.8s-9.2,1.1-9.2,1.1v-18c.1,0,9.3-1.1,9.3-1.1Z"/>
    <path class="st28" d="M333.7,443.5c3.5-.4,5.8,1.2,5.7,4.4,0,2.8-1.8,5.1-4.7,5.8l5.9,6.9-2.5.3-5.6-6.8-1.8.2v7.5s-2,.2-2,.2v-18c.1,0,5-.6,5-.6ZM330.8,452.7l2.4-.3c2.5-.3,4.2-1.9,4.2-4.2,0-2.3-1.7-3.4-4.2-3l-2.4.3v7.2Z"/>
    <path class="st28" d="M358.1,440.4v1.8s-7.2.9-7.2.9v6.3s6.9-.9,6.9-.9v1.8s-6.9.9-6.9.9v6.4s7.2-.9,7.2-.9v1.8s-9.2,1.1-9.2,1.1v-18c.1,0,9.3-1.1,9.3-1.1Z"/>
    <path class="st28" d="M369.5,439l9.2,13.4v-14.6c0,0,2.1-.2,2.1-.2v18c-.1,0-2.1.2-2.1.2l-9.2-13.4v14.6c0,0-2.1.2-2.1.2v-18c.1,0,2.1-.2,2.1-.2Z"/>
    <path class="st28" d="M398.8,435.1c2.9-.4,4.9.5,5.8,1.1l-.9,1.8c-.9-.6-2.5-1.2-4.6-.9-4.7.6-7.5,4.4-7.6,8.3s2.8,7,7.5,6.4c2.1-.3,3.8-1.3,4.6-2.1l.9,1.6c-.9.9-2.9,2.2-5.8,2.5-5.3.7-9.4-2.9-9.4-8.2,0-5.2,4.2-9.8,9.5-10.5Z"/>
    <path class="st28" d="M422.8,432.4v1.8s-7.2.9-7.2.9v6.3s6.9-.9,6.9-.9v1.8s-6.9.9-6.9.9v6.4s7.2-.9,7.2-.9v1.8s-9.2,1.1-9.2,1.1v-18c.1,0,9.3-1.1,9.3-1.1Z"/>
    <path class="st28" d="M447.4,437.3c-1.2-1.1-2.3-2.2-2.3-3.9,0-2.2,1.6-4.2,4.6-4.6,2.9-.4,4.3,1.5,4.3,3.5,0,2.5-2.5,4.2-3.8,4.9l4.4,4.3c.9-.9,1.8-2.1,2.2-3l1.3,1c-.3.7-1.3,2.1-2.2,3.2l3.3,3.2-2.5.3-2.2-2.2c-1.5,1.6-3.3,3.2-5.9,3.6-2.8.3-5.5-.9-5.5-4.2,0-2.4,1.8-4.4,4.3-6ZM448.7,445.6c2-.2,3.6-1.8,4.5-2.8l-4.7-4.5c-2.2,1.3-3.2,3.1-3.2,4.6,0,1.9,1.5,3,3.5,2.7ZM449.1,436.2c1.9-1.2,3.1-2.1,3.1-3.8,0-1.3-.8-2.5-2.6-2.2-1.7.2-2.6,1.6-2.6,2.9,0,1.5,1.4,2.5,2.1,3.1Z"/>
    <path class="st28" d="M489.2,424.2v1.8s-5.3.7-5.3.7v16.2c0,0-2.1.2-2.1.2v-16.2c0,0-5.2.7-5.2.7v-1.8s12.6-1.6,12.6-1.6Z"/>
    <path class="st28" d="M502.3,422.6c3.5-.4,5.8,1.2,5.7,4.4,0,2.8-1.8,5.1-4.7,5.8l5.9,6.9-2.5.3-5.6-6.8-1.8.2v7.5s-2,.2-2,.2v-18c.1,0,5-.6,5-.6ZM499.3,431.8l2.4-.3c2.5-.3,4.2-1.9,4.2-4.2,0-2.3-1.7-3.4-4.2-3l-2.4.3v7.2Z"/>
    <path class="st28" d="M524.1,419.9l7,17.1-2.1.3-2-5.2-7.6.9-2.1,5.7-2.1.3,7.2-18.8,1.8-.2ZM526.2,430.4l-3-7.7-3.1,8.5,6.2-.8Z"/>
    <path class="st28" d="M543.2,417.5c4.9-.6,9,2.6,9,7.9,0,5.2-4.1,9.5-9.1,10.1l-4.2.5v-18c.1,0,4.3-.5,4.3-.5ZM540.9,434l2-.2c3.9-.5,7.1-3.9,7.1-8.1,0-4.1-3.1-6.8-7.1-6.3l-2,.2v14.4Z"/>
    <path class="st28" d="M570.7,414.1v1.8s-7.2.9-7.2.9v6.3s6.9-.9,6.9-.9v1.8s-6.9.9-6.9.9v6.4s7.2-.9,7.2-.9v1.8s-9.2,1.1-9.2,1.1v-18c.1,0,9.3-1.1,9.3-1.1Z"/>
    <path class="st28" d="M585.5,411.9c2.7-.3,3.9.9,4.6,1.9l-1.5,1.1c-.5-.8-1.3-1.5-3-1.2-2.2.3-3.4,1.9-3.4,3.5,0,1.6,1.5,2.2,3.3,2.6,3.1.7,5.6,1.8,5.6,4.8,0,3.5-2.5,5.5-5.8,5.9-2.9.4-4.9-.7-5.9-2.6l1.7-1.2c.7,1.4,2.4,2.2,4.1,1.9,2-.2,4-1.4,4-3.8,0-1.9-1.9-2.7-4.8-3.4-2.7-.6-3.9-2-3.9-4,0-3,2.4-5.3,5.1-5.6Z"/>
    <path class="st28" d="M602.4,410.2v8.1s9.1-1.1,9.1-1.1v-8.1s2-.2,2-.2v18c-.1,0-2.1.2-2.1.2v-8.1s-9.1,1.1-9.1,1.1v8.1s-2,.2-2,.2v-18c.1,0,2.1-.2,2.1-.2Z"/>
    <path class="st28" d="M631.9,406.2c5.1-.6,9,3,9,8.2,0,5.2-3.9,9.8-9.1,10.4-5.1.6-9-3-9-8.2,0-5.2,3.9-9.8,9.1-10.4ZM631.8,422.9c4-.5,6.9-4.2,6.9-8.2,0-4-2.8-7-6.8-6.5-4,.5-6.9,4.2-6.9,8.2s2.8,7,6.8,6.5Z"/>
    <path class="st28" d="M649.5,404.3l4.2,14.8,5.1-15.9,1.5-.2,4.9,14.7,4.4-15.8,2.2-.3-5.4,18.6-2.2.3-4.6-13.5-4.8,14.6-2.2.3-5.2-17.3,2.2-.3Z"/>
  </g>
  <g>
    <path class="st13" d="M199,104.2h-12.4c-1.6,0-2.9,1.3-2.9,2.9v88.4c0,36.5,29.6,66,66,66h376c36.5,0,66-29.6,66-66v-88.4c0-1.6-1.3-2.9-2.9-2.9h-17.4"/>
    <g>
      <g>
        <path class="st15" d="M580.6,201.6c-.6-32-26.8-57.8-58.9-57.8s-58.9,26.4-58.9,58.9.3,6.6.6,8.8c0,0,0,.1,0,.2,0,0,0,.1,0,.2,6.6,45,58.2,99.5,58.2,99.5,0,0,47.1-43.4,57.1-94.1,1.2-4.6,1.8-15.3,1.8-15.6Z"/>
        <path class="st27" d="M521.7,310.7c-2.1-2.2-13.9-15.1-26.3-32.5-12.5-17.5-28.1-43.2-31.5-66.4v-.4c-.4-2-.7-8-.7-8.7,0-32.2,26.2-58.5,58.5-58.5s30,5.9,41,16.7c11,10.8,17.2,25.2,17.5,40.6,0,.6-.6,11-1.8,15.5-5.2,26.1-20.4,50.3-32.2,65.9-11.6,15.3-22.4,25.7-24.4,27.7Z"/>
        <circle class="st9" cx="521.8" cy="200.6" r="44.3" transform="translate(226 675) rotate(-79.1)"/>
        <path class="st10" d="M521.8,244.5c-24.2,0-43.8-19.7-43.8-43.8s19.7-43.8,43.8-43.8,43.8,19.7,43.8,43.8-19.7,43.8-43.8,43.8Z"/>
        <path class="st39" d="M521.8,241.6c-22.6,0-41-18.4-41-41s18.4-41,41-41,41,18.4,41,41-18.4,41-41,41Z"/>
        <g>
          <path class="st43" d="M521.8,241.1c-22.3,0-40.5-18.2-40.5-40.5s18.2-40.5,40.5-40.5,40.5,18.2,40.5,40.5-18.2,40.5-40.5,40.5Z"/>
          <path class="st25" d="M521.8,241c-22.3,0-40.4-18.1-40.4-40.4s18.1-40.4,40.4-40.4,40.4,18.1,40.4,40.4-18.1,40.4-40.4,40.4Z"/>
          <path class="st36" d="M521.8,240.9c-22.2,0-40.3-18.1-40.3-40.3s18.1-40.3,40.3-40.3,40.3,18.1,40.3,40.3-18.1,40.3-40.3,40.3Z"/>
          <path class="st16" d="M521.8,240.7c-22.1,0-40.1-18-40.1-40.1s18-40.1,40.1-40.1,40.1,18,40.1,40.1-18,40.1-40.1,40.1Z"/>
          <path class="st18" d="M521.8,240.6c-22,0-40-17.9-40-40s17.9-40,40-40,40,17.9,40,40-17.9,40-40,40Z"/>
          <path class="st17" d="M521.8,240.5c-22,0-39.9-17.9-39.9-39.9s17.9-39.9,39.9-39.9,39.9,17.9,39.9,39.9-17.9,39.9-39.9,39.9Z"/>
          <path class="st20" d="M521.8,240.3c-21.9,0-39.7-17.8-39.7-39.7s17.8-39.7,39.7-39.7,39.7,17.8,39.7,39.7-17.8,39.7-39.7,39.7Z"/>
          <path class="st33" d="M521.8,240.2c-21.8,0-39.6-17.8-39.6-39.6s17.8-39.6,39.6-39.6,39.6,17.8,39.6,39.6-17.8,39.6-39.6,39.6Z"/>
          <path class="st21" d="M521.8,240.1c-21.7,0-39.4-17.7-39.4-39.4s17.7-39.4,39.4-39.4,39.4,17.7,39.4,39.4-17.7,39.4-39.4,39.4Z"/>
          <path class="st14" d="M521.8,239.9c-21.7,0-39.3-17.6-39.3-39.3s17.6-39.3,39.3-39.3,39.3,17.6,39.3,39.3-17.6,39.3-39.3,39.3Z"/>
          <path class="st24" d="M521.8,239.8c-21.6,0-39.2-17.6-39.2-39.2s17.6-39.2,39.2-39.2,39.2,17.6,39.2,39.2-17.6,39.2-39.2,39.2Z"/>
          <path class="st42" d="M521.8,239.7c-21.5,0-39-17.5-39-39s17.5-39,39-39,39,17.5,39,39-17.5,39-39,39Z"/>
          <path class="st37" d="M521.8,239.5c-21.5,0-38.9-17.5-38.9-38.9s17.5-38.9,38.9-38.9,38.9,17.5,38.9,38.9-17.5,38.9-38.9,38.9Z"/>
          <path class="st12" d="M521.8,239.4c-21.4,0-38.8-17.4-38.8-38.8s17.4-38.8,38.8-38.8,38.8,17.4,38.8,38.8-17.4,38.8-38.8,38.8Z"/>
          <path class="st11" d="M521.8,239.2c-21.3,0-38.6-17.3-38.6-38.6s17.3-38.6,38.6-38.6,38.6,17.3,38.6,38.6-17.3,38.6-38.6,38.6Z"/>
          <path class="st40" d="M521.8,239.1c-21.2,0-38.5-17.3-38.5-38.5s17.3-38.5,38.5-38.5,38.5,17.3,38.5,38.5-17.3,38.5-38.5,38.5Z"/>
          <path class="st41" d="M521.8,239c-21.2,0-38.4-17.2-38.4-38.4s17.2-38.4,38.4-38.4,38.4,17.2,38.4,38.4-17.2,38.4-38.4,38.4Z"/>
          <path class="st26" d="M521.8,238.8c-21.1,0-38.2-17.1-38.2-38.2s17.1-38.2,38.2-38.2,38.2,17.1,38.2,38.2-17.1,38.2-38.2,38.2Z"/>
          <path class="st1" d="M521.8,238.7c-21,0-38.1-17.1-38.1-38.1s17.1-38.1,38.1-38.1,38.1,17.1,38.1,38.1-17.1,38.1-38.1,38.1Z"/>
          <path class="st44" d="M521.8,238.6c-20.9,0-38-17-38-38s17-38,38-38,38,17,38,38-17,38-38,38Z"/>
          <path class="st38" d="M521.8,238.4c-20.9,0-37.8-17-37.8-37.8s17-37.8,37.8-37.8,37.8,17,37.8,37.8-17,37.8-37.8,37.8Z"/>
          <path class="st0" d="M521.8,238.3c-20.8,0-37.7-16.9-37.7-37.7s16.9-37.7,37.7-37.7,37.7,16.9,37.7,37.7-16.9,37.7-37.7,37.7Z"/>
        </g>
        <path class="st22" d="M521.8,148.9c30,0,54.4,23.9,55.3,53.7,0-.5,0-1,0-1.6,0-30.5-24.7-55.3-55.3-55.3s-55.3,24.7-55.3,55.3,0,1,0,1.6c.8-29.8,25.3-53.7,55.3-53.7Z"/>
        <path class="st28" d="M521.8,238.2c21.2,0,38.3-17,38.7-38.1,0,.2,0,.4,0,.6,0,21.4-17.3,38.7-38.7,38.7s-38.7-17.3-38.7-38.7,0-.4,0-.6c.3,21.1,17.5,38.1,38.7,38.1Z"/>
        <path class="st28" d="M552.3,195.7c0,17.6-13.8,31.8-30.8,31.8s-30.8-14.2-30.8-31.8,13.8-31.8,30.8-31.8,30.8,14.2,30.8,31.8Z"/>
        <path class="st19" d="M521.3,258.5c-17.8,0-33.8-7.4-45.2-19.3,5.8,14,14.5,27.6,21.9,38,11,15.4,21.5,26.9,23.4,28.9,1.8-1.7,11.4-11,21.7-24.6,8.2-10.8,18.1-26.1,24.3-43.2-11.5,12.4-27.9,20.2-46.1,20.2Z"/>
      </g>
      <g>
        <g>
          <path class="st34" d="M519.4,214.9v-38h9.6c2.2,0,4,1.8,4,4v16.2c0,2.2-1.8,4-4,4h-5.6v13.8h-4ZM523.4,197.5h4.8c.4,0,.8-.4.8-.8v-15.4c0-.4-.4-.8-.8-.8h-4.8v17Z"/>
          <path class="st34" d="M539.9,214.9c-2.2,0-4-1.8-4-4v-30c0-2.2,1.8-4,4-4h9.5l-.7,3.6h-8.1c-.4,0-.8.4-.8.8v29.2c0,.4.4.8.8.8h4c.4,0,.8-.4.8-.8v-16.7l4-.7v17.7c0,2.2-1.8,4-4,4h-5.6Z"/>
          <path class="st34" d="M508.1,214.9c-.9,0-1.8-.3-2.6-.8h-.2c0-.1-.2,0-.2,0-.8.5-1.7.8-2.6.8h-4c-2.4,0-4.4-2-4.4-4.4v-33.6h4v33.6c0,.4.4.8.8.8h3.6c.4,0,.8-.4.8-.8v-33.6h4v33.6c0,.4.4.8.8.8h3.6c.4,0,.8-.4.8-.8v-33.6h4v33.6c0,2.4-2,4.4-4.4,4.4h-4Z"/>
        </g>
        <g>
          <path class="st34" d="M493.9,225.4l3.6-3.8c.5-.5.8-1,.8-1.6s-.4-.9-1-.9-1.1.5-1.3,1.3l-2-.6c.4-1.6,1.6-2.6,3.3-2.6s3.1,1,3.1,2.6-.6,1.9-1.4,2.7l-1.2,1.2h2.5v1.8h-6.5c-.1,0-.1,0,0-.2Z"/>
          <path class="st34" d="M509.6,221.4c0-2.5,2.1-4.3,4.5-4.3s4.5,1.8,4.5,4.3-2.1,4.3-4.5,4.3-4.5-1.8-4.5-4.3ZM516.2,221.4c0-1.3-.8-2.3-2.2-2.3s-2.2,1-2.2,2.3.8,2.3,2.2,2.3,2.2-1,2.2-2.3Z"/>
          <path class="st34" d="M526.9,225.4l3.6-3.8c.5-.5.8-1,.8-1.6s-.4-.9-1-.9-1.1.5-1.3,1.3l-2-.6c.4-1.6,1.6-2.6,3.3-2.6s3.1,1,3.1,2.6-.6,1.9-1.4,2.7l-1.2,1.2h2.5v1.8h-6.5c-.1,0-.1,0,0-.2Z"/>
          <path class="st34" d="M542.5,223.9l1.8-1c.2.4.7.9,1.5.9s1.3-.4,1.3-1.1-.6-1.2-1.5-1.2-1.6.3-2,.6c-.1,0-.2,0-.2,0v-4.9h5.2v1.9h-3.4v.9c.2,0,.5-.1.9-.1,2.1,0,3.3,1.2,3.3,2.8s-1.4,3-3.5,3-2.8-.8-3.3-1.8Z"/>
        </g>
      </g>
    </g>
    <g class="st8">
      <path class="st28" d="M234.4,113.5v33.1h-13.1v-33.1h-11.4v-10.8h35.4l1.8,10.8h-12.7Z"/>
      <path class="st28" d="M279.5,146.7v-17h-12.2v17h-13.1v-44h13.1v15.7h12.2v-15.7h13.1v44h-13.1Z"/>
      <path class="st28" d="M302.6,146.7v-44h29v10.1h-16.3v6h12.3l1.7,10.5h-14v7.2h16.8v10.1h-29.6Z"/>
    </g>
    <polygon class="st31" points="444.3 145.9 444.3 65.5 497.3 65.5 497.3 84.1 467.6 84.1 467.6 95 490.1 95 493.1 114.2 467.6 114.2 467.6 127.4 498.3 127.4 498.3 145.9 444.3 145.9"/>
    <path class="st32" d="M532.4,145.9h-24s24.2-40.5,24.2-40.4l-22.5-39.7,25.5-.3,12.2,21.9,11.5-21.8h24.1l-22.6,37.7,24.3,43.1-25.6.3-14-25.4c0-.1-13.3,24.6-13.3,24.6"/>
    <polygon class="st30" points="637.4 85.3 637.4 145.9 613.6 145.9 613.6 85.3 592.7 85.3 592.7 65.5 657.4 65.5 660.6 85.3 637.4 85.3"/>
    <path class="st29" d="M433.4,65.7c-.2-.3-.5-.5-.9-.5h-19c-.6,0-1.1.5-1.1,1.1h0c0,2.2-.4,4.9-1.4,9.7l-.7,3.7-.4,1.9-6.9,33.9-32.3-74.1c-.2-.4-.6-.7-1.1-.6-.5,0-.8.4-.9.8l-18.9,89.2-.2,1.1c-2.1,9.4-2.4,11.1-3.5,13.7-.1.3,0,.7.1,1,.2.3.5.5.9.5h18.9c.6,0,1-.5,1.1-1,0-2.7.4-4.7,1.3-9.6l1.2-5.7,6.2-31.9c4.4,11.2,18,46.2,18.5,47.5.1.4.5.7,1,.7h19.6c.5,0,.9-.3,1-.8,1.7-8,14.1-66.3,14.1-66.3,1.9-9,2.3-10.6,3.3-13.1.1-.3.1-.7,0-1"/>
    <g class="st23">
      <path class="st28" d="M446.3,237.6v-49.7s-15.8,6.5-15.8,6.5l-3.2-21.5,22.1-10.9h22.9s0,75.7,0,75.7h-26.1Z"/>
      <path class="st28" d="M607.7,239.1c-21.2,0-36.6-14.9-36.6-39.1,0-24.1,15.3-39.3,36.5-39.3,20.9,0,36.4,14.9,36.4,39.3,0,24.1-15.5,39.1-36.4,39.1ZM607.7,181.6c-6.2,0-11,4.4-11,18.4,0,13.8,5.2,18.2,11,18.2,6,0,10.9-4.4,10.9-18.2,0-13.9-5.2-18.3-10.9-18.3Z"/>
    </g>
    <polygon class="st6" points="240.3 199.6 210 170.7 242.7 170.7 273.1 199.6 242.7 228.6 210.1 228.5 240.3 199.6"/>
    <polygon class="st5" points="284.6 199.6 254.3 170.7 287 170.7 317.4 199.6 287 228.6 254.4 228.5 284.6 199.6"/>
    <polygon class="st4" points="328.9 199.6 298.6 170.7 331.3 170.7 361.7 199.6 331.3 228.6 298.7 228.5 328.9 199.6"/>
    <polygon class="st3" points="373.2 199.6 342.9 170.7 375.6 170.7 406 199.6 375.6 228.6 343 228.5 373.2 199.6"/>
  </g>
</svg>