<?xml version="1.0" encoding="utf-8"?>
<!-- Generator: Adobe Illustrator 26.3.1, SVG Export Plug-In . SVG Version: 6.00 Build 0)  -->
<svg version="1.1" id="Layer_1" xmlns="http://www.w3.org/2000/svg" xmlns:xlink="http://www.w3.org/1999/xlink" x="0px" y="0px"
	 viewBox="0 0 184 200" style="enable-background:new 0 0 184 200;" xml:space="preserve">
<style type="text/css">
	.st0{fill:#00589D;}
	.st1{fill:#F32735;}
	.st2{fill:#FFFFFF;}
</style>
<path class="st0" d="M153.3,101.5c-50.9,14.8-101.8-14.8-152.7,0V194c50.9-14.8,101.8,14.8,152.7,0V101.5"/>
<path class="st1" d="M136.3,44.3c-5.9-1.3-12-0.1-17.6,1.8c-0.1-0.8-0.3-2.2-0.4-3.1c-3.8,0.1-6.2,1.8-9.4,4.6
	c-0.3-0.8-0.8-1.7-1.1-2.6c-3.7,2.3-7,12.8-10.1,10.5c-2.8-2.1,9.5-11.4,8.9-19.6c-1.7,0.4-2.9,0.3-4.2,0.1c1.9-5,2.2-10.7,1-14.2
	c-3,1.8-6.3,3.5-10,5.4c0.7-6.4-0.5-12.2-2.6-15.9c-1.6,1.9-3.5,4.3-5.5,5.8C84.5,11,81.4,5.2,76.6,1.3c-1.9,4.3-2.7,9.1-2.5,13.8
	c-1.1-1.7-3.3-2.8-5.7-3.1c1,3.9,2,7.3,3,10.5c-1.5-1.9-4.6-3.2-7.4-3.4c1.8,4.4,1.1,9.9,4.5,13.2c-1.4-0.3-3.3-0.7-4.4-1
	c-1.2,9,10.1,18.9,6.9,20.8c-3.8,2.3-4.1-11.4-15-14.6c-0.1,1.1-0.2,2.4-0.4,3.5c-3.8-4.1-10.7-5.7-15.6-7.5
	c0.2,1.2,0.4,2.7,0.8,4.5c-2.8-2.2-8.2-1.8-14.2-3.4c1.3,5.1,4.4,11.4,10.5,13.8c-1.7,0.3-4.4,1.3-6.1,1.5c4.4,3.6,5.1,5.5,10.8,7.5
	c-2.6,0.8-4.9,1.5-7.8,2.2c5.8,13.9,20.3,8,24.3,16.1c-8.2-1.1-14.4,1.9-19.2,8.6c4.9,2.1,14.8,3,19.3,1.8c-0.3,1-0.7,1.7-1.6,3.1
	c5.9,0.4,14.8-1.8,19.5-3.7c-0.3,0.6-0.7,1.3-1.2,2.1c-1.2,1.9-2.1,2.3-3.4,2.6c-0.9,0.2-0.8,4.8,0.6,4.7c3.3-0.2,5.8-5.1,6.6-9
	c3.2,2.8,9.1,6.1,12.7,7.5c0.2-1.8,0.3-4.4,0.3-4.4c2.4,2,15.2,5.2,20.6,3.3c-1.3-4.3-6-9.7-12.8-11c6.1-3.8,13.5,2.2,22.4-5.9
	c-1.5-0.6-3.8-1.8-4.9-2.3c4.5-1.9,9-7,10.3-10.6c-2,0.4-5,0.6-7,0C128.4,56.5,132.8,52.5,136.3,44.3"/>
<polyline class="st2" points="40.7,150.8 34.3,150.8 34.3,176.1 49.9,176.1 49.9,170.5 40.7,170.5 40.7,150.8 "/>
<polyline class="st2" points="60.3,166.2 68.9,166.2 68.9,160.6 60.3,160.6 60.3,156.5 69.9,156.5 69.9,150.8 54,150.8 54,176.1 
	69.9,176.1 69.9,170.5 60.3,170.5 60.3,166.2 "/>
<polyline class="st2" points="103.2,176.1 109.5,176.1 109.5,166.2 118.1,166.2 118.1,160.6 109.5,160.6 109.5,156.5 119,156.5 
	119,150.8 103.2,150.8 103.2,176.1 "/>
<path class="st2" d="M85,150.8l-11.7,24.7v0.7h6.8l1.3-3.2h10.2l1.4,3.2h6.8v-0.7l-11.7-24.7H85 M83.5,167.9l3.1-7l3.1,7H83.5z"/>
<polyline class="st2" points="36.1,144.7 42.5,144.7 42.5,119.4 40.4,119.4 30.1,130.5 19.8,119.4 17.8,119.4 17.8,144.7 
	24.1,144.7 24.1,132.7 29.7,138.6 30.5,138.6 36.1,132.7 36.1,144.7 "/>
<path class="st2" d="M57.5,119.4L45.8,144v0.7h6.8l1.4-3.2h10.2l1.4,3.2h6.8V144l-11.7-24.6H57.5 M56,136.5l3.1-7l3.1,7H56z"/>
<path class="st2" d="M82,138h5.3c4.7,0,8.6-3.8,8.6-8.6v-1.5c0-4.7-3.8-8.6-8.6-8.6H75.7v25.4H82V138 M82,125.1h4.2
	c1.7,0,3.1,1.4,3.1,3.1v1.3c0,1.7-1.4,3.1-3.1,3.1H82V125.1z"/>
<polyline class="st2" points="115.5,139.1 106.3,139.1 106.3,119.4 99.9,119.4 99.9,144.7 115.5,144.7 115.5,139.1 "/>
<polyline class="st2" points="125.9,134.8 134.5,134.8 134.5,129.2 125.9,129.2 125.9,125.1 135.5,125.1 135.5,119.4 119.6,119.4 
	119.6,144.7 135.5,144.7 135.5,139.1 125.9,139.1 125.9,134.8 "/>
<path class="st0" d="M163.4,188.6v0.9h-1.6v4.3h-1.1v-4.3h-1.6v-0.9H163.4 M167.5,188.6h1.6v5.2h-1v-3.5c0-0.1,0-0.2,0-0.4
	c0-0.2,0-0.3,0-0.4l-1,4.4H166l-1-4.4c0,0.1,0,0.2,0,0.4c0,0.2,0,0.3,0,0.4v3.5h-1v-5.2h1.6l0.9,4.1L167.5,188.6z M171.7,188.4h0.8
	l-2,5.4h-0.8L171.7,188.4z M176.6,188.6h1.6v5.2h-1v-3.5c0-0.1,0-0.2,0-0.4c0-0.2,0-0.3,0-0.4l-1,4.4h-1.1l-1-4.4c0,0.1,0,0.2,0,0.4
	c0,0.2,0,0.3,0,0.4v3.5h-1v-5.2h1.6l0.9,4.1L176.6,188.6z M179.6,189.2c0.4-0.4,1-0.6,1.6-0.6c0.9,0,1.5,0.3,1.9,0.9
	c0.2,0.3,0.3,0.6,0.4,1h-1.1c-0.1-0.2-0.2-0.4-0.3-0.6c-0.2-0.2-0.5-0.3-0.9-0.3c-0.4,0-0.7,0.2-0.9,0.5c-0.2,0.3-0.3,0.8-0.3,1.4
	s0.1,1,0.4,1.3c0.2,0.3,0.5,0.4,0.9,0.4c0.4,0,0.7-0.1,0.9-0.4c0.1-0.1,0.2-0.3,0.3-0.6h1.1c-0.1,0.6-0.3,1-0.7,1.4
	c-0.4,0.4-0.9,0.5-1.5,0.5c-0.7,0-1.3-0.2-1.8-0.7c-0.4-0.5-0.6-1.1-0.6-2C178.9,190.3,179.1,189.6,179.6,189.2 M163.4,188.6v0.9
	h-1.6v4.3h-1.1v-4.3h-1.6v-0.9H163.4z M167.5,188.6h1.6v5.2h-1v-3.5c0-0.1,0-0.2,0-0.4c0-0.2,0-0.3,0-0.4l-1,4.4H166l-1-4.4
	c0,0.1,0,0.2,0,0.4c0,0.2,0,0.3,0,0.4v3.5h-1v-5.2h1.6l0.9,4.1L167.5,188.6z M171.7,188.4h0.8l-2,5.4h-0.8L171.7,188.4z
	 M176.6,188.6h1.6v5.2h-1v-3.5c0-0.1,0-0.2,0-0.4c0-0.2,0-0.3,0-0.4l-1,4.4h-1.1l-1-4.4c0,0.1,0,0.2,0,0.4c0,0.2,0,0.3,0,0.4v3.5h-1
	v-5.2h1.6l0.9,4.1L176.6,188.6z M179.6,189.2c0.4-0.4,1-0.6,1.6-0.6c0.9,0,1.5,0.3,1.9,0.9c0.2,0.3,0.3,0.6,0.4,1h-1.1
	c-0.1-0.2-0.2-0.4-0.3-0.6c-0.2-0.2-0.5-0.3-0.9-0.3c-0.4,0-0.7,0.2-0.9,0.5c-0.2,0.3-0.3,0.8-0.3,1.4s0.1,1,0.4,1.3
	c0.2,0.3,0.5,0.4,0.9,0.4c0.4,0,0.7-0.1,0.9-0.4c0.1-0.1,0.2-0.3,0.3-0.6h1.1c-0.1,0.6-0.3,1-0.7,1.4c-0.4,0.4-0.9,0.5-1.5,0.5
	c-0.7,0-1.3-0.2-1.8-0.7c-0.4-0.5-0.6-1.1-0.6-2C178.9,190.3,179.1,189.6,179.6,189.2"/>
</svg>
