<?xml version="1.0" encoding="UTF-8"?>
<svg id="Layer_1" data-name="Layer 1" xmlns="http://www.w3.org/2000/svg" version="1.1" viewBox="0 0 235 52">
  <defs>
    <style>
      .cls-1 {
        fill: #d81e05;
        stroke-width: 0px;
      }
    </style>
  </defs>
  <path class="cls-1" d="M205.8,51.3c-1.9,0-3.7-.2-5.3-.5-1-.2-1.9-.4-2.8-.7-2.4-.8-4.5-1.9-6.3-3.4-1.7-1.5-3.1-3.2-4.1-5.3s-1.5-4.5-1.5-7.1.1-2.4.3-3.7c.6-3.4,1.7-6.4,3.4-8.9,1.6-2.6,3.8-4.8,6.2-6.4,4.8-3.5,10.9-5.2,16.9-5.2h0c3,0,6.1.5,9,1.6,1.5.6,3,1.3,4.3,2.2,1.9,1.3,3.5,3,4.6,5.2,1.2,2.1,1.8,4.7,1.8,7.8s-.1,2.6-.3,4c-.6,3.9-2.1,7.3-3.9,9.9-1.9,2.7-4.2,4.8-6.8,6.4-5.1,3.2-11,4.4-15.5,4.4h-.1ZM205,22.2c-.9.9-1.6,2-2.1,3.4s-1,3-1.4,4.9c-.2,1.4-.3,2.6-.3,3.7h0c0,2.8.8,4.6,1.9,5.8.5.5,1,.8,1.6,1.1l-.3.9.3-.9c.8.3,1.8.5,2.8.5h0c1.2,0,2.4-.3,3.4-.8s2-1.2,2.7-2.2c.8-1,1.5-2.1,2-3.5.6-1.4,1-3,1.3-4.8.2-1.3.3-2.4.3-3.5s-.1-2.1-.3-3-.6-1.7-1.1-2.3c-.6-.8-1.6-1.4-2.7-1.7s-1.2-.2-1.9-.2h0c-2.3,0-4.5.9-6.1,2.7"/>
  <path class="cls-1" d="M155.7,11.2h14.9s-.6,3.4-.9,4.7h0c0,.1,0,0,0,0,1.7-1.8,3.9-3,5.8-3.8s3.4-1.2,4-1.3c.7-.2,1.5-.3,2.4-.3s1.7-.1,2.6-.1,1.6,0,2.3.1h1.1c0,.1-2.7,13.3-2.7,13.3h-.9c-.7-.1-1.5-.1-2.3-.1-1.2,0-2.3,0-3.4.2-1,.1-2,.3-2.7.6-1.6.6-3,1.2-4.1,1.8s-2,1.4-2.7,2.2c-.8.8-1.3,1.7-1.7,2.7-.5,1-.8,2.1-1.1,3.4-1,4.2-3.1,15.5-3.1,15.5h-14.7l7.3-39Z"/>
  <path class="cls-1" d="M125,47.3c-1.5-1.2-2.7-2.5-3.5-4.1-.9-1.6-1.4-3.5-1.4-5.7s.1-2.1.3-3.2l3.1-13.8h-5.5l1.7-9.3h5.3l1.2-6.5,14.8-3.9-2,10.4h9.7l-1.7,9.3h-9.4l-2.7,12c-.1.6-.2,1.2-.2,1.8s.1,1.6.3,2.4c1.1,3.8,4.5,4.1,7.9,3.7l-1.7,9.9s-2.6.6-6.1.6h0c-3.5.1-7.4-1.2-10.3-3.5"/>
  <path class="cls-1" d="M87.1,51c-.5,0-1-.2-1.5-.2-1.3-.2-2.6-.6-3.7-1-5.6-2-10.4-8.2-10.4-16h0c0-.9,0-1.8.2-2.7.4-3,1.2-5.9,2.3-8.4,1.2-2.6,2.7-4.8,4.7-6.6,2-1.9,4.4-3.4,7.4-4.4,2.9-1,6.3-1.6,10.3-1.6h.9c2,0,3.9.4,5.9,1,.1,0,.3.1.4.1,2,.8,3.9,1.9,5.6,3.2,1.7,1.5,3.1,3.2,4.1,5.2,1,2.1,1.6,4.5,1.6,7.2s-.2,3.4-.6,5.2l-.2.8h-.9l-28.1-.2h0v.5c0,2.2,1,4.5,3,6.2,1.1,1,2.5,1.8,4.1,2.3,1.2.3,2.4.6,3.8.6s.8,0,1.2,0c3.8-.3,7.7-.8,12-2.5l2-.8-3.5,9.7-.3.2c-3.3,1.6-8.8,2.6-14.3,2.6h0c-2,0-3.9-.2-5.8-.4M101.8,25.1h0c0-.5.1-.9.1-1.3h0c0-1.7-.6-3.2-1.6-4.2-.7-.7-1.6-1.1-2.7-1.3-.5-.1-1-.2-1.6-.2h-.1c-4.2,0-7.5,2.6-9.1,7h0c0,0,15,0,15,0Z"/>
  <path class="cls-1" d="M25,50.2l5.6-25.2c0-.2,0-.5,0-.7h0c0-.8-.3-1.6-.9-2-.2-.2-.5-.4-.8-.5-.4-.2-.9-.3-1.5-.3h0c-2.1,0-4.1,1.6-4.6,3.6l-5.7,25.3H2.5l5.2-24.1c.5-2.1,1.1-4.3,2-6.3.9-2,2-3.8,3.5-5.3,1.5-1.5,3.3-2.8,5.5-3.7,2.3-.9,4.9-1.3,8.1-1.3s1.3,0,1.9,0c.8,0,1.6.1,2.3.3,3.7.7,6.5,2.5,8.6,5h0c1.9-1.5,4.2-2.8,6.6-3.7,2.4-.9,5-1.5,7.4-1.6h.3c1.9,0,3.6.2,5.1.5.5.1,1,.2,1.5.4,1.8.6,3.2,1.5,4.4,2.5,1.1,1,1.9,2.3,2.5,3.7.5,1.5.8,3,.8,4.7s-.2,3-.5,4.6l-5.2,24.1h-14.8l5.2-25.1c0-.2,0-.5,0-.7h0c0-.8-.3-1.5-.9-2-.2-.2-.4-.3-.6-.5-.5-.2-1-.3-1.6-.3h0c-2.1,0-4.1,1.6-4.6,3.6l-5,25.1-15.1-.2Z"/>
</svg>