<?xml version="1.0" encoding="UTF-8"?>
<svg id="Layer_1" data-name="Layer 1" xmlns="http://www.w3.org/2000/svg" version="1.1" viewBox="0 0 240 240">
  <defs>
    <style>
      .cls-1 {
        fill: #64523e;
        stroke-width: 0px;
      }
    </style>
  </defs>
  <path class="cls-1" d="M175.4,52.7c2.8-1.2,7.9-3.3,10.9-4.3v-2.9c-5.9,2.2-16.3,6.5-23.3,10.3.1.3,1.4,1.9,1.5,2.2,3-1.2,5.7-2.1,8.1-2.1s6.2,0,10.8-1.1v-2.2c-2.6.4-5.4,1-7.2,1s-1.4,0-1.4-.4.1-.4.6-.6"/>
  <path class="cls-1" d="M106.3,81.2c2.1-1,5.4-1.4,7-1.4s3,.1,4.4.4c1.7.3,3.4.4,5.5.4,4.4,0,8.8-2.3,9.5-2.8-.6-.4-1.2-1.1-1.7-1.7-1.4.6-4.7,1.8-7.9,1.8s-2.9,0-4.4-.4c-1.8-.3-3.6-.4-5.1-.4-2.5,0-5.5.3-8.5,2.3l1.4,1.8h-.3Z"/>
  <path class="cls-1" d="M106.6,58.2c-.4-.3-1-.4-1.4-.4-1,0-1.4.6-1.5,1.2v.8c0,.8.4,1.4,1,1.4s2.6-1.2,2.6-2.2-.1-.6-.6-.8"/>
  <path class="cls-1" d="M142.9,84.8c-.7-.4-1.7-1-2.1-1.4-2.5,1.1-4.8,3.2-6.9,5.4-4.7,5-4.3,7.9-9.2,9.8-1.2.4-2.8,1-4.7,1.4-1.1-3.6-4.1-7.2-7.2-7.2s-4.7,1.1-7.4,2.3c-3.3,1.4-6.5,3.2-7.4,3.7l1.4,1.8c1-.6,3.9-1.9,6.8-3.2,2.5-1.1,4.7-1.9,6.2-1.9,2.5,0,4,2.8,5,5-3.2.8-8.4,1-10.1,1s-1,0-1.2.4c-.3.3-.4.6-.6,1.1v.8c-.1,0,1.5,0,1.5,0,8.8,0,17.2-1.4,22.6-4.7.8.3,1.4.4,2.3.4,3,0,6.2-1.7,8.3-3.3.7-.6,1-1,1-1.5v-1.7c-2.9,2.3-5.4,4-8.3,4s-1,0-1.2,0c2.8-4.7,5.4-8.8,11.6-12.1"/>
  <path class="cls-1" d="M171,89.3l1.1.8c.1,0,.3.1.4.1.3,0,.4-.3.4-.4s0-.3-.1-.4c-3.4-3.2-7.2-7-10.8-10.8-2.8-2.9-5.5-6.1-8-9.1-.1-.3-.3-.3-.4-.3-.3,0-.4.1-.4.4,0,.4.3.7.8,1.8,1.8,3,4,6.1,6.8,9,2.9,3.2,6.5,6.1,10.2,8.8"/>
  <path class="cls-1" d="M102.2,79.3l-1.4-1.8c-5.2,2.1-11.2,5.4-11.2,8.7s1.4,3.4,4.7,3.4c4.7,0,9.7-2.3,13.7-4.6l-.6-.8c-.4-.4-.6-.6-1.1-.6s-.6,0-.8.3c-3.4,1.7-7.2,3.3-10.6,3.3s-2.5-.6-2.5-1.4c0-2.3,6.5-5.2,9.8-6.5"/>
  <path class="cls-1" d="M124.1,90.2c-2.1,0-1.8-3.4-1.9-6.2-7,.7-11.6,2.8-16.4,5.4l.6,2.2c4.4-2.6,8.7-4.1,13.2-4.7,0,2.6,1.1,6.1,4.1,6.1s7-5,11.6-10.8l1.2-1.5c-.6-.4-1.4-1-1.8-1.4-4.7,6.1-8.7,10.8-10.5,10.8"/>
  <polygon class="cls-1" points="124.7 66 114.6 66 113.5 68.2 125.6 68.2 124.7 66"/>
  <path class="cls-1" d="M114.5,48.2c2.5-.6,4.3-1,6.6-1s3.6.4,4.3,1.8c1.2,2.5,1.2,9.9,3.3,15.6,1.9,5.2,6.6,10.5,12,14.3h.3c.3,0,.4-.1.4-.4s0-.3-.1-.4c-4.4-4.4-8.1-9.4-10.1-14.8-1.9-5.2-1.7-12.7-3.3-16-1.1-2.2-3.4-2.8-5.7-2.8s-3.3.4-4.1.6l1.9-3.3h-3.3c.7-1.2,1.4-2.3,1.8-3,.3-.6.4-1.2.8-2.3,1.2-3.2,4-5.1,7.4-5.1s7,2.9,9.7,5.8c1.2,1.4,3.2,4.1,5.4,6.2,1.5,1.4,4.6,3,9,7.7,2.6,2.8,5.7,6.2,8.8,10.9,11.4,16.7,19,31.6,23.2,43h0c-12-8.1-22.5-15.9-30.7-25.4-5.9-6.8-11.2-14.6-15.6-24.5-.3-.7-.6-1.2-.8-1.9,0-.3-.3-.4-.4-.4s-.4.1-.4.4,0,.8.4,1.9c2.3,10.3,9,19.6,16.1,27.3,7,7.7,15,14.2,21.6,19l5.1,14.6c0,.4.3.7.3,1.1s0,.4-.3.6c0,0-.4.3-.8.3h-1.5c-.7,0-1,0-1.1-.3s-.4-.4-.6-.8c-.4-1.4-3.2-9.1-3.7-10.6,0-.3-.3-.4-.4-.4s-.4.1-.4.4,0,.4.1,1.1c.7,3.4,1.5,7.4,1.8,9,0,.7.3,1.4.3,1.8s0,.7-.4,1l-1.5,1.7c-.4.4-.6.4-1,.4s-.7-.3-.8-1c-1.8-8.4-4.6-18.9-5.2-21.8-.1-.7-.3-1-.7-1s-.4.3-.4.6v.7c.4,3,2.2,13.9,4,23.7.4,1.7,1,2.6,2.5,2.6s1.4-.3,1.9-.8l2.3-2.3c.8-.8,1.4-1.1,2.8-1.1h3.4c.8,0,1.2-.3,1.7-.6.4-.4.6-.8.6-1.5s-.1-1.4-.4-2.1c-1-2.3-3.7-10.6-4.7-13h0c2.9,2.2,7.3,5.1,9.2,5.1s1-.3,1-1.2c0-4.4-7.3-22.3-23.9-47-8.8-13.1-16.5-17.6-18.8-19.7-2.3-2.3-4.1-5-5.4-6.2-2.6-2.8-5.9-6.3-11.4-6.3s-8.8,3.4-9.9,6.5c-.4.8-.6,1.9-.8,2.3-.6.8-2.9,4.8-3.9,6.5h4.4l-2.1,4,.3.7Z"/>
  <path class="cls-1" d="M163.7,41.5h.4v.6c0,2.8,1.4,4.7,4.7,4.7s5.4-1,8.4-2.1c2.6-1,5-1.8,6.1-2.1v-2.8c-1.4.4-4,1.4-6.9,2.3-2.9,1-5.8,1.9-7.4,1.9s-2.3-1-2.3-2.5c0-3,1.8-7.3,3-9.8h-2.9c-1.5,2.9-7.4,12.1-10.6,16l1.8,1.9c1.8-1.9,3.6-5.1,5.7-8.4"/>
  <path class="cls-1" d="M183.8,131.7h-1.4l-18.9,1.8c-.6,0-.8.3-1,.4-.3.3-.3.6-.3,1v1.2c0,.4,0,.7.3,1s.6.4,1,.4h20.4c.4,0,1,0,1.1-.4.3-.3.4-.7.4-1.2v-2.2c0-.8-.1-1.2-.4-1.5s-.7-.4-1.1-.4"/>
  <path class="cls-1" d="M76.4,114.7c-1.5,1-3.6,1.4-5.2,1.4s-1.1,0-1.4.4c-.3.3-.4.7-.4,1.4v.8h.6c3.2,0,6.1-.4,9.4-3l10.5-8.3c1.5,1.7,5.2,4.1,9.8,4.1s4.1-.6,6.5-1.2c1.8-.4,3.6-.8,7.4-.8h11.2c5.7,0,8.4-1.2,11.4-2.9,6.6-3.7,12.1-9.9,15.3-17.2-.8-.6-1.7-1-2.3-1.4-3.6,7.4-9,13-14.5,16.1-2.6,1.5-5,2.5-10.2,2.5h-11c-4,0-6.5.6-8.4,1-2.1.6-3.4,1.1-5.5,1.1-3.2,0-6.1-1.5-7.4-3l2.6-2.1-1.4-1.8c-.8.6-10.1,7.4-12,9h0v-1.4c0-5.2-2.3-6.5-6.1-7.9l-2.5,1.4c5.1,1.7,6.3,3,6.3,6.8s-1,4.1-2.6,5.1"/>
  <path class="cls-1" d="M74.3,88.1v1c.3.4.4.8.8,1,.4.3,1,.3,2.1.3,2.8,0,4.7-.4,5.8-.6,2.9,4.3,6.9,6.1,10.8,6.1s6.6-1.2,9.8-2.9l-.6-2.2c-3.2,1.8-6.3,2.9-9.2,2.9s-6.1-1.4-8.4-5c-1-1.5-1.8-3.4-2.8-5.1-1.1-1.9-2.3-3-4.6-3s-3.9.8-5.9,1.7v.4c.3.7.6,1.2,1.2,1.2s.6,0,.8-.1c1.1-.4,1.9-.7,3.2-.7,1.8,0,2.6,1,3.9,3.6l.4,1c-1.2.4-4.1.7-6.3.7h-1.1.1Z"/>
  <path class="cls-1" d="M124,35.8c-1.5,0-1.9,1.5-1.9,2.3s.3,1.4,1.1,1.4,1.5-.4,2.2-1,1.1-1,1.1-1.4-.4-.8-1-1c-.4-.3-1-.4-1.4-.4"/>
  <path class="cls-1" d="M157.8,166.8c.3-.4.4-.8.4-1.4v-31c0-.6-.1-1.1-.4-1.4-.4-.4-.8-.7-1.5-.7h-2.8c-.7,0-1.2.3-1.5.7s-.4.8-.4,1.4v31c0,.6.1,1.1.4,1.4.4.4.8.7,1.5.7h2.8c.7,0,1.2-.3,1.5-.7"/>
  <path class="cls-1" d="M54.2,167.5h2.2c1,0,1.4-.3,1.8-.8.4-.4.6-.8.6-1.7v-22.1h0s12.3,21.6,12.7,22.5c.7,1.1,1.8,1.9,3.4,1.9h3.7c1,0,1.4-.3,1.8-.8.4-.4.6-.8.6-1.7v-27.6h49.5c.4,0,1,0,1.1-.4.3-.3.4-.7.4-1.2v-2.1c0-.6,0-1-.4-1.2-.3-.3-.7-.4-1.1-.4h-54.1c-1,0-1.4.3-1.8.8-.4.4-.6.8-.6,1.7v21.5h0s-11.7-21-12.4-21.9c-.4-.7-.8-1.1-1.4-1.5s-1.2-.6-2.3-.6h-3.9c-1,0-1.4.3-1.8.8-.4.4-.6.8-.6,1.7v30.5c0,.8.1,1.2.6,1.7.4.6,1,.8,1.8.8"/>
  <path class="cls-1" d="M90.6,151.5c.3-2.9,2.5-5.1,5.9-5.1s5.7,2.2,5.9,5.1h-11.9ZM108.7,156.1c.4-.4.6-1,.6-1.9,0-3.2-1-6.3-3-8.8s-5.2-4.1-9.8-4.1c-8.3,0-12.8,6.5-12.8,13.2s5,13.5,13,13.5,7.9-1.5,10.1-4.1c1-1.1,1.8-2.8,1.8-3.7s0-.6-.3-.8c-.1-.3-.4-.4-1-.4h-3.9c-.8,0-1.2.3-1.7.8-1.1,1.7-2.8,2.5-5.1,2.5-3.6,0-5.9-2.8-6.1-5.7h16.5c.7,0,1.2,0,1.5-.4"/>
  <path class="cls-1" d="M65.5,39.6c-1.4-1-2.8-1.8-4.6-2.6h-.3c-.3,0-.4.1-.4.4s0,.3.3.4c2.1,1.8,6.1,5.1,7.3,6.1l1-1.1c-1.1-1.2-2.2-2.3-3.3-3.2"/>
  <path class="cls-1" d="M52.7,111.1c1.8,0,1.9-1.1,1.9-2.1v-2.3c0-1.9,0-3.7,3.3-5.1,1.2-.6,7.6-3.2,12.3-5.1,1.4-.6,2.6-1.1,4.1-1.1s3.4.7,5.7,2.1c1.9,1.1,4,2.8,5.5,4.4l2.1-1.5c-1.8-2.1-4.1-3.9-6.5-5.2s-4.6-2.3-6.3-2.3-1.4,0-1.9.3c-.7.1-1.2.4-1.9.4s-1.7-.3-2.8-1.4-2.9-3.3-3.4-4.1-.7-1.2-.7-2.2,0-1,.3-1.4c2.2,1.7,5,2.8,8.3,3.2l-.4-2.3c-4.7-1.2-9.8-5.5-9.8-8.1s0-1,.4-1.4c1.8,1.7,6.2,3.4,8.5,3.4s2.3-.4,3.3-.8,1.9-.8,3.2-.8c3,0,6.8,1.4,10.1,2.9h.6c.6,0,1-.3,1.2-.7l.4-.8c-3.6-2.1-9.4-4.4-12.4-4.4s-2.3.4-3.3.7c-1.1.4-1.9,1-2.9,1-2.3,0-8.5-2.3-8.5-4.7s9.8-3.7,10.8-3.7l1-2.2c-7,0-15.6,2.5-15.6,5.8s.6,1.4.6,2.3-.6,1.9-.6,3.3.6,1.9,1.1,2.9c.7,1,1.4,1.7,1.4,2.5s-.4,1.4-.4,2.9c0,3.2,1.8,5.1,5.4,9l.7.8c-2.9,1.1-8.4,3.4-9.7,4.1-4.4,1.8-5.5,4.1-5.5,7.7v4.3s.7,0,.7,0Z"/>
  <path class="cls-1" d="M173.5,146.4c3.3,0,5.7,2.2,5.9,5.1h-11.9c.3-2.9,2.5-5.1,5.9-5.1M185.1,159.4c-.1-.3-.4-.4-1-.4h-3.9c-.8,0-1.2.3-1.7.8-1.1,1.7-2.8,2.5-5.1,2.5-3.6,0-5.9-2.8-6.1-5.7h16.5c.7,0,1.2-.1,1.7-.6s.6-1,.6-1.9c0-3.2-1-6.3-3-8.8s-5.2-4.1-9.8-4.1c-8.3,0-12.8,6.5-12.8,13.2s5,13.5,13,13.5,7.9-1.5,10.1-4.1c1-1.1,1.8-2.8,1.8-3.7s0-.6-.3-.7"/>
  <path class="cls-1" d="M106.3,53.3c-.7-.1-1.4-.3-2.5-.3-1.8,0-3.9.7-5.2,2.1-2.5,2.3-2.6,5-2.8,7.3-.3,3-.8,3.9-2.5,6.1-1.4,1.8-3.2,4.1-4.7,6.8.4.3,1.9,1,2.5,1.4,1.7-2.5,3.9-5.5,5.4-7.9,1.4-2.1,1.9-3,1.9-5.8v-1.4c0-1.4.4-2.9,1.8-4.3,1-1,2.5-1.5,4-1.5s2.3.4,3.4.4,1.5-.3,2.1-.4h.4c0-.1-1.1,2.3-1.1,2.3l2.6,1c-1.7,1-5.2,5.4-5.2,10.6s.3,3.6.7,5.1c0,.1,0,.4.4.4s.4,0,.4-.4v-.6c0-1.5.1-4.1.8-6.3,1.1-3.7,4-7.3,6.8-9.1l-4.1-1.8,1.8-4.3-1.9.4c-1.1.3-2.1.4-3,.4s-1.4,0-2.2-.4"/>
  <path class="cls-1" d="M126.6,152.3l-5.4-1.4c-2.2-.6-3.3-1-3.3-2.3s1.2-2.3,4-2.3,3,.4,4,1.4c.8.8.7,1.2,1.2,1.5s.8.1,1.4.1h2.8c.4,0,.7,0,1-.4.1-.3.3-.6.3-1.1,0-1.2-.8-2.8-2.2-4-1.9-1.7-4.8-2.8-8.4-2.8-6.5,0-10.8,3-10.8,8s.7,3.2,1.7,4.3c1.2,1.4,2.9,2.2,5.5,2.8l5.4,1.4c1.5.4,2.8.8,2.8,2.2,0,2.1-2.2,2.8-4.4,2.8s-2.3-.3-3.3-.7c-.7-.4-1.2-.8-1.7-1.4-.4-.6-.4-1-1-1.2-.4-.1-.7-.3-1.2-.3h-2.9c-.7,0-1,.1-1.1.4-.3.3-.3.7-.3,1,0,1,.4,2.2,1.1,3.2,1.8,2.3,5.5,4.4,10.3,4.4s11.3-1.9,11.3-8.4-.4-3-1.4-4.1c-1.2-1.4-2.8-2.5-5.5-3.2"/>
  <path class="cls-1" d="M139.1,165.2c1.4,1.4,3.3,2.3,6.5,2.3h2.1c.4,0,1,0,1.1-.4.3-.3.4-.7.4-1.2v-2.1c0-.6-.1-1-.4-1.2s-.7-.4-1.1-.4h-.3c-1.2,0-2.2-.4-2.8-1-.7-.7-1.1-1.7-1.1-3v-11.3h4.3c.4,0,1,0,1.1-.4.3-.3.4-.7.4-1.2v-1.7c0-.6,0-1-.4-1.2-.3-.3-.7-.4-1.1-.4h-4.3v-7.7c0-.6-.1-1.1-.4-1.4-.4-.4-.8-.7-1.5-.7h-2.8c-.7,0-1.2.3-1.5.7s-.4.8-.4,1.4v7.7h-1.4c-.4,0-1,0-1.1.4-.3.3-.4.7-.4,1.2v1.7c0,.6,0,1,.4,1.2.3.3.7.4,1.1.4h1.4v11.9c0,3,.8,5,2.3,6.5"/>
  <path class="cls-1" d="M83.4,57.6c-3.3,4-5.1,7.2-8,14.3h3.2l.4-.8c1.7-3.4,3.9-8.3,6.9-11.9l1.1-1.2c3.2-3.7,5.1-5.9,6.3-11,.4-1.8.8-3.4,1.9-4.6,1.1-1,2.5-1.5,3.9-1.5s2.1.3,3.3.8c1.1.4,1.5.6,2.8.6s.7,0,1,0l-1.7,2.2,2.2,1.5c-2.8.8-4.3,3.6-4.8,4.8v.6c0,.1,0,.4.4.4s.6-.3,1-.7c1.4-1.7,2.5-2.8,7.6-4.4l-3.6-2.8,2.8-4h-2.5c-1.7,0-2.8,0-4.1-.7-1.9-1-2.9-1.2-4.6-1.2s-4,.7-5.5,2.2c-1.8,1.7-2.3,3.9-2.9,6.2-.4,1.8-1.1,3.9-2.3,5.8-1.1,1.8-1.9,2.5-4.6,5.5"/>
  <path class="cls-1" d="M72.5,49.1c1.2,1.8,3.3,5.4,5.4,10.1.4-.6,1.4-2.1,1.8-2.5-1.8-3.7-4.8-7.2-6.1-8.7l-1.1,1.1Z"/>
  <path class="cls-1" d="M100.5,45.9c.7-.4,1.2-1,1.2-1.5s0-.6-.4-.8c-.4-.4-1.1-.7-1.5-.7-1.2,0-1.8,1.1-1.8,2.2s.4,1.2,1.1,1.2.8-.3,1.4-.4"/>
  <path class="cls-1" d="M60.3,56.4c0,.1,0,.4.4.4s.3,0,.6-.1l8.7-2.9-.4-1.4c-3.6.6-6.1,1.5-9,3.7-.1.1-.3.3-.3.4"/>
  <path class="cls-1" d="M62.9,48.7c-5.8,0-8.3,2.8-8.3,4.7-1.8.7-2.8,2.6-2.8,4.4,0,3.6,2.6,6.1,6.1,6.1s2.3-.4,3.2-1.1c.6.3,1.4.4,2.2.4,1.7,0,3.4-.6,4.7-2.5h.6c2.1,0,3.9-1.4,4.8-3.2.3-.4.4-.8.4-1.1s0-.4-.4-.4-.4.3-1,.8c-1.4,1.2-3.3,1.7-5.5,1.7-1,1.5-2.3,2.3-3.7,2.3s-1.9-.3-2.8-.8c-.7.8-1.5,1.1-2.3,1.1-1.8,0-3.2-1.4-3.2-3.2s.8-2.5,2.1-2.9c.3-2.3,2.8-4,5.9-4s.8,0,1.2,0c.4-.8,1.7-1.5,3.3-1.8.4,0,.6,0,.8-.1s.3-.3.3-.4,0-.4-.3-.4-.4,0-.8-.3c-1.5-.3-3.3-1.2-4.1-3.4-3.6,0-6.2-2.9-6.2-6.1v-.3c-1.2-.4-1.9-1.7-1.9-2.9s1.4-3.2,3.2-3.2,1.9.6,2.6,1.4c.4,0,1.1-.1,1.7-.1,2.6,0,5.5,1.7,6.1,5,3.4.3,4.1,3.2,4.4,4.4,0,.6.3,1.1.6,1.1s.6-.4.7-1.1c.3-1.2.7-2.2,1.7-2.9,0-3.2,2.3-5.8,5.7-5.8.4-1.1,1.5-1.8,2.9-1.8s3.2,1.4,3.2,3.2-.4,1.9-1.2,2.6c.1.6.3,1.1.3,1.7,0,1.9-1.2,3.3-3.3,4.1-.3,1.2-.8,2.3-1.7,3.2-1.4,1.4-2.9,1.4-2.9,1.9s.3.4.8.4c2.6,0,5.2-1.4,5.5-3.9,2.5-.8,4-3.3,4-5.4s0-1-.3-1.4c.7-.7,1.5-1.8,1.5-3.4s-.7-2.9-1.8-4.1c-1-1-2.3-1.7-4-1.7-2.3,0-3.9,1.2-4.8,2.5-2.6,0-5.9,2.9-5.9,7h-.7c-.3-1.4-1.7-2.3-2.9-2.5-1-3-3.3-5.5-7-5.5s-1,0-1.4,0c-1.1-1-2.3-1.7-4-1.7-3.3,0-5.9,2.6-5.9,5.9s1,3.4,2.8,4.7v.4c0,2.6,2.8,6.6,7,6.6,0,.7.8,1.5,1.8,1.8v.4h-.4l-.3-.6Z"/>
  <path class="cls-1" d="M82.6,37.2c0-.1-.1-.4-.4-.4s-.4,0-.6.3c-1,.8-1.7,1.5-2.6,2.5-1.2,1.4-2.2,3.2-3,5.1l1.2.8c1-1.4,3.7-5.8,5.1-8,.1,0,.1-.3.1-.4"/>
  <path class="cls-1" d="M7.5,193.4c1-.7,2.2-1,3.6-1,2.3,0,4.1,1,5.4,3l1.2-1c-.8-1.1-1.7-2.1-2.8-2.6s-2.3-1-3.7-1-3.2.4-4.6,1.2-2.3,1.9-3,3.4c-.7,1.4-1.1,3.2-1.1,5s.4,3.4,1.1,5c.8,1.4,1.8,2.6,3.3,3.4,1.4.8,2.9,1.2,4.7,1.2s4.1-.6,6.1-1.7v-8h-6.6v1.4h5.1v5.8c-1.2.7-2.8,1.1-4.3,1.1s-2.8-.4-3.9-1c-1.1-.7-1.9-1.7-2.6-2.9s-1-2.8-1-4.3.3-3,.8-4.1c.6-1.2,1.4-2.2,2.3-2.8"/>
  <path class="cls-1" d="M31,206.3c-.4.8-1,1.5-1.5,1.9-.7.4-1.4.7-2.3.7s-1.7-.3-2.3-.7-1.2-1.1-1.5-1.9c-.4-.8-.6-1.8-.6-2.9s.1-1.9.6-2.8,1-1.4,1.5-1.9c.7-.4,1.4-.7,2.3-.7s1.7.3,2.3.7,1.2,1.1,1.5,1.9c.4.8.6,1.8.6,2.8s0,1.9-.6,2.8M30.4,197.4c-1-.6-1.9-.8-3.2-.8s-2.3.3-3.2.8-1.7,1.4-2.2,2.3-.8,2.2-.8,3.6.3,2.5.8,3.6c.4,1,1.2,1.8,2.2,2.3s1.9.8,3.2.8,2.3-.3,3.2-.8c1-.6,1.7-1.4,2.2-2.3.4-1,.8-2.2.8-3.6s-.3-2.5-.8-3.6-1.2-1.8-2.2-2.3"/>
  <path class="cls-1" d="M45.5,206.3c-.4.8-1,1.5-1.5,1.9-.7.4-1.4.7-2.3.7s-1.7-.3-2.3-.7-1.2-1.1-1.5-1.9c-.4-.8-.6-1.8-.6-2.9s.1-1.9.6-2.8,1-1.4,1.5-1.9c.7-.4,1.4-.7,2.3-.7s1.7.3,2.3.7c.7.4,1.2,1.1,1.5,1.9.4.8.6,1.8.6,2.8s-.1,1.9-.6,2.8M44.8,197.4c-1-.6-1.9-.8-3.2-.8s-2.3.3-3.2.8c-1,.6-1.7,1.4-2.2,2.3s-.8,2.2-.8,3.6.3,2.5.8,3.6c.4,1,1.2,1.8,2.2,2.3s1.9.8,3.2.8,2.3-.3,3.2-.8c1-.6,1.7-1.4,2.2-2.3.4-1,.8-2.2.8-3.6s-.3-2.5-.8-3.6-1.2-1.8-2.2-2.3"/>
  <path class="cls-1" d="M59.9,206.3c-.4.8-1,1.4-1.5,1.9-.7.4-1.4.7-2.3.7-1.4,0-2.3-.4-3.2-1.5-.8-1-1.1-2.3-1.1-4s.4-3,1.2-4,1.8-1.4,3.2-1.4,1.7.3,2.3.7,1.1,1.1,1.5,1.9.6,1.8.6,2.8-.1,2.1-.6,2.8M60.4,199.4c-.4-.8-1.1-1.5-1.8-1.9-.8-.4-1.8-.7-2.8-.7s-2.1.3-2.9.8-1.5,1.4-1.9,2.3c-.4,1-.7,2.2-.7,3.6s.3,2.5.7,3.6c.4,1,1.1,1.8,2.1,2.3s1.8.8,3,.8,1.9-.3,2.8-.7,1.4-1.1,1.8-1.9v2.5h1.5v-18.6h-1.5v8h-.3Z"/>
  <path class="cls-1" d="M74.6,191.9c-.7.7-1,1.5-1,2.8v2.2h-2.2v1.4h2.2v11.6h1.5v-11.6h3.3v-1.4h-3.3v-2.1c0-.8.3-1.4.6-1.8.4-.4,1-.7,1.8-.7s1,0,1.4.3v-1.4c-.4-.1-1-.3-1.7-.3-1.1,0-2.1.4-2.8,1"/>
  <path class="cls-1" d="M90.2,206.3c-.4.8-1,1.5-1.5,1.9-.7.4-1.4.7-2.3.7s-1.7-.3-2.3-.7-1.2-1.1-1.5-1.9c-.4-.8-.6-1.8-.6-2.9s.1-1.9.6-2.8c.4-.8,1-1.4,1.5-1.9.7-.4,1.4-.7,2.3-.7s1.7.3,2.3.7,1.2,1.1,1.5,1.9c.4.8.6,1.8.6,2.8s-.1,1.9-.6,2.8M89.5,197.4c-1-.6-1.9-.8-3.2-.8s-2.3.3-3.2.8-1.7,1.4-2.2,2.3c-.6,1-.8,2.2-.8,3.6s.3,2.5.8,3.6c.4,1,1.2,1.8,2.2,2.3,1,.6,1.9.8,3.2.8s2.3-.3,3.2-.8c1-.6,1.7-1.4,2.2-2.3.4-1,.8-2.2.8-3.6s-.3-2.5-.8-3.6-1.2-1.8-2.2-2.3"/>
  <path class="cls-1" d="M104.7,206.3c-.4.8-1,1.5-1.5,1.9-.7.4-1.4.7-2.3.7s-1.7-.3-2.3-.7-1.2-1.1-1.5-1.9c-.4-.8-.6-1.8-.6-2.9s.1-1.9.6-2.8,1-1.4,1.5-1.9c.7-.4,1.4-.7,2.3-.7s1.7.3,2.3.7,1.2,1.1,1.5,1.9c.4.8.6,1.8.6,2.8s-.1,1.9-.6,2.8M104,197.4c-1-.6-1.9-.8-3.2-.8s-2.3.3-3.2.8-1.7,1.4-2.2,2.3-.8,2.2-.8,3.6.3,2.5.8,3.6c.4,1,1.2,1.8,2.2,2.3s1.9.8,3.2.8,2.3-.3,3.2-.8c1-.6,1.7-1.4,2.2-2.3.4-1,.8-2.2.8-3.6s-.3-2.5-.8-3.6-1.2-1.8-2.2-2.3"/>
  <path class="cls-1" d="M119,206.3c-.4.8-1,1.4-1.5,1.9-.7.4-1.4.7-2.3.7-1.4,0-2.3-.4-3.2-1.5-.8-1-1.1-2.3-1.1-4s.4-3,1.2-4,1.8-1.4,3.2-1.4,1.7.3,2.3.7,1.1,1.1,1.5,1.9c.4.8.6,1.8.6,2.8s-.1,2.1-.6,2.8M119.6,199.4c-.4-.8-1.1-1.5-1.8-1.9-.8-.4-1.8-.7-2.8-.7s-2.1.3-2.9.8-1.5,1.4-1.9,2.3-.7,2.2-.7,3.6.3,2.5.7,3.6c.4,1,1.1,1.8,2.1,2.3s1.8.8,3,.8,1.9-.3,2.8-.7,1.4-1.1,1.8-1.9v2.5h1.5v-18.6h-1.5v8h-.3Z"/>
  <polygon class="cls-1" points="124.1 213 125.5 213 127.4 207.4 125.4 207.4 124.1 213"/>
  <path class="cls-1" d="M141.9,193.4c1-.7,2.2-1,3.6-1,2.3,0,4.1,1,5.4,3l1.2-1c-.8-1.1-1.7-2.1-2.8-2.6s-2.3-1-3.7-1-3.2.4-4.6,1.2-2.3,1.9-3,3.4-1.1,3.2-1.1,5,.4,3.4,1.1,5c.8,1.4,1.8,2.6,3.3,3.4,1.4.8,2.9,1.2,4.7,1.2s4.1-.6,6.1-1.7v-8h-6.8v1.4h5.1v5.8c-1.2.7-2.8,1.1-4.3,1.1s-2.8-.4-3.9-1c-1.1-.7-1.9-1.7-2.6-2.9-.7-1.2-1-2.8-1-4.3s.3-3,.8-4.1c.6-1.2,1.4-2.2,2.5-2.8"/>
  <path class="cls-1" d="M165.5,206.3c-.4.8-1,1.5-1.5,1.9-.7.4-1.4.7-2.3.7s-1.7-.3-2.3-.7-1.2-1.1-1.5-1.9c-.4-.8-.6-1.8-.6-2.9s.1-1.9.6-2.8,1-1.4,1.5-1.9c.7-.4,1.4-.7,2.3-.7s1.7.3,2.3.7,1.2,1.1,1.5,1.9c.4.8.6,1.8.6,2.8s-.1,1.9-.6,2.8M164.8,197.4c-1-.6-1.9-.8-3.2-.8s-2.3.3-3.2.8-1.7,1.4-2.2,2.3-.8,2.2-.8,3.6.3,2.5.8,3.6c.4,1,1.2,1.8,2.2,2.3s1.9.8,3.2.8,2.3-.3,3.2-.8c1-.6,1.7-1.4,2.2-2.3.4-1,.8-2.2.8-3.6s-.3-2.5-.8-3.6-1.2-1.8-2.2-2.3"/>
  <path class="cls-1" d="M180,206.3c-.4.8-1,1.5-1.5,1.9-.7.4-1.4.7-2.3.7s-1.7-.3-2.3-.7-1.2-1.1-1.5-1.9c-.4-.8-.6-1.8-.6-2.9s.1-1.9.6-2.8,1-1.4,1.5-1.9c.7-.4,1.4-.7,2.3-.7s1.7.3,2.3.7,1.2,1.1,1.5,1.9c.4.8.6,1.8.6,2.8s-.1,1.9-.6,2.8M179.3,197.4c-1-.6-1.9-.8-3.2-.8s-2.3.3-3.2.8-1.7,1.4-2.2,2.3-.8,2.2-.8,3.6.3,2.5.8,3.6c.4,1,1.2,1.8,2.2,2.3s1.9.8,3.2.8,2.3-.3,3.2-.8c1-.6,1.7-1.4,2.2-2.3.4-1,.8-2.2.8-3.6s-.3-2.5-.8-3.6c-.6-1-1.2-1.8-2.2-2.3"/>
  <path class="cls-1" d="M194.3,206.3c-.4.8-1,1.4-1.5,1.9-.7.4-1.4.7-2.3.7-1.4,0-2.3-.4-3.2-1.5-.8-1-1.1-2.3-1.1-4s.4-3,1.2-4,1.8-1.4,3.2-1.4,1.7.3,2.3.7,1.1,1.1,1.5,1.9.6,1.8.6,2.8-.1,2.1-.6,2.8M194.9,199.4c-.4-.8-1.1-1.5-1.8-1.9-.8-.4-1.8-.7-2.8-.7s-2.1.3-2.9.8-1.5,1.4-1.9,2.3c-.4,1-.7,2.2-.7,3.6s.3,2.5.7,3.6c.4,1,1.1,1.8,2.1,2.3s1.8.8,3,.8,1.9-.3,2.8-.7,1.4-1.1,1.8-1.9v2.5h1.5v-18.6h-1.5v8h-.3Z"/>
  <polygon class="cls-1" points="207.5 200.6 207.5 209.8 209.1 209.8 209.1 200.6 209.1 191.2 207.5 191.2 207.5 200.6"/>
  <path class="cls-1" d="M214,192.1c-.3,0-.6,0-.8.3s-.3.4-.3.8,0,.6.3.8.4.3.8.3.6,0,.8-.3c.3-.3.4-.4.4-.8s0-.6-.4-.8c-.1-.3-.4-.3-.8-.3"/>
  <polygon class="cls-1" points="213.2 203.4 213.2 209.8 214.9 209.8 214.9 203.4 214.9 196.9 213.2 196.9 213.2 203.4"/>
  <path class="cls-1" d="M220.5,191.9c-.7.7-1,1.5-1,2.8v2.2h-2.2v1.4h2.2v11.6h1.5v-11.6h3.3v-1.4h-3.3v-2.1c0-.8.1-1.4.6-1.8s1-.7,1.8-.7,1,0,1.4.3v-1.4c-.4-.1-1-.3-1.7-.3-1.1,0-2.1.4-2.8,1"/>
  <path class="cls-1" d="M226.7,202.1c.1-1.4.6-2.3,1.4-3.2s1.7-1.1,2.9-1.1,2.2.4,2.8,1.1c.7.7,1,1.8,1.1,3.2h-8.1ZM236.5,202.8c0-1.9-.4-3.4-1.5-4.6-1-1.1-2.3-1.7-4-1.7s-2.2.3-3.2.8-1.7,1.4-2.1,2.3-.7,2.2-.7,3.6.3,2.5.8,3.6c.6,1,1.2,1.8,2.2,2.3,1,.6,2.1.8,3.3.8s2.1-.3,2.9-.7,1.7-1.1,2.2-1.8l-1.1-1c-.6.7-1.1,1.2-1.8,1.5-.7.4-1.4.6-2.3.6-1.4,0-2.5-.4-3.3-1.4s-1.2-2.2-1.2-3.9h9.8v-.6"/>
</svg>