<?xml version="1.0" encoding="utf-8"?>
<!-- Generator: Adobe Illustrator 26.3.1, SVG Export Plug-In . SVG Version: 6.00 Build 0)  -->
<svg version="1.1" id="Layer_1" xmlns="http://www.w3.org/2000/svg" xmlns:xlink="http://www.w3.org/1999/xlink" x="0px" y="0px"
	 viewBox="0 0 200 200" style="enable-background:new 0 0 200 200;" xml:space="preserve">
<style type="text/css">
	.st0{clip-path:url(#SVGID_00000153666177642876059170000009560759347097827731_);enable-background:new    ;}
	.st1{clip-path:url(#SVGID_00000016053998156564496040000000399081912702219919_);}
	
		.st2{clip-path:url(#SVGID_00000159468659157199701760000007600233196596083353_);fill:url(#SVGID_00000086671685491115238500000011802097030247114372_);}
	
		.st3{clip-path:url(#SVGID_00000168119004476281255500000003055679938265979028_);fill:url(#SVGID_00000133507787394591626330000012058882411442345657_);}
	.st4{filter:url(#Adobe_OpacityMaskFilter);}
	.st5{clip-path:url(#SVGID_00000112624522860214097070000004057208767063784635_);}
	.st6{enable-background:new    ;}
	.st7{clip-path:url(#SVGID_00000016047483138025646490000000878456514386229390_);}
	
		.st8{clip-path:url(#SVGID_00000112624522860214097070000004057208767063784635_);mask:url(#SVGID_00000066505528752648317320000003975755645602988446_);}
	.st9{clip-path:url(#SVGID_00000131357225655504875600000005901900039198959038_);}
	.st10{filter:url(#Adobe_OpacityMaskFilter_00000001622310383798269120000007095109926142996387_);}
	.st11{clip-path:url(#SVGID_00000018915505261626811470000008201358540802355612_);}
	
		.st12{clip-path:url(#SVGID_00000115512593429927710550000010321242510884146579_);fill:url(#SVGID_00000093879156420900941660000001467451618272374149_);}
	
		.st13{clip-path:url(#SVGID_00000018915505261626811470000008201358540802355612_);fill:url(#SVGID_00000080928514556484079840000018415892299683415440_);}
	
		.st14{clip-path:url(#SVGID_00000112624522860214097070000004057208767063784635_);fill-rule:evenodd;clip-rule:evenodd;fill:#FFFFFF;}
</style>
<g>
	<defs>
		<path id="SVGID_1_" d="M2.2,101.3c0,54.2,43.9,98.1,98.1,98.1c54.2,0,98.1-43.9,98.1-98.1c0-54.2-43.9-98.1-98.1-98.1
			C46.1,3.2,2.2,47.1,2.2,101.3"/>
	</defs>
	<clipPath id="SVGID_00000183957354721662506060000004053904756736002998_">
		<use xlink:href="#SVGID_1_"  style="overflow:visible;"/>
	</clipPath>
	<g style="clip-path:url(#SVGID_00000183957354721662506060000004053904756736002998_);enable-background:new    ;">
		<g>
			<defs>
				<rect id="SVGID_00000047758485251294140850000016081637839398836909_" x="2" y="2.9" width="196.7" height="196.7"/>
			</defs>
			<clipPath id="SVGID_00000177454078975101049390000013434655536752775869_">
				<use xlink:href="#SVGID_00000047758485251294140850000016081637839398836909_"  style="overflow:visible;"/>
			</clipPath>
			<g style="clip-path:url(#SVGID_00000177454078975101049390000013434655536752775869_);">
				<defs>
					<path id="SVGID_00000112595044495646897340000014470266116649552266_" d="M96.5,3.3C96.4,3.3,96.4,3.3,96.5,3.3
						c-39.8,14.8-68.2,53-68.2,98c0,45,28.5,83.3,68.3,98c0,0,0,0,0,0c1.2,0,2.4,0.1,3.7,0.1c54.2,0,98.1-43.9,98.1-98.1
						c0-54.2-43.9-98.1-98.1-98.1C99,3.2,97.7,3.2,96.5,3.3"/>
				</defs>
				<clipPath id="SVGID_00000052081436393899062060000005028503859300024766_">
					<use xlink:href="#SVGID_00000112595044495646897340000014470266116649552266_"  style="overflow:visible;"/>
				</clipPath>
				
					<radialGradient id="SVGID_00000045587074499582782030000009082499634240765871_" cx="-187.5181" cy="479.5875" r="2.3437" gradientTransform="matrix(46.3169 54.1421 54.1421 -46.3169 -17217.6875 32413.6719)" gradientUnits="userSpaceOnUse">
					<stop  offset="0" style="stop-color:#00A5DF"/>
					<stop  offset="3.000000e-02" style="stop-color:#00A5DF"/>
					<stop  offset="0.1969" style="stop-color:#0094D2"/>
					<stop  offset="0.5284" style="stop-color:#0066B0"/>
					<stop  offset="0.63" style="stop-color:#0057A4"/>
					<stop  offset="0.9077" style="stop-color:#0E357F"/>
					<stop  offset="1" style="stop-color:#132971"/>
				</radialGradient>
				
					<polygon style="clip-path:url(#SVGID_00000052081436393899062060000005028503859300024766_);fill:url(#SVGID_00000045587074499582782030000009082499634240765871_);" points="
					126.5,-80.8 295.3,116.5 100.2,283.4 -68.6,86.1 				"/>
			</g>
			<g style="clip-path:url(#SVGID_00000177454078975101049390000013434655536752775869_);">
				<defs>
					<path id="SVGID_00000111886233367488657920000014385474271608707757_" d="M2.2,101.3c0,52.9,41.9,96.1,94.4,98c0,0,0,0,0,0
						c-39.9-14.7-68.3-53.1-68.3-98c0-44.9,28.4-83.2,68.2-98c0,0,0,0,0,0C44.1,5.3,2.2,48.4,2.2,101.3"/>
				</defs>
				<clipPath id="SVGID_00000168836917196139696490000014654526559630066561_">
					<use xlink:href="#SVGID_00000111886233367488657920000014385474271608707757_"  style="overflow:visible;"/>
				</clipPath>
				
					<radialGradient id="SVGID_00000079466423656316705380000010148823195143864461_" cx="-184.7389" cy="477.3795" r="2.3437" gradientTransform="matrix(9.9881 132.8371 132.8371 -9.9881 -61538.4727 29318.541)" gradientUnits="userSpaceOnUse">
					<stop  offset="0" style="stop-color:#F3F3F9"/>
					<stop  offset="2.147590e-02" style="stop-color:#F3F3F9"/>
					<stop  offset="8.162617e-02" style="stop-color:#C1E3F5"/>
					<stop  offset="0.1649" style="stop-color:#80CFF1"/>
					<stop  offset="0.2258" style="stop-color:#58C3EE"/>
					<stop  offset="0.2572" style="stop-color:#49BEED"/>
					<stop  offset="0.4451" style="stop-color:#16A0DB"/>
					<stop  offset="0.5735" style="stop-color:#177CC2"/>
					<stop  offset="0.7325" style="stop-color:#1854A7"/>
					<stop  offset="0.8154" style="stop-color:#19459D"/>
					<stop  offset="1" style="stop-color:#19459D"/>
				</radialGradient>
				
					<polygon style="clip-path:url(#SVGID_00000168836917196139696490000014654526559630066561_);fill:url(#SVGID_00000079466423656316705380000010148823195143864461_);" points="
					96.1,-3.8 111.3,198.2 2.8,206.3 -12.4,4.4 				"/>
			</g>
			<g style="clip-path:url(#SVGID_00000177454078975101049390000013434655536752775869_);">
				<defs>
					<rect id="SVGID_00000134937853286974676060000005151973929466462848_" x="2.2" y="3.2" width="196.2" height="196.2"/>
				</defs>
				<clipPath id="SVGID_00000141414587295616174770000013098330630891376568_">
					<use xlink:href="#SVGID_00000134937853286974676060000005151973929466462848_"  style="overflow:visible;"/>
				</clipPath>
				<defs>
					<filter id="Adobe_OpacityMaskFilter" filterUnits="userSpaceOnUse" x="-75" y="-33.9" width="248.9" height="270.4">
						<feColorMatrix  type="matrix" values="1 0 0 0 0  0 1 0 0 0  0 0 1 0 0  0 0 0 1 0"/>
					</filter>
				</defs>
				
					<mask maskUnits="userSpaceOnUse" x="-75" y="-33.9" width="248.9" height="270.4" id="SVGID_00000114041497238725737720000003455094204325277330_">
					<g class="st4">
						
							<rect x="2.2" y="3.3" style="clip-path:url(#SVGID_00000141414587295616174770000013098330630891376568_);" width="94.4" height="196"/>
						<g class="st6">
							<g>
								<defs>
									<path id="SVGID_00000180349970598503684640000014031425484274321073_" d="M2.2,101.3c0,52.9,41.9,96.1,94.4,98c0,0,0,0,0,0
										c-39.9-14.7-68.3-53.1-68.3-98c0-44.9,28.4-83.2,68.2-98c0,0,0,0,0,0C44.1,5.3,2.2,48.4,2.2,101.3"/>
								</defs>
								
									<clipPath id="SVGID_00000134207996349499552220000008083784532379919763_" style="clip-path:url(#SVGID_00000141414587295616174770000013098330630891376568_);">
									<use xlink:href="#SVGID_00000180349970598503684640000014031425484274321073_"  style="overflow:visible;"/>
								</clipPath>
								<g>
									<g>
										<defs>
											
												<rect id="SVGID_00000083055673188826818720000002501791116978252936_" x="-50" y="51.1" transform="matrix(3.084920e-02 -0.9995 0.9995 3.084920e-02 -53.3232 147.5512)" width="198.8" height="100.4"/>
										</defs>
										
											<clipPath id="SVGID_00000155134772438980566920000010172919144061860031_" style="clip-path:url(#SVGID_00000134207996349499552220000008083784532379919763_);">
											<use xlink:href="#SVGID_00000083055673188826818720000002501791116978252936_"  style="overflow:visible;"/>
										</clipPath>
										<g style="clip-path:url(#SVGID_00000155134772438980566920000010172919144061860031_);">
											
												<image style="overflow:visible;" width="444" height="842" xlink:href="ACA5FE2A7D9B249A.jpg"  transform="matrix(0.24 0 0 0.24 -3.84 0.24)">
											</image>
										</g>
									</g>
								</g>
							</g>
						</g>
					</g>
				</mask>
				
					<g style="clip-path:url(#SVGID_00000141414587295616174770000013098330630891376568_);mask:url(#SVGID_00000114041497238725737720000003455094204325277330_);">
					<g>
						<defs>
							<rect id="SVGID_00000129170382064499052860000007338381647268595867_" x="2.2" y="3.3" width="94.4" height="196"/>
						</defs>
						<clipPath id="SVGID_00000100369098789828806740000005958106075547815296_">
							<use xlink:href="#SVGID_00000129170382064499052860000007338381647268595867_"  style="overflow:visible;"/>
						</clipPath>
						<g style="clip-path:url(#SVGID_00000100369098789828806740000005958106075547815296_);">
							<defs>
								<path id="SVGID_00000155122426403253213550000017306818072887097775_" d="M2.2,101.3c0,52.9,41.9,96.1,94.4,98c0,0,0,0,0,0
									c-39.9-14.7-68.3-53.1-68.3-98c0-44.9,28.4-83.2,68.2-98c0,0,0,0,0,0C44.1,5.3,2.2,48.4,2.2,101.3"/>
							</defs>
							<clipPath id="SVGID_00000072999338330235879020000017046392044954918551_">
								<use xlink:href="#SVGID_00000155122426403253213550000017306818072887097775_"  style="overflow:visible;"/>
							</clipPath>
							<defs>
								
									<filter id="Adobe_OpacityMaskFilter_00000091714288687329113980000014413427657579248796_" filterUnits="userSpaceOnUse" x="-75" y="-33.9" width="248.9" height="270.4">
									<feColorMatrix  type="matrix" values="1 0 0 0 0  0 1 0 0 0  0 0 1 0 0  0 0 0 1 0"/>
								</filter>
							</defs>
							
								<mask maskUnits="userSpaceOnUse" x="-75" y="-33.9" width="248.9" height="270.4" id="SVGID_00000114041497238725737720000003455094204325277330_">
								<g style="filter:url(#Adobe_OpacityMaskFilter_00000091714288687329113980000014413427657579248796_);">
									<g>
										<defs>
											
												<rect id="SVGID_00000152951149838515458880000013298878066316864897_" x="-59.4" y="15.9" transform="matrix(0.4384 -0.8988 0.8988 0.4384 -63.2642 101.302)" width="217.6" height="170.8"/>
										</defs>
										
											<clipPath id="SVGID_00000033361570544564250220000009521256863977521556_" style="clip-path:url(#SVGID_00000072999338330235879020000017046392044954918551_);">
											<use xlink:href="#SVGID_00000152951149838515458880000013298878066316864897_"  style="overflow:visible;"/>
										</clipPath>
										
											<radialGradient id="SVGID_00000146485763771096628240000017597797705390609302_" cx="-185.1764" cy="473.2568" r="2.3437" gradientTransform="matrix(-24.8143 50.8768 50.8768 24.8143 -28591.7188 -2236.1738)" gradientUnits="userSpaceOnUse">
											<stop  offset="0" style="stop-color:#000000"/>
											<stop  offset="0.3186" style="stop-color:#000000"/>
											<stop  offset="0.3254" style="stop-color:#040404"/>
											<stop  offset="0.4566" style="stop-color:#4F4F4F"/>
											<stop  offset="0.5796" style="stop-color:#8E8E8E"/>
											<stop  offset="0.6907" style="stop-color:#BFBFBF"/>
											<stop  offset="0.7877" style="stop-color:#E2E2E2"/>
											<stop  offset="0.8669" style="stop-color:#F7F7F7"/>
											<stop  offset="0.9185" style="stop-color:#FFFFFF"/>
											<stop  offset="1" style="stop-color:#FFFFFF"/>
										</radialGradient>
										
											<polygon style="clip-path:url(#SVGID_00000033361570544564250220000009521256863977521556_);fill:url(#SVGID_00000146485763771096628240000017597797705390609302_);" points="
											280.4,18 126,334.5 -181.5,184.5 -27.2,-132 										"/>
									</g>
								</g>
							</mask>
							
								<radialGradient id="SVGID_00000116197726455803137060000006322611088806951099_" cx="-185.1764" cy="473.2568" r="2.3437" gradientTransform="matrix(-24.8143 50.8768 50.8768 24.8143 -28591.7207 -2236.1746)" gradientUnits="userSpaceOnUse">
								<stop  offset="0" style="stop-color:#49BEED"/>
								<stop  offset="0.3186" style="stop-color:#49BEED"/>
								<stop  offset="0.3589" style="stop-color:#45B4E6"/>
								<stop  offset="0.5255" style="stop-color:#358ECC"/>
								<stop  offset="0.6797" style="stop-color:#2972B9"/>
								<stop  offset="0.8155" style="stop-color:#2262AE"/>
								<stop  offset="0.9185" style="stop-color:#205CAA"/>
								<stop  offset="1" style="stop-color:#205CAA"/>
							</radialGradient>
							
								<polygon style="clip-path:url(#SVGID_00000072999338330235879020000017046392044954918551_);fill:url(#SVGID_00000116197726455803137060000006322611088806951099_);" points="
								173.9,40.9 78.5,236.5 -75,161.6 20.4,-33.9 							"/>
						</g>
					</g>
				</g>
				
					<path style="clip-path:url(#SVGID_00000141414587295616174770000013098330630891376568_);fill-rule:evenodd;clip-rule:evenodd;fill:#FFFFFF;" d="
					M98.7,91.9C105.2,75.9,93,71.5,85,71.5H58.8c2.2,1.5,1.8,3.5,1.4,4.7l-15.3,48.9c-0.6,1.9-2.9,4-4.1,4.3l21.3,0
					c-1.2-0.2-2.8-1.9-2.2-4.1l5.6-17.7C65.3,107.6,90.9,111,98.7,91.9 M78,76c2.8,0,10.5,0.4,5.5,14.9
					c-5.2,15.3-16.8,12.2-16.8,12.2L75.3,76H78z"/>
				
					<path style="clip-path:url(#SVGID_00000141414587295616174770000013098330630891376568_);fill-rule:evenodd;clip-rule:evenodd;fill:#FFFFFF;" d="
					M115.6,129.4l14.3,0c-4.6-1.5-11.3-5.8-14-8.9c2.2-2.4,4.9-5.4,5.4-11.4h-7.4c0,0,1.4,0.8,1.4,2.6c0,1.6-0.6,3.8-1.9,5.4
					c-2.2-3.2-4.5-6.9-5.3-12.3c2.9-1.5,7-3,10.2-5.9c3.1-2.7,3.8-5.2,3.8-6.9v-0.2c0-1.7-0.7-3.4-1.9-4.6c-2.1-2.1-5.5-3-9.1-2.3
					c-2.9,0.5-5.3,2.1-6.5,3.2c-4.3,4-4.9,10.7-4.9,13.7c0,0.7,0,1.3,0.1,1.6c-0.2,0.1-0.7,0.3-0.7,0.3c-3.2,1.2-11.6,3.4-14.6,10.3
					c-0.4,0.9-0.9,2.8-0.9,5c0,1.9,0.4,4,1.6,6c2.1,3.3,5.7,5.4,11.5,5.3c6.3-0.1,12.4-4.4,13.5-5.2
					C111.4,126.1,114.2,128.7,115.6,129.4 M115.6,90.8c-0.7,4.7-6.8,9.4-8.2,10c-0.3-2.6-0.1-6.7,2.1-10.1c1.5-2.2,3.4-3.2,4.9-2.7
					C115.6,88.4,115.8,89.5,115.6,90.8 M107.2,121.9c-0.8,0.5-4.2,2.2-7.3,2.5c-2.9,0.3-7.7-0.8-7.7-6.6c0-4.9,5.4-8.5,8.3-9.8
					C101.8,112.8,104.4,118.2,107.2,121.9"/>
				
					<path style="clip-path:url(#SVGID_00000141414587295616174770000013098330630891376568_);fill-rule:evenodd;clip-rule:evenodd;fill:#FFFFFF;" d="
					M159.1,76.1c8.5-2,15.5,4.6,16.1,5.1l2.4-7.7c-3.4-1-27.7-9.3-45,10.4c-10.6,12.1-13.2,36.9,0.2,43.5
					c14.4,7.1,30.3-1.1,31.4-1.7l6.6-20.9c0.7-2.5,2.3-4.2,5.2-5.2h-22.8c3.3,1.4,3.1,3.9,2.8,4.9l-6.6,20.9
					c-0.9,0.2-19.2,4.8-9-27.4C142.8,91.1,149,78.5,159.1,76.1"/>
			</g>
		</g>
	</g>
</g>
</svg>
