<?xml version="1.0" encoding="utf-8"?>
<!-- Generator: Adobe Illustrator 26.3.1, SVG Export Plug-In . SVG Version: 6.00 Build 0)  -->
<svg version="1.1" id="Layer_1" xmlns="http://www.w3.org/2000/svg" xmlns:xlink="http://www.w3.org/1999/xlink" x="0px" y="0px"
	 viewBox="0 0 300 160" style="enable-background:new 0 0 300 160;" xml:space="preserve">
<style type="text/css">
	.st0{clip-path:url(#SVGID_00000099650204494832591790000012397289627253233031_);fill:#008BD1;}
	.st1{clip-path:url(#SVGID_00000099650204494832591790000012397289627253233031_);fill:#56B046;}
</style>
<g>
	<defs>
		<rect id="SVGID_1_" x="-5.1" y="-4.4" width="305.1" height="168.7"/>
	</defs>
	<clipPath id="SVGID_00000169538061178634005050000002819050153950509745_">
		<use xlink:href="#SVGID_1_"  style="overflow:visible;"/>
	</clipPath>
	<path style="clip-path:url(#SVGID_00000169538061178634005050000002819050153950509745_);fill:#008BD1;" d="M55.9,21.4
		c-5.7-2.4-13.5-4.1-19.8-4.1c-6.2,0-14.2,2.7-14.2,12.3c0,15.4,39.4,8.9,39.4,38.6C61.4,87.6,45.8,95,27.6,95
		c-9.8,0-14.2-1.3-23.1-3.4l0-16c6.2,3.3,15,5.5,22.1,5.5c6.8,0,16-3.4,16-11.4c0-16.9-39.4-9.9-39.4-39.2c0-19.8,15.6-27,31.4-27
		c7.7,0,14.9,1,21.5,3.2L55.9,21.4z"/>
	<path style="clip-path:url(#SVGID_00000169538061178634005050000002819050153950509745_);fill:#008BD1;" d="M159.3,43.6
		c-5.1-1.7-9.8-2.7-15.9-2.7c-4.5,0-9.9,1.6-9.9,7c0,10.1,29.2,3.7,29.2,26.6c0,14.8-13.4,20.7-27,20.7c-6.4,0-12.9-1.1-19-2.7
		l1-13.6c5.3,2.6,10.8,4.2,16.5,4.2c4.3,0,11-1.6,11-7.8c0-12.4-29.2-3.9-29.2-26.9c0-13.7,12.1-19.7,25.3-19.7
		c7.9,0,13,1.2,18.3,2.3L159.3,43.6z"/>
	<path style="clip-path:url(#SVGID_00000169538061178634005050000002819050153950509745_);fill:#008BD1;" d="M212.4,43.9
		c-3-1.4-6.3-2.3-11.4-2.3c-10.4,0-17,8.1-17,20.1c0,11.7,5.6,20.7,17.4,20.7c4.8,0,10-1.7,12.9-3l0.8,13.7
		c-4.9,1.5-9.9,2.1-16.8,2.1c-21.1,0-31.8-14.2-31.8-33.5c0-18.4,11-32.9,31.2-32.9c6.8,0,11.6,0.7,16.3,2.1L212.4,43.9z"/>
	<path style="clip-path:url(#SVGID_00000169538061178634005050000002819050153950509745_);fill:#008BD1;" d="M250.6,28.8
		c19.1,0,33.8,12.7,33.8,33.6c0,18.2-12.4,32.8-33.8,32.8c-21.3,0-33.7-14.5-33.7-32.8C216.9,41.5,231.5,28.8,250.6,28.8
		 M250.6,82.4c12.9,0,16.3-11.3,16.3-21.9c0-9.7-5.3-18.8-16.3-18.8c-10.9,0-16.1,9.4-16.1,18.8C234.4,70.9,237.8,82.4,250.6,82.4"
		/>
	<polygon style="clip-path:url(#SVGID_00000169538061178634005050000002819050153950509745_);fill:#008BD1;" points="117.8,29.4 
		100.8,29.4 68.8,116.6 84.2,116.6 	"/>
	<path style="clip-path:url(#SVGID_00000169538061178634005050000002819050153950509745_);fill:#56B046;" d="M48.3,27.8
		c7.1,7.2,14.2,16,19.3,26.3c4.6,9.2,6.9,18.2,8.6,27.2c0.1,0.3,0.3,0.3,0.4,0c6.1-10.7,9.9-25.2,4.4-36.2
		c-5.7-11.5-19.5-16.8-32.5-17.8C48.1,27.3,48,27.5,48.3,27.8"/>
	<path style="clip-path:url(#SVGID_00000169538061178634005050000002819050153950509745_);fill:#008BD1;" d="M289.5,28.8
		c2.7,0,4.9,2.1,4.9,4.8c0,2.8-2.1,4.9-4.9,4.9s-4.9-2.1-4.9-4.9C284.5,30.9,286.7,28.8,289.5,28.8L289.5,28.8z M289.4,29.6
		c-2.2,0-3.9,1.8-3.9,4c0,2.2,1.7,4,3.9,4c2.2,0,3.8-1.8,3.8-4C293.3,31.4,291.6,29.6,289.4,29.6L289.4,29.6z M288.6,36.3h-0.9v-5.1
		c0.5-0.1,1.1-0.1,1.8-0.1c0.8,0,1.3,0.1,1.6,0.4c0.3,0.2,0.5,0.6,0.5,1.1c0,0.6-0.5,1-1,1.2v0.1c0.4,0.2,0.7,0.6,0.8,1.2
		c0.2,0.8,0.3,1.1,0.4,1.2h-1c-0.2-0.2-0.3-0.6-0.4-1.3c-0.1-0.6-0.5-0.8-1.2-0.8h-0.6V36.3z M288.6,33.4h0.6c0.7,0,1.3-0.2,1.3-0.8
		c0-0.5-0.3-0.8-1.2-0.8c-0.4,0-0.6,0-0.7,0.1V33.4z"/>
	<path style="clip-path:url(#SVGID_00000169538061178634005050000002819050153950509745_);fill:#008BD1;" d="M103.9,121.6l-1.7,5.6
		h-3.7l6.3-19.6h4.6l6.4,19.6h-3.8l-1.8-5.6H103.9z M109.5,118.9l-1.5-4.8c-0.4-1.2-0.7-2.5-1-3.7h-0.1c-0.3,1.1-0.6,2.5-0.9,3.7
		l-1.5,4.8H109.5z"/>
	<path style="clip-path:url(#SVGID_00000169538061178634005050000002819050153950509745_);fill:#008BD1;" d="M122.3,109.4v3.6h3.4
		v2.7h-3.4v6.2c0,1.7,0.5,2.6,1.8,2.6c0.6,0,1,0,1.4-0.1l0.1,2.7c-0.5,0.2-1.5,0.4-2.6,0.4c-1.3,0-2.4-0.4-3.1-1.2
		c-0.8-0.8-1.1-2.1-1.1-4v-6.6h-2V113h2v-2.6L122.3,109.4z"/>
	<path style="clip-path:url(#SVGID_00000169538061178634005050000002819050153950509745_);fill:#008BD1;" d="M139.2,109.4v3.6h3.4
		v2.7h-3.4v6.2c0,1.7,0.5,2.6,1.8,2.6c0.6,0,1,0,1.4-0.1l0.1,2.7c-0.5,0.2-1.5,0.4-2.6,0.4c-1.3,0-2.4-0.4-3.1-1.2
		c-0.8-0.8-1.1-2.1-1.1-4v-6.6h-2V113h2v-2.6L139.2,109.4z"/>
	<path style="clip-path:url(#SVGID_00000169538061178634005050000002819050153950509745_);fill:#008BD1;" d="M145.7,106.5h3.6v8.4
		h0.1c0.4-0.7,1-1.2,1.8-1.6c0.7-0.4,1.6-0.6,2.5-0.6c2.4,0,4.9,1.6,4.9,6.1v8.3h-3.6v-8c0-2-0.8-3.6-2.7-3.6c-1.4,0-2.4,0.9-2.8,2
		c-0.1,0.3-0.1,0.7-0.1,1.1v8.5h-3.6V106.5z"/>
	<path style="clip-path:url(#SVGID_00000169538061178634005050000002819050153950509745_);fill:#008BD1;" d="M165.2,121.1
		c0.1,2.6,2.1,3.7,4.4,3.7c1.7,0,2.8-0.3,3.9-0.6l0.5,2.4c-1.2,0.5-2.9,0.9-4.9,0.9c-4.6,0-7.3-2.8-7.3-7.2c0-3.9,2.4-7.6,6.9-7.6
		c4.6,0,6.1,3.8,6.1,6.9c0,0.7-0.1,1.2-0.1,1.5H165.2z M171.4,118.6c0-1.3-0.6-3.5-2.9-3.5c-2.2,0-3.1,2-3.3,3.5H171.4z"/>
	<path style="clip-path:url(#SVGID_00000169538061178634005050000002819050153950509745_);fill:#008BD1;" d="M184.4,106.5h3.6v8.4
		h0.1c0.4-0.7,1-1.2,1.8-1.6c0.7-0.4,1.6-0.6,2.5-0.6c2.4,0,4.9,1.6,4.9,6.1v8.3h-3.6v-8c0-2-0.8-3.6-2.7-3.6c-1.4,0-2.4,0.9-2.8,2
		c-0.1,0.3-0.1,0.7-0.1,1.1v8.5h-3.6V106.5z"/>
	<path style="clip-path:url(#SVGID_00000169538061178634005050000002819050153950509745_);fill:#008BD1;" d="M203.9,121.1
		c0.1,2.6,2.1,3.7,4.4,3.7c1.7,0,2.8-0.3,3.9-0.6l0.5,2.4c-1.2,0.5-2.9,0.9-4.9,0.9c-4.6,0-7.3-2.8-7.3-7.2c0-3.9,2.4-7.6,6.9-7.6
		c4.6,0,6.1,3.8,6.1,6.9c0,0.7-0.1,1.2-0.1,1.5H203.9z M210.1,118.6c0-1.3-0.6-3.5-2.9-3.5c-2.2,0-3.1,2-3.3,3.5H210.1z"/>
	<path style="clip-path:url(#SVGID_00000169538061178634005050000002819050153950509745_);fill:#008BD1;" d="M227.7,123.8
		c0,1.3,0.1,2.5,0.2,3.4h-3.2l-0.3-1.6h-0.1c-0.8,1.1-2.3,1.9-4.2,1.9c-2.8,0-4.4-2.1-4.4-4.2c0-3.5,3.2-5.4,8.4-5.3v-0.2
		c0-0.9-0.4-2.5-2.9-2.5c-1.4,0-2.8,0.4-3.8,1l-0.7-2.3c1-0.6,2.9-1.2,5.1-1.2c4.5,0,5.8,2.9,5.8,6V123.8z M224.2,120.2
		c-2.5,0-4.9,0.5-4.9,2.6c0,1.4,0.9,2,2,2c1.5,0,2.5-0.9,2.8-1.9c0.1-0.3,0.1-0.5,0.1-0.8V120.2z"/>
	<path style="clip-path:url(#SVGID_00000169538061178634005050000002819050153950509745_);fill:#008BD1;" d="M231.8,117.6
		c0-1.9,0-3.3-0.1-4.6h3.1l0.1,2.7h0.1c0.7-2,2.4-3,3.9-3c0.3,0,0.6,0,0.8,0.1v3.3c-0.3-0.1-0.6-0.1-1.1-0.1c-1.7,0-2.9,1.1-3.2,2.7
		c-0.1,0.3-0.1,0.7-0.1,1.1v7.4h-3.6V117.6z"/>
	<path style="clip-path:url(#SVGID_00000169538061178634005050000002819050153950509745_);fill:#008BD1;" d="M247.3,109.4v3.6h3.4
		v2.7h-3.4v6.2c0,1.7,0.5,2.6,1.8,2.6c0.6,0,1,0,1.4-0.1l0.1,2.7c-0.5,0.2-1.5,0.4-2.6,0.4c-1.3,0-2.4-0.4-3.1-1.2
		c-0.8-0.8-1.1-2.1-1.1-4v-6.6h-2V113h2v-2.6L247.3,109.4z"/>
	<path style="clip-path:url(#SVGID_00000169538061178634005050000002819050153950509745_);fill:#008BD1;" d="M266.3,127.5
		c-4,0-7.1-2.7-7.1-7.3c0-4.7,3.1-7.5,7.3-7.5c4.2,0,7,3,7,7.3C273.6,125.2,269.9,127.5,266.3,127.5L266.3,127.5z M266.4,124.9
		c2,0,3.5-2,3.5-4.9c0-2.2-1-4.8-3.4-4.8c-2.5,0-3.5,2.5-3.5,4.8C262.9,122.8,264.3,124.9,266.4,124.9L266.4,124.9z"/>
	<path style="clip-path:url(#SVGID_00000169538061178634005050000002819050153950509745_);fill:#008BD1;" d="M277.3,127.2v-11.5
		h-1.9V113h1.9v-0.6c0-1.8,0.5-3.7,1.7-4.8c1-1,2.5-1.4,3.7-1.4c1,0,1.7,0.2,2.3,0.3l-0.2,2.8c-0.4-0.1-0.9-0.3-1.5-0.3
		c-1.8,0-2.4,1.5-2.4,3.2v0.7h3.1v2.7h-3.1v11.5H277.3z"/>
	<path style="clip-path:url(#SVGID_00000169538061178634005050000002819050153950509745_);fill:#008BD1;" d="M70.7,154v-11.5h-1.9
		v-2.7h1.9v-0.6c0-1.8,0.5-3.7,1.7-4.8c1.1-1,2.5-1.4,3.7-1.4c1,0,1.7,0.2,2.3,0.3l-0.2,2.8c-0.4-0.1-0.9-0.3-1.6-0.3
		c-1.8,0-2.4,1.5-2.4,3.2v0.7h3.1v2.7h-3.1V154H70.7z"/>
	<path style="clip-path:url(#SVGID_00000169538061178634005050000002819050153950509745_);fill:#008BD1;" d="M86.1,154.3
		c-4,0-7.2-2.7-7.2-7.3c0-4.7,3.1-7.5,7.4-7.5c4.3,0,7.1,3,7.1,7.3C93.5,152,89.8,154.3,86.1,154.3L86.1,154.3z M86.2,151.7
		c2.1,0,3.5-2,3.5-4.9c0-2.2-1-4.8-3.5-4.8c-2.6,0-3.6,2.5-3.6,4.8C82.7,149.7,84.1,151.7,86.2,151.7L86.2,151.7z"/>
	<path style="clip-path:url(#SVGID_00000169538061178634005050000002819050153950509745_);fill:#008BD1;" d="M103.2,154.3
		c-4,0-7.2-2.7-7.2-7.3c0-4.7,3.1-7.5,7.4-7.5c4.3,0,7.1,3,7.1,7.3C110.5,152,106.8,154.3,103.2,154.3L103.2,154.3z M103.3,151.7
		c2.1,0,3.5-2,3.5-4.9c0-2.2-1-4.8-3.5-4.8c-2.6,0-3.6,2.5-3.6,4.8C99.8,149.7,101.2,151.7,103.3,151.7L103.3,151.7z"/>
	<path style="clip-path:url(#SVGID_00000169538061178634005050000002819050153950509745_);fill:#008BD1;" d="M127.2,133.3V150
		c0,1.5,0.1,3,0.1,4h-3.2l-0.2-2.2h-0.1c-0.9,1.6-2.6,2.6-4.6,2.6c-3.4,0-6.1-2.9-6.1-7.2c0-4.7,3-7.6,6.4-7.6c2,0,3.4,0.8,4,1.8
		h0.1v-8H127.2z M123.6,145.7c0-0.3,0-0.7-0.1-1c-0.3-1.4-1.5-2.5-3.1-2.5c-2.3,0-3.6,2-3.6,4.7s1.3,4.5,3.6,4.5
		c1.5,0,2.8-1,3.1-2.5c0.1-0.3,0.1-0.7,0.1-1V145.7z"/>
	<path style="clip-path:url(#SVGID_00000169538061178634005050000002819050153950509745_);fill:#008BD1;" d="M149.3,150.6
		c0,1.3,0.1,2.5,0.2,3.4h-3.3l-0.3-1.6H146c-0.9,1.1-2.3,1.9-4.2,1.9c-2.9,0-4.5-2.1-4.5-4.2c0-3.5,3.2-5.4,8.5-5.3v-0.2
		c0-0.9-0.4-2.5-2.9-2.5c-1.4,0-2.9,0.4-3.8,1l-0.7-2.3c1.1-0.6,2.9-1.2,5.2-1.2c4.6,0,5.9,2.9,5.9,6V150.6z M145.8,147.1
		c-2.6,0-5,0.5-5,2.6c0,1.4,0.9,2,2.1,2c1.5,0,2.5-0.9,2.8-1.9c0.1-0.3,0.1-0.5,0.1-0.8V147.1z"/>
	<path style="clip-path:url(#SVGID_00000169538061178634005050000002819050153950509745_);fill:#008BD1;" d="M153.7,144
		c0-1.6-0.1-3-0.1-4.2h3.1l0.2,2.1h0.1c0.6-1.1,2.2-2.4,4.6-2.4c2.5,0,5.1,1.6,5.1,6.1v8.4H163v-8c0-2-0.8-3.6-2.7-3.6
		c-1.4,0-2.4,1-2.8,2.1c-0.1,0.3-0.2,0.7-0.2,1.1v8.3h-3.6V144z"/>
	<path style="clip-path:url(#SVGID_00000169538061178634005050000002819050153950509745_);fill:#008BD1;" d="M184.2,133.3V150
		c0,1.5,0.1,3,0.1,4h-3.2l-0.2-2.2h-0.1c-0.9,1.6-2.6,2.6-4.6,2.6c-3.4,0-6.1-2.9-6.1-7.2c0-4.7,3-7.6,6.4-7.6c2,0,3.4,0.8,4,1.8
		h0.1v-8H184.2z M180.6,145.7c0-0.3,0-0.7-0.1-1c-0.3-1.4-1.5-2.5-3.1-2.5c-2.3,0-3.6,2-3.6,4.7s1.3,4.5,3.6,4.5
		c1.5,0,2.8-1,3.1-2.5c0.1-0.3,0.1-0.7,0.1-1V145.7z"/>
	<path style="clip-path:url(#SVGID_00000169538061178634005050000002819050153950509745_);fill:#008BD1;" d="M195,150.7
		c0.8,0.5,2.3,1,3.6,1c1.6,0,2.3-0.7,2.3-1.6c0-1-0.6-1.4-2.3-2.1c-2.8-0.9-3.9-2.4-3.9-4.1c0-2.5,2.1-4.4,5.4-4.4
		c1.6,0,3,0.4,3.8,0.8l-0.7,2.5c-0.6-0.3-1.8-0.8-3-0.8c-1.3,0-2,0.6-2,1.5c0,0.9,0.7,1.3,2.5,2c2.6,0.9,3.8,2.2,3.8,4.3
		c0,2.6-2,4.4-5.8,4.4c-1.7,0-3.3-0.4-4.3-1L195,150.7z"/>
	<path style="clip-path:url(#SVGID_00000169538061178634005050000002819050153950509745_);fill:#008BD1;" d="M210.5,147.9
		c0.1,2.6,2.1,3.7,4.4,3.7c1.7,0,2.8-0.3,4-0.6l0.5,2.4c-1.2,0.5-2.9,0.9-5,0.9c-4.6,0-7.4-2.8-7.4-7.1c0-3.9,2.4-7.6,7-7.6
		c4.6,0,6.2,3.8,6.2,6.9c0,0.7-0.1,1.2-0.1,1.5H210.5z M216.8,145.4c0-1.3-0.6-3.5-3-3.5c-2.2,0-3.2,2-3.3,3.5H216.8z"/>
	<path style="clip-path:url(#SVGID_00000169538061178634005050000002819050153950509745_);fill:#008BD1;" d="M223.6,144.4
		c0-1.9,0-3.3-0.1-4.6h3.1l0.1,2.7h0.1c0.7-2,2.4-3,3.9-3c0.4,0,0.6,0,0.9,0.1v3.3c-0.3-0.1-0.6-0.1-1.1-0.1c-1.7,0-2.9,1.1-3.2,2.7
		c-0.1,0.3-0.1,0.7-0.1,1.1v7.4h-3.6V144.4z"/>
	<path style="clip-path:url(#SVGID_00000169538061178634005050000002819050153950509745_);fill:#008BD1;" d="M237.5,139.8l2.3,7.2
		c0.4,1.3,0.7,2.4,1,3.5h0.1c0.3-1.2,0.6-2.3,1-3.5l2.3-7.2h3.8l-5.5,14.2H239l-5.3-14.2H237.5z"/>
	<path style="clip-path:url(#SVGID_00000169538061178634005050000002819050153950509745_);fill:#008BD1;" d="M252.5,137.8
		c-1.2,0-2-0.9-2-1.9c0-1.1,0.8-1.9,2-1.9c1.2,0,2,0.8,2,1.9C254.5,136.9,253.8,137.8,252.5,137.8L252.5,137.8z M250.7,139.8h3.6
		V154h-3.6V139.8z"/>
	<path style="clip-path:url(#SVGID_00000169538061178634005050000002819050153950509745_);fill:#008BD1;" d="M269.2,153.5
		c-0.8,0.3-2.3,0.7-4.1,0.7c-4.5,0-7.4-2.8-7.4-7.2c0-4.2,2.9-7.5,8-7.5c1.3,0,2.7,0.3,3.5,0.6l-0.6,2.7c-0.6-0.3-1.4-0.6-2.7-0.6
		c-2.8,0-4.4,2-4.4,4.6c0,2.9,1.9,4.6,4.4,4.6c1.2,0,2.1-0.3,2.8-0.6L269.2,153.5z"/>
	<path style="clip-path:url(#SVGID_00000169538061178634005050000002819050153950509745_);fill:#008BD1;" d="M274.7,147.9
		c0.1,2.6,2.1,3.7,4.4,3.7c1.7,0,2.8-0.3,4-0.6l0.5,2.4c-1.2,0.5-2.9,0.9-5,0.9c-4.6,0-7.4-2.8-7.4-7.1c0-3.9,2.4-7.6,7-7.6
		c4.6,0,6.2,3.8,6.2,6.9c0,0.7-0.1,1.2-0.1,1.5H274.7z M281,145.4c0-1.3-0.6-3.5-3-3.5c-2.2,0-3.2,2-3.3,3.5H281z"/>
</g>
</svg>
