<?xml version="1.0" encoding="UTF-8"?>
<svg id="Layer_1" data-name="Layer 1" xmlns="http://www.w3.org/2000/svg" version="1.1" viewBox="0 0 400 300">
  <defs>
    <style>
      .cls-1 {
        fill: none;
      }

      .cls-1, .cls-2, .cls-3, .cls-4, .cls-5, .cls-6 {
        stroke-width: 0px;
      }

      .cls-2 {
        fill: #004733;
      }

      .cls-3 {
        fill: #362715;
      }

      .cls-4 {
        fill: #fff;
      }

      .cls-5 {
        fill: #e31d38;
      }

      .cls-6 {
        fill: #0155a3;
      }
    </style>
  </defs>
  <g>
    <path class="cls-4" d="M300,277.6l-77.2-77.2,77.3-77.3,77.2,77.2-77.3,77.3ZM300.1,116.8l-83.4,83.4,83.5,83.5,83.4-83.4-83.5-83.5Z"/>
    <path class="cls-2" d="M300.1,110.6l-89.7,89.7,89.7,89.7,89.7-89.7-89.7-89.7ZM217.2,200.3l82.8-82.8,82.8,82.8-82.8,82.8-82.8-82.8Z"/>
    <rect class="cls-2" x="245.2" y="145.4" width="109.7" height="109.7" transform="translate(-53.8 270.8) rotate(-45)"/>
    <rect class="cls-4" x="285.2" y="226.4" width="30.2" height="3.1"/>
    <rect class="cls-1" x="285.2" y="226.4" width="30.2" height="3.1"/>
    <path class="cls-4" d="M297.4,156.4c0-.5,0-1.1,0-1.1,0,0-.2,0-.6,0-.6,0-2.8,0-2.9,0-.1,0-2.3,0-2.9,0-.4,0-.6,0-.6,0,0,0,0,.6,0,1.1,0,.4,0,1,0,1h.5c0-.2,0-.3.2-.6.1-.3.3-.4.5-.4.2,0,.4,0,.7,0h1v5.7c0,.2,0,.4,0,.6,0,.1-.2.3-.4.4-.2,0-.2,0-.6,0v.5s1.3,0,1.8,0c.5,0,1.8,0,1.8,0v-.5c-.4,0-.4,0-.6,0-.2,0-.3-.2-.4-.4,0-.1,0-.3,0-.6v-5.7h1c.3,0,.5,0,.7,0,.2,0,.4.2.5.4.1.3.1.4.2.7h.5c0,0,0-.7,0-1Z"/>
    <path class="cls-4" d="M303.9,162.9c-.1,0-.3-.2-.3-.3,0,0,0-.3,0-.4v-.7h0v-1.8c0-.3,0-.6,0-.8,0-.2-.1-.4-.2-.5,0-.2-.2-.3-.4-.4-.2-.2-.4-.2-.5-.2-.2,0-.4,0-.6,0s-.4,0-.6,0c-.3.1-.9.5-1.3.8h0s.1-3.9.1-3.9c0,0-.7.2-1.1.3-.5.1-1,.2-1,.2v.5c.3-.2.6,0,.7,0,0,0,.1.1.1.2,0,.3,0,.7,0,1.1v4.5h0v.7c0,.2,0,.3,0,.4,0,0-.2.3-.3.3-.2,0-.2,0-.5,0v.5s1,0,1.4,0c.4,0,1.3,0,1.3,0v-.5c-.3,0-.2,0-.4,0-.1,0-.3-.2-.3-.3,0,0,0-.3,0-.4v-.7h0v-2.3s.4-.2.8-.4c.3-.1.5-.1.6-.1.4,0,.8.1,1,.7,0,.3,0,.5,0,1v1.1h0v.7c0,.2,0,.3,0,.4,0,0-.2.3-.3.3-.2,0-.2,0-.5,0v.5s1,0,1.4,0c.4,0,1.3,0,1.3,0v-.5c-.3,0-.2,0-.4,0Z"/>
    <path class="cls-4" d="M309.4,162.5c-.3.3-.6.4-.8.6-.2.1-.5.2-.7.3-.3,0-.5.1-.8.1-.8,0-1.5-.2-1.9-.7s-1.1-2.1-.2-3.8.5-.8.9-1c.4-.2.8-.4,1.3-.4s.7,0,1,.2c.3.1.5.3.7.5.2.2.3.5.4.8,0,.3.1.8.2,1.3h-3.5s0,.6.2,1.2.8,1,1.3,1.1c.8,0,1.4-.2,1.9-.6l.3.5ZM308.1,159.8c0-1.2-.7-1.5-1.1-1.5s-1.2.3-1.3,1.5h2.4Z"/>
    <path class="cls-4" d="M275.4,214.3c-.2-.6-.5-1.2-.9-1.6-.4-.4-.9-.8-1.4-1-.6-.3-1.1-.4-1.8-.4s-1.2,0-1.8.3c-.6.2-1.1.5-1.5.9-.4.4-.8.9-1,1.5-.3.6-.4,1.3-.4,2s0,1.4.3,2c.2.6.5,1.2.9,1.6.4.5.9.8,1.4,1.1.6.3,1.2.4,1.8.4s1.2,0,1.8-.3,1.1-.5,1.5-.9c.4-.4.8-.9,1.1-1.5s.4-1.3.4-2,0-1.4-.3-2ZM273.7,217.7c0,.5-.2.9-.5,1.3-.2.4-.5.7-.8.9-.3.2-.7.3-1.2.3-.5,0-.9,0-1.2-.3-.3-.2-.6-.5-.9-.8-.2-.4-.4-.8-.6-1.2-.1-.5-.2-1-.2-1.6,0-.5,0-1,0-1.5,0-.5.2-.9.4-1.3.2-.4.5-.7.8-.9.3-.2.8-.4,1.2-.4.4,0,.8,0,1.2.2.3.2.6.4.9.8.2.3.4.8.6,1.2s.2,1,.2,1.6c0,.6,0,1.1,0,1.6Z"/>
    <path class="cls-4" d="M265.3,214.3c-.2-.6-.5-1.2-.9-1.6-.4-.4-.9-.8-1.4-1-.6-.3-1.1-.4-1.8-.4s-1.2,0-1.8.3c-.6.2-1.1.5-1.5.9-.4.4-.8.9-1,1.5-.3.6-.4,1.3-.4,2s0,1.4.3,2c.2.6.5,1.2.9,1.6.4.5.9.8,1.4,1.1.6.3,1.2.4,1.8.4s1.2,0,1.8-.3,1.1-.5,1.5-.9c.4-.4.8-.9,1.1-1.5s.4-1.3.4-2,0-1.4-.3-2ZM263.6,217.7c0,.5-.2.9-.5,1.3-.2.4-.5.7-.8.9-.3.2-.7.3-1.2.3-.5,0-.9,0-1.2-.3-.3-.2-.6-.5-.9-.8-.2-.4-.4-.8-.6-1.2-.1-.5-.2-1-.2-1.6,0-.5,0-1,0-1.5,0-.5.2-.9.4-1.3.2-.4.5-.7.8-.9.3-.2.8-.4,1.2-.4.4,0,.8,0,1.2.2.3.2.6.4.9.8.2.3.4.8.6,1.2s.2,1,.2,1.6c0,.6,0,1.1,0,1.6Z"/>
    <path class="cls-4" d="M305.7,214.3c-.2-.6-.5-1.2-.9-1.6-.4-.4-.9-.8-1.4-1-.6-.3-1.1-.4-1.8-.4s-1.2,0-1.8.3c-.6.2-1.1.5-1.5.9-.4.4-.8.9-1,1.5-.3.6-.4,1.3-.4,2s0,1.4.3,2c.2.6.5,1.2.9,1.6.4.5.9.8,1.4,1.1.6.3,1.2.4,1.8.4s1.2,0,1.8-.3,1.1-.5,1.5-.9c.4-.4.8-.9,1.1-1.5s.4-1.3.4-2,0-1.4-.3-2ZM304,217.7c0,.5-.2.9-.5,1.3-.2.4-.5.7-.8.9-.3.2-.7.3-1.2.3-.5,0-.9,0-1.2-.3-.3-.2-.6-.5-.9-.8-.2-.4-.4-.8-.6-1.2-.1-.5-.2-1-.2-1.6,0-.5,0-1,0-1.5,0-.5.2-.9.4-1.3.2-.4.5-.7.8-.9.3-.2.8-.4,1.2-.4.4,0,.8,0,1.2.2.3.2.6.4.9.8.2.3.4.8.6,1.2s.2,1,.2,1.6c0,.6,0,1.1,0,1.6Z"/>
    <path class="cls-4" d="M284.1,212.8c0-.5,0-1.3,0-1.3,0,0-.2,0-.7,0-.7,0-3,0-3.1,0-.1,0-2.4,0-3.1,0-.4,0-.7,0-.7,0,0,0,0,.8,0,1.3,0,.4-.1,1-.1,1h.5c0-.2,0-.3.2-.7.1-.3.4-.4.6-.5.2,0,.4,0,.7,0h1.3v6.8c0,.2,0,.5,0,.6,0,.1-.4.4-.6.4-.2,0-.2,0-.6,0v.5c1.6,0,1.6,0,2,0,.4,0,.4,0,2,0v-.5c-.4,0-.4,0-.6,0-.2,0-.5-.3-.6-.4,0-.1,0-.4,0-.6v-6.8h1.3c.3,0,.5,0,.7,0,.2,0,.5.2.6.5.1.3.2.5.2.7h.5c0,0,0-.7-.1-1.1Z"/>
    <path class="cls-4" d="M295.7,211.8s0,.1,0,.2c0,0,0,.1,0,.2,0,.3,0,.7,0,1s0,.6.1,1h-.6c0-.5-.3-1.1-.7-1.5s-1-.5-1.7-.5-1.6.3-2.1.9-.9,1.7-.9,2.7.4,2.5,1,3.2c.6.7,1.3,1,2.3,1s1.1-.1,1.5-.4c.4-.3.7-.8.9-1.3l.6.3c-.2.3-.3.6-.4.9s-.2.8-.3,1c-.5.2-.9.4-1.4.5s-.9.2-1.3.2c-4.1,0-4.8-3.6-4.8-4.9s.6-2.9,1.5-3.7,2-1.3,3.4-1.3,1,0,1.4.1c.5,0,1,.2,1.4.4Z"/>
    <path class="cls-4" d="M311.8,218.1l1.5-3.9c.3-.8.5-1.4.6-1.8s.2-.6.2-.8h0c0,0,0,0,.2,0,.6,0,1,0,1.3,0s.4,0,.9,0c.2,0,.3,0,.4,0v.6c-.4,0-.7,0-.8.2s-.2.4-.2.7,0,.5,0,.9,0,.9,0,1.4v1.6c.1,1.2.2,2,.2,2.3s0,.6,0,.8c0,.1.1.2.2.3s.3.1.5.1h.1v.6c-.3,0-.7,0-1,0s-.6,0-.9,0-.4,0-.6,0-.6,0-1.1,0v-.6h.2c.3,0,.5,0,.7-.2s.2-.3.2-.7,0-.2,0-.3,0-.3,0-.4l-.2-5.3-2.1,5.4c-.2.5-.3.9-.4,1.2,0,.3-.1.5-.2.8h-.6c0-.2,0-.4-.1-.6s-.2-.5-.3-.8l-2.2-5.8c-.1,1.4-.2,2.6-.3,3.6s0,1.6,0,2,0,.8.2.9.3.2.7.2h.2v.6c-.4,0-.7,0-.9,0s-.5,0-.6,0-.2,0-.4,0-.5,0-1.1,0v-.6s0,0,0,0c.1,0,.2,0,.2,0,.5,0,.8-.8.9-2.4,0-.4,0-.8,0-1.1v-1.6c.2-.6.2-1.2.2-1.6s0-.7,0-.8c0-.3,0-.6-.2-.7s-.3-.2-.7-.2h-.2v-.6c.3,0,.5,0,.7,0s.4,0,.6,0,.5,0,1,0c.2,0,.4,0,.5,0h0c0,.4.5,1.8,1.4,4.2.4,1,.7,1.8.9,2.3Z"/>
    <path class="cls-4" d="M318.5,220.5s0,0,.1,0c0,0,0,0,.2,0,.3,0,.5-.1.6-.3s.2-.7.2-1.5v-.6c0-.3,0-.5,0-.6s0-.3,0-.4v-1.6s0-2.3,0-2.3c0-.3,0-.6-.2-.7s-.3-.2-.6-.2h-.1v-.6c.3,0,.6,0,.9,0s.5,0,.8,0c.4,0,.8,0,1.3,0s.8,0,.8,0c1,0,1.8.2,2.4.7s.9,1.2.9,2-.3,1.6-.9,2.1-1.4.8-2.5.8-.5,0-.9,0c0,0-.1,0-.2,0v1.6c0,.7,0,1.2.2,1.3s.4.3.7.3h.2v.6c-.4,0-.8,0-1.1,0-.3,0-.6,0-.9,0s-.3,0-.6,0-.7,0-1.1,0v-.6ZM321.1,216.4c.1,0,.3,0,.4,0s.2,0,.3,0c.7,0,1.2-.2,1.6-.5s.5-.9.5-1.5-.2-1.1-.5-1.4c-.3-.4-.8-.5-1.4-.5s-.3,0-.4,0-.3,0-.5,0c0,.6,0,1.1,0,1.7s0,1.3,0,2.2Z"/>
    <path class="cls-4" d="M328.5,211.6h1.4c.6,1.9,1.1,3.6,1.6,5.1s.9,2.6,1.1,3.1c0,.2.2.4.3.5s.3.1.5.1h.1v.6c-.5,0-.9,0-1.2,0s-.5,0-.7,0-.4,0-.7,0-.7,0-1.2,0v-.6h.1c.3,0,.5,0,.6-.1s.2-.2.2-.4,0-.1,0-.2,0-.2,0-.3l-.5-1.6c-.2,0-2.9,0-3,0h0c-.4,1.1-.6,1.8-.6,2.1s0,.4.2.5.3.2.6.2h.1v.6c-.5,0-.8,0-1.1,0s-.5,0-.6,0-.3,0-.5,0-.5,0-1,0v-.6c.3,0,.5,0,.7-.2s.3-.3.4-.6c.2-.3.6-1.3,1.2-2.9s1.2-3.3,1.9-5.3ZM328.8,213.2l-1.3,3.6c.2,0,.3,0,.5,0s.4,0,.7,0,.6,0,.8,0,.4,0,.5,0l-1.1-3.6Z"/>
    <path class="cls-4" d="M334.6,211.7c.2,0,.4,0,.7,0s.6,0,.7,0,.3,0,.6,0,.5,0,.7,0c0,.2.1.3.2.5s.2.4.4.6l4.4,5.7c0-.6,0-1.3,0-2.3,0-2.1,0-3.2,0-3.4,0-.2-.1-.4-.3-.4s-.3-.1-.6-.1h-.2v-.6c.4,0,.8,0,1,0s.4,0,.6,0,.4,0,.6,0,.6,0,.9,0v.6h-.1c-.3,0-.4,0-.6,0s-.2.2-.3.3c0,.2-.1,1.2-.1,3h0c0,.1,0,1.5,0,1.5,0,.5,0,1.1,0,1.5s0,.9,0,1.2,0,.4,0,.6,0,.4,0,.6h-1.2c0-.1-.1-.2-.2-.4s-.3-.4-.5-.7l-4.8-6.2c0,2.1,0,3.6,0,4.4s0,1.4,0,1.6c0,.2.1.4.3.4s.3.1.6.1h.2v.6c-.5,0-.8,0-1,0s-.4,0-.6,0-.3,0-.5,0-.6,0-1.1,0v-.6s0,0,0,0,0,0,.1,0c.6,0,.9-.9.9-2.6,0-.4,0-.7,0-.9v-1.4c0-.3,0-.7,0-1.2s0-.9,0-1c0-.4,0-.7-.2-.9s-.4-.2-.7-.2,0,0-.1,0,0,0-.1,0v-.6Z"/>
    <path class="cls-4" d="M345.3,211.6c.4,0,.8,0,1.1,0s.6,0,.8,0,.4,0,.6,0,.6,0,1.1,0v.6c-.3,0-.5,0-.6,0s-.2.1-.2.2,0,.4.2.7c0,0,0,.2.1.2l1.3,2.6.4-.8c.8-1.6,1.2-2.5,1.2-2.7s0-.2-.1-.3-.2,0-.4,0h-.1v-.6c.3,0,.6,0,.8,0s.4,0,.6,0,.3,0,.6,0,.5,0,.9,0v.6s0,0,0,0,0,0,0,0c-.4,0-.8.5-1.4,1.5-.1.2-.2.4-.3.5l-1.6,2.9v2.1c0,.6,0,.9.2,1.1.1.2.3.2.7.2s0,0,.1,0,0,0,.1,0v.6c-.4,0-.8,0-1.2,0s-.6,0-.9,0-.6,0-1.3,0c-.3,0-.5,0-.6,0v-.6s0,0,.1,0,0,0,.1,0c.3,0,.6,0,.7-.3.1-.2.2-.5.2-1.1v-2.1s-2-3.7-2-3.7c0,0,0-.1-.1-.2-.3-.6-.7-.9-1-.9s0,0-.1,0,0,0,0,0v-.6Z"/>
    <path class="cls-4" d="M252.6,202"/>
    <path class="cls-4" d="M305.6,182.7c-.2,0-.6,0-.8.1-.5,0-.6,0-1.9.2-.5,0-1.1,0-1.6,0l-2.1-.3h-.3c-.5,0-.7.3-.7.7s.7.8,1.4.9c2.3.3,2.7,1.4,2.7,6.1v4.9c0,4.3-.2,6.5-1.5,8.4-1.1,1.6-2.7,2.8-5.3,2.9-2.4.1-4.5-1.1-5.6-3.2-1-1.9-1-3.3-1-8.7v-5.4c0-3.7.4-4.8,1.9-5.2.8-.2.8-.3.8-.7s-.3-.6-.8-.6-.3,0-.4,0c-1.9.2-3.1.3-4.5.3s-1.3,0-3.1-.3c-.2,0-.4,0-.6,0-.5,0-.8.2-.8.6s.3.8.8.8c2.3.5,2.7.9,2.7,4.6v10.2c0,3.6,1,6.2,2.8,7.7,1.4,1.2,3.5,2,6.4,2,2.6,0,4.4-.7,6-1.9,1-.8,1.8-1.8,2.5-3.1,1-2.4,1.4-4,1.5-8.5v-5c0-5.4,0-5.5,1.3-6.1l.5-.2c.3-.1.5-.4.5-.6,0-.4-.2-.6-.7-.6ZM291.6,207.8s-2.6-.4-4.2-2.1c-1.1-1.2-1.6-3.1-1.8-5.8,0,0-.1-2-.1-2.1,0-2,0-8.9,0-8.9,0-4.2-1-4.5-1-4.5,0,0,1.6.5,1.7,3.5v10.1c0,1.8.4,5.1,1.4,6.7.5.7.8,1.1,1.7,1.8.9.7,2.3,1.4,2.3,1.4ZM302.9,186.6c0,.4-.2.6-.2.6,0,0,0-1.5-.7-2.4-.4-.6-1.7-.9-1.7-.9,0,0,1.6-.4,2.3.7s.3,1.2.2,2Z"/>
    <path class="cls-4" d="M328.7,201.3c-.3,0-.9.8-1.5,1.5-3.3,3.1-5.3,3.3-7.3,3.3-5.6-.3-8.2-7.3-8.3-11.9,0-7.1,3.6-10.8,7.6-10.4,2.6.3,5.4.9,8.2,6.4.4,1,.9,1.5,1.2,1.5s.3-.2.3-.9-.3-4-.5-6c0-.5-.1-1.2-.5-1.2-.5,0-.7.8-.8.9s-.3.2-.4.2c-.2,0,0,0-1.3-.6-2.5-1.4-4.5-1.7-6.5-1.7-6.3,0-11.3,6-11.4,14.1-.1,7.8,4.5,12.3,10.9,12.3,3.4,0,6.4-1.2,8.7-3.7,1-1,1.8-2.5,1.9-3,0-.4-.2-.6-.4-.7ZM324,184.8c2.4.6,3.4,1.2,3.6,4.4,0,0-.8-1.8-1.4-2.5-.8-1-2.1-1.9-2.1-1.9ZM308,196.6c0-4.5,1.5-7.1,3-9.4,1-1.4,2.4-2.4,2.4-2.4,0,0-3.1,2.9-4.2,7.6-.9,4.1.2,8.8,1.5,10.9,1.8,2.8,5,4.4,6.2,5-5.6-.8-8.9-5.2-8.9-11.7Z"/>
    <path class="cls-4" d="M352.7,206.9c-1.1-.5-1.2-.7-1.9-1.3-.6-.6-1.1-1.4-2.6-3.7-.9-1.3-4.8-7.1-4.8-7.1-.5-.8-.8-.8-.8-1.7,0-.3.7-1,1-1.3s2-2,2-2c0,0,2.7-2.8,3.6-3.6.8-.6,1.2-1,3.2-2.1.5-.2.7-.4.7-.8,0-.4-.2-.6-.7-.6s-1.7.2-1.7.2c-.6,0-2.9,0-3.6,0l-1.5-.2c-.5,0-.7.3-.7.7s.1.7.6.8c.6.1,1.4.3,1.4.9,0,.4,0,.8-1.9,3.2l-2.6,2.8c-.2.3-2,2.2-3.2,3.4-.7.8-1,1-1.2,1s-.3,0-.3-.6v-8c.2-1.6.6-2.2,1.7-2.6.9-.3,1-.5,1-.9s-.1-.9-1.2-.6c-.1,0-3.2.3-4.4.3s-2.5-.1-3.8-.3c-.2,0-.4,0-.6,0-.3,0-.6.4-.6.7s.3.8,1,.9c2.3,0,2.6.9,2.8,3.9v14.6c-.1,3.1-.6,3.5-2.1,4.2-.5.2-.8.5-.8.9s.2.6.7.6.4,0,.5,0c.8-.1,2.6-.3,3.8-.3s2.7.1,3.7.2c.3,0,.5,0,.8,0,.3,0,.6-.2.6-.5s-.1-.9-.7-1.1c-1.9-.5-2.5-1.2-2.5-3.7v-3.1c0-.7,0-1.7.6-2.3,1.2-1.3,1.2-1.4,1.4-1.3s.4.5.4.5l1.8,2.8,2,3.1,1.9,2.7,1.2,1.8c.5.8.8,1.1,1.5,1.1s.9-.2,1.3-.2c.7-.1,1.1.1,1.5.1,0,0,1.3,0,1.3,0,.5,0,.8-.2.8-.6s-.1-.6-.6-.8ZM346.3,183.9s1.5-.5,1.7,1c0,1.1-1.3,1.9-1.3,1.9.9-1.5.8-2.4-.4-2.9ZM334.6,203.4c-.2,2.8-1.9,3.4-1.9,3.4.7-.9,1.1-1.6,1.2-3.5,0,0,.2-12.2,0-16,0-2.2-1.5-3-1.5-3.2,1.3.3,2.2,1.3,2.2,3.8v15.6ZM348.6,207.6c-.2,0-.5,0-.9-.4-.3-.4-1.3-1.7-2.3-3.3-1.2-1.9-1.5-2.2-2.7-4-.7-1.1-1.7-2.6-1.9-2.9-.7-1.1-.8-1.3-.7-1.4.1-.1.3-.4.5-.3.2.1,4.3,6.4,4.3,6.4.4.6,3,4.4,3.9,5.6,0,.1,0,.2-.3.3Z"/>
    <g>
      <path class="cls-4" d="M356.4,204.6c-1.1,0-1.9.8-1.9,1.9s.9,1.9,1.9,1.9,1.9-.8,1.9-1.9-.8-1.9-1.9-1.9ZM356.4,208c-.9,0-1.5-.7-1.5-1.5s.6-1.5,1.5-1.5,1.5.7,1.5,1.5-.6,1.5-1.5,1.5Z"/>
      <path class="cls-4" d="M357.2,207c0-.3-.2-.4-.4-.5h0c.3-.1.4-.3.4-.5s0-.4-.2-.5c-.2,0-.3-.2-.7-.2s-.2,0-.8,0v2.1h.5v-.8h.2c.3,0,.4.1.4.3,0,.2.1.4.2.5h.5c0,0,0-.2-.2-.5ZM356.3,206.3h-.2v-.6c0,0,.1,0,.3,0,.3,0,.4.1.4.3s-.2.3-.5.3Z"/>
    </g>
    <path class="cls-4" d="M281.3,206.9c-2.5-.6-3-1.3-3.1-6.1l-.4-14.8v-.3c0-2.9.3-4.3,2.3-4.7.7-.2,1-.6,1-.9,0-.6-.3-.7-.8-.7,0,0-.2,0-.3,0h-1c-.2.1-.7.2-1.7.2s-1.2-.2-1.4-.2c-.8,0-1.1.6-1.9,2.7l-.4.9-.4.9-6.8,15.1-.3.8c-.4.9-.7,1-.9,1s-.7-1-1.5-3l-6-13.9-.6-1.6-.6-1.6c-.4-1-.6-1.3-1.5-1.3s-.7.2-1.4.3c-.6,0-1.2,0-2,0s-1.4-.2-1.6-.2c-.7,0-.9.2-.9.7s.3.8,1.3,1c2,.4,2.4,3.6,2.4,4.1,0,.3,0,4.9,0,4.9-.1,3.9-.3,10.4-.7,12.3-.9,3.9-1.1,3.6-2.4,4.5-.6.3-.8.7-.8,1.1s.4.6.9.6.4,0,.7,0c1.2-.1,1.8-.2,2.7-.2s1.5,0,2.3.1l1.6.2h0c.5,0,.9-.2.9-.6s0-.9-.5-1l-1-.4c-1.7-.7-2.3-1.4-2.3-5.7v-3.6c0,0,.2-3.1.2-3.1v-3.1c0,0,.1-1.6.1-1.6,0-.6,0-.6.3-.6.3,0,1,1.9,1,1.9l.5,1.2,5.7,13.7c.8,1.9,1.1,2.5,1.5,2.5s.6,0,1-.9l7.9-17.6c.2-.5.5-.8.7-.8.3,0,.4.2.4,1.3v1.1s.5,11.9.5,11.9v.2c0,1.7-.5,2.5-1.4,3.1-.9.5-1.3.6-1.3,1.2,0,.3.1.9,1,.9,1.8-.2,3.1-.4,4.7-.4s2.3.2,3.4.3c.2,0,.3,0,.5,0,.5,0,1,0,1-.6,0-.4,0-.9-.5-1ZM252.2,206.3c-.9.9-1.8.7-2,.7,2.1-1.5,2.1-2.5,2.4-5,.3.1.6,3.4-.4,4.3ZM263.6,205.4c0,.2-.1.3-.3.3-.3,0-.6-.8-.6-.8l-7.2-17.4c-1.6-4.1-3-5.8-3.9-6.6.1,0,2.6.6,5.2,7.5l6.8,16.2s.2.5.1.7ZM275.3,205.1c-.4,1.6-1.7,1.8-1.7,1.8,0,0,1.2-1.2,1.2-2.6-.1-6.1-.7-16.4-.7-18.6.1-3.4,1.2-3.6,1.2-3.6,0,0-.3,1.9-.3,3.2s1,18.1.3,19.7Z"/>
    <path class="cls-4" d="M311.7,173.6c-.1,0-.3-.2-.3-.3,0,0,0-.3,0-.4v-.7s0,0,0,0v-1.8c0-.3,0-.6,0-.8,0-.2-.1-.4-.2-.5,0-.2-.2-.3-.4-.4-.2-.2-.4-.2-.5-.2-.2,0-.4,0-.6,0s-.4,0-.6,0c-.3.1-.9.5-1.3.8h0s.1-1.1.1-1.1c0,0-.7.2-1.1.4-.5.1-1,.2-1,.2v.5c.3-.2.6,0,.7,0,0,0,.1.1.1.2,0,.3,0,.7,0,1.1v1.7c0,0,0,0,0,0v.7c0,.2,0,.3,0,.4,0,0-.2.3-.3.3-.2,0-.2,0-.5,0v.5s1,0,1.4,0c.4,0,1.3,0,1.3,0v-.5c-.3,0-.2,0-.4,0-.1,0-.3-.2-.3-.3,0,0,0-.3,0-.4v-.7s0,0,0,0v-2.3s.4-.2.8-.4c.3-.1.5-.1.6-.1.4,0,.8.1,1,.7,0,.3,0,.5,0,1v1.1s0,0,0,0v.7c0,.2,0,.3,0,.4,0,0-.2.3-.3.3-.2,0-.2,0-.5,0v.5s1,0,1.4,0c.4,0,1.3,0,1.3,0v-.5c-.3,0-.2,0-.4,0Z"/>
    <path class="cls-4" d="M321.1,173.5c-.1,0-.3-.2-.3-.3,0,0,0-.3,0-.4v-1.5s0-5.9,0-5.9c0,0-.7.2-1.1.4-.5.1-1.1.2-1.1.2v.5c.3-.2.7,0,.7,0,0,0,.1.1.1.2,0,.3,0,3.6,0,4v.5s0,0,0,0v1.7c0,.2,0,.3,0,.4,0,0-.2.3-.3.3-.2,0-.2,0-.5,0v.5s1.1,0,1.5,0c.4,0,1.4,0,1.4,0v-.5c-.3,0-.3,0-.4,0Z"/>
    <path class="cls-4" d="M290.6,168.6c-.2-.2-.3-.2-.6-.2-.3,0-.5.2-.8.5-.2.2-.4.5-.6.8v-1.3s-.7.2-1,.3c-.5.1-1.1.2-1.1.2v.5c.3-.2.7,0,.7,0,0,0,.1.1.1.2,0,.3,0,.7,0,1.1v.5s0,0,0,0v1.7c0,.2,0,.3,0,.4,0,0-.2.3-.3.3-.2,0-.2,0-.5,0v.5s1.1,0,1.5,0c.4,0,1.6,0,1.6,0v-.5c-.3,0-.5,0-.6,0-.1,0-.3-.2-.3-.3,0,0,0-.3,0-.4v-1.5s0-1,0-1c.2-.3.9-1.1,1.4-.8.2.1.2.1.3.1.4,0,.5-.2.5-.6s0-.4-.2-.5Z"/>
    <path class="cls-4" d="M317.8,173.1l.3.5c-.3.2-.6.4-.9.5s-.5.2-.7.2c-.3,0-.5,0-.6-.2s-.2-.3-.2-.6c-.5.3-1.1.8-1.5.8-.4,0-.8-.2-1.1-.4-.3-.3-.5-.7-.5-1.1,0-.7.4-1.3,2.2-1.7.4,0,.6-.2.8-.2,0,0,0-.2,0-.3,0-.6,0-1-.3-1.2-.5-.4-1.4,0-1.4.4,0,0,0,0,0,0,0,0,0,0,0,0,0,.1,0,.2-.2.3-.1,0-.3.1-.5.1s-.3,0-.4,0-.1-.1-.1-.2c0-.3.3-.8.9-1.2,1-.7,2.4-.4,2.7-.1s.5.7.5,1.3,0,.8,0,1.4c0,.7,0,1.1,0,1.5s0,.4,0,.5c.1.1.7,0,.9-.3ZM315.7,171.4c0,0-.2,0-.4,0-1.4.4-1.6.6-1.6,1.1s0,.4.3.5c.2.2.6.2.9.1.2,0,.5-.2.8-.4v-1.4Z"/>
    <path class="cls-4" d="M294,173.6c-.1,0-.3-.2-.3-.3,0,0,0-.3,0-.4v-1.5s0-3.1,0-3.1c0,0-.7.2-1.1.4-.5.1-1.1.2-1.1.2v.5c.3-.2.7,0,.7,0,0,0,.1.1.1.2,0,.3,0,.7,0,1.1v.5s0,0,0,0v1.7c0,.2,0,.3,0,.4,0,0-.2.3-.3.3-.2,0-.2,0-.5,0v.5s1.1,0,1.5,0c.4,0,1.4,0,1.4,0v-.5c-.3,0-.3,0-.4,0Z"/>
    <path class="cls-4" d="M293,165.5l.5.4c.1,0,.2.2.3.3,0,0,0,.2,0,.3s0,.2,0,.3-.1.2-.3.3l-.5.4-.5-.4c-.1-.1-.2-.2-.3-.3,0,0,0-.2,0-.3s0-.2,0-.3c0,0,.1-.2.3-.3l.5-.4Z"/>
    <path class="cls-4" d="M304.4,173.6c-.1,0-.3-.2-.3-.3,0,0,0-.3,0-.4v-1.5s0-3.1,0-3.1c0,0-.7.2-1.1.4-.5.1-1.1.2-1.1.2v.5c.3-.2.7,0,.7,0,0,0,.1.1.1.2,0,.3,0,.7,0,1.1v.5s0,0,0,0v1.7c0,.2,0,.3,0,.4,0,0-.2.3-.3.3-.2,0-.2,0-.5,0v.5s1.1,0,1.5,0c.4,0,1.4,0,1.4,0v-.5c-.3,0-.3,0-.4,0Z"/>
    <path class="cls-4" d="M303.4,165.5l.5.4c.1,0,.2.2.3.3,0,0,0,.2,0,.3s0,.2,0,.3-.1.2-.3.3l-.5.4-.5-.4c-.1-.1-.2-.2-.3-.3,0,0,0-.2,0-.3s0-.2,0-.3c0,0,.1-.2.3-.3l.5-.4Z"/>
    <path class="cls-4" d="M285.6,168.3c-.2-.6-.6-1-1-1.5-.4-.3-.8-.6-1.2-.8-.5-.2-1-.2-1.6-.2s-1,0-1.5.3c-.5.2-.9.5-1.3.8-.4.4-.6.9-.9,1.4-.2.5-.3,1.1-.3,1.7s0,1.1.3,1.6c.2.5.5,1,.8,1.4.4.4.8.7,1.3,1,.5.2,1.1.3,1.7.3s1,0,1.5-.3c.5-.2.9-.4,1.3-.8.5-.4.8-.9,1.1-1.5.2-.6.4-1.2.4-1.8s-.1-1.2-.4-1.8ZM283.6,172.5c-.5.6-1,.9-1.7.8-.8,0-1.3-.4-1.8-1-.5-.7-.7-1.6-.7-2.6,0-.9.2-1.7.7-2.3.5-.6,1-.8,1.8-.8.8,0,1.4.4,1.9,1,.5.7.7,1.5.7,2.5,0,1-.3,1.7-.7,2.3Z"/>
    <path class="cls-4" d="M301.1,168.8h0c-.3,0-.7,0-1.2,0h-.5c-.2-.2-.5-.3-.7-.4-.2,0-.5-.1-.8-.1-.5,0-1,.1-1.5.4-.4.2-.7.5-.9.8-.2.3-.3.7-.3,1.1s.1.8.4,1.1c.2.2.4.3.8.4,0,0,0,0,0,0,0,.2-.6.6-.8.7-.2,0-.2.2-.2.3,0,.5.4.9.8,1.1.1,0,0,.2,0,.3-.2.2-.7.4-.8.6-.2.2-.2.4-.2.5,0,.7.6,1.5,2.4,1.5s1.9-.4,2.5-.8c.3-.3.8-.9.8-1.5,0-1.4-1.2-1.5-2.1-1.5s-1,0-1.4,0c-.5,0-.7-.2-.7-.5s0-.1,0-.2c0,0,.2-.2.4-.3h.3c.5,0,.9,0,1.3-.3.4-.2.7-.5.9-.8.2-.3.3-.7.3-1s0-.4-.1-.6h1.1c0-.2.2-.4.3-.5ZM296.8,174.3c.2-.1.4-.2.9-.2h.7c.8,0,1.4.3,1.4,1s-.6,1.2-1.7,1.2-1.7-.5-1.7-1.3.2-.5.4-.7ZM298.4,171.3c-.2.2-.5.4-.9.4s-.7-.1-.9-.4c-.2-.3-.4-.7-.4-1.2s.1-.7.3-1c.2-.2.5-.4.9-.4s.7.1.9.4c.2.3.4.7.4,1.2s-.1.8-.3,1Z"/>
    <path class="cls-4" d="M253.4,215.9c.8-.3,1.7-.9,1.7-2.1s-.5-1.5-1-1.9c-.4-.3-.8-.4-1.5-.4h-.5c-.3,0-1,0-1.7.1,0,0-.8,0-1.1,0-.3,0-.6,0-.9,0v.6h.1c.3,0,.5,0,.6.2s.2.4.2.7v3.9c0,.1,0,.3,0,.4,0,.1,0,.4,0,.6v.6c0,.8,0,1.3-.2,1.5-.1.2-.3.3-.6.3s-.1,0-.2,0c0,0,0,0-.1,0v.6c.5,0,.8,0,1.1,0s.8,0,.9,0,1,0,1.3,0h.5c1.1,0,1.8,0,2.5-.7.7-.6,1-1.2,1-2,0-1.8-1.4-2.3-2.3-2.3ZM251,212.6c.4,0,.8,0,1.1,0,.7,0,1.5.4,1.4,1.7,0,.6-.3,1.3-1.9,1.4s-.4,0-.6,0c0,0,0-2.5,0-3ZM252.1,220c-.3,0-.7,0-1.1,0,0-.2,0-3.4,0-3.4.3,0,.6,0,.8,0,.7,0,2.3.4,2.3,1.6s-1.2,1.9-2,1.9Z"/>
  </g>
  <g>
    <g>
      <g>
        <path class="cls-3" d="M22.9,246.8c0,6.3.6,7.5,3.9,8.2,1.2.2,1.5.4,1.5.9s-.4.8-1.2.8h-1.3c-.9-.2-3.6-.2-5.6-.2s-5,.2-6.4.4c-.4,0-.8.1-1,.1-.7,0-1.1-.4-1.1-.9s.2-.6.7-.7c2.8-1.1,3.1-2.2,3.1-8.9v-14.9c0-5.6-.5-6.3-4.6-7.1-.7-.2-1-.4-1-.9s.6-1,1.2-1,1,0,1.6.2c1,.2,3,.3,5.4.3s2.9,0,7.5-.4c.7,0,1.5-.1,2.3-.1,7.8,0,12.5,3.6,12.5,9.4s-.8,4.2-2.4,5.5c-.9.8-1.1.9-3.3,1.8-.3.1-.4.2-.4.4,0,.3,3.1,5.7,5.1,9,2.1,3.3,2.4,3.7,3.1,4.3s1.4.9,2.2.9h1c.2-.1.5-.1.6-.1.4,0,.6.2.6.6s-.5,1-1.7,1.5c-1.5.7-3.6,1.1-4.8,1.1-1.9,0-3.9-.7-5.3-2-1.5-1.2-2.7-3.1-4.6-6.8-1.7-3.5-2.9-5.5-3.6-6.4-.6-.7-1.1-.9-2.4-.9s-1.8.2-1.8,2.2v3.9ZM22.9,236.1c0,2.5.2,2.7,4,2.7s6-2.1,6-6-.9-5.1-2.5-6.7c-1.1-1.1-2.5-1.5-4.6-1.5s-2.1.3-2.4.8c-.5.8-.5,1-.6,3.4-.1,2.2-.1,2.8-.1,3.1v4.3Z"/>
        <path class="cls-3" d="M85.2,238.7c0,10.7-8.5,18.5-19.9,18.5s-8.2-1.2-11.3-3.4c-4.4-3.2-6.6-7.8-6.6-13.8,0-10.2,8.2-17.8,19.4-17.8s18.4,6.8,18.4,16.5ZM58.1,227.3c-1.8,2.2-2.9,5.4-2.9,9.2s1.3,9.4,3.5,13c2.1,3.4,5.7,5.6,9.3,5.6,5.6,0,9.6-5.5,9.6-13.2s-5.6-17.7-12.6-17.7-5.1,1.2-6.8,3.1Z"/>
        <path class="cls-3" d="M121.8,227.3c0,.6.2,3,.4,3.7.2,1.1.3,1.9.3,2.4s-.3.8-.6.8-.6-.3-1-1.3c-1-1.9-2.8-4.1-4.7-5.8-2.3-1.8-5-2.8-7.8-2.8-6.7,0-10.8,5.1-10.8,13.4s5.4,16,12.7,16,8.3-2.3,10.5-5.1c1-1.3,1.1-1.3,1.4-1.3s.6.3.6.7c0,.8-1.1,2.4-2.8,4.1-3.4,3.3-8,5.2-13,5.2-10.2,0-17-6.8-17-16.9s8-18.1,18-18.1,6.1.7,9.7,2.4c1,.5,1.2.5,1.4.5.4,0,.8-.3,1.5-.9.6-.7.7-.7.9-.7s.4.3.4.6v3.2Z"/>
        <path class="cls-3" d="M139.8,245.5c.2,7.5.6,8.4,3.9,9.2,1,.3,1.4.6,1.4,1.2s-.5,1.1-1,1.1-1-.1-1.8-.3c-1-.2-2.5-.3-4.1-.3s-5.3.3-7.1.5c-.5,0-.9.1-1.2.1-.6,0-.9-.4-.9-1s.2-.8.7-1c2.7-.8,2.9-1.4,2.8-8.7v-14.8c.1-5.1-.7-6.5-4.1-6.8-1-.1-1.5-.5-1.5-1.2s.4-.9,1.1-.9,1.1,0,1.8.2c1.1.2,2.2.3,3.8.3,2.6,0,5.1-.2,6.1-.4,1.3-.3,2.4-.4,2.9-.4s.9.4.9.9-.3.8-1.3,1.1c-2.3.8-2.4,1.1-2.5,6.9v5.8c0,1.3,0,1.5.5,1.5s.4,0,1.7-1.1l.8-.7,5.4-4.8q.8-.7,4.1-3.8c1.1-1.1,1.5-1.7,1.5-2.4s-.4-1.1-1-1.4q-.5-.2-1.5-.2c-.5,0-.8-.3-.8-.8s.5-1,1.5-1,1.5,0,4.1.2c.4,0,.8,0,1.4,0,1.3,0,2.7,0,3.5-.2.9-.1,1.8-.2,2.2-.2.6,0,.9.3.9.8s-.2.7-1.9,1.3c-2,.5-5,2.6-9.1,6.4l-4.2,3.9c1.4,2.4,4.2,6.4,9.9,14.2,3.4,4.6,4,5,7.8,5.9.6.2.7.3.7,1s-.5,1.2-1.3,1.2h-.8c-2-.4-2.4-.4-3.8-.4s-3,.1-4.1.3c-.5,0-1,.1-1.3.1-1,0-1.5-.4-2.5-1.8-.2-.3-1-1.4-2.3-3.1-1.7-2.3-6.2-8.9-7.1-10.4-.8-1.2-1-1.5-1.3-1.5-.4,0-1.5.9-3.1,2.5v2.9Z"/>
        <path class="cls-3" d="M189.8,248.3c.1,5.3.7,6,5.1,6.6.8.2,1.2.5,1.2,1s-.5,1-1.3,1-1,0-1.7-.1c-2.8-.4-6.4-.6-8.6-.6s-4.3.2-5.8.5c-.4,0-.7.1-1,.1-.5,0-.9-.4-.9-1s.2-.9,2.2-1.2c2.9-.7,3.4-1.5,3.5-5.5v-2.7c-.1-3.2-.2-3.3-4.1-10.4-1.1-1.8-1.9-3.5-2.3-4.2-3-5.8-3.4-6.3-6.8-7.3-.7-.2-.9-.5-.9-1s.5-1.1,1.1-1.1.6,0,.9.1c1.8.3,3.6.4,6.1.4s4.3-.1,6.4-.4c.5,0,.9-.1,1.2-.1.7,0,1.2.4,1.2,1s-.3.7-.9.9c-1.3.4-1.9.8-1.9,1.4,0,1.7,5.7,12.6,6.6,12.6s.6-.4,2.4-3.3c2.4-3.8,3.7-6.8,3.7-8.1s-.9-1.8-3.7-2.5c-.9-.2-1.2-.5-1.2-1s.5-1,1.2-1,.9,0,1.4.1c1.2.2,2.3.2,6,.2s1.5,0,2.6-.2c.4,0,.7-.1,1-.1.6,0,.9.4.9,1s0,.6-2.4,1.4c-1.2.5-2.2,1.4-3.4,3.9-1.7,3.2-2,3.8-4.8,8.4-1.9,3.2-2.4,4-2.5,4.7-.2.5-.3,1.6-.3,3.1v3.5Z"/>
      </g>
      <g>
        <path class="cls-3" d="M202,254.6c0-.4-.3-.7-.9-.7h-1v2.2h.5v-.8h.4l.5.8h.6l-.6-.8c.3-.1.5-.3.5-.7ZM201.1,255h-.5v-.7h.5c.2,0,.4,0,.4.3s-.2.3-.4.3Z"/>
        <path class="cls-3" d="M201,252.9c-1.2,0-2.2,1-2.2,2.2h0c0,1.2,1,2.2,2.2,2.2s2.2-1,2.2-2.2h0c0-1.2-1-2.2-2.2-2.2ZM202.9,255c0,1-.8,1.9-1.9,1.9s-1.9-.8-1.9-1.9h0c0-1,.8-1.9,1.9-1.9s1.9.8,1.9,1.9h0Z"/>
      </g>
    </g>
    <path class="cls-3" d="M64.4,193.2c4.2-1.4,7.2-5.1,8-10,3.2,6.3-6.3,13.6-2.1,20.8,2.3,3.8,9.6,4.3,13.2,1,1.6-1.5.7-3.4,3.5-3.4,0,8-3.7,11.6-8.4,14.8h46s-23.4-35.8-23.4-35.8c0,0,10.1,3.8,14.1-7-4.1-2.4-11.6-1.1-14.8,2.4,0-16.1,22.3-14.3,22.3,1.9s-11.8,14.8-13.4,4.4c-3.5,4.3.3,11.4,8.1,11.4s14.3-4.9,16-11.5l23,34.1h3.7l-26-38.5c.4-10.3-6.2-22.6-18-26.6l-12.1-17.9-8.2,11.1-12.3-21.4-9.4,29.4c-5.7-1.4-11.7,2.9-11.7,14.6s6.1,20.7-3.6,20.7c-1.6,0-4.2-.6-4.5-5.3-3.5,4.3-1.4,11.4,6.5,11.4h.1l-7.2,22.6h3.2l7.4-23.2ZM72.4,160.3c0,0-.1,0-.2,0-.1,0-.3,0-.4-.2-.9-.6-1.1-2.1.2-2.7,1.3-.3,2.6-.2,3.8.1.3,0,.5.2.8.2.3,0,.5.2.7.3,0,0,0,0,.1,0,.2,0,.4.2.6.3,0,0,0,0,.1,0,.2.1.4.2.6.4,0,0,0,0,0,0,.2.1.4.2.6.4.1,0,.2.2.3.2.4.3.7.6,1,.9.2.2.4.4.6.6-1.8-1-3.8-1.5-5.7-1.4-.2,0-.3,0-.5,0-.7,0-1.3.3-1.9.6-.3.1-.6.1-.8,0ZM75.9,165.1c-.2,0-.3.1-.5.1-.2,0-.5,0-.7,0,0,0-.2,0-.2-.1,0,0-.1,0-.2-.1,0,0,0,0-.1-.1,0,0-.2-.2-.2-.3,0-.1-.2-.3-.2-.5,0-.3,0-.6,0-.9h0c0,0,0-.2.2-.3h0c0,0,.1-.2.2-.2h0c0,0,.1-.1.2-.2,0,0,.2,0,.2-.1,3.1-.7,6.5,1,8.3,3.5-2.2-1.3-4.8-1.7-7.1-.6ZM83.9,170c-1.7-1-3.8-1.1-5.5-.2-1.9.8-3.2-1.9-1.3-2.8,2.5-.6,5.5,1,6.8,3ZM92.4,182.1c-7.9.3-14.5,7.2-14.5,15h0l-3.9,2.4-1.3-2.1c1.6-5.7,5.7-12.6,1-17.9,1.9-1.1,3.1-3.8,3-6,2.1-1.1,5.5-1,7.3.7,2.2-2,7.4-1.9,8.9.9-1.4,1.6-1.6,5.1-.6,7.1ZM92.6,170.2c-.8-.1-1.4-.7-2.1-.8-1.8-.5-3.7-.3-5.4.6,1.8-2.3,5-3.3,7.8-2.9,2,.2,1.7,3.2-.3,3.1ZM98.8,164c-.2.8-1,1.4-1.8,1.2-1-.3-1.9-1-3-1.2-2.7-.8-5.8,0-8,1.7,1.9-2.5,5.1-4,8.3-4,1.1,0,2.2.2,3.3.4.8.2,1.4,1,1.2,1.8ZM103.1,159.2c-.2.8-1.1,1.3-1.9,1.1-1-.4-1.9-1.1-3.1-1.3-3-.8-6.4-.3-9.2,1.1,2.6-2.2,6.1-3.5,9.5-3.3,1.2,0,2.4.3,3.6.6.8.2,1.3,1.1,1.1,1.9ZM107.5,154.3c-.2.8-1,1.4-1.8,1.2-3.4-1.7-7.5-2.1-11.1-.7,2.5-1.7,5.5-2.6,8.5-2.6,1.5.1,4.7-.2,4.4,2.1ZM84.4,130.5l8.8,15.4,2.3,4,2.8-3.7,5.7-7.6,7.9,11.6c-1.4-.2-2.8-.3-4.3-.3-10.8-.1-23,8.7-23,19.4,0-7.8-3.4-13.3-7.5-15.8l7.3-23.1ZM70.3,153.5c1.2-.1,2.4,0,3.5.3.2,0,.5.1.7.2.2,0,.5.2.7.3.2,0,.4.2.7.3,0,0,.1,0,.2.1.2,0,.3.2.5.3.4.2.7.4,1,.7.2.1.3.2.5.4.2.1.3.2.5.4-.2,0-.4-.2-.5-.2-.2,0-.4-.2-.5-.2-.2,0-.4-.1-.5-.2-.2,0-.4-.1-.6-.2-.6-.2-1.2-.3-1.8-.4-1.3-.1-2.7,0-3.9.5-1.6.5-2.1-1.9-.5-2.1Z"/>
    <g>
      <path class="cls-3" d="M64.2,269.1h6.4v1.7h-4.5v1.7h4v1.7h-4v1.8h4.6v1.7h-6.4v-8.5Z"/>
      <path class="cls-3" d="M75.3,276.3l1.1-1.3c.8.6,1.6,1,2.5,1s1.2-.3,1.2-.8h0c0-.5-.3-.7-1.7-1.1-1.7-.4-2.8-.9-2.8-2.6h0c0-1.6,1.2-2.6,3-2.6s2.3.4,3.1,1.1l-1,1.4c-.7-.5-1.5-.8-2.2-.8s-1.1.3-1.1.7h0c0,.6.4.8,1.8,1.1,1.7.4,2.7,1.1,2.7,2.5h0c0,1.7-1.3,2.6-3.1,2.6s-2.6-.4-3.6-1.4Z"/>
      <path class="cls-3" d="M89.1,270.8h-2.6v-1.7h7v1.7h-2.6v6.7h-1.9v-6.7Z"/>
      <path class="cls-3" d="M97.1,275.6h2v1.9h-2v-1.9Z"/>
      <path class="cls-3" d="M112.9,270.9l-1.5.4-.4-1.5,2.4-.7h1.3v8.5h-1.8v-6.6Z"/>
      <path class="cls-3" d="M124.9,274c-.4.4-1,.6-1.7.6-1.8,0-3-1-3-2.7h0c0-1.7,1.3-3,3.2-3s1.8.3,2.4.9c.6.6,1,1.5,1,3.2h0c0,2.8-1.3,4.6-3.7,4.6s-2.1-.4-2.8-1l1-1.4c.6.5,1.1.7,1.9.7,1.3,0,1.6-1.2,1.7-1.9ZM124.9,271.8h0c0-.8-.6-1.3-1.5-1.3s-1.4.5-1.4,1.3h0c0,.8.6,1.3,1.5,1.3s1.5-.5,1.5-1.3Z"/>
      <path class="cls-3" d="M131.4,276.2l1.3-1.2c.6.7,1.2,1,2,1s1.2-.4,1.2-1h0c0-.7-.6-1.1-1.7-1.1h-.8l-.3-1.2,2-2h-3.3v-1.6h5.7v1.4l-2.1,2c1.1.2,2.3.8,2.3,2.4h0c0,1.6-1.2,2.8-3,2.8s-2.6-.6-3.3-1.5Z"/>
      <path class="cls-3" d="M142.7,276l2.8-2.3c1.1-.9,1.5-1.3,1.5-2s-.5-1.1-1.1-1.1-1.1.4-1.7,1.1l-1.3-1.1c.8-1.1,1.6-1.8,3.2-1.8s2.9,1,2.9,2.6h0c0,1.4-.7,2.1-2.2,3.3l-1.4,1.1h3.7v1.6h-6.3v-1.5Z"/>
    </g>
  </g>
  <g>
    <path class="cls-5" d="M158.9,83.8c-1.3-2.2-2.2-5.9-2.7-8.1h0c-.3-1.9-1.6-4.8-2.6-5.3h-8.5v18.4h-13v-30.8h19.2c2.4,0,4.3-1.9,4.3-4.3h0c0-2.4-2-4.5-4.3-4.5h-31.7v39.5h-13.1v-39.5h-13.8l-8.2,12.2,18.1,27.3h-16.4l-9.9-14.9-9.9,14.9h-15.8l17.8-26.9-17.2-25.9h16.4l9,13.7,9.1-13.7h65.7c9.8,0,17.7,8,17.7,17.8h0c0,4.1-1.4,7.9-3.7,10.9h0c.6.7,1.3,1.7,2.1,3.1h0c1.4,2.8,1.6,6.4,2,7.4h0c.2.5.5.9.8,1.2h0l13.8-40.3h15.8l18,52.8h-13.9l-2.7-8h-14.6s3.5-13,3.5-13h6.6s-5.3-15.7-5.3-15.7l-12.5,36.8h-11.6c-4.9,0-7.5-3.1-8.7-5h0ZM76.6,52l1.1-.7-1.1.7h0Z"/>
    <path class="cls-6" d="M254.5,68.3v-19.1h-15.6v39.5h-13.1v-39.5h-17.1l-4.2-13.3h63.2v32.4c0,4.1,3.4,7.5,7.5,7.5h0c4.1,0,7.5-3.4,7.5-7.5h0v-32.4h12v1.3-1.3h1.3v32.4c0,11.5-9.3,20.8-20.8,20.8h0c-11.5,0-20.8-9.3-20.8-20.8h0Z"/>
    <path class="cls-6" d="M300.1,88.8v-52.8h35.4v13.3h-22.3v8.8h21.6s0,12.4,0,12.4h-21.6v18.4h-13.1ZM311.9,49.2v-1.3,1.3h0Z"/>
    <path class="cls-6" d="M348.6,42.6c0-2.9-2.3-5.2-5.2-5.2s-5.2,2.3-5.2,5.2c0,2.9,2.3,5.2,5.2,5.2,2.9,0,5.2-2.3,5.2-5.2h0ZM348,42.6c0,2.5-2.1,4.6-4.6,4.6-2.5,0-4.6-2.1-4.6-4.6,0-2.5,2-4.6,4.6-4.6s4.6,2.1,4.6,4.6h0ZM341.5,45.3h.7v-2.5h1.9c1.2,0,.9,1.1,1,1.7v.7h1c-.3-.5-.2-.6-.3-1.4,0-1-.1-1.1-.7-1.5.6-.4.8-.7.8-1.4,0-1.3-.9-1.5-1.8-1.5h-2.6v5.7h0ZM344,40.2c.5,0,1.2.1,1.1,1.1,0,.7-.6.9-1.1.9h-1.8v-2h1.8Z"/>
  </g>
</svg>