<?xml version="1.0" encoding="utf-8"?>
<!-- Generator: Adobe Illustrator 26.3.1, SVG Export Plug-In . SVG Version: 6.00 Build 0)  -->
<svg version="1.1" id="Layer_1" xmlns="http://www.w3.org/2000/svg" xmlns:xlink="http://www.w3.org/1999/xlink" x="0px" y="0px"
	 viewBox="0 0 200 220" style="enable-background:new 0 0 200 220;" xml:space="preserve">
<style type="text/css">
	.st0{clip-path:url(#SVGID_00000175286819632679545910000009988438488309895319_);fill:#0067B1;}
	.st1{clip-path:url(#SVGID_00000088831018221067916520000013966050314996405158_);fill:#0067B1;}
	.st2{clip-path:url(#SVGID_00000027585760962276724300000016244451014886793372_);fill:#0067B1;}
	.st3{clip-path:url(#SVGID_00000018941798656204021830000010815241413203113390_);fill:#0067B1;}
	.st4{clip-path:url(#SVGID_00000072274525706162184820000005127676282123613576_);fill:#0067B1;}
	.st5{clip-path:url(#SVGID_00000103981796294644989610000014915213756948313500_);fill:#0067B1;}
	.st6{clip-path:url(#SVGID_00000085241519090311386880000009421639088934712464_);fill:#0067B1;}
	.st7{clip-path:url(#SVGID_00000082353572040553339910000009802156410084250018_);fill:#0067B1;}
	.st8{clip-path:url(#SVGID_00000100361191694509888580000008487663038638515114_);fill:#0067B1;}
	.st9{clip-path:url(#SVGID_00000101820033367192925140000012473311978494898844_);fill:#0067B1;}
	.st10{clip-path:url(#SVGID_00000162345633000862650760000003976452881375748262_);fill:#0067B1;}
	.st11{clip-path:url(#SVGID_00000150099984101356491170000015770773272983499424_);fill:#0067B1;}
	.st12{clip-path:url(#SVGID_00000065061977004679339020000007820532828143241353_);fill:#0067B1;}
	.st13{clip-path:url(#SVGID_00000034062254367317539540000009711136302749808043_);fill:#0067B1;}
	.st14{clip-path:url(#SVGID_00000165219858384806263860000004271200048281973426_);fill:#0067B1;}
	.st15{clip-path:url(#SVGID_00000093164231367602328930000000256613081537190070_);fill:#0067B1;}
	.st16{clip-path:url(#SVGID_00000072240063765996582270000007078585403194268606_);fill:#0067B1;}
	.st17{clip-path:url(#SVGID_00000070801504387728896430000013734694220381944980_);fill:#0067B1;}
	.st18{clip-path:url(#SVGID_00000057123967597894953490000011120061697068017316_);fill:#0067B1;}
	.st19{clip-path:url(#SVGID_00000044856999824752975150000000837120295685644431_);fill:#0067B1;}
	.st20{clip-path:url(#SVGID_00000104665620383346077880000016018744119568538788_);fill:#0067B1;}
	.st21{clip-path:url(#SVGID_00000031919559192845178500000004541142549946909323_);fill:#0067B1;}
	.st22{clip-path:url(#SVGID_00000101072447755921237890000011708443764792406456_);fill:#0067B1;}
	.st23{clip-path:url(#SVGID_00000153689912305680071440000003392272963484475295_);fill:#0067B1;}
	.st24{clip-path:url(#SVGID_00000041295861919232201150000015229320996265774516_);fill:#0067B1;}
</style>
<g>
	<g>
		<g>
			<defs>
				<rect id="SVGID_1_" x="1.3" y="1.3" width="196.8" height="217.7"/>
			</defs>
			<clipPath id="SVGID_00000019656415664368890440000006850427292905594807_">
				<use xlink:href="#SVGID_1_"  style="overflow:visible;"/>
			</clipPath>
			<path style="clip-path:url(#SVGID_00000019656415664368890440000006850427292905594807_);fill:#0067B1;" d="M80.3,213.6
				c1.7,0,4.6-0.5,6.9-4.2c-1.3-2.9-2.2-8.8-2.4-11c-0.7-11,3.6-21.2,8.2-21.5c3.4-0.2,6.1,3,6.4,8.2c0.9,13.7-3.7,19.3-6,24.3
				c0.4,1.9,3.6,5.1,6.7,5.1c1.1,0,2.5-0.6,2.8-1c-0.2-0.8-0.5-1.8-0.5-3.3c0-7.9,5.1-14.6,9.5-14.6c3.5,0,5.5,4.6,5.5,7.7
				c0,3.6-3,6.5-7.6,9.4c0.8,0.8,2.2,1.4,3.5,1.4c6.5,0,9.8-7.8,12.3-14.9c0.5-1.4,1.3-3.3,2.8-3.3c2.7,0,3.8,17.8,8.4,17.8
				c1.9,0,3.5-4,3.5-7c0-2.2-0.8-2.5-0.8-5.7c0-3.6,1.9-6.7,4.6-6.7c1.6,0,2.2,1.6,2.2,3.5c0,7.2-5.2,20.6-12.9,20.6
				c-5.7,0-5.3-10-7.3-10c-2.2,0-5.4,10-16.6,10c-1.8,0-3.8-0.9-5.3-2.7c-2.7,1.8-4.9,2.6-7.6,2.6c-4.2,0-6-4.3-7.7-4.3
				c-2,0-4.3,4.4-11.1,4.4c-5.4,0-6.3-7.2-8.2-7.2c-1.7,0-4.3,7.2-7.1,7.2c-4.7,0-5.7-12.5-10-12.5c-3.3,0-13.6,12.7-16.4,12.5
				c-1.1-0.1-1.6-1-1.5-2.1c0.1-1.6,1.5-5.7,2-7.7c0.9-3.4,1.8-7.2,2.2-8.4c0.5-1.2,1.7-2,2.7-2c0.5,0.1,0.7,1,0.8,1.8
				c0.6,2.8,1.4,5.7,2.2,5.7c1.6,0,6.8-10,9.9-10c3.8,0,4.2,15.8,9.2,15.8c1.7,0,3-2,4.1-4.5c0.1-4.2,1.3-10.2,4.6-10.2
				c2.4,0,3.5,5.3,1.8,10C74.3,212.2,78,213.6,80.3,213.6 M170.7,200.1c-1.4,5.8-5.7,14.3-11.9,14.3c-1.5,0-4.1-0.6-4.1-2
				c0-1.6,10-1.8,10-9.4c0-2.8-2.6-6.8-6.5-6.8c-5.1,0-10,5.5-10,13.2c0,6.9,4.3,9.2,8.6,9.2c7.5,0,11.9-6.1,14.3-11.2
				c1.1,3.4,1.8,11.2,4.6,11.2c1.1,0,1.9-0.6,3.3-3.6c3.4-7.6,6.7-16.2,11.1-16.2c1.7,0,0.7,3,4.7,3c1.9,0,3.3-1.6,3.3-3.4
				c0-2.6-2.4-4.6-6-4.6c-10.6,0-12.9,15.9-14.6,15.9c-2.8,0-1.9-12.7-4-12.7C171.8,196.9,170.9,199,170.7,200.1 M95.8,188.1
				c-0.2-3.2-1-4.6-2.6-4.5c-2.2,0.1-3.3,7.2-2.8,14.6c0.3,4.9,1,5.6,1.7,5.5C93.2,203.8,96.2,195.1,95.8,188.1 M77.4,181.5
				c-0.1-1.8-1.6-3-3.5-3c-2.1,0-4.2,2.2-4,5.1c0.1,1.8,1.3,3.4,3.4,3.4C75.9,186.9,77.6,184.1,77.4,181.5 M112.5,204.6
				c0-1.9-1-3.5-2.2-3.5c-1.1,0-3.4,1.1-3.4,4.7c0,2.8,1,4.2,1.5,4.7C111.6,209.5,112.5,206.8,112.5,204.6 M156.7,200.7
				c2.4,0,3,2.8,2.5,4.5c-0.6,1.7-2.6,3.6-5.7,4.2C152.7,207.7,152.4,200.7,156.7,200.7 M26.6,192.7c-0.3-1.1-1.3-3.4-1.5-5
				c-0.6-3.8,1.4-6.3,3.2-6.8c2-0.6,2.8,0.5,3.6,2.8c1,3.6,1.1,8.4,0.8,15.1c-0.5,9.2-5.1,20.5-16.6,20.2
				c-10-0.2-14.3-6.7-14.8-16.5c-0.2-4.6,0.1-9.2,2-15.8c1-3.5,1.9-4.7,5.1-5.4c2.5-0.5,2.2,2.1,1.7,5.2c-1.3,6.8-1.8,10-1.4,17.7
				c0.5,8.1,4.2,11.3,8.2,11.3c6.1,0.1,8.8-4.9,10-12.3C27.9,197.3,27.2,194.5,26.6,192.7"/>
		</g>
	</g>
	<g>
		<g>
			<defs>
				<rect id="SVGID_00000163048925535664402280000009882281148426160300_" x="1.3" y="1.3" width="196.8" height="217.7"/>
			</defs>
			<clipPath id="SVGID_00000151535809426815535330000006111662902324715150_">
				<use xlink:href="#SVGID_00000163048925535664402280000009882281148426160300_"  style="overflow:visible;"/>
			</clipPath>
			<path style="clip-path:url(#SVGID_00000151535809426815535330000006111662902324715150_);fill:#0067B1;" d="M159.8,45.8
				c0.8,5.7,9.4,13.3,11.7,13.2c1.6-0.1,2.2-7.5,2.2-13.2c0-3.3,0.2-5.9-1.6-6.5C169.4,44.9,162.2,46,159.8,45.8 M160.3,43.3
				c6.2,0,11.9-4.9,11.9-9.4c0-2-1-3.7-3.4-4c0.4,0.5,0.6,1,0.6,1.9c0,3.3-5,6.9-10.5,6.9c-2,0-2.6,1.4-2.6,2.1
				C156.3,42.6,158,43.3,160.3,43.3 M159,36.5c-0.9,0-2,0-2.7-1.3c-0.5-1.1-0.3-2.8-1.4-3.6c1,0.3,2.1,0.3,3,0.3
				c2.7,0,5.3-1.8,7.3-1.8c1.3,0,1.7,0.9,1.7,1.6C166.8,34.4,161.6,36.5,159,36.5"/>
		</g>
		<g>
			<defs>
				<rect id="SVGID_00000154402678848670404280000017183484254423258265_" x="1.3" y="1.3" width="196.8" height="217.7"/>
			</defs>
			<clipPath id="SVGID_00000030448351524943737540000003819324065336743350_">
				<use xlink:href="#SVGID_00000154402678848670404280000017183484254423258265_"  style="overflow:visible;"/>
			</clipPath>
			<path style="clip-path:url(#SVGID_00000030448351524943737540000003819324065336743350_);fill:#0067B1;" d="M25,83.5
				c2,0,1.6-12.5,4.9-12.5c0.8,0,1,0.8,1,1.7c0,2.8-1.4,6.9-1.4,9.2c0,1.1,0.3,1.5,0.9,1.5c1.5,0,4-13.7,6.4-13.7
				c0.8,0,1.1,0.8,1.1,1.6c0,2.9-3.6,11.1-3.6,13.5c0,0.3,0.1,0.7,0.4,0.7c1.5,0,4.5-6.5,5.5-9.7c0.5-1.6,1.3-2.6,1.9-2.6
				c0.6,0,1.1,0.7,1.1,2c0,3.2-3,10.8-5.6,16c-2,4-5.2,9.6-5.2,12.8c0,1.6,0.3,3.3,2.6,5.3c-3.8-0.3-5.4-0.6-6.9-3.6
				c-6.4,12.7,11.8,11.5,5.5,22.8c-1.1-2-10.2-4.2-10.2-16c0-10.2,9-16.2,9-20.5c0-0.9-0.3-1.6-1.1-2.2c-2-1.6-2-3-3.6-3
				c-1.1,0-2.5,2.6-1.1,4.9c0.5,0.8,0.9,1.3,0.9,2c0,1.6-2.6,6.2-4.5,6.2c-1.8,0-3.3-4.6-3.3-12.1c0-6.6,1.5-13.3,3.4-13.3
				c0.5,0,0.7,0.3,0.7,0.9c0,0.8-0.3,2.3-0.3,4.9C23.8,83.2,24.5,83.5,25,83.5"/>
		</g>
		<g>
			<defs>
				<rect id="SVGID_00000041275028479844416470000005079980171101662860_" x="1.3" y="1.3" width="196.8" height="217.7"/>
			</defs>
			<clipPath id="SVGID_00000152242123599348174200000001573854983750709676_">
				<use xlink:href="#SVGID_00000041275028479844416470000005079980171101662860_"  style="overflow:visible;"/>
			</clipPath>
			<path style="clip-path:url(#SVGID_00000152242123599348174200000001573854983750709676_);fill:#0067B1;" d="M40.2,101
				c2.5,0,4.6-1.8,4.6-6v-6.1c0-2.3,0.2-4.9,1.7-6.9c-0.2,0.8-0.2,1.6-0.2,2.4c0,5.1,2.9,8.7,2.9,13.7c0,1.8-0.5,2.9-2,2.9
				c-1.4,0-1.3-1.3-1.6-1.3c-0.3,0-0.6,0.8-0.6,1.6c0,1.3,0.9,3.2,3.4,3.2c2.2,0,3.9-2,3.9-4.2c0-5.4-4.2-11.4-4.2-17.2
				c0-2.5,0.7-4.2,1.2-5.5c0,11.9,10.1,20.6,10.1,25.6c0,1.1-0.9,2-2.1,2c-1.4,0-2-1.1-2-1.9c0-0.4-0.1-0.5-0.3-0.5
				c-0.3,0-1.5,1.2-1.5,2.8c0,2,1.6,4.4,4.6,4.4c3.4,0,5.3-2.9,5.3-5.5c0-6.3-12.3-15.8-12.3-26c0-1.7,0.3-4.6,1.6-6.7
				c-7.9,5.1-10.4,11.9-10.4,17.8c0,5.1-0.2,7.7-2.8,7.7c-1.4,0-1.7-1.3-2.2-1.3c-0.3,0-0.5,1.1-0.5,1.4C37,99.8,38.7,101,40.2,101"
				/>
		</g>
		<g>
			<defs>
				<rect id="SVGID_00000168837358848500126760000015577093746083066020_" x="1.3" y="1.3" width="196.8" height="217.7"/>
			</defs>
			<clipPath id="SVGID_00000147215579735129870700000007511571477087540098_">
				<use xlink:href="#SVGID_00000168837358848500126760000015577093746083066020_"  style="overflow:visible;"/>
			</clipPath>
			<path style="clip-path:url(#SVGID_00000147215579735129870700000007511571477087540098_);fill:#0067B1;" d="M144.1,41.2
				c2.6,0,4.6-1.2,4.6-1.9c0-0.3-0.3-0.4-1.1-0.4c-0.8,0-2.3-0.1-5.3-0.5c-2.5-0.4-4.4-1.4-5.1-1.4c-0.3,0-0.3,0.1-0.3,0.3
				C136.8,38.8,139.7,41.2,144.1,41.2 M131,33.6c0.8-0.5,4.2,0.3,8.5-1.8c0.5-0.3,1.1-0.4,1.6-0.4c2.1,0,1.6,2.4,3.5,2.4
				c1.5,0,3.4-1.3,4.6-1.3c1.8,0,4.4,5.6,4.4,8.2c0,3-4.6,4.9-10,4.9c-8,0-12.7-6.9-12.7-11.4C130.7,33.8,130.9,33.7,131,33.6"/>
		</g>
		<g>
			<defs>
				<rect id="SVGID_00000039120275122925734180000016024216875742291616_" x="1.3" y="1.3" width="196.8" height="217.7"/>
			</defs>
			<clipPath id="SVGID_00000128443448146120995480000002363182078512673955_">
				<use xlink:href="#SVGID_00000039120275122925734180000016024216875742291616_"  style="overflow:visible;"/>
			</clipPath>
			<path style="clip-path:url(#SVGID_00000128443448146120995480000002363182078512673955_);fill:#0067B1;" d="M41.6,123.6
				c-2,0.5-5.1,3.6-5.1,8.5c0,5.9,6.3,14.9,16.7,14.9c8.8,0,10.9-6.1,10.9-10.2c0-9-5.5-15.4-12.8-15.4c-4,0-7.5,2.9-7.5,7.1
				c0,4,3,9.9,10.1,9.9c3.4,0,5.3-2.4,5.3-5.1c0-2.7-2.4-6.4-6.1-6.4c-1.1,0-1.8,0.7-1.8,1.8c0,1.5,2,2.9,4.4,2.9
				c0.6,0,1.1-0.1,1.3-0.3c0.1,0.2,0.2,0.5,0.2,0.7c0,1.4-1.3,2.2-3.4,2.2c-3,0-6-2.3-6-5.9c0-2.2,1.8-3.7,4.6-3.7
				c5.3,0,8.5,4.7,8.5,9.5c0,4.2-2.3,6.7-7.1,6.7C44.1,141,39.4,132.4,41.6,123.6"/>
		</g>
		<g>
			<defs>
				<rect id="SVGID_00000113348422488552138260000017688629321467149759_" x="1.3" y="1.3" width="196.8" height="217.7"/>
			</defs>
			<clipPath id="SVGID_00000011746592846742168590000007276983966733063054_">
				<use xlink:href="#SVGID_00000113348422488552138260000017688629321467149759_"  style="overflow:visible;"/>
			</clipPath>
			<path style="clip-path:url(#SVGID_00000011746592846742168590000007276983966733063054_);fill:#0067B1;" d="M105.3,146.8
				c0,1.3,1.1,2.4,2.4,2.4s2.4-1.1,2.4-2.4c0-1.3-1.1-2.4-2.4-2.4S105.3,145.4,105.3,146.8 M109.9,158.7c2.9,0,2.7-0.3,3.6-0.3
				c0.9,0,0.9,0.5,0.9,0.9c0,1.3-3,3-8.2,3c-3,0-4.9-1.6-5.5-3.4c-3,1.9-7.5,3.6-12.1,3.6c-12.3,0-15.4-5.3-19.3-7.1
				c-3-1.3-7.5,1.3-13.7-5.7c0.9,0.2,2,0.3,2.9,0.3c5.5,0,8.4-2.7,8.4-7c0-0.5-0.1-1.1-0.1-1.6c1.6,0.7,5.5,3.5,6.4,8.6
				c0.1,0.6,2.6,1.1,4.2,1.1c2.2,0,4.9-0.9,5.3-4.4c7.2-0.6,12.1-4.8,13.1-10.2c2.6,0.9,5.5,3.2,6.2,4.4c1-0.3,2.2-0.5,3.6-0.5
				c1.9,0,4.1,0.3,6.7,1.1c0.1-0.8,0.3-1.7,1.5-1.7c1.8,0,1.3,2,1.9,3.1c0.3,0.6,1.8,1,1.8,2.2c0,1.1-1,1.6-1.6,1.6
				c-0.3,0-0.5-0.1-0.7-0.1c-1.2,0.4-1.3,9-6.3,9c-3.7,0-7.1-3-8.6-6.9c-0.4-1.1-1.3-1.8-2.2-1.8c-0.9,0-1.5,0.2-2.6,1.5
				c-3.2,3.5-8.6,6.6-15.3,6.6c-2,0-3.6-0.2-4.1-0.2c-0.3,0-0.3,0.1-0.3,0.1c0,0.4,2,2,6.5,2c10.6,0,13.1-5.9,14.8-5.9
				c0.3,0,0.9,0,1.4,1C101.2,157.5,106.5,158.7,109.9,158.7"/>
		</g>
		<g>
			<defs>
				<rect id="SVGID_00000002377024071968037660000013189013128765934481_" x="1.3" y="1.3" width="196.8" height="217.7"/>
			</defs>
			<clipPath id="SVGID_00000042728678967035124810000016852049430065082248_">
				<use xlink:href="#SVGID_00000002377024071968037660000013189013128765934481_"  style="overflow:visible;"/>
			</clipPath>
			<path style="clip-path:url(#SVGID_00000042728678967035124810000016852049430065082248_);fill:#0067B1;" d="M146.3,120.6
				c-1.3,0-8.2,9.3-12.7,9.3c-1.1,0-2-2-2-3.6c0-0.9,0.5-1.5,2.4-1.8c10.3-2.3,8-10.1,16.8-10.1c4.9,0,10.2,3.3,10.2,10.8
				c0,7.9-11.3,17.7-12.9,17.7c-1.4,0-2.9-2-2.9-3.3c0-0.4,0.2-1,1.4-1.5c5.7-2.3,9-7.5,9-10.2c0-0.6-0.3-1.2-1.1-1.2
				c-1,0-5.3,10-10.2,10c-3.4,0-6.8-3-6.8-4.5c0-2.4,9.7-6.9,9.7-10.2C147.3,120.6,146.7,120.6,146.3,120.6 M152.7,116.9
				c-0.9,0-1.7,0.7-1.7,2.3c0,1.8,1.4,2.9,2.2,3.3c0.4,0.3,1.1,0.5,1.7,0.5c1.7,0,3.1-0.5,3.1-1.9
				C158,119.1,155.3,116.9,152.7,116.9"/>
		</g>
		<g>
			<defs>
				<rect id="SVGID_00000134938274734522801030000015178173637604272815_" x="1.3" y="1.3" width="196.8" height="217.7"/>
			</defs>
			<clipPath id="SVGID_00000076597479447157536970000014081535667411170738_">
				<use xlink:href="#SVGID_00000134938274734522801030000015178173637604272815_"  style="overflow:visible;"/>
			</clipPath>
			<path style="clip-path:url(#SVGID_00000076597479447157536970000014081535667411170738_);fill:#0067B1;" d="M40.8,47.5
				c0,1.3,1.1,2.4,2.4,2.4s2.4-1.1,2.4-2.4s-1.1-2.4-2.4-2.4S40.8,46.2,40.8,47.5 M37.7,42.1c0,1.3,1.1,2.4,2.4,2.4s2.4-1.1,2.4-2.4
				s-1.1-2.4-2.4-2.4C38.8,39.7,37.7,40.8,37.7,42.1 M35.6,58.5c-1.4,0.3-4.3,2-4.3,5c0,2.2,1.6,3.6,3.8,3.6c1.1,0,1.8-0.3,2.3-0.6
				c-1.6-1.6-2.2-3.4-2.2-5.2C35.1,60,35.3,59.2,35.6,58.5 M20.8,59.4c-0.1,0.3-0.1,0.6-0.1,0.9c0,2.8,1.5,4.4,3.5,4.4
				c1.5,0,3.2-0.9,4.8-2.9c-0.7,0.1-1.5,0.2-2.2,0.2C24.7,61.9,22.3,61.3,20.8,59.4 M18.7,64.7c0,4.6,1.4,6.7,3.8,6.7
				c1.9,0,4.5-1.4,7.5-4c-2.3,0.5-4.2,0.9-5.7,0.9C22.2,68.3,20.6,67.5,18.7,64.7 M34.3,40.8c0.3-1,0.5-2.2,0.5-3.5
				c0-2.9-1.3-7.3-5.4-7.3c-2.3,0-4,1.8-4,4.1C25.4,38.8,30.1,40.8,34.3,40.8 M29.2,55.8c-2,0-4.2-2.4-4.2-4.7
				c0-1.2,0.9-2.7,1.6-2.7c0.3,0,0.3,0.2,0.4,0.6c0.3,3,2.2,4.6,4.1,5.5l0.3,0.3C31.4,55.2,30.3,55.8,29.2,55.8 M34.7,48.5
				c0.4,0.6,1.6,1.3,1.6,1.6c0,0.9-0.5,1.9-1.5,1.9c-2.1,0-3.8-3.2-3.8-4.9c0-1.1,0.7-1.3,1.6-1.3c0.4,0,0.6,0.1,0.9,0.3
				C34,46.4,34,47.6,34.7,48.5 M20.6,55.9c-0.1,0.2-0.2,0.4-0.2,0.7c0,0.5,0.6,1.1,1.1,1.1c0.5,0,0.8-0.1,1-0.1c1.5,0,3,1,5.4,1
				c1.4,0,3-0.4,5-1.5c4.3-2.2,6-7.5,6-8.4c0-1.1-0.9-1-1.7-2c-0.8-1.1-0.5-2-1-2.4C36,44,35.2,43.9,34,43.9
				c-0.3-0.1-0.9-0.1-1.3-0.1c-2,0-4.3,0.3-6.9,1.9C20.7,49.1,21.4,54.5,20.6,55.9 M40.5,53.5c-1.3,1.6-2.7,4.2-2.7,6.9
				c0,3.2,2,5.9,5,5.9c2.9,0,4.3-2.5,4.3-5.1C47.2,57.2,43.5,54.4,40.5,53.5 M27.7,42.1c0,0-1.7,1.3-3.9,1.3c-2.6,0-4.6-1.9-4.6-4.6
				c0-1.8,0.9-3.8,3.2-4.7c-0.1,0.3-0.1,0.7-0.1,1C22.3,38.4,24.2,41,27.7,42.1"/>
		</g>
		<g>
			<defs>
				<rect id="SVGID_00000018941846115660051060000014110914583618478219_" x="1.3" y="1.3" width="196.8" height="217.7"/>
			</defs>
			<clipPath id="SVGID_00000116225701159331288810000016231946328220150443_">
				<use xlink:href="#SVGID_00000018941846115660051060000014110914583618478219_"  style="overflow:visible;"/>
			</clipPath>
			<path style="clip-path:url(#SVGID_00000116225701159331288810000016231946328220150443_);fill:#0067B1;" d="M133.3,61.9
				c0,1.4,1.1,2.5,2.5,2.5c1.4,0,2.5-1.1,2.5-2.5c0-1.4-1.1-2.5-2.5-2.5C134.4,59.4,133.3,60.5,133.3,61.9 M133.5,69.4
				c0,1.6,1.3,2.8,2.8,2.8c1.6,0,2.8-1.3,2.8-2.8s-1.3-2.8-2.8-2.8C134.8,66.7,133.5,67.9,133.5,69.4 M124.9,74.6
				c0,2.3,1.8,4.2,4.2,4.2c2.3,0,4.2-1.8,4.2-4.2c0-2.2-1.8-4.2-4.2-4.2C126.7,70.4,124.9,72.3,124.9,74.6 M127.1,66.2
				c0,1.3,1.1,2.4,2.4,2.4c1.3,0,2.4-1.1,2.4-2.4s-1.1-2.4-2.4-2.4C128.2,63.7,127.1,64.8,127.1,66.2 M119.2,70.9
				c0,1.3,1.1,2.4,2.4,2.4s2.4-1.1,2.4-2.4s-1.1-2.4-2.4-2.4C120.3,68.5,119.2,69.6,119.2,70.9 M125.4,56.9c0,2.1,1.7,3.8,3.8,3.8
				s3.8-1.7,3.8-3.8c0-2.1-1.7-3.8-3.8-3.8C127.1,53.1,125.4,54.8,125.4,56.9 M129.9,49.5c0,1.3,1,2.2,2.3,2.2c1.3,0,2.3-1,2.3-2.2
				c0-1.3-1.1-2.3-2.3-2.3C130.9,47.2,129.9,48.3,129.9,49.5 M119.1,55.3c0,1.3,1,2.3,2.2,2.3c1.3,0,2.3-1,2.3-2.3
				c0-1.3-1-2.3-2.3-2.3C120.1,53,119.1,54,119.1,55.3 M118.7,63c0,2,1.6,3.6,3.6,3.6c2,0,3.6-1.6,3.6-3.6s-1.6-3.6-3.6-3.6
				C120.4,59.4,118.7,61,118.7,63 M111.2,66.9c0,1.8,1.6,3.4,3.4,3.4s3.4-1.6,3.4-3.4c0-1.8-1.6-3.4-3.4-3.4
				C112.7,63.5,111.2,65,111.2,66.9 M113.3,58.4c0,1.3,1.1,2.4,2.4,2.4s2.4-1.1,2.4-2.4s-1.1-2.4-2.4-2.4S113.3,57.1,113.3,58.4
				 M134.2,76.9c0-1.2,1.1-2.2,2.2-2.2c1.3,0,2.3,1,2.3,2.2c0,1.4-1.1,2.3-2.3,2.3C135.4,79.2,134.2,78.3,134.2,76.9"/>
		</g>
		<g>
			<defs>
				<rect id="SVGID_00000142892867279314847420000002138785677378460065_" x="1.3" y="1.3" width="196.8" height="217.7"/>
			</defs>
			<clipPath id="SVGID_00000159448769188250072310000000437233113108437655_">
				<use xlink:href="#SVGID_00000142892867279314847420000002138785677378460065_"  style="overflow:visible;"/>
			</clipPath>
			<path style="clip-path:url(#SVGID_00000159448769188250072310000000437233113108437655_);fill:#0067B1;" d="M135.8,145.8
				c0.3,0,0.7,0.2,0.7,1.3c0,1.3-0.6,3-2.8,4.4c-1.5,1-3.6,1.8-6.5,1.9c0.5-1.5,0.9-2.9,0.9-4.4c0-0.5-0.1-0.9-0.1-1.4h0.8
				C133.5,147.7,135.5,145.8,135.8,145.8 M136.3,139.9c0.5-0.4,0.6-1.1,0.6-1.7v-1.4c0-1.7-2.6-2.8-6.2-2.8c-4.4,0-6.7,2-6.7,2.8
				v2.8c0,1.1,2.6,2.3,5.9,2.3C132.4,141.9,134.8,141.2,136.3,139.9 M139.4,140.6c-1.6,1.2-5.2,3.9-11.3,3.9c-3.2,0-4.7-1-5.1-1
				c-0.6,0-1.3,0.6-1.9,1.4c-1.5,1.6-3.3,4.8-3.3,8.2c0,2.4,1.8,4.8,5.3,4.8c11.2,0,19.6-7,19.6-12.7
				C142.7,141.9,140.8,140.6,139.4,140.6"/>
		</g>
		<g>
			<defs>
				<rect id="SVGID_00000100370981656046168360000001821803427551189389_" x="1.3" y="1.3" width="196.8" height="217.7"/>
			</defs>
			<clipPath id="SVGID_00000110470046555084509980000009319112793796086435_">
				<use xlink:href="#SVGID_00000100370981656046168360000001821803427551189389_"  style="overflow:visible;"/>
			</clipPath>
			<path style="clip-path:url(#SVGID_00000110470046555084509980000009319112793796086435_);fill:#0067B1;" d="M141.5,90.2
				c0,1.5,0.5,3.2,2,3.2c1.3,0,2.3-1.9,2.3-4c0-2.4-0.4-4.2-0.4-5.2c0-0.4,0.2-0.6,0.4-0.6c0.9,0.1,1.7,2.5,2.7,2.5
				c1.1,0,2.7-2,3.4-2l0.3,0.3c0,0.9-1.4,2.9-1.4,3.6c0,0.7,3.5,0.8,3.5,1.4c0,0.9-3.6,0.9-5.4,1.6c-1.6,0.7-2.7,1.6-2.7,2.8
				c0,1.2,1.2,1.5,2.9,1.5c4,0,6.8-2.2,7.7-2.2l0.3,0.3c0,0.6-2,2.6-2,3.5c0,1,3.7,2.2,3.6,2.8c-0.1,0.2-0.3,0.3-0.7,0.3
				c-0.7,0-1.6-0.2-2.4-0.2c-0.5,0-0.9,0.1-1.1,0.3c-0.4,0.5,0.1,3.6-0.7,3.6c-0.8,0-2.8-7.1-7.5-7.1c-0.7,0-1.1,0.5-1.1,1.5
				c0,2.4,2.3,5.1,4.6,6.5c1,0.7,2.7,1.3,2.7,1.7c0,0.7-3.8,0.1-3.8,1.3c0,1.1,0.5,2.7,0.5,3.6c0,0.3-0.1,0.7-0.4,0.7
				c-0.7,0-2.4-3.3-3.3-3.3c-0.7,0-2.3,2-3,2l-0.3-0.3c0-1.4,2.2-4.5,2.2-7.5c0-1.5-0.2-4.6-1.9-4.6c-1.5,0-3,2.2-3.8,4.6
				c-0.4,1.3-0.1,6.4-1.1,6.4c-0.9,0-0.7-3.4-1.8-3.4c-0.9,0-2.8,1.6-3.5,1.6l-0.3-0.2c0-0.7,1.7-3,1.7-3.6c0-0.9-4-1-4-1.7
				c0-0.4,1.6-0.7,3-1c3-0.5,7.5-2.8,7.5-5.9c0-3.5-3.4-4.9-5.5-6.4c-1.1-0.7-2.4-1.3-2.4-1.8s1.5-0.5,2-0.5c0.9,0,1.8-0.1,1.8-0.8
				c0-0.5-0.1-1.6-0.1-2.4c0-0.6,0.1-1.1,0.3-1.1c0.9,0,2.2,3,2.8,3c1,0,2.3-2.4,3.2-2.4c0.3,0,0.4,0.2,0.4,0.7
				C142.6,85.5,141.5,88,141.5,90.2 M112.9,72.6c0.7,5.1,7.5,2.5,7.5,8.7c0,0.9-0.3,2.2-0.3,3.4c0,1.3,0.1,2.4,1.1,2.4
				c1,0,1.3-0.7,1.3-1.6s-0.3-2.2-0.3-2.8c0-2.1,1.5-2.6,2.4-2.6c2.3,0,4,2.3,7.5,2.3c-0.8,3.8-8.7,2.8-8.7,7c0,2.1,2.1,2.6,3.5,2.6
				c1.3,0,1.6-0.2,1.6-1.3c0-0.6-0.1-1.3-0.1-1.6c0-0.3,0.2-0.5,0.5-0.5c1.3,0,7.8,4.9,7.8,6.4c0,1.4-6.8,2.8-8.8,2.8
				c-0.6,0-0.7-0.4-0.7-0.7c0-0.4,1-1.7,1-2.4c0-0.5-0.9-0.9-3.3-0.9c-1.1,0-2,0.1-2,1.1c0,1.6,2.6,3.6,2.6,5.1
				c0,1.2-0.7,1.9-2.6,1.9c-1.6,0-4.1-1.3-4.1-3.4c0-1.6,1.7-3.4,1.7-4.4c0-0.3-0.2-0.8-0.9-0.8c-2.2,0-2.8,5.9-10.7,6.5
				c1.3-1.1,2.3-2.4,2.3-4.9c0-1.3-0.3-2.3-0.3-3.6c0-1.8,0.9-2.7,2-2.7c2.2,0,3.3,3.1,4.7,3.1c0.8,0,1.6-0.7,1.6-1.8
				c0-4.6-8.8-3.9-8.8-10.3C110.7,77.8,111.3,75.6,112.9,72.6"/>
		</g>
		<g>
			<defs>
				<rect id="SVGID_00000158743201392890958290000006387366709004158649_" x="1.3" y="1.3" width="196.8" height="217.7"/>
			</defs>
			<clipPath id="SVGID_00000090974776844991441120000013575479197630007999_">
				<use xlink:href="#SVGID_00000158743201392890958290000006387366709004158649_"  style="overflow:visible;"/>
			</clipPath>
			<path style="clip-path:url(#SVGID_00000090974776844991441120000013575479197630007999_);fill:#0067B1;" d="M124.4,111.5
				c0,0.9,0.6,1.5,1.5,1.5c1,0,1.6-0.9,1.6-1.8c0-1.3-1.1-3-2.2-3c-0.5,0-0.3,0.7-0.4,1.5C124.6,110.4,124.4,111.1,124.4,111.5
				 M121.2,103.6c6.3,1.2,9.7,5.9,9.7,10.4c0,3-1.9,5.9-5.3,5.9c-3,0-5.3-2.1-5.3-5.5c0-2.5,2-5.1,2-7.7
				C122.4,105.6,122,104.6,121.2,103.6 M113.3,113.8c0.6,0.6,0.8,1.2,0.8,1.8c0,0.9-0.4,1.8-0.4,2.9c0,1.5,1.1,2.7,2.6,2.7
				c1.7,0,2.8-1.3,2.8-2.9C119.1,116,116.7,113.8,113.3,113.8 M133.1,109.9c0.4,0.7,0.6,1.3,0.6,1.9c0,1.6-1.1,3.2-1.1,4.9
				c0,2,1.5,3.6,3.8,3.6c2.4,0,4.2-2,4.2-4.3C140.4,112.9,137.5,110.2,133.1,109.9 M114.7,106.7c2.8,0.3,3.4,1.3,3.4,2.1
				c0,1.3-1.2,1.7-2.3,1.7c-0.9,0-1.8-0.2-2.8-0.2c-1.3,0-2.6,0.3-3.7,1.6c0.8,0.1,1.9,0.7,1.9,1.8c0,3.5-9.6,0.6-9.6,9.5
				c0,4.7,4.9,9.9,12.3,9.9c3.8,0,6.3-1.3,6.3-2.7c0-1.1-2-0.3-2-1.3c0-0.4,0.7-1.2,0.7-1.8c0-0.3-0.3-0.9-0.7-0.9
				c-1.1,0-3.1,1.7-7.3,1.7c-3.2,0-6.4-1.8-6.4-4.4c0-0.5,0.3-0.9,0.6-0.9c0.3,0,0.9,0.3,1.3,0.3c0.3,0,0.4-0.3,0.4-0.9
				c0-0.7,0-2.5,1.1-2.5s3.3,4.2,11.5,4.2c2.8,0,8.1-0.5,10-2.3c-0.1,6.6-5.2,15.3-16,15.3c-11.2,0-17.2-9-17.2-17.3
				c0-9.2,7.5-17.5,17.7-17.5c2.6,0,4.9,0.9,4.9,2C118.9,105.9,115,104.9,114.7,106.7"/>
		</g>
		<g>
			<defs>
				<rect id="SVGID_00000094607079809170010260000006366614115358138259_" x="1.3" y="1.3" width="196.8" height="217.7"/>
			</defs>
			<clipPath id="SVGID_00000102532682079198471900000010247015055556094369_">
				<use xlink:href="#SVGID_00000094607079809170010260000006366614115358138259_"  style="overflow:visible;"/>
			</clipPath>
			<path style="clip-path:url(#SVGID_00000102532682079198471900000010247015055556094369_);fill:#0067B1;" d="M75.9,38.3
				c4,0,5.7,3.4,5.7,7.3c0,1.6-0.5,4.2-1.3,4.2c-0.8,0-0.7-1.4-0.8-2.6c-0.1-1.6-0.4-2-1-2c-1,0-1.6,2.4-1.6,4.6
				c0,1.4,0.3,2.9,1.3,2.9c0.6,0,1.1-0.3,1.5-0.7c-0.3,2.8-2.3,5.1-5.1,5.1c-5.3,0-7.3-6.2-7.9-9.8c-3.2,3.4-6.1,5.8-11.4,5.8
				c-4.9,0-7.1-3.6-7.1-7c0-1,0.3-3.6,1.6-3.6c1.5,0,0.2,4.9,3.1,4.9c0.7,0,2-0.6,2.8-2.6c0.4-1.2,0.7-2.4,0.7-3.6
				c0-1.6-0.3-2.6-1.6-2.6c-1.1,0-2.3,0.8-2.7,1.2c1.5-4.3,4.9-6.5,8.8-6.5c4.7,0,7.3,4.2,7.3,8.8c0,0.7-0.1,1.4-0.2,2
				C70.1,40.9,72.8,38.3,75.9,38.3 M71.3,45.4c0-1-0.3-1.3-0.5-1.3c-0.6,0-1.3,0.7-2.2,2.3c0.1,2.2,0.5,3.1,1.1,3.1
				C70.3,49.6,71.3,47.5,71.3,45.4 M63.1,47.9c0.7,0,1.5-0.7,3-2.4c0.1-0.8,0.1-1.5,0.1-2.4c0-1.2-0.5-2.5-1.2-2.5
				c-1.8,0-2.7,4.8-2.7,6.1C62.4,47.3,62.7,47.9,63.1,47.9 M72.8,53.2c1.5,0,3.2-5.7,3.2-9.4c0-0.8-0.1-1.6-0.5-1.6
				c-1.3,0-3.4,5.9-3.4,9.2C72.2,52.6,72.5,53.2,72.8,53.2 M58.2,49.9c2,0,4.4-11,4.4-12.9c0-0.5-0.2-0.9-0.6-0.9
				c-1.8,0-4.4,10.5-4.4,12.8C57.5,49.4,57.7,49.9,58.2,49.9"/>
		</g>
		<g>
			<defs>
				<rect id="SVGID_00000070839199013010272060000002550979630326922917_" x="1.3" y="1.3" width="196.8" height="217.7"/>
			</defs>
			<clipPath id="SVGID_00000168105975430068187900000010759768587320670141_">
				<use xlink:href="#SVGID_00000070839199013010272060000002550979630326922917_"  style="overflow:visible;"/>
			</clipPath>
			<path style="clip-path:url(#SVGID_00000168105975430068187900000010759768587320670141_);fill:#0067B1;" d="M64.7,54.4
				c-2.6,0-2.7,3.1-2.7,9.4c-1.9-4.2-5.1-8.6-8.8-8.6c-2.5,0-3.5,1.6-3.5,4.6c0,0.6,0.1,1.5,0.2,2c0.3-1,1.3-1.5,2.4-1.5
				c2.6,0,5.7,2,7.7,4.7c-2.3-0.4-4.6-0.9-6.5-0.9c-1.2,0-2.3,0.1-3.2,0.5c-1.7,0.8-4.1,3.4-4.1,7.3c0,0.6,0.1,1.3,0.2,2
				c2.1-4.7,7.7-6.8,11.3-6.8c0.7,0,1.3,0.1,1.6,0.1c-1.8,1.6-2.3,4.6-2.4,6.6c-0.1,1-0.4,1-1.1,1c0,2,1.6,4.9,1.6,6.4
				c0,0.5-0.3,1-0.6,1.1c0,2.6,2.6,4.6,2.6,6.2c0,0.4-0.1,0.8-0.3,1c0.2,1.1,3.1,2.9,3.4,3.8c0.5,1.1,1,1.3,1.3,1.3
				c1,0,2.6-1.2,2.6-2.3c0-0.3-0.3-0.8-0.5-1c-1.1-0.9-1.7-2.6-2.2-3.8c-0.4,0-1-0.2-1.1-0.9c-0.3-1.3-0.3-3.6-0.8-4.9
				c-0.8-0.2-1.1-0.5-1.1-2.1c0-0.8,0.5-3.8,0.5-4.9c-0.3,0-0.9-0.3-0.9-1c0-1.9,1.9-3.4,2.4-5.9c3.4,2.5,4.3,5.1,4.3,7.4
				c0,1.2-0.2,2.3-0.4,3.4c2.5-1.3,6.3-3.1,6.3-6.9c0-2.2-1-4.7-7.8-5.6c2.1-0.8,4.7-1.2,6.9-1.2c3.8,0,6.1,1.2,6.5,3.9
				c0.8-1.2,1.4-2.6,1.4-3.8c0-3-2.4-4.9-5.5-4.9c-3.6,0-6.9,1.9-10.4,4.2c1.6-3.2,2.6-5.1,4.6-5.1c0.3,0,0.6,0.1,0.9,0.1
				C68.9,57,66.2,54.4,64.7,54.4"/>
		</g>
		<g>
			<defs>
				<rect id="SVGID_00000127044700331017723860000003411003204849521820_" x="1.3" y="1.3" width="196.8" height="217.7"/>
			</defs>
			<clipPath id="SVGID_00000018222004712187231120000006287862154145982098_">
				<use xlink:href="#SVGID_00000127044700331017723860000003411003204849521820_"  style="overflow:visible;"/>
			</clipPath>
			<path style="clip-path:url(#SVGID_00000018222004712187231120000006287862154145982098_);fill:#0067B1;" d="M165.6,97.6
				c3,0,5.4,3.9,5.4,8.4c0,4.9-2.3,10.1-6.3,13.7c-0.1-8.1-10-5.5-10-11.3c0-2.5,1.8-4.2,4-4.2c1.9,0,3.4,0.5,4.5,1.6
				c-1.1-1-1.6-2.4-1.6-3.8C161.6,99.7,163,97.6,165.6,97.6"/>
		</g>
		<g>
			<defs>
				<rect id="SVGID_00000140006040858437522410000003934145341256585094_" x="1.3" y="1.3" width="196.8" height="217.7"/>
			</defs>
			<clipPath id="SVGID_00000003069573469515254700000010267103410027826092_">
				<use xlink:href="#SVGID_00000140006040858437522410000003934145341256585094_"  style="overflow:visible;"/>
			</clipPath>
			<path style="clip-path:url(#SVGID_00000003069573469515254700000010267103410027826092_);fill:#0067B1;" d="M121.2,36.3
				c-0.5-0.8-2.2-1.2-3.1-1.2c-2.6,0-4.4,1.8-4.8,3.6c-0.3-0.6-0.4-1.3-0.4-2c0-2.6,1.8-5.9,6.2-5.9c3.8,0,5.3,2,5.9,2
				c0.6,0,1.2-0.6,1.7-0.6c0.7,0,0.7,1,0.7,1.7c0,2.4-1.1,6.5-3.8,8c-0.5-1-1.5-2.2-3-2.9c-0.4-0.2-0.6-0.5-0.6-0.9
				C119.9,37.5,120.5,36.7,121.2,36.3 M112.1,40.8c1.6,1.5,2.9,2.2,4.6,2.2c0.7,0,1.5-0.2,1.8-0.2c0.5,0,0.9,0.3,0.9,0.7
				c0,0.7-0.6,1.7-1.3,2.3c0.7,0.3,1.5,0.4,2.3,0.4c3.4,0,7.3-2.2,7.3-7.5c0.7,0.9,1.1,2.9,1.1,3.8c0,6.5-4.8,9-9.2,9
				c-2.9,0-4.3-1-4.7-1c-1.1,0-1.1,2.3-1.8,2.2c-1.4-0.3-2.6-3.3-2.6-6.5C110.6,44.2,111.1,42.2,112.1,40.8"/>
		</g>
		<g>
			<defs>
				<rect id="SVGID_00000088096362645082477100000013108118630496279713_" x="1.3" y="1.3" width="196.8" height="217.7"/>
			</defs>
			<clipPath id="SVGID_00000034088700523113278430000003894455644583047837_">
				<use xlink:href="#SVGID_00000088096362645082477100000013108118630496279713_"  style="overflow:visible;"/>
			</clipPath>
			<path style="clip-path:url(#SVGID_00000034088700523113278430000003894455644583047837_);fill:#0067B1;" d="M60.9,2.6
				c0-0.3-1.8-0.7-4.2-0.7c-3.9,0-3.4,3.2-6.3,3.2c-3.1,0-2.3-3.4-6.3-3.4c-2.4,0-4.6,0.4-4.6,1c0,0.7,2.8,0.4,2.8,2.4
				c0,2.1-6.1,2.7-6.1,4c0,0.4,0.5,0.6,1.1,0.6c1.3,0,3.4-0.6,4.9-0.6c0.9,0,1.6,0.2,1.6,0.9c0,1.5-3.2,4.2-3.2,5.4
				c0,0.3,0.3,0.5,0.6,0.5c1.2,0,3.2-3,5.1-3c3.2,0,1.1,6.8,2.8,6.8c1.8,0,1.1-6.7,3.6-6.7c2.1,0,3.6,4.6,5.1,4.6
				c0.3,0,0.7-0.3,0.7-0.7c0-1.3-1.8-3.8-1.8-5.5c0-1,0.7-1.5,1.6-1.5c1.4,0,3.2,0.9,4.2,0.9c0.3,0,0.7-0.1,0.7-0.5
				c0-1.5-5.3-3-5.3-4.9C57.9,3.5,60.9,3.5,60.9,2.6 M74.9,8.8c0,1.1,3.8,3.4,5.5,3.4c1,0,1.3-1.4,1.3-2.8c0-1.8-0.8-1.8-2.3-1.8
				C77.4,7.5,74.9,8,74.9,8.8 M81.2,20.6c0-3.6-9.7-10.1-9.8-12.9c0-0.3,0.1-0.5,0.3-0.7c1.6-1.8,8.6-3,8.6-4.6
				c0-0.8-1.5-0.8-2.2-0.8c-5.5,0-13.7,2-13.7,4c0,2,7.3,7,7.3,9.5c0,0.7-0.4,0.9-1.1,0.9c-2,0-6.5-2.4-8.6-2.4
				c-1,0-1.3,0.7-1.3,1.6c0,2.9,3.4,8.3,3.4,10c0,0.2-0.1,0.4-0.3,0.4c-1.1,0-6.1-6-8-6c-0.7,0-0.7,0.9-0.7,2.2v2
				c0,1.4-0.1,2.2-0.7,2.2c-1.6,0-2.3-4.4-3.8-4.4c-1.6,0-1.8,7.8-3.4,7.8c-1.7,0-0.3-8.6-1.9-8.6c-1.8,0-4,5.7-5.3,5.7
				c-0.5,0-0.6-0.5-0.6-0.9c0-1.7,1-4.6,1-6.2c0-0.9-0.3-1.3-1-1.3c-1.8,0-5.9,3-7.5,3c-0.3,0-0.5-0.1-0.5-0.3c0-1.5,6.5-6,6.5-8
				c0-2-9-0.7-9-3c0-1.9,6.4-3.9,6.4-5.9c0-1.7-7.6-2.5-10.6-2.5c-3.6,0-5.5,0.4-5.5,1.5c0,1.6,8,2,8,3.4c0,1.3-8.3,4.9-8.3,6.9
				c0,1.8,11.7,0.1,11.7,2c0,2-10.2,10.8-10.2,13.8c0,0.7,0.5,1,1.1,1c3.1,0,11.2-5.9,13.4-5.9c0.8,0,0.9,0.9,0.9,1.8
				c0,1.6-0.5,4-0.5,5.7c0,1.4,0.3,2.3,1.6,2.3c2.2,0,4.3-3.8,5.7-3.8c1.9,0,0.8,11.1,3.6,11.1c2.4,0,3.5-12,5-12
				c1.6,0,2.8,3.5,4.3,3.5c1.8,0,1-6.1,2.9-6.1c2.1,0,8.1,7.2,10.8,7.2c0.9,0,1.1-0.7,1.1-1.5c0-3.2-4.4-10.4-4.4-12.7
				c0-0.6,0.2-0.8,0.9-0.8c2.3,0,9.2,3.2,12.4,3.2C80.5,21.9,81.2,21.4,81.2,20.6 M26.5,17.1c0,1.2-4.6,5.2-6.1,5.2
				c-0.6,0-0.8-0.7-0.8-1.4c0-1.2,0.5-2.9,1.2-3.4c0.8-0.7,2.6-1.1,4-1.1C25.5,16.5,26.5,16.6,26.5,17.1 M70.5,23.3
				c0,2.1,7.5,12.3,8.9,12.3c1.2,0,2.1-2.1,2.1-3.9c0-0.5-0.1-0.9-0.3-1.3c-1.1-1.5-8.7-7.5-10.4-7.5L70.5,23.3z"/>
		</g>
		<g>
			<defs>
				<rect id="SVGID_00000076587608812248448900000006006306956771647889_" x="1.3" y="1.3" width="196.8" height="217.7"/>
			</defs>
			<clipPath id="SVGID_00000063614205401365841650000007323832580762711720_">
				<use xlink:href="#SVGID_00000076587608812248448900000006006306956771647889_"  style="overflow:visible;"/>
			</clipPath>
			<path style="clip-path:url(#SVGID_00000063614205401365841650000007323832580762711720_);fill:#0067B1;" d="M166.7,5.1
				c0,0.9,0.7,1.5,1.5,1.5c0.9,0,1.5-0.7,1.5-1.5s-0.7-1.5-1.5-1.5C167.4,3.6,166.7,4.3,166.7,5.1 M156.9,18.4
				c0-4.3-10.2-5.3-10.2-6.3c0-0.8,5.7-2.1,8.6-2.2c-4.5-5.7-10.9-5.1-10.9-6.1c0-0.6,4.8-1.8,9.2-1.8c3.7,0,7.2,0.9,7.2,3.6
				c0,1.6-1.3,3.2-1.3,5.6c0,1.3,0.7,2.4,2.4,2.4c1.8,0,2.3-2,2.3-4.1c0-1.7-0.3-3-0.3-3.9c0-2.5,1.7-4.2,4.2-4.2
				c2,0,2.5,0.9,5.5,0.9c-1.6,1-2.2,2.7-2.2,3.6c0,2.5,1.6,4.2,1.6,9.4c0,9.4-8.8,12.8-19.7,12.8c-3,0-6.1-0.3-9.3-0.7
				c-0.5-0.1-0.6-0.2-0.6-0.5c0-0.8,4.3-1.2,4.3-5c0-1.5-0.5-3-0.5-3.5c0-0.3,0.3-0.5,0.5-0.5c0.9,0,2.7,3.5,6.1,3.5
				C154.8,21.4,156.9,21.2,156.9,18.4 M167.1,12.3c0,5.3-3.9,9.4-10.9,10.6c0.8,0.1,1.5,0.1,2.2,0.1c8.2,0,11.2-3.7,11.2-6.8
				C169.6,14.4,168.6,12.8,167.1,12.3"/>
		</g>
		<g>
			<defs>
				<rect id="SVGID_00000128450048450330090460000016823309044056392841_" x="1.3" y="1.3" width="196.8" height="217.7"/>
			</defs>
			<clipPath id="SVGID_00000059310139170430165550000003759046746464813462_">
				<use xlink:href="#SVGID_00000128450048450330090460000016823309044056392841_"  style="overflow:visible;"/>
			</clipPath>
			<path style="clip-path:url(#SVGID_00000059310139170430165550000003759046746464813462_);fill:#0067B1;" d="M162.9,89.6
				c1-3,2.2-5.1,4.1-8.3c-2-1-7.2-3.2-7.2-6.7c0-4.2,5.1-7.4,6.2-7.4c0.5,0,0.6,0.4,0.6,1.2c0,2.2-1.1,5.6-1.1,7.5
				c0,1.6,1.1,3.3,2,3.3s3.8-3.6,3.8-7.1c0-6.3-5.5-8.2-7.3-8.2c-1.6,0-4.6,2.6-11.5,2.6c-12.9,0-15.8-12.7-15.8-18.3
				c0-0.3,0.1-0.3,0.1-0.3c0.3,0,1.6,1.6,5.6,1.6c2.1,0,4-0.5,7.1-0.5c7.2,0,10.4,4.9,14.8,11.3c2.7,1.6,9.1,4.4,9.1,12
				c0,6.7-7.1,10.4-8.8,17.6c2.8-0.3,4.4-5.2,7.2-5.2c1.5,0,2.1,1.1,2.1,3c0,2.6-1.5,6.6-4.4,9c0.1-0.3,0.1-0.5,0.1-0.9
				c0-1.6-0.7-4.1-2.6-4.1c-3,0-4,3.2-5.6,5.9c-1.7-6.1-4.1-11.6-8.2-15c-4.2-3.4-11.5-1.6-11.5-7.8c0-1.7,1.1-4.1,1.1-6
				c0-0.7-0.1-1.3-0.5-1.7c5.7,2.2,3.7,6,7.3,10c2.2,2.5,8.3,4.9,11.9,15.3c0.1-0.3,0.1-1.1,0.1-1.6c0-8.8-11.7-17.5-12.7-21.2
				c6.8,0.8,8,2.4,11.3,11.4C160.8,82.6,162.9,87.3,162.9,89.6 M161.4,60.5c0-1.3-3.2-1.4-3.5-4.9c-0.1-0.5-0.3-1.5-0.9-1.5
				c-1.1,0-0.3,3.3-1.5,3.3c-2.8,0-3.6-5.4-4.7-5.4c-0.3,0-0.5,0.2-0.5,0.9c0,0.7,0.1,1.1,0.1,1.8c0,0.8-0.2,1.3-0.9,1.3
				c-1.6,0-3-3.8-4.4-3.8c-0.3,0-0.6,0.2-0.6,0.5c0,0.7,1.2,2,1.2,2.7c0,1.5-3.9,0.7-3.9,1.8c0,0.5,0.5,0.7,1.3,0.7
				c1.3,0,3.2-0.5,4.3-0.5c0.6,0,1.5,0.1,1.5,0.9c0,0.9-2.2,1.9-2.2,2.7c0,0.3,0.3,0.5,0.7,0.5c1.6,0,4.5-2.8,6.5-2.8
				c0.3,0,1.3,0.2,1.3,0.7c0,0.8-2,2.2-2,3.3c0,0.3,0.2,0.7,0.5,0.7c1.1,0,2.5-2.8,4.6-2.8c0.8,0,1.9,0.3,2.5,0.3
				C161.2,61,161.4,60.7,161.4,60.5"/>
		</g>
		<g>
			<defs>
				<rect id="SVGID_00000132076086877822880010000009436597398382552742_" x="1.3" y="1.3" width="196.8" height="217.7"/>
			</defs>
			<clipPath id="SVGID_00000138569035698568309910000013162075615410352562_">
				<use xlink:href="#SVGID_00000132076086877822880010000009436597398382552742_"  style="overflow:visible;"/>
			</clipPath>
			<path style="clip-path:url(#SVGID_00000138569035698568309910000013162075615410352562_);fill:#0067B1;" d="M116.8,24.6
				c1,0,1.1,2.3,1.3,3.7c0.1,0.7,0.3,0.8,0.5,0.8c0.7,0,1.8-2.8,2.6-2.8c1.1,0,4.2,3.2,9.3,3.2c7.3,0,14.1-5.1,14.1-14.1
				c0-8.7-6.1-13.8-14.6-13.8c-4,0-6.9,2-8.5,2c-0.9,0.1-2.4-2.3-3.1-2.3c-0.3,0-0.6,0.6-0.6,1.6c0,0.7,0,2.8-0.7,2.8
				c-1.5,0-7-4.2-7-2.6c0,1.4,3.7,5.6,3.7,6.7s-3.6,2.1-3.6,2.8c0,1.3,3.9,1.6,3.9,3.2s-4.1,3-4.1,4.2c0,1,4.1,0.3,4.1,1.6
				s-3,5.5-3,6.7c0,0.3,0.1,0.3,0.3,0.3C112.5,28.5,115.9,24.6,116.8,24.6 M118.5,14.8c0-0.7-2.3-1.9-2.3-2.6l0.3-0.2
				c0.7,0,1.8,0.3,2.7,0.3c0.8,0,0.9-3.4,1.5-3.4c0.4,0,1.1,3.2,1.8,3.2c0.8,0,2.2-0.9,2.8-0.9l0.3,0.2c0,0.4-1.5,2-1.5,2.5
				c0,0.5,3.4,1.2,3.4,1.6c0,0.6-3.4,0.5-3.4,1.1c0,0.4,1.3,2.1,1.3,2.6l-0.2,0.2c-0.5,0-2.3-0.9-2.9-0.9c-0.7,0-1.7,2.4-2.2,2.4
				c-0.2,0-0.3-0.3-0.3-0.5l-0.1-2.4c0-0.3-0.1-0.5-0.4-0.5c-0.7,0-2.1-0.1-2.5-0.1c-0.3,0-0.4-0.1-0.4-0.2
				C116.1,16.9,118.5,15.2,118.5,14.8 M130.2,26.2c-4.2,0-6.9-2.1-6.9-3.2c0-0.5,0.3-0.9,0.9-0.9c1.3,0,4.2,2,5.1,2
				c0.3,0,0.4-0.1,0.4-0.5c0-1.1-1-2.9-1-3.8c0-0.3,0.2-0.4,0.5-0.4c1.6,0,4,0.7,5.3,0.7c0.4,0,0.5-0.3,0.5-0.5
				c0-1.3-3.9-3.9-3.9-4.7c0-0.7,4.8-1.8,4.8-2.9c0-1.2-6.6-0.4-6.6-1.5c0-0.9,1.3-2.3,1.3-3c0-0.3-0.3-0.4-0.7-0.4
				c-0.5,0-3.4,1.1-4.6,1.1c-0.6,0-1.3-0.1-1.3-1c0-1.4,2.3-2.9,6-2.9c5.9,0,9.4,4.1,9.4,10.9C139.5,24,133.5,26.2,130.2,26.2"/>
		</g>
		<g>
			<defs>
				<rect id="SVGID_00000057124908447413141590000001541084256847340704_" x="1.3" y="1.3" width="196.8" height="217.7"/>
			</defs>
			<clipPath id="SVGID_00000056405765366332173730000016837930420154533789_">
				<use xlink:href="#SVGID_00000057124908447413141590000001541084256847340704_"  style="overflow:visible;"/>
			</clipPath>
			<path style="clip-path:url(#SVGID_00000056405765366332173730000016837930420154533789_);fill:#0067B1;" d="M89.7,129.8
				c0,0.5-0.2,1.1-0.7,1.7c-0.7-1.2-2.5-1.8-3.4-1.8c-6.1,0-3.8,8.9-10.4,8.9c-2.8,0-3-0.3-4-0.3c-0.4,0-0.7,0.2-0.7,0.5
				c0,1.6,2.2,5.4,8.4,5.4c6.2,0,12.1-3.8,12.1-8.4c0-0.8-0.2-1.6-0.5-2.4c0.3-0.3,0.9-0.6,1.4-0.6c0.9,0,1.5,1.1,2.4,1.1
				c1,0,1.7-0.7,1.7-1.7c0-0.8-0.4-1.3-1.1-1.7c0.5-0.3,0.9-1,0.9-1.6c0-1-0.7-2-1.9-2c-0.5,0-0.9,0.2-1.3,0.6
				c-0.1-1.1-0.7-2.1-1.8-2.1c-0.9,0-1.6,0.7-1.6,1.6C89,128,89.7,128.8,89.7,129.8"/>
		</g>
		<g>
			<defs>
				<rect id="SVGID_00000092417931570819570460000017467650265251753611_" x="1.3" y="1.3" width="196.8" height="217.7"/>
			</defs>
			<clipPath id="SVGID_00000084489515342120522940000016187539032596159661_">
				<use xlink:href="#SVGID_00000092417931570819570460000017467650265251753611_"  style="overflow:visible;"/>
			</clipPath>
			<path style="clip-path:url(#SVGID_00000084489515342120522940000016187539032596159661_);fill:#0067B1;" d="M73.5,132.1
				c-1.8,0-4.5-1.9-4.5-3c0-0.9,0.9-1.4,1.5-1.4c1.5,0,4.2,1.8,4.2,3.4C74.7,131.5,74.4,132.1,73.5,132.1 M56.8,118.7
				c4.8,1.2,7.2,3.8,7.7,6.8c0.5,2.9,1.1,5.3,2.2,6.5c1.5,1.6,4.4,3.2,7,3.2c2.2,0,3.9-0.7,3.9-2.7c0-2.2-2.9-7-7.3-7
				c-0.4,0-0.9,0.1-1.6,0.1c-0.5,0-1.3-0.1-1.8-0.5c-0.9-0.9-1.3-5.3-3-8c-2-3-4.2-3.8-7.1-3.8c-2.1,0-4.4,1.1-4.4,2.8
				C52.4,117,53,117.7,56.8,118.7"/>
		</g>
		<g>
			<defs>
				<rect id="SVGID_00000133499490783993447950000003225738451060128440_" x="1.3" y="1.3" width="196.8" height="217.7"/>
			</defs>
			<clipPath id="SVGID_00000003106280657776083270000014563139083375098506_">
				<use xlink:href="#SVGID_00000133499490783993447950000003225738451060128440_"  style="overflow:visible;"/>
			</clipPath>
			<path style="clip-path:url(#SVGID_00000003106280657776083270000014563139083375098506_);fill:#0067B1;" d="M86.9,111.3
				c0-2.7-5.6-2.8-5.6-6.9c0-1,0.7-2.8,2-4.6c0.5,3.1,1.8,4.7,4.5,5.7c5.3,2,6.1,4.9,6.1,8.2c0,5.4-3.8,12.1-13.5,12.1
				c-7.8,0-13.4-6.9-13.4-12.8c0-1.6,0.4-3.4,1.5-3.4c0.9,0,1.2,0.7,1.9,1.5c2.7,2.7,5.6,3.4,9.9,3.4C84,114.5,86.9,113,86.9,111.3
				 M87.1,115.7c-2,0.9-2.9,0.8-2.9,2.9c0,0.8-0.2,1.8-0.2,2.3c0,0.7,0.1,1.1,1,1.1c2.2,0,5.5-3.6,5.5-6.8c0-0.9-0.5-1.2-1-1.2
				C89.1,114,88.5,115,87.1,115.7 M68,85.4c0-3.8,9.1-5.9,9.1-10.6c0-0.8-0.3-2.2-0.9-3.2c3.2,1.7,5.5,4.7,5.5,7.1
				c0,4.2-4.3,6.1-4.3,8.6c0,3,4.6,3.5,4.6,7.2c0,3-4.4,6.6-4.4,10.6c0,3,2.2,5.5,5.5,6c-1.1,0.3-2,0.4-3,0.4
				c-6.1,0-12.3-4.9-12.3-10.9c0-2.9,1.3-5.5,3.2-7.4c1.6,1.5,3.4,2.4,4.4,2.4c1,0,1.4-0.5,1.4-1.2C76.8,92.2,68,90.2,68,85.4"/>
		</g>
		<g>
			<defs>
				<rect id="SVGID_00000034783043968401592150000003960828762972288181_" x="1.3" y="1.3" width="196.8" height="217.7"/>
			</defs>
			<clipPath id="SVGID_00000149345410247462412110000005926720548931813553_">
				<use xlink:href="#SVGID_00000034783043968401592150000003960828762972288181_"  style="overflow:visible;"/>
			</clipPath>
			<path style="clip-path:url(#SVGID_00000149345410247462412110000005926720548931813553_);fill:#0067B1;" d="M33.2,115
				c0.3,2,2.2,3.6,4.3,3.4c0.8-0.1,1.5-0.3,2-0.6c0.5,1.9,2.1,3.2,4.3,2.8c2.2-0.3,3.7-2,3.5-4.2c-0.1-0.6-0.2-1-0.3-1.4
				c0,0,0.3,0,0.5-0.1c2.2-0.4,3.6-2.1,3.4-4.2c-0.3-2.2-2.2-3.8-4.2-3.5c-0.8,0.1-1.5,0.4-2,0.8c-0.5-1.8-2.2-3.4-4.6-3
				c-2.1,0.3-3.4,2.1-3.2,4.4c0.1,0.4,0.1,0.8,0.3,1.2c0,0-0.3,0.1-0.6,0.1C34.9,110.9,33,112.7,33.2,115 M44.5,112.7
				c0.1,1.3-0.7,2.4-2,2.5s-2.4-0.7-2.5-2c-0.1-1.3,0.7-2.4,2-2.5C43.2,110.5,44.3,111.4,44.5,112.7"/>
		</g>
	</g>
</g>
</svg>
