<?xml version="1.0" encoding="UTF-8"?>
<svg id="Layer_1" data-name="Layer 1" xmlns="http://www.w3.org/2000/svg" xmlns:xlink="http://www.w3.org/1999/xlink" version="1.1" viewBox="0 0 175 75">
  <defs>
    <style>
      .cls-1 {
        fill: #e4e5e6;
      }

      .cls-1, .cls-2, .cls-3, .cls-4, .cls-5, .cls-6, .cls-7, .cls-8, .cls-9, .cls-10, .cls-11, .cls-12, .cls-13, .cls-14, .cls-15, .cls-16, .cls-17, .cls-18, .cls-19, .cls-20, .cls-21, .cls-22, .cls-23, .cls-24, .cls-25, .cls-26, .cls-27, .cls-28, .cls-29, .cls-30, .cls-31, .cls-32, .cls-33 {
        stroke-width: 0px;
      }

      .cls-2 {
        fill: #e2e2e3;
      }

      .cls-3 {
        fill: #c8c9cb;
      }

      .cls-4 {
        fill: #e7e7e8;
      }

      .cls-5 {
        fill: #f1f1f2;
      }

      .cls-34 {
        clip-path: url(#clippath);
      }

      .cls-6, .cls-35 {
        fill: none;
      }

      .cls-7 {
        fill: url(#linear-gradient);
      }

      .cls-8 {
        fill: #d5d6d7;
      }

      .cls-9 {
        fill: #00ac84;
      }

      .cls-35 {
        stroke: #00ac84;
        stroke-linecap: round;
        stroke-miterlimit: 10;
        stroke-width: .6px;
      }

      .cls-10 {
        fill: #d2d3d5;
      }

      .cls-11 {
        fill: #dcdddf;
      }

      .cls-12 {
        fill: #dadbdc;
      }

      .cls-13 {
        fill: #801517;
      }

      .cls-14 {
        fill: #c5c7c9;
      }

      .cls-15 {
        fill: #ef5158;
      }

      .cls-36 {
        clip-path: url(#clippath-1);
      }

      .cls-16 {
        fill: #e9eaeb;
      }

      .cls-17 {
        fill: #d0d1d2;
      }

      .cls-18 {
        fill: #bebfc1;
      }

      .cls-19 {
        fill: #c0c2c4;
      }

      .cls-37 {
        opacity: .5;
      }

      .cls-20 {
        fill: #caccce;
      }

      .cls-21 {
        fill: url(#linear-gradient-4);
      }

      .cls-22 {
        fill: url(#linear-gradient-2);
      }

      .cls-23 {
        fill: url(#linear-gradient-3);
      }

      .cls-24 {
        fill: #bbbdbf;
      }

      .cls-25, .cls-38 {
        fill: #ec1c24;
      }

      .cls-26 {
        fill: #cb2127;
      }

      .cls-27 {
        fill: #dfe0e1;
      }

      .cls-28 {
        fill: #d7d8da;
      }

      .cls-39, .cls-38 {
        isolation: isolate;
      }

      .cls-38 {
        font-family: NeutraDisp-Titling, 'Neutra Display';
        font-size: 3.2px;
        font-style: italic;
        letter-spacing: .7em;
      }

      .cls-29 {
        fill: #c3c4c6;
      }

      .cls-30 {
        fill: #eeeff0;
      }

      .cls-31 {
        fill: #cdced0;
      }

      .cls-32 {
        fill: #fff;
      }

      .cls-33 {
        fill: #ececed;
      }
    </style>
    <clipPath id="clippath">
      <rect class="cls-6" x="0" y="-.4" width="155.5" height="74.6"/>
    </clipPath>
    <clipPath id="clippath-1">
      <rect class="cls-6" x="0" y="-.4" width="155.5" height="74.6"/>
    </clipPath>
    <linearGradient id="linear-gradient" x1="158.6" y1="10.2" x2="158.6" y2="54.6" gradientTransform="translate(0 75) scale(1 -1)" gradientUnits="userSpaceOnUse">
      <stop offset="0" stop-color="#ec1c24"/>
      <stop offset="1" stop-color="#f4969d"/>
    </linearGradient>
    <linearGradient id="linear-gradient-2" x1="158.6" y1="10.4" x2="158.6" y2="54.5" gradientTransform="translate(0 75) scale(1 -1)" gradientUnits="userSpaceOnUse">
      <stop offset="0" stop-color="#b12125"/>
      <stop offset="1" stop-color="#ec1c24"/>
    </linearGradient>
    <linearGradient id="linear-gradient-3" x1="158.6" y1="27.8" x2="158.6" y2="51.3" gradientTransform="translate(0 75) scale(1 -1)" gradientUnits="userSpaceOnUse">
      <stop offset="0" stop-color="#f05b61"/>
      <stop offset="1" stop-color="#b12125"/>
    </linearGradient>
    <linearGradient id="linear-gradient-4" x1="158.6" y1="27.9" x2="158.6" y2="51.2" gradientTransform="translate(0 75) scale(1 -1)" gradientUnits="userSpaceOnUse">
      <stop offset="0" stop-color="#ec1c24"/>
      <stop offset="1" stop-color="#981e21"/>
    </linearGradient>
  </defs>
  <g id="Layer_1-2" data-name="Layer 1">
    <g>
      <g>
        <g class="cls-37">
          <g class="cls-34">
            <g class="cls-36">
              <image class="cls-39" width="468" height="225" transform="translate(0 -.5) scale(.3)" xlink:href="903F8EA92DFF9BDF.png"/>
            </g>
          </g>
        </g>
        <g>
          <path class="cls-32" d="M17.6,23.1v9.4h-3.7v-9.4h-3.3v-3.1h10.1l.5,3.1h-3.6Z"/>
          <path class="cls-32" d="M30.5,32.5v-4.8h-3.5v4.8h-3.7v-12.5h3.7v4.5h3.5v-4.5h3.7v12.5h-3.7Z"/>
          <path class="cls-32" d="M37.1,32.5v-12.5h8.2v2.9h-4.6v1.7h3.5l.5,3h-4v2h4.8v2.9h-8.4Z"/>
        </g>
        <polygon class="cls-32" points="77.4 32.3 77.4 9.4 92.5 9.4 92.5 14.7 84.1 14.7 84.1 17.8 90.5 17.8 91.3 23.3 84.1 23.3 84.1 27.1 92.8 27.1 92.8 32.3 77.4 32.3"/>
        <path class="cls-32" d="M102.6,32.3h-6.8s6.9-11.5,6.9-11.5l-6.4-11.3h7.3c0-.1,3.5,6.1,3.5,6.1l3.3-6.2h6.9l-6.4,10.7,6.9,12.3h-7.3c0,.1-4-7.1-4-7.1,0,0-3.8,7-3.8,7"/>
        <polygon class="cls-32" points="132.5 15.1 132.5 32.3 125.7 32.3 125.7 15.1 119.7 15.1 119.7 9.4 138.1 9.4 139 15.1 132.5 15.1"/>
        <path class="cls-32" d="M74.3,9.5c0,0-.2-.1-.2-.1h-5.4c-.2,0-.3.1-.3.3h0c0,.6-.1,1.4-.4,2.8l-.2,1v.6c-.1,0-2.1,9.7-2.1,9.7L56.5,2.6c0-.1-.2-.2-.3-.2s-.2.1-.3.2l-5.4,25.4v.3c-.7,2.7-.8,3.2-1.1,3.9,0,0,0,.2,0,.3s.2.1.2.1h5.4c.2,0,.3-.1.3-.3,0-.8.1-1.3.4-2.7l.3-1.6,1.8-9.1c1.2,3.2,5.1,13.1,5.3,13.5,0,.1.2.2.3.2h5.6c.1,0,.3-.1.3-.2.5-2.3,4-18.9,4-18.9.5-2.6.6-3,.9-3.7,0,0,0-.2,0-.3"/>
        <path class="cls-35" d="M7.6,20.5h-3.5c-.5,0-.8.4-.8.8v25.2c0,10.4,8.4,18.8,18.8,18.8h107.1c10.4,0,18.8-8.4,18.8-18.8v-25.2c0-.5-.4-.8-.8-.8h-4.9"/>
        <g>
          <path class="cls-32" d="M77.4,58.4v-14.2l-4.5,1.8-.9-6.1,6.3-3.1h6.5v21.5h-7.4Z"/>
          <path class="cls-32" d="M99.5,58.9c-6,0-10.4-4.2-10.4-11.1s4.4-11.2,10.4-11.2c6,0,10.4,4.2,10.4,11.2,0,6.9-4.4,11.2-10.3,11.2ZM99.5,42.5c-1.7,0-3.1,1.3-3.1,5.2s1.5,5.2,3.1,5.2,3.1-1.3,3.1-5.2c0-4-1.5-5.2-3.1-5.2Z"/>
          <path class="cls-32" d="M123.3,58.9c-6,0-10.4-4.2-10.4-11.1s4.4-11.2,10.4-11.2c6,0,10.4,4.2,10.4,11.2,0,6.9-4.4,11.2-10.3,11.2ZM123.3,42.5c-1.7,0-3.1,1.3-3.1,5.2s1.5,5.2,3.1,5.2,3.1-1.3,3.1-5.2-1.5-5.3-3.1-5.2Z"/>
        </g>
        <polygon class="cls-9" points="19.4 47.6 10.7 39.4 20 39.4 28.7 47.6 20 55.9 10.7 55.9 19.4 47.6"/>
        <polygon class="cls-9" points="32 47.6 23.3 39.4 32.7 39.4 41.3 47.6 32.7 55.9 23.3 55.9 32 47.6"/>
        <polygon class="cls-9" points="44.6 47.6 35.9 39.4 45.3 39.4 53.9 47.6 45.3 55.9 36 55.9 44.6 47.6"/>
        <polygon class="cls-9" points="57.2 47.6 48.6 39.4 57.9 39.4 66.5 47.6 57.9 55.9 48.6 55.9 57.2 47.6"/>
      </g>
      <g>
        <g>
          <path class="cls-7" d="M174.2,35.7c-.2-8.5-7.1-15.3-15.6-15.3s-15.6,7-15.6,15.6,0,1.7.2,2.3h0c1.8,12,15.5,26.5,15.5,26.5,0,0,12.5-11.5,15.2-25,.3-1.2.5-4.1.5-4.1Z"/>
          <path class="cls-22" d="M158.6,64.6c-.6-.6-3.7-4-7-8.6-3.3-4.6-7.4-11.5-8.4-17.6h0c0-.6-.2-2.2-.2-2.4,0-8.5,7-15.5,15.5-15.5s8,1.6,10.9,4.4c2.9,2.8,4.6,6.7,4.6,10.7,0,.2-.2,2.9-.5,4.1-1.4,6.9-5.4,13.3-8.5,17.5-3.1,4.1-6,6.9-6.5,7.4Z"/>
          <circle class="cls-23" cx="158.6" cy="35.4" r="11.7"/>
          <path class="cls-21" d="M158.6,47.1c-6.4,0-11.6-5.2-11.6-11.6s5.2-11.6,11.6-11.6,11.6,5.2,11.6,11.6c0,6.4-5.2,11.6-11.6,11.6Z"/>
          <path class="cls-13" d="M158.6,46.3c-6,0-10.9-4.9-10.9-10.9s4.9-10.9,10.9-10.9,10.9,4.9,10.9,10.9-4.9,10.9-10.9,10.9Z"/>
          <g>
            <path class="cls-24" d="M158.6,46.2c-5.9,0-10.7-4.8-10.7-10.7s4.8-10.7,10.7-10.7,10.7,4.8,10.7,10.7-4.8,10.7-10.7,10.7Z"/>
            <path class="cls-18" d="M158.6,46.1c-5.9,0-10.7-4.8-10.7-10.7s4.8-10.7,10.7-10.7,10.7,4.8,10.7,10.7-4.8,10.7-10.7,10.7Z"/>
            <path class="cls-19" d="M158.6,46.1c-5.9,0-10.7-4.8-10.7-10.7s4.8-10.7,10.7-10.7,10.7,4.8,10.7,10.7-4.8,10.7-10.7,10.7Z"/>
            <path class="cls-29" d="M158.6,46.1c-5.9,0-10.6-4.8-10.6-10.6s4.8-10.6,10.6-10.6,10.6,4.8,10.6,10.6c0,5.9-4.8,10.6-10.6,10.6Z"/>
            <path class="cls-14" d="M158.6,46c-5.9,0-10.6-4.8-10.6-10.6s4.8-10.6,10.6-10.6,10.6,4.8,10.6,10.6-4.8,10.6-10.6,10.6Z"/>
            <path class="cls-3" d="M158.6,46c-5.8,0-10.6-4.7-10.6-10.6s4.7-10.6,10.6-10.6,10.6,4.7,10.6,10.6c0,5.8-4.7,10.6-10.6,10.6Z"/>
            <path class="cls-20" d="M158.6,46c-5.8,0-10.5-4.7-10.5-10.5s4.7-10.5,10.5-10.5,10.5,4.7,10.5,10.5-4.7,10.5-10.5,10.5Z"/>
            <path class="cls-31" d="M158.6,45.9c-5.8,0-10.5-4.7-10.5-10.5s4.7-10.5,10.5-10.5,10.5,4.7,10.5,10.5c0,5.8-4.7,10.5-10.5,10.5Z"/>
            <path class="cls-17" d="M158.6,45.9c-5.8,0-10.5-4.7-10.5-10.5s4.7-10.5,10.5-10.5,10.5,4.7,10.5,10.5-4.7,10.5-10.5,10.5Z"/>
            <path class="cls-10" d="M158.6,45.8c-5.7,0-10.4-4.7-10.4-10.4s4.7-10.4,10.4-10.4,10.4,4.7,10.4,10.4c0,5.7-4.7,10.4-10.4,10.4Z"/>
            <path class="cls-8" d="M158.6,45.8c-5.7,0-10.4-4.6-10.4-10.4s4.6-10.4,10.4-10.4,10.4,4.6,10.4,10.4-4.7,10.4-10.4,10.4Z"/>
            <path class="cls-28" d="M158.6,45.8c-5.7,0-10.3-4.6-10.3-10.3s4.6-10.3,10.3-10.3,10.3,4.6,10.3,10.3-4.6,10.3-10.3,10.3Z"/>
            <path class="cls-12" d="M158.6,45.7c-5.7,0-10.3-4.6-10.3-10.3s4.6-10.3,10.3-10.3,10.3,4.6,10.3,10.3-4.6,10.3-10.3,10.3Z"/>
            <path class="cls-11" d="M158.6,45.7c-5.7,0-10.3-4.6-10.3-10.3s4.6-10.3,10.3-10.3,10.3,4.6,10.3,10.3c0,5.7-4.6,10.3-10.3,10.3Z"/>
            <path class="cls-27" d="M158.6,45.7c-5.6,0-10.2-4.6-10.2-10.2s4.6-10.2,10.2-10.2,10.2,4.6,10.2,10.2c0,5.6-4.6,10.2-10.2,10.2Z"/>
            <path class="cls-2" d="M158.6,45.6c-5.6,0-10.2-4.6-10.2-10.2s4.6-10.2,10.2-10.2,10.2,4.6,10.2,10.2-4.6,10.2-10.2,10.2Z"/>
            <path class="cls-1" d="M158.6,45.6c-5.6,0-10.2-4.6-10.2-10.2s4.6-10.2,10.2-10.2,10.2,4.6,10.2,10.2-4.6,10.2-10.2,10.2Z"/>
            <path class="cls-4" d="M158.6,45.5c-5.6,0-10.1-4.5-10.1-10.1s4.5-10.1,10.1-10.1,10.1,4.5,10.1,10.1-4.5,10.1-10.1,10.1Z"/>
            <path class="cls-16" d="M158.6,45.5c-5.6,0-10.1-4.5-10.1-10.1s4.5-10.1,10.1-10.1,10.1,4.5,10.1,10.1c0,5.6-4.5,10.1-10.1,10.1Z"/>
            <path class="cls-33" d="M158.6,45.5c-5.6,0-10.1-4.5-10.1-10.1s4.5-10.1,10.1-10.1,10.1,4.5,10.1,10.1-4.5,10.1-10.1,10.1Z"/>
            <path class="cls-30" d="M158.6,45.4c-5.5,0-10-4.5-10-10s4.5-10,10-10,10,4.5,10,10c0,5.5-4.5,10-10,10Z"/>
            <path class="cls-5" d="M158.6,45.4c-5.5,0-10-4.5-10-10s4.5-10,10-10,10,4.5,10,10-4.5,10-10,10Z"/>
          </g>
          <path class="cls-15" d="M158.6,21.7c8,0,14.4,6.3,14.6,14.2v-.4c0-8.1-6.6-14.7-14.7-14.7s-14.7,6.6-14.7,14.7v.4c.3-7.9,6.7-14.2,14.7-14.2Z"/>
          <path class="cls-32" d="M158.6,45.4c5.6,0,10.2-4.5,10.3-10.1v.2c0,5.7-4.6,10.3-10.3,10.3s-10.3-4.6-10.3-10.3v-.2c.1,5.6,4.6,10.1,10.3,10.1Z"/>
          <path class="cls-32" d="M165.1,30.8c0,3-2.9,5.4-6.5,5.4s-6.5-2.4-6.5-5.4,2.9-5.4,6.5-5.4,6.5,2.4,6.5,5.4Z"/>
          <path class="cls-26" d="M158.5,50.8c-4.7,0-9-2-12-5.1,1.6,3.7,3.8,7.3,5.8,10.1,2.9,4.1,5.7,7.1,6.2,7.7.5-.5,3-2.9,5.8-6.5,2.2-2.8,4.8-6.9,6.4-11.4-3.1,3.3-7.4,5.3-12.3,5.3Z"/>
        </g>
        <g>
          <g>
            <path class="cls-25" d="M158,39.2v-10.1h2.6c.6,0,1.1.5,1.1,1.1v4.3c0,.6-.5,1.1-1.1,1.1h-1.5v3.7h-1.1ZM159.1,34.6h1.3c.1,0,.2-.1.2-.2v-4.1c0-.1-.1-.2-.2-.2h-1.3v4.5Z"/>
            <path class="cls-25" d="M163.4,39.2c-.6,0-1.1-.5-1.1-1.1v-8c0-.6.5-1.1,1.1-1.1h2.5l-.2,1h-2.1c-.1,0-.2.1-.2.2v7.8c0,.1.1.2.2.2h1.1c.1,0,.2-.1.2-.2v-4.5l1.1-.2v4.7c0,.6-.5,1.1-1.1,1.1h-1.5Z"/>
            <path class="cls-25" d="M155,39.2c-.2,0-.5,0-.7-.2h0s0,0,0,0c-.2.1-.4.2-.7.2h-1.1c-.6,0-1.2-.5-1.2-1.2v-8.9h1.1v8.9c0,.1.1.2.2.2h1c.1,0,.2-.1.2-.2v-8.9h1.1v8.9c0,.1.1.2.2.2h1c.1,0,.2-.1.2-.2v-8.9h1.1v8.9c0,.6-.5,1.2-1.2,1.2h-1.1Z"/>
          </g>
          <text class="cls-38" transform="translate(151.2 42.1)"><tspan x="0" y="0">2024</tspan></text>
        </g>
      </g>
    </g>
  </g>
</svg>